%TF.GenerationSoftware,KiCad,Pcbnew,(5.1.6-0-10_14)*%
%TF.CreationDate,2021-04-25T16:08:19+02:00*%
%TF.ProjectId,ControlUnit,436f6e74-726f-46c5-956e-69742e6b6963,rev?*%
%TF.SameCoordinates,Original*%
%TF.FileFunction,Paste,Bot*%
%TF.FilePolarity,Positive*%
%FSLAX46Y46*%
G04 Gerber Fmt 4.6, Leading zero omitted, Abs format (unit mm)*
G04 Created by KiCad (PCBNEW (5.1.6-0-10_14)) date 2021-04-25 16:08:19*
%MOMM*%
%LPD*%
G01*
G04 APERTURE LIST*
%ADD10R,2.500000X1.000000*%
%ADD11R,2.200000X1.050000*%
%ADD12R,1.050000X1.000000*%
%ADD13R,2.000000X1.500000*%
%ADD14R,2.000000X3.800000*%
%ADD15R,2.180000X2.120000*%
%ADD16R,0.800000X0.900000*%
G04 APERTURE END LIST*
D10*
%TO.C,U4*%
X105454000Y-84948000D03*
X105454000Y-86948000D03*
X105454000Y-88948000D03*
X105454000Y-90948000D03*
X105454000Y-92948000D03*
X105454000Y-94948000D03*
X105454000Y-96948000D03*
X105454000Y-98948000D03*
X123654000Y-98948000D03*
X123654000Y-96948000D03*
X123654000Y-94948000D03*
X123654000Y-92948000D03*
X123654000Y-90948000D03*
X123654000Y-88948000D03*
X123654000Y-86948000D03*
X123654000Y-84948000D03*
%TD*%
%TO.C,J13*%
X128725000Y-85100000D03*
X128725000Y-82560000D03*
%TD*%
%TO.C,R2*%
G36*
G01*
X127512500Y-74556250D02*
X127512500Y-73643750D01*
G75*
G02*
X127756250Y-73400000I243750J0D01*
G01*
X128243750Y-73400000D01*
G75*
G02*
X128487500Y-73643750I0J-243750D01*
G01*
X128487500Y-74556250D01*
G75*
G02*
X128243750Y-74800000I-243750J0D01*
G01*
X127756250Y-74800000D01*
G75*
G02*
X127512500Y-74556250I0J243750D01*
G01*
G37*
G36*
G01*
X129387500Y-74556250D02*
X129387500Y-73643750D01*
G75*
G02*
X129631250Y-73400000I243750J0D01*
G01*
X130118750Y-73400000D01*
G75*
G02*
X130362500Y-73643750I0J-243750D01*
G01*
X130362500Y-74556250D01*
G75*
G02*
X130118750Y-74800000I-243750J0D01*
G01*
X129631250Y-74800000D01*
G75*
G02*
X129387500Y-74556250I0J243750D01*
G01*
G37*
%TD*%
%TO.C,C2*%
G36*
G01*
X121925000Y-69943750D02*
X121925000Y-70856250D01*
G75*
G02*
X121681250Y-71100000I-243750J0D01*
G01*
X121193750Y-71100000D01*
G75*
G02*
X120950000Y-70856250I0J243750D01*
G01*
X120950000Y-69943750D01*
G75*
G02*
X121193750Y-69700000I243750J0D01*
G01*
X121681250Y-69700000D01*
G75*
G02*
X121925000Y-69943750I0J-243750D01*
G01*
G37*
G36*
G01*
X120050000Y-69943750D02*
X120050000Y-70856250D01*
G75*
G02*
X119806250Y-71100000I-243750J0D01*
G01*
X119318750Y-71100000D01*
G75*
G02*
X119075000Y-70856250I0J243750D01*
G01*
X119075000Y-69943750D01*
G75*
G02*
X119318750Y-69700000I243750J0D01*
G01*
X119806250Y-69700000D01*
G75*
G02*
X120050000Y-69943750I0J-243750D01*
G01*
G37*
%TD*%
%TO.C,C3*%
G36*
G01*
X120950000Y-75206250D02*
X120950000Y-74293750D01*
G75*
G02*
X121193750Y-74050000I243750J0D01*
G01*
X121681250Y-74050000D01*
G75*
G02*
X121925000Y-74293750I0J-243750D01*
G01*
X121925000Y-75206250D01*
G75*
G02*
X121681250Y-75450000I-243750J0D01*
G01*
X121193750Y-75450000D01*
G75*
G02*
X120950000Y-75206250I0J243750D01*
G01*
G37*
G36*
G01*
X119075000Y-75206250D02*
X119075000Y-74293750D01*
G75*
G02*
X119318750Y-74050000I243750J0D01*
G01*
X119806250Y-74050000D01*
G75*
G02*
X120050000Y-74293750I0J-243750D01*
G01*
X120050000Y-75206250D01*
G75*
G02*
X119806250Y-75450000I-243750J0D01*
G01*
X119318750Y-75450000D01*
G75*
G02*
X119075000Y-75206250I0J243750D01*
G01*
G37*
%TD*%
%TO.C,C5*%
G36*
G01*
X133650000Y-98095750D02*
X133650000Y-99008250D01*
G75*
G02*
X133406250Y-99252000I-243750J0D01*
G01*
X132918750Y-99252000D01*
G75*
G02*
X132675000Y-99008250I0J243750D01*
G01*
X132675000Y-98095750D01*
G75*
G02*
X132918750Y-97852000I243750J0D01*
G01*
X133406250Y-97852000D01*
G75*
G02*
X133650000Y-98095750I0J-243750D01*
G01*
G37*
G36*
G01*
X135525000Y-98095750D02*
X135525000Y-99008250D01*
G75*
G02*
X135281250Y-99252000I-243750J0D01*
G01*
X134793750Y-99252000D01*
G75*
G02*
X134550000Y-99008250I0J243750D01*
G01*
X134550000Y-98095750D01*
G75*
G02*
X134793750Y-97852000I243750J0D01*
G01*
X135281250Y-97852000D01*
G75*
G02*
X135525000Y-98095750I0J-243750D01*
G01*
G37*
%TD*%
%TO.C,C6*%
G36*
G01*
X136625000Y-89043750D02*
X136625000Y-89956250D01*
G75*
G02*
X136381250Y-90200000I-243750J0D01*
G01*
X135893750Y-90200000D01*
G75*
G02*
X135650000Y-89956250I0J243750D01*
G01*
X135650000Y-89043750D01*
G75*
G02*
X135893750Y-88800000I243750J0D01*
G01*
X136381250Y-88800000D01*
G75*
G02*
X136625000Y-89043750I0J-243750D01*
G01*
G37*
G36*
G01*
X134750000Y-89043750D02*
X134750000Y-89956250D01*
G75*
G02*
X134506250Y-90200000I-243750J0D01*
G01*
X134018750Y-90200000D01*
G75*
G02*
X133775000Y-89956250I0J243750D01*
G01*
X133775000Y-89043750D01*
G75*
G02*
X134018750Y-88800000I243750J0D01*
G01*
X134506250Y-88800000D01*
G75*
G02*
X134750000Y-89043750I0J-243750D01*
G01*
G37*
%TD*%
%TO.C,C11*%
G36*
G01*
X122750000Y-100643750D02*
X122750000Y-101556250D01*
G75*
G02*
X122506250Y-101800000I-243750J0D01*
G01*
X122018750Y-101800000D01*
G75*
G02*
X121775000Y-101556250I0J243750D01*
G01*
X121775000Y-100643750D01*
G75*
G02*
X122018750Y-100400000I243750J0D01*
G01*
X122506250Y-100400000D01*
G75*
G02*
X122750000Y-100643750I0J-243750D01*
G01*
G37*
G36*
G01*
X124625000Y-100643750D02*
X124625000Y-101556250D01*
G75*
G02*
X124381250Y-101800000I-243750J0D01*
G01*
X123893750Y-101800000D01*
G75*
G02*
X123650000Y-101556250I0J243750D01*
G01*
X123650000Y-100643750D01*
G75*
G02*
X123893750Y-100400000I243750J0D01*
G01*
X124381250Y-100400000D01*
G75*
G02*
X124625000Y-100643750I0J-243750D01*
G01*
G37*
%TD*%
%TO.C,C12*%
G36*
G01*
X115650000Y-100543750D02*
X115650000Y-101456250D01*
G75*
G02*
X115406250Y-101700000I-243750J0D01*
G01*
X114918750Y-101700000D01*
G75*
G02*
X114675000Y-101456250I0J243750D01*
G01*
X114675000Y-100543750D01*
G75*
G02*
X114918750Y-100300000I243750J0D01*
G01*
X115406250Y-100300000D01*
G75*
G02*
X115650000Y-100543750I0J-243750D01*
G01*
G37*
G36*
G01*
X117525000Y-100543750D02*
X117525000Y-101456250D01*
G75*
G02*
X117281250Y-101700000I-243750J0D01*
G01*
X116793750Y-101700000D01*
G75*
G02*
X116550000Y-101456250I0J243750D01*
G01*
X116550000Y-100543750D01*
G75*
G02*
X116793750Y-100300000I243750J0D01*
G01*
X117281250Y-100300000D01*
G75*
G02*
X117525000Y-100543750I0J-243750D01*
G01*
G37*
%TD*%
%TO.C,C13*%
G36*
G01*
X134656250Y-57325000D02*
X133743750Y-57325000D01*
G75*
G02*
X133500000Y-57081250I0J243750D01*
G01*
X133500000Y-56593750D01*
G75*
G02*
X133743750Y-56350000I243750J0D01*
G01*
X134656250Y-56350000D01*
G75*
G02*
X134900000Y-56593750I0J-243750D01*
G01*
X134900000Y-57081250D01*
G75*
G02*
X134656250Y-57325000I-243750J0D01*
G01*
G37*
G36*
G01*
X134656250Y-55450000D02*
X133743750Y-55450000D01*
G75*
G02*
X133500000Y-55206250I0J243750D01*
G01*
X133500000Y-54718750D01*
G75*
G02*
X133743750Y-54475000I243750J0D01*
G01*
X134656250Y-54475000D01*
G75*
G02*
X134900000Y-54718750I0J-243750D01*
G01*
X134900000Y-55206250D01*
G75*
G02*
X134656250Y-55450000I-243750J0D01*
G01*
G37*
%TD*%
%TO.C,C14*%
G36*
G01*
X121443750Y-58275000D02*
X122356250Y-58275000D01*
G75*
G02*
X122600000Y-58518750I0J-243750D01*
G01*
X122600000Y-59006250D01*
G75*
G02*
X122356250Y-59250000I-243750J0D01*
G01*
X121443750Y-59250000D01*
G75*
G02*
X121200000Y-59006250I0J243750D01*
G01*
X121200000Y-58518750D01*
G75*
G02*
X121443750Y-58275000I243750J0D01*
G01*
G37*
G36*
G01*
X121443750Y-60150000D02*
X122356250Y-60150000D01*
G75*
G02*
X122600000Y-60393750I0J-243750D01*
G01*
X122600000Y-60881250D01*
G75*
G02*
X122356250Y-61125000I-243750J0D01*
G01*
X121443750Y-61125000D01*
G75*
G02*
X121200000Y-60881250I0J243750D01*
G01*
X121200000Y-60393750D01*
G75*
G02*
X121443750Y-60150000I243750J0D01*
G01*
G37*
%TD*%
%TO.C,C16*%
G36*
G01*
X127243750Y-58275000D02*
X128156250Y-58275000D01*
G75*
G02*
X128400000Y-58518750I0J-243750D01*
G01*
X128400000Y-59006250D01*
G75*
G02*
X128156250Y-59250000I-243750J0D01*
G01*
X127243750Y-59250000D01*
G75*
G02*
X127000000Y-59006250I0J243750D01*
G01*
X127000000Y-58518750D01*
G75*
G02*
X127243750Y-58275000I243750J0D01*
G01*
G37*
G36*
G01*
X127243750Y-60150000D02*
X128156250Y-60150000D01*
G75*
G02*
X128400000Y-60393750I0J-243750D01*
G01*
X128400000Y-60881250D01*
G75*
G02*
X128156250Y-61125000I-243750J0D01*
G01*
X127243750Y-61125000D01*
G75*
G02*
X127000000Y-60881250I0J243750D01*
G01*
X127000000Y-60393750D01*
G75*
G02*
X127243750Y-60150000I243750J0D01*
G01*
G37*
%TD*%
D11*
%TO.C,J4*%
X101525000Y-95525000D03*
D12*
X103050000Y-97000000D03*
D11*
X101525000Y-98475000D03*
%TD*%
%TO.C,J5*%
X146975000Y-58525000D03*
D12*
X145450000Y-60000000D03*
D11*
X146975000Y-61475000D03*
%TD*%
%TO.C,R1*%
G36*
G01*
X129350000Y-76456250D02*
X129350000Y-75543750D01*
G75*
G02*
X129593750Y-75300000I243750J0D01*
G01*
X130081250Y-75300000D01*
G75*
G02*
X130325000Y-75543750I0J-243750D01*
G01*
X130325000Y-76456250D01*
G75*
G02*
X130081250Y-76700000I-243750J0D01*
G01*
X129593750Y-76700000D01*
G75*
G02*
X129350000Y-76456250I0J243750D01*
G01*
G37*
G36*
G01*
X127475000Y-76456250D02*
X127475000Y-75543750D01*
G75*
G02*
X127718750Y-75300000I243750J0D01*
G01*
X128206250Y-75300000D01*
G75*
G02*
X128450000Y-75543750I0J-243750D01*
G01*
X128450000Y-76456250D01*
G75*
G02*
X128206250Y-76700000I-243750J0D01*
G01*
X127718750Y-76700000D01*
G75*
G02*
X127475000Y-76456250I0J243750D01*
G01*
G37*
%TD*%
%TO.C,R4*%
G36*
G01*
X113041500Y-76505750D02*
X113041500Y-77418250D01*
G75*
G02*
X112797750Y-77662000I-243750J0D01*
G01*
X112310250Y-77662000D01*
G75*
G02*
X112066500Y-77418250I0J243750D01*
G01*
X112066500Y-76505750D01*
G75*
G02*
X112310250Y-76262000I243750J0D01*
G01*
X112797750Y-76262000D01*
G75*
G02*
X113041500Y-76505750I0J-243750D01*
G01*
G37*
G36*
G01*
X111166500Y-76505750D02*
X111166500Y-77418250D01*
G75*
G02*
X110922750Y-77662000I-243750J0D01*
G01*
X110435250Y-77662000D01*
G75*
G02*
X110191500Y-77418250I0J243750D01*
G01*
X110191500Y-76505750D01*
G75*
G02*
X110435250Y-76262000I243750J0D01*
G01*
X110922750Y-76262000D01*
G75*
G02*
X111166500Y-76505750I0J-243750D01*
G01*
G37*
%TD*%
%TO.C,R5*%
G36*
G01*
X111166500Y-74219750D02*
X111166500Y-75132250D01*
G75*
G02*
X110922750Y-75376000I-243750J0D01*
G01*
X110435250Y-75376000D01*
G75*
G02*
X110191500Y-75132250I0J243750D01*
G01*
X110191500Y-74219750D01*
G75*
G02*
X110435250Y-73976000I243750J0D01*
G01*
X110922750Y-73976000D01*
G75*
G02*
X111166500Y-74219750I0J-243750D01*
G01*
G37*
G36*
G01*
X113041500Y-74219750D02*
X113041500Y-75132250D01*
G75*
G02*
X112797750Y-75376000I-243750J0D01*
G01*
X112310250Y-75376000D01*
G75*
G02*
X112066500Y-75132250I0J243750D01*
G01*
X112066500Y-74219750D01*
G75*
G02*
X112310250Y-73976000I243750J0D01*
G01*
X112797750Y-73976000D01*
G75*
G02*
X113041500Y-74219750I0J-243750D01*
G01*
G37*
%TD*%
%TO.C,R6*%
G36*
G01*
X113041500Y-71933750D02*
X113041500Y-72846250D01*
G75*
G02*
X112797750Y-73090000I-243750J0D01*
G01*
X112310250Y-73090000D01*
G75*
G02*
X112066500Y-72846250I0J243750D01*
G01*
X112066500Y-71933750D01*
G75*
G02*
X112310250Y-71690000I243750J0D01*
G01*
X112797750Y-71690000D01*
G75*
G02*
X113041500Y-71933750I0J-243750D01*
G01*
G37*
G36*
G01*
X111166500Y-71933750D02*
X111166500Y-72846250D01*
G75*
G02*
X110922750Y-73090000I-243750J0D01*
G01*
X110435250Y-73090000D01*
G75*
G02*
X110191500Y-72846250I0J243750D01*
G01*
X110191500Y-71933750D01*
G75*
G02*
X110435250Y-71690000I243750J0D01*
G01*
X110922750Y-71690000D01*
G75*
G02*
X111166500Y-71933750I0J-243750D01*
G01*
G37*
%TD*%
D13*
%TO.C,U2*%
X134518000Y-96280000D03*
X134518000Y-91680000D03*
X134518000Y-93980000D03*
D14*
X140818000Y-93980000D03*
%TD*%
%TO.C,U5*%
G36*
G01*
X133100000Y-67825000D02*
X133100000Y-67475000D01*
G75*
G02*
X133275000Y-67300000I175000J0D01*
G01*
X134725000Y-67300000D01*
G75*
G02*
X134900000Y-67475000I0J-175000D01*
G01*
X134900000Y-67825000D01*
G75*
G02*
X134725000Y-68000000I-175000J0D01*
G01*
X133275000Y-68000000D01*
G75*
G02*
X133100000Y-67825000I0J175000D01*
G01*
G37*
G36*
G01*
X133100000Y-66750000D02*
X133100000Y-66350000D01*
G75*
G02*
X133300000Y-66150000I200000J0D01*
G01*
X134700000Y-66150000D01*
G75*
G02*
X134900000Y-66350000I0J-200000D01*
G01*
X134900000Y-66750000D01*
G75*
G02*
X134700000Y-66950000I-200000J0D01*
G01*
X133300000Y-66950000D01*
G75*
G02*
X133100000Y-66750000I0J200000D01*
G01*
G37*
G36*
G01*
X133100000Y-65650000D02*
X133100000Y-65250000D01*
G75*
G02*
X133300000Y-65050000I200000J0D01*
G01*
X134700000Y-65050000D01*
G75*
G02*
X134900000Y-65250000I0J-200000D01*
G01*
X134900000Y-65650000D01*
G75*
G02*
X134700000Y-65850000I-200000J0D01*
G01*
X133300000Y-65850000D01*
G75*
G02*
X133100000Y-65650000I0J200000D01*
G01*
G37*
G36*
G01*
X133100000Y-64550000D02*
X133100000Y-64150000D01*
G75*
G02*
X133300000Y-63950000I200000J0D01*
G01*
X134700000Y-63950000D01*
G75*
G02*
X134900000Y-64150000I0J-200000D01*
G01*
X134900000Y-64550000D01*
G75*
G02*
X134700000Y-64750000I-200000J0D01*
G01*
X133300000Y-64750000D01*
G75*
G02*
X133100000Y-64550000I0J200000D01*
G01*
G37*
G36*
G01*
X133100000Y-63450000D02*
X133100000Y-63050000D01*
G75*
G02*
X133300000Y-62850000I200000J0D01*
G01*
X134700000Y-62850000D01*
G75*
G02*
X134900000Y-63050000I0J-200000D01*
G01*
X134900000Y-63450000D01*
G75*
G02*
X134700000Y-63650000I-200000J0D01*
G01*
X133300000Y-63650000D01*
G75*
G02*
X133100000Y-63450000I0J200000D01*
G01*
G37*
G36*
G01*
X133100000Y-62350000D02*
X133100000Y-61950000D01*
G75*
G02*
X133300000Y-61750000I200000J0D01*
G01*
X134700000Y-61750000D01*
G75*
G02*
X134900000Y-61950000I0J-200000D01*
G01*
X134900000Y-62350000D01*
G75*
G02*
X134700000Y-62550000I-200000J0D01*
G01*
X133300000Y-62550000D01*
G75*
G02*
X133100000Y-62350000I0J200000D01*
G01*
G37*
G36*
G01*
X133100000Y-61250000D02*
X133100000Y-60850000D01*
G75*
G02*
X133300000Y-60650000I200000J0D01*
G01*
X134700000Y-60650000D01*
G75*
G02*
X134900000Y-60850000I0J-200000D01*
G01*
X134900000Y-61250000D01*
G75*
G02*
X134700000Y-61450000I-200000J0D01*
G01*
X133300000Y-61450000D01*
G75*
G02*
X133100000Y-61250000I0J200000D01*
G01*
G37*
G36*
G01*
X133100000Y-60150000D02*
X133100000Y-59750000D01*
G75*
G02*
X133300000Y-59550000I200000J0D01*
G01*
X134700000Y-59550000D01*
G75*
G02*
X134900000Y-59750000I0J-200000D01*
G01*
X134900000Y-60150000D01*
G75*
G02*
X134700000Y-60350000I-200000J0D01*
G01*
X133300000Y-60350000D01*
G75*
G02*
X133100000Y-60150000I0J200000D01*
G01*
G37*
G36*
G01*
X133100000Y-59025000D02*
X133100000Y-58675000D01*
G75*
G02*
X133275000Y-58500000I175000J0D01*
G01*
X134725000Y-58500000D01*
G75*
G02*
X134900000Y-58675000I0J-175000D01*
G01*
X134900000Y-59025000D01*
G75*
G02*
X134725000Y-59200000I-175000J0D01*
G01*
X133275000Y-59200000D01*
G75*
G02*
X133100000Y-59025000I0J175000D01*
G01*
G37*
G36*
G01*
X142600000Y-59025000D02*
X142600000Y-58675000D01*
G75*
G02*
X142775000Y-58500000I175000J0D01*
G01*
X144225000Y-58500000D01*
G75*
G02*
X144400000Y-58675000I0J-175000D01*
G01*
X144400000Y-59025000D01*
G75*
G02*
X144225000Y-59200000I-175000J0D01*
G01*
X142775000Y-59200000D01*
G75*
G02*
X142600000Y-59025000I0J175000D01*
G01*
G37*
G36*
G01*
X142600000Y-60150000D02*
X142600000Y-59750000D01*
G75*
G02*
X142800000Y-59550000I200000J0D01*
G01*
X144200000Y-59550000D01*
G75*
G02*
X144400000Y-59750000I0J-200000D01*
G01*
X144400000Y-60150000D01*
G75*
G02*
X144200000Y-60350000I-200000J0D01*
G01*
X142800000Y-60350000D01*
G75*
G02*
X142600000Y-60150000I0J200000D01*
G01*
G37*
G36*
G01*
X142600000Y-61250000D02*
X142600000Y-60850000D01*
G75*
G02*
X142800000Y-60650000I200000J0D01*
G01*
X144200000Y-60650000D01*
G75*
G02*
X144400000Y-60850000I0J-200000D01*
G01*
X144400000Y-61250000D01*
G75*
G02*
X144200000Y-61450000I-200000J0D01*
G01*
X142800000Y-61450000D01*
G75*
G02*
X142600000Y-61250000I0J200000D01*
G01*
G37*
G36*
G01*
X142600000Y-62350000D02*
X142600000Y-61950000D01*
G75*
G02*
X142800000Y-61750000I200000J0D01*
G01*
X144200000Y-61750000D01*
G75*
G02*
X144400000Y-61950000I0J-200000D01*
G01*
X144400000Y-62350000D01*
G75*
G02*
X144200000Y-62550000I-200000J0D01*
G01*
X142800000Y-62550000D01*
G75*
G02*
X142600000Y-62350000I0J200000D01*
G01*
G37*
G36*
G01*
X142600000Y-63450000D02*
X142600000Y-63050000D01*
G75*
G02*
X142800000Y-62850000I200000J0D01*
G01*
X144200000Y-62850000D01*
G75*
G02*
X144400000Y-63050000I0J-200000D01*
G01*
X144400000Y-63450000D01*
G75*
G02*
X144200000Y-63650000I-200000J0D01*
G01*
X142800000Y-63650000D01*
G75*
G02*
X142600000Y-63450000I0J200000D01*
G01*
G37*
G36*
G01*
X142600000Y-64550000D02*
X142600000Y-64150000D01*
G75*
G02*
X142800000Y-63950000I200000J0D01*
G01*
X144200000Y-63950000D01*
G75*
G02*
X144400000Y-64150000I0J-200000D01*
G01*
X144400000Y-64550000D01*
G75*
G02*
X144200000Y-64750000I-200000J0D01*
G01*
X142800000Y-64750000D01*
G75*
G02*
X142600000Y-64550000I0J200000D01*
G01*
G37*
G36*
G01*
X142600000Y-65650000D02*
X142600000Y-65250000D01*
G75*
G02*
X142800000Y-65050000I200000J0D01*
G01*
X144200000Y-65050000D01*
G75*
G02*
X144400000Y-65250000I0J-200000D01*
G01*
X144400000Y-65650000D01*
G75*
G02*
X144200000Y-65850000I-200000J0D01*
G01*
X142800000Y-65850000D01*
G75*
G02*
X142600000Y-65650000I0J200000D01*
G01*
G37*
G36*
G01*
X142600000Y-66750000D02*
X142600000Y-66350000D01*
G75*
G02*
X142800000Y-66150000I200000J0D01*
G01*
X144200000Y-66150000D01*
G75*
G02*
X144400000Y-66350000I0J-200000D01*
G01*
X144400000Y-66750000D01*
G75*
G02*
X144200000Y-66950000I-200000J0D01*
G01*
X142800000Y-66950000D01*
G75*
G02*
X142600000Y-66750000I0J200000D01*
G01*
G37*
G36*
G01*
X142600000Y-67825000D02*
X142600000Y-67475000D01*
G75*
G02*
X142775000Y-67300000I175000J0D01*
G01*
X144225000Y-67300000D01*
G75*
G02*
X144400000Y-67475000I0J-175000D01*
G01*
X144400000Y-67825000D01*
G75*
G02*
X144225000Y-68000000I-175000J0D01*
G01*
X142775000Y-68000000D01*
G75*
G02*
X142600000Y-67825000I0J175000D01*
G01*
G37*
%TD*%
D15*
%TO.C,D7*%
X140137000Y-82550000D03*
X135707000Y-82550000D03*
%TD*%
%TO.C,D8*%
X135707000Y-86614000D03*
X140137000Y-86614000D03*
%TD*%
D16*
%TO.C,Q1*%
X144850000Y-87300000D03*
X142950000Y-87300000D03*
X143900000Y-85300000D03*
%TD*%
%TO.C,R14*%
G36*
G01*
X146275000Y-87756250D02*
X146275000Y-86843750D01*
G75*
G02*
X146518750Y-86600000I243750J0D01*
G01*
X147006250Y-86600000D01*
G75*
G02*
X147250000Y-86843750I0J-243750D01*
G01*
X147250000Y-87756250D01*
G75*
G02*
X147006250Y-88000000I-243750J0D01*
G01*
X146518750Y-88000000D01*
G75*
G02*
X146275000Y-87756250I0J243750D01*
G01*
G37*
G36*
G01*
X148150000Y-87756250D02*
X148150000Y-86843750D01*
G75*
G02*
X148393750Y-86600000I243750J0D01*
G01*
X148881250Y-86600000D01*
G75*
G02*
X149125000Y-86843750I0J-243750D01*
G01*
X149125000Y-87756250D01*
G75*
G02*
X148881250Y-88000000I-243750J0D01*
G01*
X148393750Y-88000000D01*
G75*
G02*
X148150000Y-87756250I0J243750D01*
G01*
G37*
%TD*%
%TO.C,C15*%
G36*
G01*
X111550000Y-110950000D02*
X110450000Y-110950000D01*
G75*
G02*
X110200000Y-110700000I0J250000D01*
G01*
X110200000Y-107700000D01*
G75*
G02*
X110450000Y-107450000I250000J0D01*
G01*
X111550000Y-107450000D01*
G75*
G02*
X111800000Y-107700000I0J-250000D01*
G01*
X111800000Y-110700000D01*
G75*
G02*
X111550000Y-110950000I-250000J0D01*
G01*
G37*
G36*
G01*
X111550000Y-105550000D02*
X110450000Y-105550000D01*
G75*
G02*
X110200000Y-105300000I0J250000D01*
G01*
X110200000Y-102300000D01*
G75*
G02*
X110450000Y-102050000I250000J0D01*
G01*
X111550000Y-102050000D01*
G75*
G02*
X111800000Y-102300000I0J-250000D01*
G01*
X111800000Y-105300000D01*
G75*
G02*
X111550000Y-105550000I-250000J0D01*
G01*
G37*
%TD*%
%TO.C,C17*%
G36*
G01*
X119550000Y-105550000D02*
X118450000Y-105550000D01*
G75*
G02*
X118200000Y-105300000I0J250000D01*
G01*
X118200000Y-102300000D01*
G75*
G02*
X118450000Y-102050000I250000J0D01*
G01*
X119550000Y-102050000D01*
G75*
G02*
X119800000Y-102300000I0J-250000D01*
G01*
X119800000Y-105300000D01*
G75*
G02*
X119550000Y-105550000I-250000J0D01*
G01*
G37*
G36*
G01*
X119550000Y-110950000D02*
X118450000Y-110950000D01*
G75*
G02*
X118200000Y-110700000I0J250000D01*
G01*
X118200000Y-107700000D01*
G75*
G02*
X118450000Y-107450000I250000J0D01*
G01*
X119550000Y-107450000D01*
G75*
G02*
X119800000Y-107700000I0J-250000D01*
G01*
X119800000Y-110700000D01*
G75*
G02*
X119550000Y-110950000I-250000J0D01*
G01*
G37*
%TD*%
%TO.C,C18*%
G36*
G01*
X127550000Y-110950000D02*
X126450000Y-110950000D01*
G75*
G02*
X126200000Y-110700000I0J250000D01*
G01*
X126200000Y-107700000D01*
G75*
G02*
X126450000Y-107450000I250000J0D01*
G01*
X127550000Y-107450000D01*
G75*
G02*
X127800000Y-107700000I0J-250000D01*
G01*
X127800000Y-110700000D01*
G75*
G02*
X127550000Y-110950000I-250000J0D01*
G01*
G37*
G36*
G01*
X127550000Y-105550000D02*
X126450000Y-105550000D01*
G75*
G02*
X126200000Y-105300000I0J250000D01*
G01*
X126200000Y-102300000D01*
G75*
G02*
X126450000Y-102050000I250000J0D01*
G01*
X127550000Y-102050000D01*
G75*
G02*
X127800000Y-102300000I0J-250000D01*
G01*
X127800000Y-105300000D01*
G75*
G02*
X127550000Y-105550000I-250000J0D01*
G01*
G37*
%TD*%
%TO.C,C20*%
G36*
G01*
X135550000Y-105550000D02*
X134450000Y-105550000D01*
G75*
G02*
X134200000Y-105300000I0J250000D01*
G01*
X134200000Y-102300000D01*
G75*
G02*
X134450000Y-102050000I250000J0D01*
G01*
X135550000Y-102050000D01*
G75*
G02*
X135800000Y-102300000I0J-250000D01*
G01*
X135800000Y-105300000D01*
G75*
G02*
X135550000Y-105550000I-250000J0D01*
G01*
G37*
G36*
G01*
X135550000Y-110950000D02*
X134450000Y-110950000D01*
G75*
G02*
X134200000Y-110700000I0J250000D01*
G01*
X134200000Y-107700000D01*
G75*
G02*
X134450000Y-107450000I250000J0D01*
G01*
X135550000Y-107450000D01*
G75*
G02*
X135800000Y-107700000I0J-250000D01*
G01*
X135800000Y-110700000D01*
G75*
G02*
X135550000Y-110950000I-250000J0D01*
G01*
G37*
%TD*%
M02*
