%TF.GenerationSoftware,KiCad,Pcbnew,(5.1.6-0-10_14)*%
%TF.CreationDate,2021-05-24T19:11:46+02:00*%
%TF.ProjectId,ControlUnit,436f6e74-726f-46c5-956e-69742e6b6963,rev?*%
%TF.SameCoordinates,Original*%
%TF.FileFunction,Soldermask,Top*%
%TF.FilePolarity,Negative*%
%FSLAX46Y46*%
G04 Gerber Fmt 4.6, Leading zero omitted, Abs format (unit mm)*
G04 Created by KiCad (PCBNEW (5.1.6-0-10_14)) date 2021-05-24 19:11:46*
%MOMM*%
%LPD*%
G01*
G04 APERTURE LIST*
%ADD10R,2.100000X2.100000*%
%ADD11C,2.100000*%
%ADD12R,1.900000X1.170000*%
%ADD13O,1.900000X1.170000*%
%ADD14R,2.500000X2.500000*%
%ADD15C,2.500000*%
%ADD16R,1.200000X1.200000*%
%ADD17C,1.200000*%
%ADD18R,1.800000X1.800000*%
%ADD19O,1.800000X1.800000*%
%ADD20C,1.800000*%
%ADD21R,1.600000X2.100000*%
%ADD22R,1.400000X0.350000*%
%ADD23R,0.350000X1.400000*%
%ADD24R,2.100000X3.900000*%
%ADD25R,2.100000X1.600000*%
%ADD26C,1.100000*%
%ADD27C,5.700000*%
%ADD28C,3.300000*%
%ADD29C,0.100000*%
%ADD30R,1.100000X2.600000*%
%ADD31R,1.700000X0.900000*%
%ADD32R,1.600000X1.390000*%
%ADD33R,1.400000X1.390000*%
%ADD34R,1.500000X1.390000*%
%ADD35R,1.800000X1.600000*%
%ADD36R,1.600000X1.800000*%
%ADD37R,2.300000X2.300000*%
%ADD38O,2.300000X2.300000*%
G04 APERTURE END LIST*
D10*
%TO.C,BZ1*%
X112268000Y-64516000D03*
D11*
X104668000Y-64516000D03*
%TD*%
%TO.C,C1*%
G36*
G01*
X127600000Y-83381250D02*
X127600000Y-82418750D01*
G75*
G02*
X127868750Y-82150000I268750J0D01*
G01*
X128406250Y-82150000D01*
G75*
G02*
X128675000Y-82418750I0J-268750D01*
G01*
X128675000Y-83381250D01*
G75*
G02*
X128406250Y-83650000I-268750J0D01*
G01*
X127868750Y-83650000D01*
G75*
G02*
X127600000Y-83381250I0J268750D01*
G01*
G37*
G36*
G01*
X125725000Y-83381250D02*
X125725000Y-82418750D01*
G75*
G02*
X125993750Y-82150000I268750J0D01*
G01*
X126531250Y-82150000D01*
G75*
G02*
X126800000Y-82418750I0J-268750D01*
G01*
X126800000Y-83381250D01*
G75*
G02*
X126531250Y-83650000I-268750J0D01*
G01*
X125993750Y-83650000D01*
G75*
G02*
X125725000Y-83381250I0J268750D01*
G01*
G37*
%TD*%
%TO.C,C4*%
G36*
G01*
X124731250Y-68475000D02*
X123768750Y-68475000D01*
G75*
G02*
X123500000Y-68206250I0J268750D01*
G01*
X123500000Y-67668750D01*
G75*
G02*
X123768750Y-67400000I268750J0D01*
G01*
X124731250Y-67400000D01*
G75*
G02*
X125000000Y-67668750I0J-268750D01*
G01*
X125000000Y-68206250D01*
G75*
G02*
X124731250Y-68475000I-268750J0D01*
G01*
G37*
G36*
G01*
X124731250Y-66600000D02*
X123768750Y-66600000D01*
G75*
G02*
X123500000Y-66331250I0J268750D01*
G01*
X123500000Y-65793750D01*
G75*
G02*
X123768750Y-65525000I268750J0D01*
G01*
X124731250Y-65525000D01*
G75*
G02*
X125000000Y-65793750I0J-268750D01*
G01*
X125000000Y-66331250D01*
G75*
G02*
X124731250Y-66600000I-268750J0D01*
G01*
G37*
%TD*%
%TO.C,C7*%
G36*
G01*
X125768750Y-65525000D02*
X126731250Y-65525000D01*
G75*
G02*
X127000000Y-65793750I0J-268750D01*
G01*
X127000000Y-66331250D01*
G75*
G02*
X126731250Y-66600000I-268750J0D01*
G01*
X125768750Y-66600000D01*
G75*
G02*
X125500000Y-66331250I0J268750D01*
G01*
X125500000Y-65793750D01*
G75*
G02*
X125768750Y-65525000I268750J0D01*
G01*
G37*
G36*
G01*
X125768750Y-67400000D02*
X126731250Y-67400000D01*
G75*
G02*
X127000000Y-67668750I0J-268750D01*
G01*
X127000000Y-68206250D01*
G75*
G02*
X126731250Y-68475000I-268750J0D01*
G01*
X125768750Y-68475000D01*
G75*
G02*
X125500000Y-68206250I0J268750D01*
G01*
X125500000Y-67668750D01*
G75*
G02*
X125768750Y-67400000I268750J0D01*
G01*
G37*
%TD*%
%TO.C,C8*%
G36*
G01*
X114600000Y-75218750D02*
X114600000Y-76181250D01*
G75*
G02*
X114331250Y-76450000I-268750J0D01*
G01*
X113793750Y-76450000D01*
G75*
G02*
X113525000Y-76181250I0J268750D01*
G01*
X113525000Y-75218750D01*
G75*
G02*
X113793750Y-74950000I268750J0D01*
G01*
X114331250Y-74950000D01*
G75*
G02*
X114600000Y-75218750I0J-268750D01*
G01*
G37*
G36*
G01*
X116475000Y-75218750D02*
X116475000Y-76181250D01*
G75*
G02*
X116206250Y-76450000I-268750J0D01*
G01*
X115668750Y-76450000D01*
G75*
G02*
X115400000Y-76181250I0J268750D01*
G01*
X115400000Y-75218750D01*
G75*
G02*
X115668750Y-74950000I268750J0D01*
G01*
X116206250Y-74950000D01*
G75*
G02*
X116475000Y-75218750I0J-268750D01*
G01*
G37*
%TD*%
%TO.C,C9*%
G36*
G01*
X133242000Y-89981250D02*
X133242000Y-89018750D01*
G75*
G02*
X133510750Y-88750000I268750J0D01*
G01*
X134048250Y-88750000D01*
G75*
G02*
X134317000Y-89018750I0J-268750D01*
G01*
X134317000Y-89981250D01*
G75*
G02*
X134048250Y-90250000I-268750J0D01*
G01*
X133510750Y-90250000D01*
G75*
G02*
X133242000Y-89981250I0J268750D01*
G01*
G37*
G36*
G01*
X131367000Y-89981250D02*
X131367000Y-89018750D01*
G75*
G02*
X131635750Y-88750000I268750J0D01*
G01*
X132173250Y-88750000D01*
G75*
G02*
X132442000Y-89018750I0J-268750D01*
G01*
X132442000Y-89981250D01*
G75*
G02*
X132173250Y-90250000I-268750J0D01*
G01*
X131635750Y-90250000D01*
G75*
G02*
X131367000Y-89981250I0J268750D01*
G01*
G37*
%TD*%
%TO.C,C19*%
G36*
G01*
X122525000Y-96981250D02*
X122525000Y-96018750D01*
G75*
G02*
X122793750Y-95750000I268750J0D01*
G01*
X123331250Y-95750000D01*
G75*
G02*
X123600000Y-96018750I0J-268750D01*
G01*
X123600000Y-96981250D01*
G75*
G02*
X123331250Y-97250000I-268750J0D01*
G01*
X122793750Y-97250000D01*
G75*
G02*
X122525000Y-96981250I0J268750D01*
G01*
G37*
G36*
G01*
X124400000Y-96981250D02*
X124400000Y-96018750D01*
G75*
G02*
X124668750Y-95750000I268750J0D01*
G01*
X125206250Y-95750000D01*
G75*
G02*
X125475000Y-96018750I0J-268750D01*
G01*
X125475000Y-96981250D01*
G75*
G02*
X125206250Y-97250000I-268750J0D01*
G01*
X124668750Y-97250000D01*
G75*
G02*
X124400000Y-96981250I0J268750D01*
G01*
G37*
%TD*%
D12*
%TO.C,D2*%
X108458000Y-76708000D03*
D13*
X108458000Y-75438000D03*
X108458000Y-74168000D03*
X108458000Y-72898000D03*
%TD*%
%TO.C,F1*%
G36*
G01*
X130425000Y-101655000D02*
X130425000Y-100345000D01*
G75*
G02*
X130695000Y-100075000I270000J0D01*
G01*
X131505000Y-100075000D01*
G75*
G02*
X131775000Y-100345000I0J-270000D01*
G01*
X131775000Y-101655000D01*
G75*
G02*
X131505000Y-101925000I-270000J0D01*
G01*
X130695000Y-101925000D01*
G75*
G02*
X130425000Y-101655000I0J270000D01*
G01*
G37*
G36*
G01*
X133225000Y-101655000D02*
X133225000Y-100345000D01*
G75*
G02*
X133495000Y-100075000I270000J0D01*
G01*
X134305000Y-100075000D01*
G75*
G02*
X134575000Y-100345000I0J-270000D01*
G01*
X134575000Y-101655000D01*
G75*
G02*
X134305000Y-101925000I-270000J0D01*
G01*
X133495000Y-101925000D01*
G75*
G02*
X133225000Y-101655000I0J270000D01*
G01*
G37*
%TD*%
D14*
%TO.C,J1*%
X146050000Y-108712000D03*
D15*
X146050000Y-105212000D03*
%TD*%
D16*
%TO.C,J2*%
X146812000Y-80010000D03*
D17*
X145062000Y-79210000D03*
X146812000Y-78410000D03*
X145062000Y-77610000D03*
X146812000Y-76810000D03*
D15*
X145937000Y-82060000D03*
X145937000Y-74760000D03*
%TD*%
D18*
%TO.C,J7*%
X117500000Y-113000000D03*
D19*
X117500000Y-115540000D03*
X117500000Y-118080000D03*
%TD*%
D20*
%TO.C,J8*%
X119380000Y-58674000D03*
X119380000Y-61214000D03*
X119380000Y-63754000D03*
X119380000Y-66294000D03*
%TD*%
D19*
%TO.C,J9*%
X122500000Y-118080000D03*
X122500000Y-115540000D03*
D18*
X122500000Y-113000000D03*
%TD*%
%TO.C,J10*%
X127500000Y-113000000D03*
D19*
X127500000Y-115540000D03*
X127500000Y-118080000D03*
%TD*%
%TO.C,L1*%
G36*
G01*
X113525000Y-74281250D02*
X113525000Y-73318750D01*
G75*
G02*
X113793750Y-73050000I268750J0D01*
G01*
X114331250Y-73050000D01*
G75*
G02*
X114600000Y-73318750I0J-268750D01*
G01*
X114600000Y-74281250D01*
G75*
G02*
X114331250Y-74550000I-268750J0D01*
G01*
X113793750Y-74550000D01*
G75*
G02*
X113525000Y-74281250I0J268750D01*
G01*
G37*
G36*
G01*
X115400000Y-74281250D02*
X115400000Y-73318750D01*
G75*
G02*
X115668750Y-73050000I268750J0D01*
G01*
X116206250Y-73050000D01*
G75*
G02*
X116475000Y-73318750I0J-268750D01*
G01*
X116475000Y-74281250D01*
G75*
G02*
X116206250Y-74550000I-268750J0D01*
G01*
X115668750Y-74550000D01*
G75*
G02*
X115400000Y-74281250I0J268750D01*
G01*
G37*
%TD*%
%TO.C,R3*%
G36*
G01*
X140518750Y-69200000D02*
X141481250Y-69200000D01*
G75*
G02*
X141750000Y-69468750I0J-268750D01*
G01*
X141750000Y-70006250D01*
G75*
G02*
X141481250Y-70275000I-268750J0D01*
G01*
X140518750Y-70275000D01*
G75*
G02*
X140250000Y-70006250I0J268750D01*
G01*
X140250000Y-69468750D01*
G75*
G02*
X140518750Y-69200000I268750J0D01*
G01*
G37*
G36*
G01*
X140518750Y-67325000D02*
X141481250Y-67325000D01*
G75*
G02*
X141750000Y-67593750I0J-268750D01*
G01*
X141750000Y-68131250D01*
G75*
G02*
X141481250Y-68400000I-268750J0D01*
G01*
X140518750Y-68400000D01*
G75*
G02*
X140250000Y-68131250I0J268750D01*
G01*
X140250000Y-67593750D01*
G75*
G02*
X140518750Y-67325000I268750J0D01*
G01*
G37*
%TD*%
%TO.C,R7*%
G36*
G01*
X143483250Y-63975000D02*
X142520750Y-63975000D01*
G75*
G02*
X142252000Y-63706250I0J268750D01*
G01*
X142252000Y-63168750D01*
G75*
G02*
X142520750Y-62900000I268750J0D01*
G01*
X143483250Y-62900000D01*
G75*
G02*
X143752000Y-63168750I0J-268750D01*
G01*
X143752000Y-63706250D01*
G75*
G02*
X143483250Y-63975000I-268750J0D01*
G01*
G37*
G36*
G01*
X143483250Y-62100000D02*
X142520750Y-62100000D01*
G75*
G02*
X142252000Y-61831250I0J268750D01*
G01*
X142252000Y-61293750D01*
G75*
G02*
X142520750Y-61025000I268750J0D01*
G01*
X143483250Y-61025000D01*
G75*
G02*
X143752000Y-61293750I0J-268750D01*
G01*
X143752000Y-61831250D01*
G75*
G02*
X143483250Y-62100000I-268750J0D01*
G01*
G37*
%TD*%
D21*
%TO.C,SW2*%
X146304000Y-71056000D03*
X146304000Y-63056000D03*
%TD*%
D22*
%TO.C,U1*%
X120650000Y-72250000D03*
X120650000Y-72750000D03*
X120650000Y-73250000D03*
X120650000Y-73750000D03*
X120650000Y-74250000D03*
X120650000Y-74750000D03*
X120650000Y-75250000D03*
X120650000Y-75750000D03*
X120650000Y-76250000D03*
X120650000Y-76750000D03*
X120650000Y-77250000D03*
X120650000Y-77750000D03*
D23*
X122250000Y-79350000D03*
X122750000Y-79350000D03*
X123250000Y-79350000D03*
X123750000Y-79350000D03*
X124250000Y-79350000D03*
X124750000Y-79350000D03*
X125250000Y-79350000D03*
X125750000Y-79350000D03*
X126250000Y-79350000D03*
X126750000Y-79350000D03*
X127250000Y-79350000D03*
X127750000Y-79350000D03*
D22*
X129350000Y-77750000D03*
X129350000Y-77250000D03*
X129350000Y-76750000D03*
X129350000Y-76250000D03*
X129350000Y-75750000D03*
X129350000Y-75250000D03*
X129350000Y-74750000D03*
X129350000Y-74250000D03*
X129350000Y-73750000D03*
X129350000Y-73250000D03*
X129350000Y-72750000D03*
X129350000Y-72250000D03*
D23*
X127750000Y-70650000D03*
X127250000Y-70650000D03*
X126750000Y-70650000D03*
X126250000Y-70650000D03*
X125750000Y-70650000D03*
X125250000Y-70650000D03*
X124750000Y-70650000D03*
X124250000Y-70650000D03*
X123750000Y-70650000D03*
X123250000Y-70650000D03*
X122750000Y-70650000D03*
X122250000Y-70650000D03*
%TD*%
D24*
%TO.C,U3*%
X138900000Y-93980000D03*
D25*
X132600000Y-93980000D03*
X132600000Y-96280000D03*
X132600000Y-91680000D03*
%TD*%
%TO.C,U6*%
G36*
G01*
X123230000Y-86050000D02*
X123580000Y-86050000D01*
G75*
G02*
X123755000Y-86225000I0J-175000D01*
G01*
X123755000Y-87575000D01*
G75*
G02*
X123580000Y-87750000I-175000J0D01*
G01*
X123230000Y-87750000D01*
G75*
G02*
X123055000Y-87575000I0J175000D01*
G01*
X123055000Y-86225000D01*
G75*
G02*
X123230000Y-86050000I175000J0D01*
G01*
G37*
G36*
G01*
X121960000Y-86050000D02*
X122310000Y-86050000D01*
G75*
G02*
X122485000Y-86225000I0J-175000D01*
G01*
X122485000Y-87575000D01*
G75*
G02*
X122310000Y-87750000I-175000J0D01*
G01*
X121960000Y-87750000D01*
G75*
G02*
X121785000Y-87575000I0J175000D01*
G01*
X121785000Y-86225000D01*
G75*
G02*
X121960000Y-86050000I175000J0D01*
G01*
G37*
G36*
G01*
X120690000Y-86050000D02*
X121040000Y-86050000D01*
G75*
G02*
X121215000Y-86225000I0J-175000D01*
G01*
X121215000Y-87575000D01*
G75*
G02*
X121040000Y-87750000I-175000J0D01*
G01*
X120690000Y-87750000D01*
G75*
G02*
X120515000Y-87575000I0J175000D01*
G01*
X120515000Y-86225000D01*
G75*
G02*
X120690000Y-86050000I175000J0D01*
G01*
G37*
G36*
G01*
X119420000Y-86050000D02*
X119770000Y-86050000D01*
G75*
G02*
X119945000Y-86225000I0J-175000D01*
G01*
X119945000Y-87575000D01*
G75*
G02*
X119770000Y-87750000I-175000J0D01*
G01*
X119420000Y-87750000D01*
G75*
G02*
X119245000Y-87575000I0J175000D01*
G01*
X119245000Y-86225000D01*
G75*
G02*
X119420000Y-86050000I175000J0D01*
G01*
G37*
G36*
G01*
X119420000Y-93250000D02*
X119770000Y-93250000D01*
G75*
G02*
X119945000Y-93425000I0J-175000D01*
G01*
X119945000Y-94775000D01*
G75*
G02*
X119770000Y-94950000I-175000J0D01*
G01*
X119420000Y-94950000D01*
G75*
G02*
X119245000Y-94775000I0J175000D01*
G01*
X119245000Y-93425000D01*
G75*
G02*
X119420000Y-93250000I175000J0D01*
G01*
G37*
G36*
G01*
X120690000Y-93250000D02*
X121040000Y-93250000D01*
G75*
G02*
X121215000Y-93425000I0J-175000D01*
G01*
X121215000Y-94775000D01*
G75*
G02*
X121040000Y-94950000I-175000J0D01*
G01*
X120690000Y-94950000D01*
G75*
G02*
X120515000Y-94775000I0J175000D01*
G01*
X120515000Y-93425000D01*
G75*
G02*
X120690000Y-93250000I175000J0D01*
G01*
G37*
G36*
G01*
X121960000Y-93250000D02*
X122310000Y-93250000D01*
G75*
G02*
X122485000Y-93425000I0J-175000D01*
G01*
X122485000Y-94775000D01*
G75*
G02*
X122310000Y-94950000I-175000J0D01*
G01*
X121960000Y-94950000D01*
G75*
G02*
X121785000Y-94775000I0J175000D01*
G01*
X121785000Y-93425000D01*
G75*
G02*
X121960000Y-93250000I175000J0D01*
G01*
G37*
G36*
G01*
X123230000Y-93250000D02*
X123580000Y-93250000D01*
G75*
G02*
X123755000Y-93425000I0J-175000D01*
G01*
X123755000Y-94775000D01*
G75*
G02*
X123580000Y-94950000I-175000J0D01*
G01*
X123230000Y-94950000D01*
G75*
G02*
X123055000Y-94775000I0J175000D01*
G01*
X123055000Y-93425000D01*
G75*
G02*
X123230000Y-93250000I175000J0D01*
G01*
G37*
%TD*%
D26*
%TO.C,Y1*%
X117856000Y-71628000D03*
X117856000Y-73528000D03*
%TD*%
D27*
%TO.C,H1*%
X104000000Y-54000000D03*
%TD*%
%TO.C,H2*%
X146000000Y-54000000D03*
%TD*%
%TO.C,H3*%
X104000000Y-116000000D03*
%TD*%
%TO.C,H4*%
X146000000Y-116000000D03*
%TD*%
D28*
%TO.C,SW1*%
X146050000Y-95800000D03*
X146050000Y-100500000D03*
X146050000Y-91100000D03*
%TD*%
%TO.C,D3*%
G36*
G01*
X135575000Y-77745000D02*
X135575000Y-79055000D01*
G75*
G02*
X135305000Y-79325000I-270000J0D01*
G01*
X134495000Y-79325000D01*
G75*
G02*
X134225000Y-79055000I0J270000D01*
G01*
X134225000Y-77745000D01*
G75*
G02*
X134495000Y-77475000I270000J0D01*
G01*
X135305000Y-77475000D01*
G75*
G02*
X135575000Y-77745000I0J-270000D01*
G01*
G37*
G36*
G01*
X138375000Y-77745000D02*
X138375000Y-79055000D01*
G75*
G02*
X138105000Y-79325000I-270000J0D01*
G01*
X137295000Y-79325000D01*
G75*
G02*
X137025000Y-79055000I0J270000D01*
G01*
X137025000Y-77745000D01*
G75*
G02*
X137295000Y-77475000I270000J0D01*
G01*
X138105000Y-77475000D01*
G75*
G02*
X138375000Y-77745000I0J-270000D01*
G01*
G37*
%TD*%
%TO.C,D4*%
G36*
G01*
X138571000Y-67067000D02*
X137261000Y-67067000D01*
G75*
G02*
X136991000Y-66797000I0J270000D01*
G01*
X136991000Y-65987000D01*
G75*
G02*
X137261000Y-65717000I270000J0D01*
G01*
X138571000Y-65717000D01*
G75*
G02*
X138841000Y-65987000I0J-270000D01*
G01*
X138841000Y-66797000D01*
G75*
G02*
X138571000Y-67067000I-270000J0D01*
G01*
G37*
G36*
G01*
X138571000Y-64267000D02*
X137261000Y-64267000D01*
G75*
G02*
X136991000Y-63997000I0J270000D01*
G01*
X136991000Y-63187000D01*
G75*
G02*
X137261000Y-62917000I270000J0D01*
G01*
X138571000Y-62917000D01*
G75*
G02*
X138841000Y-63187000I0J-270000D01*
G01*
X138841000Y-63997000D01*
G75*
G02*
X138571000Y-64267000I-270000J0D01*
G01*
G37*
%TD*%
%TO.C,R8*%
G36*
G01*
X140996750Y-94634000D02*
X141959250Y-94634000D01*
G75*
G02*
X142228000Y-94902750I0J-268750D01*
G01*
X142228000Y-95440250D01*
G75*
G02*
X141959250Y-95709000I-268750J0D01*
G01*
X140996750Y-95709000D01*
G75*
G02*
X140728000Y-95440250I0J268750D01*
G01*
X140728000Y-94902750D01*
G75*
G02*
X140996750Y-94634000I268750J0D01*
G01*
G37*
G36*
G01*
X140996750Y-92759000D02*
X141959250Y-92759000D01*
G75*
G02*
X142228000Y-93027750I0J-268750D01*
G01*
X142228000Y-93565250D01*
G75*
G02*
X141959250Y-93834000I-268750J0D01*
G01*
X140996750Y-93834000D01*
G75*
G02*
X140728000Y-93565250I0J268750D01*
G01*
X140728000Y-93027750D01*
G75*
G02*
X140996750Y-92759000I268750J0D01*
G01*
G37*
%TD*%
%TO.C,R9*%
G36*
G01*
X141981250Y-91275000D02*
X141018750Y-91275000D01*
G75*
G02*
X140750000Y-91006250I0J268750D01*
G01*
X140750000Y-90468750D01*
G75*
G02*
X141018750Y-90200000I268750J0D01*
G01*
X141981250Y-90200000D01*
G75*
G02*
X142250000Y-90468750I0J-268750D01*
G01*
X142250000Y-91006250D01*
G75*
G02*
X141981250Y-91275000I-268750J0D01*
G01*
G37*
G36*
G01*
X141981250Y-89400000D02*
X141018750Y-89400000D01*
G75*
G02*
X140750000Y-89131250I0J268750D01*
G01*
X140750000Y-88593750D01*
G75*
G02*
X141018750Y-88325000I268750J0D01*
G01*
X141981250Y-88325000D01*
G75*
G02*
X142250000Y-88593750I0J-268750D01*
G01*
X142250000Y-89131250D01*
G75*
G02*
X141981250Y-89400000I-268750J0D01*
G01*
G37*
%TD*%
%TO.C,R10*%
G36*
G01*
X130825000Y-78881250D02*
X130825000Y-77918750D01*
G75*
G02*
X131093750Y-77650000I268750J0D01*
G01*
X131631250Y-77650000D01*
G75*
G02*
X131900000Y-77918750I0J-268750D01*
G01*
X131900000Y-78881250D01*
G75*
G02*
X131631250Y-79150000I-268750J0D01*
G01*
X131093750Y-79150000D01*
G75*
G02*
X130825000Y-78881250I0J268750D01*
G01*
G37*
G36*
G01*
X132700000Y-78881250D02*
X132700000Y-77918750D01*
G75*
G02*
X132968750Y-77650000I268750J0D01*
G01*
X133506250Y-77650000D01*
G75*
G02*
X133775000Y-77918750I0J-268750D01*
G01*
X133775000Y-78881250D01*
G75*
G02*
X133506250Y-79150000I-268750J0D01*
G01*
X132968750Y-79150000D01*
G75*
G02*
X132700000Y-78881250I0J268750D01*
G01*
G37*
%TD*%
%TO.C,R11*%
G36*
G01*
X137318750Y-61300000D02*
X138281250Y-61300000D01*
G75*
G02*
X138550000Y-61568750I0J-268750D01*
G01*
X138550000Y-62106250D01*
G75*
G02*
X138281250Y-62375000I-268750J0D01*
G01*
X137318750Y-62375000D01*
G75*
G02*
X137050000Y-62106250I0J268750D01*
G01*
X137050000Y-61568750D01*
G75*
G02*
X137318750Y-61300000I268750J0D01*
G01*
G37*
G36*
G01*
X137318750Y-59425000D02*
X138281250Y-59425000D01*
G75*
G02*
X138550000Y-59693750I0J-268750D01*
G01*
X138550000Y-60231250D01*
G75*
G02*
X138281250Y-60500000I-268750J0D01*
G01*
X137318750Y-60500000D01*
G75*
G02*
X137050000Y-60231250I0J268750D01*
G01*
X137050000Y-59693750D01*
G75*
G02*
X137318750Y-59425000I268750J0D01*
G01*
G37*
%TD*%
%TO.C,R12*%
G36*
G01*
X134318750Y-59425000D02*
X135281250Y-59425000D01*
G75*
G02*
X135550000Y-59693750I0J-268750D01*
G01*
X135550000Y-60231250D01*
G75*
G02*
X135281250Y-60500000I-268750J0D01*
G01*
X134318750Y-60500000D01*
G75*
G02*
X134050000Y-60231250I0J268750D01*
G01*
X134050000Y-59693750D01*
G75*
G02*
X134318750Y-59425000I268750J0D01*
G01*
G37*
G36*
G01*
X134318750Y-61300000D02*
X135281250Y-61300000D01*
G75*
G02*
X135550000Y-61568750I0J-268750D01*
G01*
X135550000Y-62106250D01*
G75*
G02*
X135281250Y-62375000I-268750J0D01*
G01*
X134318750Y-62375000D01*
G75*
G02*
X134050000Y-62106250I0J268750D01*
G01*
X134050000Y-61568750D01*
G75*
G02*
X134318750Y-61300000I268750J0D01*
G01*
G37*
%TD*%
%TO.C,D6*%
G36*
G01*
X137845000Y-99925000D02*
X139155000Y-99925000D01*
G75*
G02*
X139425000Y-100195000I0J-270000D01*
G01*
X139425000Y-101005000D01*
G75*
G02*
X139155000Y-101275000I-270000J0D01*
G01*
X137845000Y-101275000D01*
G75*
G02*
X137575000Y-101005000I0J270000D01*
G01*
X137575000Y-100195000D01*
G75*
G02*
X137845000Y-99925000I270000J0D01*
G01*
G37*
G36*
G01*
X137845000Y-102725000D02*
X139155000Y-102725000D01*
G75*
G02*
X139425000Y-102995000I0J-270000D01*
G01*
X139425000Y-103805000D01*
G75*
G02*
X139155000Y-104075000I-270000J0D01*
G01*
X137845000Y-104075000D01*
G75*
G02*
X137575000Y-103805000I0J270000D01*
G01*
X137575000Y-102995000D01*
G75*
G02*
X137845000Y-102725000I270000J0D01*
G01*
G37*
%TD*%
D29*
%TO.C,JP1*%
G36*
X141799398Y-102656111D02*
G01*
X141799398Y-102674534D01*
X141799157Y-102679435D01*
X141794347Y-102728266D01*
X141793627Y-102733119D01*
X141784055Y-102781244D01*
X141782863Y-102786005D01*
X141768619Y-102832960D01*
X141766966Y-102837579D01*
X141748189Y-102882912D01*
X141746091Y-102887349D01*
X141722960Y-102930622D01*
X141720438Y-102934829D01*
X141693178Y-102975628D01*
X141690254Y-102979570D01*
X141659126Y-103017499D01*
X141655831Y-103021134D01*
X141621134Y-103055831D01*
X141617499Y-103059126D01*
X141579570Y-103090254D01*
X141575628Y-103093178D01*
X141534829Y-103120438D01*
X141530622Y-103122960D01*
X141487349Y-103146091D01*
X141482912Y-103148189D01*
X141437579Y-103166966D01*
X141432960Y-103168619D01*
X141386005Y-103182863D01*
X141381244Y-103184055D01*
X141333119Y-103193627D01*
X141328266Y-103194347D01*
X141279435Y-103199157D01*
X141274534Y-103199398D01*
X141256111Y-103199398D01*
X141250000Y-103200000D01*
X140750000Y-103200000D01*
X140743889Y-103199398D01*
X140725466Y-103199398D01*
X140720565Y-103199157D01*
X140671734Y-103194347D01*
X140666881Y-103193627D01*
X140618756Y-103184055D01*
X140613995Y-103182863D01*
X140567040Y-103168619D01*
X140562421Y-103166966D01*
X140517088Y-103148189D01*
X140512651Y-103146091D01*
X140469378Y-103122960D01*
X140465171Y-103120438D01*
X140424372Y-103093178D01*
X140420430Y-103090254D01*
X140382501Y-103059126D01*
X140378866Y-103055831D01*
X140344169Y-103021134D01*
X140340874Y-103017499D01*
X140309746Y-102979570D01*
X140306822Y-102975628D01*
X140279562Y-102934829D01*
X140277040Y-102930622D01*
X140253909Y-102887349D01*
X140251811Y-102882912D01*
X140233034Y-102837579D01*
X140231381Y-102832960D01*
X140217137Y-102786005D01*
X140215945Y-102781244D01*
X140206373Y-102733119D01*
X140205653Y-102728266D01*
X140200843Y-102679435D01*
X140200602Y-102674534D01*
X140200602Y-102656111D01*
X140200000Y-102650000D01*
X140200000Y-102150000D01*
X140200961Y-102140245D01*
X140203806Y-102130866D01*
X140208427Y-102122221D01*
X140214645Y-102114645D01*
X140222221Y-102108427D01*
X140230866Y-102103806D01*
X140240245Y-102100961D01*
X140250000Y-102100000D01*
X141750000Y-102100000D01*
X141759755Y-102100961D01*
X141769134Y-102103806D01*
X141777779Y-102108427D01*
X141785355Y-102114645D01*
X141791573Y-102122221D01*
X141796194Y-102130866D01*
X141799039Y-102140245D01*
X141800000Y-102150000D01*
X141800000Y-102650000D01*
X141799398Y-102656111D01*
G37*
G36*
X141799039Y-101859755D02*
G01*
X141796194Y-101869134D01*
X141791573Y-101877779D01*
X141785355Y-101885355D01*
X141777779Y-101891573D01*
X141769134Y-101896194D01*
X141759755Y-101899039D01*
X141750000Y-101900000D01*
X140250000Y-101900000D01*
X140240245Y-101899039D01*
X140230866Y-101896194D01*
X140222221Y-101891573D01*
X140214645Y-101885355D01*
X140208427Y-101877779D01*
X140203806Y-101869134D01*
X140200961Y-101859755D01*
X140200000Y-101850000D01*
X140200000Y-101350000D01*
X140200602Y-101343889D01*
X140200602Y-101325466D01*
X140200843Y-101320565D01*
X140205653Y-101271734D01*
X140206373Y-101266881D01*
X140215945Y-101218756D01*
X140217137Y-101213995D01*
X140231381Y-101167040D01*
X140233034Y-101162421D01*
X140251811Y-101117088D01*
X140253909Y-101112651D01*
X140277040Y-101069378D01*
X140279562Y-101065171D01*
X140306822Y-101024372D01*
X140309746Y-101020430D01*
X140340874Y-100982501D01*
X140344169Y-100978866D01*
X140378866Y-100944169D01*
X140382501Y-100940874D01*
X140420430Y-100909746D01*
X140424372Y-100906822D01*
X140465171Y-100879562D01*
X140469378Y-100877040D01*
X140512651Y-100853909D01*
X140517088Y-100851811D01*
X140562421Y-100833034D01*
X140567040Y-100831381D01*
X140613995Y-100817137D01*
X140618756Y-100815945D01*
X140666881Y-100806373D01*
X140671734Y-100805653D01*
X140720565Y-100800843D01*
X140725466Y-100800602D01*
X140743889Y-100800602D01*
X140750000Y-100800000D01*
X141250000Y-100800000D01*
X141256111Y-100800602D01*
X141274534Y-100800602D01*
X141279435Y-100800843D01*
X141328266Y-100805653D01*
X141333119Y-100806373D01*
X141381244Y-100815945D01*
X141386005Y-100817137D01*
X141432960Y-100831381D01*
X141437579Y-100833034D01*
X141482912Y-100851811D01*
X141487349Y-100853909D01*
X141530622Y-100877040D01*
X141534829Y-100879562D01*
X141575628Y-100906822D01*
X141579570Y-100909746D01*
X141617499Y-100940874D01*
X141621134Y-100944169D01*
X141655831Y-100978866D01*
X141659126Y-100982501D01*
X141690254Y-101020430D01*
X141693178Y-101024372D01*
X141720438Y-101065171D01*
X141722960Y-101069378D01*
X141746091Y-101112651D01*
X141748189Y-101117088D01*
X141766966Y-101162421D01*
X141768619Y-101167040D01*
X141782863Y-101213995D01*
X141784055Y-101218756D01*
X141793627Y-101266881D01*
X141794347Y-101271734D01*
X141799157Y-101320565D01*
X141799398Y-101325466D01*
X141799398Y-101343889D01*
X141800000Y-101350000D01*
X141800000Y-101850000D01*
X141799039Y-101859755D01*
G37*
%TD*%
%TO.C,R13*%
G36*
G01*
X135418750Y-101925000D02*
X136381250Y-101925000D01*
G75*
G02*
X136650000Y-102193750I0J-268750D01*
G01*
X136650000Y-102731250D01*
G75*
G02*
X136381250Y-103000000I-268750J0D01*
G01*
X135418750Y-103000000D01*
G75*
G02*
X135150000Y-102731250I0J268750D01*
G01*
X135150000Y-102193750D01*
G75*
G02*
X135418750Y-101925000I268750J0D01*
G01*
G37*
G36*
G01*
X135418750Y-103800000D02*
X136381250Y-103800000D01*
G75*
G02*
X136650000Y-104068750I0J-268750D01*
G01*
X136650000Y-104606250D01*
G75*
G02*
X136381250Y-104875000I-268750J0D01*
G01*
X135418750Y-104875000D01*
G75*
G02*
X135150000Y-104606250I0J268750D01*
G01*
X135150000Y-104068750D01*
G75*
G02*
X135418750Y-103800000I268750J0D01*
G01*
G37*
%TD*%
%TO.C,C10*%
G36*
G01*
X131525000Y-98981250D02*
X131525000Y-98018750D01*
G75*
G02*
X131793750Y-97750000I268750J0D01*
G01*
X132331250Y-97750000D01*
G75*
G02*
X132600000Y-98018750I0J-268750D01*
G01*
X132600000Y-98981250D01*
G75*
G02*
X132331250Y-99250000I-268750J0D01*
G01*
X131793750Y-99250000D01*
G75*
G02*
X131525000Y-98981250I0J268750D01*
G01*
G37*
G36*
G01*
X133400000Y-98981250D02*
X133400000Y-98018750D01*
G75*
G02*
X133668750Y-97750000I268750J0D01*
G01*
X134206250Y-97750000D01*
G75*
G02*
X134475000Y-98018750I0J-268750D01*
G01*
X134475000Y-98981250D01*
G75*
G02*
X134206250Y-99250000I-268750J0D01*
G01*
X133668750Y-99250000D01*
G75*
G02*
X133400000Y-98981250I0J268750D01*
G01*
G37*
%TD*%
D18*
%TO.C,J12*%
X132500000Y-113000000D03*
D19*
X132500000Y-115540000D03*
X132500000Y-118080000D03*
%TD*%
%TO.C,D5*%
G36*
G01*
X135455000Y-67075000D02*
X134145000Y-67075000D01*
G75*
G02*
X133875000Y-66805000I0J270000D01*
G01*
X133875000Y-65995000D01*
G75*
G02*
X134145000Y-65725000I270000J0D01*
G01*
X135455000Y-65725000D01*
G75*
G02*
X135725000Y-65995000I0J-270000D01*
G01*
X135725000Y-66805000D01*
G75*
G02*
X135455000Y-67075000I-270000J0D01*
G01*
G37*
G36*
G01*
X135455000Y-64275000D02*
X134145000Y-64275000D01*
G75*
G02*
X133875000Y-64005000I0J270000D01*
G01*
X133875000Y-63195000D01*
G75*
G02*
X134145000Y-62925000I270000J0D01*
G01*
X135455000Y-62925000D01*
G75*
G02*
X135725000Y-63195000I0J-270000D01*
G01*
X135725000Y-64005000D01*
G75*
G02*
X135455000Y-64275000I-270000J0D01*
G01*
G37*
%TD*%
%TO.C,R15*%
G36*
G01*
X123575000Y-98268750D02*
X123575000Y-99231250D01*
G75*
G02*
X123306250Y-99500000I-268750J0D01*
G01*
X122768750Y-99500000D01*
G75*
G02*
X122500000Y-99231250I0J268750D01*
G01*
X122500000Y-98268750D01*
G75*
G02*
X122768750Y-98000000I268750J0D01*
G01*
X123306250Y-98000000D01*
G75*
G02*
X123575000Y-98268750I0J-268750D01*
G01*
G37*
G36*
G01*
X121700000Y-98268750D02*
X121700000Y-99231250D01*
G75*
G02*
X121431250Y-99500000I-268750J0D01*
G01*
X120893750Y-99500000D01*
G75*
G02*
X120625000Y-99231250I0J268750D01*
G01*
X120625000Y-98268750D01*
G75*
G02*
X120893750Y-98000000I268750J0D01*
G01*
X121431250Y-98000000D01*
G75*
G02*
X121700000Y-98268750I0J-268750D01*
G01*
G37*
%TD*%
D30*
%TO.C,J3*%
X119920000Y-51300000D03*
X122460000Y-51300000D03*
X125000000Y-51300000D03*
X127540000Y-51300000D03*
X130080000Y-51300000D03*
%TD*%
%TO.C,C21*%
G36*
G01*
X143481250Y-70275000D02*
X142518750Y-70275000D01*
G75*
G02*
X142250000Y-70006250I0J268750D01*
G01*
X142250000Y-69468750D01*
G75*
G02*
X142518750Y-69200000I268750J0D01*
G01*
X143481250Y-69200000D01*
G75*
G02*
X143750000Y-69468750I0J-268750D01*
G01*
X143750000Y-70006250D01*
G75*
G02*
X143481250Y-70275000I-268750J0D01*
G01*
G37*
G36*
G01*
X143481250Y-68400000D02*
X142518750Y-68400000D01*
G75*
G02*
X142250000Y-68131250I0J268750D01*
G01*
X142250000Y-67593750D01*
G75*
G02*
X142518750Y-67325000I268750J0D01*
G01*
X143481250Y-67325000D01*
G75*
G02*
X143750000Y-67593750I0J-268750D01*
G01*
X143750000Y-68131250D01*
G75*
G02*
X143481250Y-68400000I-268750J0D01*
G01*
G37*
%TD*%
D31*
%TO.C,J6*%
X116700000Y-96030000D03*
D32*
X116800000Y-97500000D03*
D33*
X115100000Y-98100000D03*
D34*
X107700000Y-98200000D03*
D35*
X102000000Y-97900000D03*
D31*
X116700000Y-94930000D03*
X116700000Y-93830000D03*
X116700000Y-92730000D03*
X116700000Y-91630000D03*
X116700000Y-90530000D03*
X116700000Y-89430000D03*
X116700000Y-88330000D03*
D35*
X102000000Y-84500000D03*
D36*
X116800000Y-84800000D03*
%TD*%
D20*
%TO.C,J11*%
X130400000Y-58600000D03*
X130400000Y-61140000D03*
X130400000Y-63680000D03*
X130400000Y-66220000D03*
%TD*%
%TO.C,C22*%
G36*
G01*
X139981250Y-91275000D02*
X139018750Y-91275000D01*
G75*
G02*
X138750000Y-91006250I0J268750D01*
G01*
X138750000Y-90468750D01*
G75*
G02*
X139018750Y-90200000I268750J0D01*
G01*
X139981250Y-90200000D01*
G75*
G02*
X140250000Y-90468750I0J-268750D01*
G01*
X140250000Y-91006250D01*
G75*
G02*
X139981250Y-91275000I-268750J0D01*
G01*
G37*
G36*
G01*
X139981250Y-89400000D02*
X139018750Y-89400000D01*
G75*
G02*
X138750000Y-89131250I0J268750D01*
G01*
X138750000Y-88593750D01*
G75*
G02*
X139018750Y-88325000I268750J0D01*
G01*
X139981250Y-88325000D01*
G75*
G02*
X140250000Y-88593750I0J-268750D01*
G01*
X140250000Y-89131250D01*
G75*
G02*
X139981250Y-89400000I-268750J0D01*
G01*
G37*
%TD*%
D37*
%TO.C,D1*%
X140200000Y-107900000D03*
D38*
X140200000Y-118060000D03*
%TD*%
M02*
