%TF.GenerationSoftware,KiCad,Pcbnew,(5.1.6-0-10_14)*%
%TF.CreationDate,2021-04-25T16:08:19+02:00*%
%TF.ProjectId,ControlUnit,436f6e74-726f-46c5-956e-69742e6b6963,rev?*%
%TF.SameCoordinates,Original*%
%TF.FileFunction,Paste,Top*%
%TF.FilePolarity,Positive*%
%FSLAX46Y46*%
G04 Gerber Fmt 4.6, Leading zero omitted, Abs format (unit mm)*
G04 Created by KiCad (PCBNEW (5.1.6-0-10_14)) date 2021-04-25 16:08:19*
%MOMM*%
%LPD*%
G01*
G04 APERTURE LIST*
%ADD10R,1.500000X2.000000*%
%ADD11R,1.300000X0.250000*%
%ADD12R,0.250000X1.300000*%
%ADD13R,2.000000X3.800000*%
%ADD14R,2.000000X1.500000*%
%ADD15R,1.000000X2.500000*%
%ADD16R,1.600000X0.800000*%
%ADD17R,1.500000X1.290000*%
%ADD18R,1.300000X1.290000*%
%ADD19R,1.400000X1.290000*%
%ADD20R,1.700000X1.500000*%
%ADD21R,1.500000X1.700000*%
G04 APERTURE END LIST*
%TO.C,C1*%
G36*
G01*
X127650000Y-83356250D02*
X127650000Y-82443750D01*
G75*
G02*
X127893750Y-82200000I243750J0D01*
G01*
X128381250Y-82200000D01*
G75*
G02*
X128625000Y-82443750I0J-243750D01*
G01*
X128625000Y-83356250D01*
G75*
G02*
X128381250Y-83600000I-243750J0D01*
G01*
X127893750Y-83600000D01*
G75*
G02*
X127650000Y-83356250I0J243750D01*
G01*
G37*
G36*
G01*
X125775000Y-83356250D02*
X125775000Y-82443750D01*
G75*
G02*
X126018750Y-82200000I243750J0D01*
G01*
X126506250Y-82200000D01*
G75*
G02*
X126750000Y-82443750I0J-243750D01*
G01*
X126750000Y-83356250D01*
G75*
G02*
X126506250Y-83600000I-243750J0D01*
G01*
X126018750Y-83600000D01*
G75*
G02*
X125775000Y-83356250I0J243750D01*
G01*
G37*
%TD*%
%TO.C,C4*%
G36*
G01*
X124706250Y-68425000D02*
X123793750Y-68425000D01*
G75*
G02*
X123550000Y-68181250I0J243750D01*
G01*
X123550000Y-67693750D01*
G75*
G02*
X123793750Y-67450000I243750J0D01*
G01*
X124706250Y-67450000D01*
G75*
G02*
X124950000Y-67693750I0J-243750D01*
G01*
X124950000Y-68181250D01*
G75*
G02*
X124706250Y-68425000I-243750J0D01*
G01*
G37*
G36*
G01*
X124706250Y-66550000D02*
X123793750Y-66550000D01*
G75*
G02*
X123550000Y-66306250I0J243750D01*
G01*
X123550000Y-65818750D01*
G75*
G02*
X123793750Y-65575000I243750J0D01*
G01*
X124706250Y-65575000D01*
G75*
G02*
X124950000Y-65818750I0J-243750D01*
G01*
X124950000Y-66306250D01*
G75*
G02*
X124706250Y-66550000I-243750J0D01*
G01*
G37*
%TD*%
%TO.C,C7*%
G36*
G01*
X125793750Y-65575000D02*
X126706250Y-65575000D01*
G75*
G02*
X126950000Y-65818750I0J-243750D01*
G01*
X126950000Y-66306250D01*
G75*
G02*
X126706250Y-66550000I-243750J0D01*
G01*
X125793750Y-66550000D01*
G75*
G02*
X125550000Y-66306250I0J243750D01*
G01*
X125550000Y-65818750D01*
G75*
G02*
X125793750Y-65575000I243750J0D01*
G01*
G37*
G36*
G01*
X125793750Y-67450000D02*
X126706250Y-67450000D01*
G75*
G02*
X126950000Y-67693750I0J-243750D01*
G01*
X126950000Y-68181250D01*
G75*
G02*
X126706250Y-68425000I-243750J0D01*
G01*
X125793750Y-68425000D01*
G75*
G02*
X125550000Y-68181250I0J243750D01*
G01*
X125550000Y-67693750D01*
G75*
G02*
X125793750Y-67450000I243750J0D01*
G01*
G37*
%TD*%
%TO.C,C8*%
G36*
G01*
X114550000Y-75243750D02*
X114550000Y-76156250D01*
G75*
G02*
X114306250Y-76400000I-243750J0D01*
G01*
X113818750Y-76400000D01*
G75*
G02*
X113575000Y-76156250I0J243750D01*
G01*
X113575000Y-75243750D01*
G75*
G02*
X113818750Y-75000000I243750J0D01*
G01*
X114306250Y-75000000D01*
G75*
G02*
X114550000Y-75243750I0J-243750D01*
G01*
G37*
G36*
G01*
X116425000Y-75243750D02*
X116425000Y-76156250D01*
G75*
G02*
X116181250Y-76400000I-243750J0D01*
G01*
X115693750Y-76400000D01*
G75*
G02*
X115450000Y-76156250I0J243750D01*
G01*
X115450000Y-75243750D01*
G75*
G02*
X115693750Y-75000000I243750J0D01*
G01*
X116181250Y-75000000D01*
G75*
G02*
X116425000Y-75243750I0J-243750D01*
G01*
G37*
%TD*%
%TO.C,C9*%
G36*
G01*
X133292000Y-89956250D02*
X133292000Y-89043750D01*
G75*
G02*
X133535750Y-88800000I243750J0D01*
G01*
X134023250Y-88800000D01*
G75*
G02*
X134267000Y-89043750I0J-243750D01*
G01*
X134267000Y-89956250D01*
G75*
G02*
X134023250Y-90200000I-243750J0D01*
G01*
X133535750Y-90200000D01*
G75*
G02*
X133292000Y-89956250I0J243750D01*
G01*
G37*
G36*
G01*
X131417000Y-89956250D02*
X131417000Y-89043750D01*
G75*
G02*
X131660750Y-88800000I243750J0D01*
G01*
X132148250Y-88800000D01*
G75*
G02*
X132392000Y-89043750I0J-243750D01*
G01*
X132392000Y-89956250D01*
G75*
G02*
X132148250Y-90200000I-243750J0D01*
G01*
X131660750Y-90200000D01*
G75*
G02*
X131417000Y-89956250I0J243750D01*
G01*
G37*
%TD*%
%TO.C,C19*%
G36*
G01*
X122575000Y-96956250D02*
X122575000Y-96043750D01*
G75*
G02*
X122818750Y-95800000I243750J0D01*
G01*
X123306250Y-95800000D01*
G75*
G02*
X123550000Y-96043750I0J-243750D01*
G01*
X123550000Y-96956250D01*
G75*
G02*
X123306250Y-97200000I-243750J0D01*
G01*
X122818750Y-97200000D01*
G75*
G02*
X122575000Y-96956250I0J243750D01*
G01*
G37*
G36*
G01*
X124450000Y-96956250D02*
X124450000Y-96043750D01*
G75*
G02*
X124693750Y-95800000I243750J0D01*
G01*
X125181250Y-95800000D01*
G75*
G02*
X125425000Y-96043750I0J-243750D01*
G01*
X125425000Y-96956250D01*
G75*
G02*
X125181250Y-97200000I-243750J0D01*
G01*
X124693750Y-97200000D01*
G75*
G02*
X124450000Y-96956250I0J243750D01*
G01*
G37*
%TD*%
%TO.C,F1*%
G36*
G01*
X130475000Y-101625000D02*
X130475000Y-100375000D01*
G75*
G02*
X130725000Y-100125000I250000J0D01*
G01*
X131475000Y-100125000D01*
G75*
G02*
X131725000Y-100375000I0J-250000D01*
G01*
X131725000Y-101625000D01*
G75*
G02*
X131475000Y-101875000I-250000J0D01*
G01*
X130725000Y-101875000D01*
G75*
G02*
X130475000Y-101625000I0J250000D01*
G01*
G37*
G36*
G01*
X133275000Y-101625000D02*
X133275000Y-100375000D01*
G75*
G02*
X133525000Y-100125000I250000J0D01*
G01*
X134275000Y-100125000D01*
G75*
G02*
X134525000Y-100375000I0J-250000D01*
G01*
X134525000Y-101625000D01*
G75*
G02*
X134275000Y-101875000I-250000J0D01*
G01*
X133525000Y-101875000D01*
G75*
G02*
X133275000Y-101625000I0J250000D01*
G01*
G37*
%TD*%
%TO.C,L1*%
G36*
G01*
X113575000Y-74256250D02*
X113575000Y-73343750D01*
G75*
G02*
X113818750Y-73100000I243750J0D01*
G01*
X114306250Y-73100000D01*
G75*
G02*
X114550000Y-73343750I0J-243750D01*
G01*
X114550000Y-74256250D01*
G75*
G02*
X114306250Y-74500000I-243750J0D01*
G01*
X113818750Y-74500000D01*
G75*
G02*
X113575000Y-74256250I0J243750D01*
G01*
G37*
G36*
G01*
X115450000Y-74256250D02*
X115450000Y-73343750D01*
G75*
G02*
X115693750Y-73100000I243750J0D01*
G01*
X116181250Y-73100000D01*
G75*
G02*
X116425000Y-73343750I0J-243750D01*
G01*
X116425000Y-74256250D01*
G75*
G02*
X116181250Y-74500000I-243750J0D01*
G01*
X115693750Y-74500000D01*
G75*
G02*
X115450000Y-74256250I0J243750D01*
G01*
G37*
%TD*%
%TO.C,R3*%
G36*
G01*
X140543750Y-69250000D02*
X141456250Y-69250000D01*
G75*
G02*
X141700000Y-69493750I0J-243750D01*
G01*
X141700000Y-69981250D01*
G75*
G02*
X141456250Y-70225000I-243750J0D01*
G01*
X140543750Y-70225000D01*
G75*
G02*
X140300000Y-69981250I0J243750D01*
G01*
X140300000Y-69493750D01*
G75*
G02*
X140543750Y-69250000I243750J0D01*
G01*
G37*
G36*
G01*
X140543750Y-67375000D02*
X141456250Y-67375000D01*
G75*
G02*
X141700000Y-67618750I0J-243750D01*
G01*
X141700000Y-68106250D01*
G75*
G02*
X141456250Y-68350000I-243750J0D01*
G01*
X140543750Y-68350000D01*
G75*
G02*
X140300000Y-68106250I0J243750D01*
G01*
X140300000Y-67618750D01*
G75*
G02*
X140543750Y-67375000I243750J0D01*
G01*
G37*
%TD*%
%TO.C,R7*%
G36*
G01*
X143458250Y-63925000D02*
X142545750Y-63925000D01*
G75*
G02*
X142302000Y-63681250I0J243750D01*
G01*
X142302000Y-63193750D01*
G75*
G02*
X142545750Y-62950000I243750J0D01*
G01*
X143458250Y-62950000D01*
G75*
G02*
X143702000Y-63193750I0J-243750D01*
G01*
X143702000Y-63681250D01*
G75*
G02*
X143458250Y-63925000I-243750J0D01*
G01*
G37*
G36*
G01*
X143458250Y-62050000D02*
X142545750Y-62050000D01*
G75*
G02*
X142302000Y-61806250I0J243750D01*
G01*
X142302000Y-61318750D01*
G75*
G02*
X142545750Y-61075000I243750J0D01*
G01*
X143458250Y-61075000D01*
G75*
G02*
X143702000Y-61318750I0J-243750D01*
G01*
X143702000Y-61806250D01*
G75*
G02*
X143458250Y-62050000I-243750J0D01*
G01*
G37*
%TD*%
D10*
%TO.C,SW2*%
X146304000Y-71056000D03*
X146304000Y-63056000D03*
%TD*%
D11*
%TO.C,U1*%
X120650000Y-72250000D03*
X120650000Y-72750000D03*
X120650000Y-73250000D03*
X120650000Y-73750000D03*
X120650000Y-74250000D03*
X120650000Y-74750000D03*
X120650000Y-75250000D03*
X120650000Y-75750000D03*
X120650000Y-76250000D03*
X120650000Y-76750000D03*
X120650000Y-77250000D03*
X120650000Y-77750000D03*
D12*
X122250000Y-79350000D03*
X122750000Y-79350000D03*
X123250000Y-79350000D03*
X123750000Y-79350000D03*
X124250000Y-79350000D03*
X124750000Y-79350000D03*
X125250000Y-79350000D03*
X125750000Y-79350000D03*
X126250000Y-79350000D03*
X126750000Y-79350000D03*
X127250000Y-79350000D03*
X127750000Y-79350000D03*
D11*
X129350000Y-77750000D03*
X129350000Y-77250000D03*
X129350000Y-76750000D03*
X129350000Y-76250000D03*
X129350000Y-75750000D03*
X129350000Y-75250000D03*
X129350000Y-74750000D03*
X129350000Y-74250000D03*
X129350000Y-73750000D03*
X129350000Y-73250000D03*
X129350000Y-72750000D03*
X129350000Y-72250000D03*
D12*
X127750000Y-70650000D03*
X127250000Y-70650000D03*
X126750000Y-70650000D03*
X126250000Y-70650000D03*
X125750000Y-70650000D03*
X125250000Y-70650000D03*
X124750000Y-70650000D03*
X124250000Y-70650000D03*
X123750000Y-70650000D03*
X123250000Y-70650000D03*
X122750000Y-70650000D03*
X122250000Y-70650000D03*
%TD*%
D13*
%TO.C,U3*%
X138900000Y-93980000D03*
D14*
X132600000Y-93980000D03*
X132600000Y-96280000D03*
X132600000Y-91680000D03*
%TD*%
%TO.C,U6*%
G36*
G01*
X123255000Y-86100000D02*
X123555000Y-86100000D01*
G75*
G02*
X123705000Y-86250000I0J-150000D01*
G01*
X123705000Y-87550000D01*
G75*
G02*
X123555000Y-87700000I-150000J0D01*
G01*
X123255000Y-87700000D01*
G75*
G02*
X123105000Y-87550000I0J150000D01*
G01*
X123105000Y-86250000D01*
G75*
G02*
X123255000Y-86100000I150000J0D01*
G01*
G37*
G36*
G01*
X121985000Y-86100000D02*
X122285000Y-86100000D01*
G75*
G02*
X122435000Y-86250000I0J-150000D01*
G01*
X122435000Y-87550000D01*
G75*
G02*
X122285000Y-87700000I-150000J0D01*
G01*
X121985000Y-87700000D01*
G75*
G02*
X121835000Y-87550000I0J150000D01*
G01*
X121835000Y-86250000D01*
G75*
G02*
X121985000Y-86100000I150000J0D01*
G01*
G37*
G36*
G01*
X120715000Y-86100000D02*
X121015000Y-86100000D01*
G75*
G02*
X121165000Y-86250000I0J-150000D01*
G01*
X121165000Y-87550000D01*
G75*
G02*
X121015000Y-87700000I-150000J0D01*
G01*
X120715000Y-87700000D01*
G75*
G02*
X120565000Y-87550000I0J150000D01*
G01*
X120565000Y-86250000D01*
G75*
G02*
X120715000Y-86100000I150000J0D01*
G01*
G37*
G36*
G01*
X119445000Y-86100000D02*
X119745000Y-86100000D01*
G75*
G02*
X119895000Y-86250000I0J-150000D01*
G01*
X119895000Y-87550000D01*
G75*
G02*
X119745000Y-87700000I-150000J0D01*
G01*
X119445000Y-87700000D01*
G75*
G02*
X119295000Y-87550000I0J150000D01*
G01*
X119295000Y-86250000D01*
G75*
G02*
X119445000Y-86100000I150000J0D01*
G01*
G37*
G36*
G01*
X119445000Y-93300000D02*
X119745000Y-93300000D01*
G75*
G02*
X119895000Y-93450000I0J-150000D01*
G01*
X119895000Y-94750000D01*
G75*
G02*
X119745000Y-94900000I-150000J0D01*
G01*
X119445000Y-94900000D01*
G75*
G02*
X119295000Y-94750000I0J150000D01*
G01*
X119295000Y-93450000D01*
G75*
G02*
X119445000Y-93300000I150000J0D01*
G01*
G37*
G36*
G01*
X120715000Y-93300000D02*
X121015000Y-93300000D01*
G75*
G02*
X121165000Y-93450000I0J-150000D01*
G01*
X121165000Y-94750000D01*
G75*
G02*
X121015000Y-94900000I-150000J0D01*
G01*
X120715000Y-94900000D01*
G75*
G02*
X120565000Y-94750000I0J150000D01*
G01*
X120565000Y-93450000D01*
G75*
G02*
X120715000Y-93300000I150000J0D01*
G01*
G37*
G36*
G01*
X121985000Y-93300000D02*
X122285000Y-93300000D01*
G75*
G02*
X122435000Y-93450000I0J-150000D01*
G01*
X122435000Y-94750000D01*
G75*
G02*
X122285000Y-94900000I-150000J0D01*
G01*
X121985000Y-94900000D01*
G75*
G02*
X121835000Y-94750000I0J150000D01*
G01*
X121835000Y-93450000D01*
G75*
G02*
X121985000Y-93300000I150000J0D01*
G01*
G37*
G36*
G01*
X123255000Y-93300000D02*
X123555000Y-93300000D01*
G75*
G02*
X123705000Y-93450000I0J-150000D01*
G01*
X123705000Y-94750000D01*
G75*
G02*
X123555000Y-94900000I-150000J0D01*
G01*
X123255000Y-94900000D01*
G75*
G02*
X123105000Y-94750000I0J150000D01*
G01*
X123105000Y-93450000D01*
G75*
G02*
X123255000Y-93300000I150000J0D01*
G01*
G37*
%TD*%
%TO.C,D3*%
G36*
G01*
X135525000Y-77775000D02*
X135525000Y-79025000D01*
G75*
G02*
X135275000Y-79275000I-250000J0D01*
G01*
X134525000Y-79275000D01*
G75*
G02*
X134275000Y-79025000I0J250000D01*
G01*
X134275000Y-77775000D01*
G75*
G02*
X134525000Y-77525000I250000J0D01*
G01*
X135275000Y-77525000D01*
G75*
G02*
X135525000Y-77775000I0J-250000D01*
G01*
G37*
G36*
G01*
X138325000Y-77775000D02*
X138325000Y-79025000D01*
G75*
G02*
X138075000Y-79275000I-250000J0D01*
G01*
X137325000Y-79275000D01*
G75*
G02*
X137075000Y-79025000I0J250000D01*
G01*
X137075000Y-77775000D01*
G75*
G02*
X137325000Y-77525000I250000J0D01*
G01*
X138075000Y-77525000D01*
G75*
G02*
X138325000Y-77775000I0J-250000D01*
G01*
G37*
%TD*%
%TO.C,D4*%
G36*
G01*
X138541000Y-67017000D02*
X137291000Y-67017000D01*
G75*
G02*
X137041000Y-66767000I0J250000D01*
G01*
X137041000Y-66017000D01*
G75*
G02*
X137291000Y-65767000I250000J0D01*
G01*
X138541000Y-65767000D01*
G75*
G02*
X138791000Y-66017000I0J-250000D01*
G01*
X138791000Y-66767000D01*
G75*
G02*
X138541000Y-67017000I-250000J0D01*
G01*
G37*
G36*
G01*
X138541000Y-64217000D02*
X137291000Y-64217000D01*
G75*
G02*
X137041000Y-63967000I0J250000D01*
G01*
X137041000Y-63217000D01*
G75*
G02*
X137291000Y-62967000I250000J0D01*
G01*
X138541000Y-62967000D01*
G75*
G02*
X138791000Y-63217000I0J-250000D01*
G01*
X138791000Y-63967000D01*
G75*
G02*
X138541000Y-64217000I-250000J0D01*
G01*
G37*
%TD*%
%TO.C,R8*%
G36*
G01*
X141021750Y-94684000D02*
X141934250Y-94684000D01*
G75*
G02*
X142178000Y-94927750I0J-243750D01*
G01*
X142178000Y-95415250D01*
G75*
G02*
X141934250Y-95659000I-243750J0D01*
G01*
X141021750Y-95659000D01*
G75*
G02*
X140778000Y-95415250I0J243750D01*
G01*
X140778000Y-94927750D01*
G75*
G02*
X141021750Y-94684000I243750J0D01*
G01*
G37*
G36*
G01*
X141021750Y-92809000D02*
X141934250Y-92809000D01*
G75*
G02*
X142178000Y-93052750I0J-243750D01*
G01*
X142178000Y-93540250D01*
G75*
G02*
X141934250Y-93784000I-243750J0D01*
G01*
X141021750Y-93784000D01*
G75*
G02*
X140778000Y-93540250I0J243750D01*
G01*
X140778000Y-93052750D01*
G75*
G02*
X141021750Y-92809000I243750J0D01*
G01*
G37*
%TD*%
%TO.C,R9*%
G36*
G01*
X141956250Y-91675000D02*
X141043750Y-91675000D01*
G75*
G02*
X140800000Y-91431250I0J243750D01*
G01*
X140800000Y-90943750D01*
G75*
G02*
X141043750Y-90700000I243750J0D01*
G01*
X141956250Y-90700000D01*
G75*
G02*
X142200000Y-90943750I0J-243750D01*
G01*
X142200000Y-91431250D01*
G75*
G02*
X141956250Y-91675000I-243750J0D01*
G01*
G37*
G36*
G01*
X141956250Y-89800000D02*
X141043750Y-89800000D01*
G75*
G02*
X140800000Y-89556250I0J243750D01*
G01*
X140800000Y-89068750D01*
G75*
G02*
X141043750Y-88825000I243750J0D01*
G01*
X141956250Y-88825000D01*
G75*
G02*
X142200000Y-89068750I0J-243750D01*
G01*
X142200000Y-89556250D01*
G75*
G02*
X141956250Y-89800000I-243750J0D01*
G01*
G37*
%TD*%
%TO.C,R10*%
G36*
G01*
X130875000Y-78856250D02*
X130875000Y-77943750D01*
G75*
G02*
X131118750Y-77700000I243750J0D01*
G01*
X131606250Y-77700000D01*
G75*
G02*
X131850000Y-77943750I0J-243750D01*
G01*
X131850000Y-78856250D01*
G75*
G02*
X131606250Y-79100000I-243750J0D01*
G01*
X131118750Y-79100000D01*
G75*
G02*
X130875000Y-78856250I0J243750D01*
G01*
G37*
G36*
G01*
X132750000Y-78856250D02*
X132750000Y-77943750D01*
G75*
G02*
X132993750Y-77700000I243750J0D01*
G01*
X133481250Y-77700000D01*
G75*
G02*
X133725000Y-77943750I0J-243750D01*
G01*
X133725000Y-78856250D01*
G75*
G02*
X133481250Y-79100000I-243750J0D01*
G01*
X132993750Y-79100000D01*
G75*
G02*
X132750000Y-78856250I0J243750D01*
G01*
G37*
%TD*%
%TO.C,R11*%
G36*
G01*
X137343750Y-61350000D02*
X138256250Y-61350000D01*
G75*
G02*
X138500000Y-61593750I0J-243750D01*
G01*
X138500000Y-62081250D01*
G75*
G02*
X138256250Y-62325000I-243750J0D01*
G01*
X137343750Y-62325000D01*
G75*
G02*
X137100000Y-62081250I0J243750D01*
G01*
X137100000Y-61593750D01*
G75*
G02*
X137343750Y-61350000I243750J0D01*
G01*
G37*
G36*
G01*
X137343750Y-59475000D02*
X138256250Y-59475000D01*
G75*
G02*
X138500000Y-59718750I0J-243750D01*
G01*
X138500000Y-60206250D01*
G75*
G02*
X138256250Y-60450000I-243750J0D01*
G01*
X137343750Y-60450000D01*
G75*
G02*
X137100000Y-60206250I0J243750D01*
G01*
X137100000Y-59718750D01*
G75*
G02*
X137343750Y-59475000I243750J0D01*
G01*
G37*
%TD*%
%TO.C,R12*%
G36*
G01*
X134343750Y-59475000D02*
X135256250Y-59475000D01*
G75*
G02*
X135500000Y-59718750I0J-243750D01*
G01*
X135500000Y-60206250D01*
G75*
G02*
X135256250Y-60450000I-243750J0D01*
G01*
X134343750Y-60450000D01*
G75*
G02*
X134100000Y-60206250I0J243750D01*
G01*
X134100000Y-59718750D01*
G75*
G02*
X134343750Y-59475000I243750J0D01*
G01*
G37*
G36*
G01*
X134343750Y-61350000D02*
X135256250Y-61350000D01*
G75*
G02*
X135500000Y-61593750I0J-243750D01*
G01*
X135500000Y-62081250D01*
G75*
G02*
X135256250Y-62325000I-243750J0D01*
G01*
X134343750Y-62325000D01*
G75*
G02*
X134100000Y-62081250I0J243750D01*
G01*
X134100000Y-61593750D01*
G75*
G02*
X134343750Y-61350000I243750J0D01*
G01*
G37*
%TD*%
%TO.C,D6*%
G36*
G01*
X137875000Y-99975000D02*
X139125000Y-99975000D01*
G75*
G02*
X139375000Y-100225000I0J-250000D01*
G01*
X139375000Y-100975000D01*
G75*
G02*
X139125000Y-101225000I-250000J0D01*
G01*
X137875000Y-101225000D01*
G75*
G02*
X137625000Y-100975000I0J250000D01*
G01*
X137625000Y-100225000D01*
G75*
G02*
X137875000Y-99975000I250000J0D01*
G01*
G37*
G36*
G01*
X137875000Y-102775000D02*
X139125000Y-102775000D01*
G75*
G02*
X139375000Y-103025000I0J-250000D01*
G01*
X139375000Y-103775000D01*
G75*
G02*
X139125000Y-104025000I-250000J0D01*
G01*
X137875000Y-104025000D01*
G75*
G02*
X137625000Y-103775000I0J250000D01*
G01*
X137625000Y-103025000D01*
G75*
G02*
X137875000Y-102775000I250000J0D01*
G01*
G37*
%TD*%
%TO.C,R13*%
G36*
G01*
X135443750Y-101975000D02*
X136356250Y-101975000D01*
G75*
G02*
X136600000Y-102218750I0J-243750D01*
G01*
X136600000Y-102706250D01*
G75*
G02*
X136356250Y-102950000I-243750J0D01*
G01*
X135443750Y-102950000D01*
G75*
G02*
X135200000Y-102706250I0J243750D01*
G01*
X135200000Y-102218750D01*
G75*
G02*
X135443750Y-101975000I243750J0D01*
G01*
G37*
G36*
G01*
X135443750Y-103850000D02*
X136356250Y-103850000D01*
G75*
G02*
X136600000Y-104093750I0J-243750D01*
G01*
X136600000Y-104581250D01*
G75*
G02*
X136356250Y-104825000I-243750J0D01*
G01*
X135443750Y-104825000D01*
G75*
G02*
X135200000Y-104581250I0J243750D01*
G01*
X135200000Y-104093750D01*
G75*
G02*
X135443750Y-103850000I243750J0D01*
G01*
G37*
%TD*%
%TO.C,C10*%
G36*
G01*
X131575000Y-98956250D02*
X131575000Y-98043750D01*
G75*
G02*
X131818750Y-97800000I243750J0D01*
G01*
X132306250Y-97800000D01*
G75*
G02*
X132550000Y-98043750I0J-243750D01*
G01*
X132550000Y-98956250D01*
G75*
G02*
X132306250Y-99200000I-243750J0D01*
G01*
X131818750Y-99200000D01*
G75*
G02*
X131575000Y-98956250I0J243750D01*
G01*
G37*
G36*
G01*
X133450000Y-98956250D02*
X133450000Y-98043750D01*
G75*
G02*
X133693750Y-97800000I243750J0D01*
G01*
X134181250Y-97800000D01*
G75*
G02*
X134425000Y-98043750I0J-243750D01*
G01*
X134425000Y-98956250D01*
G75*
G02*
X134181250Y-99200000I-243750J0D01*
G01*
X133693750Y-99200000D01*
G75*
G02*
X133450000Y-98956250I0J243750D01*
G01*
G37*
%TD*%
%TO.C,D5*%
G36*
G01*
X135425000Y-67025000D02*
X134175000Y-67025000D01*
G75*
G02*
X133925000Y-66775000I0J250000D01*
G01*
X133925000Y-66025000D01*
G75*
G02*
X134175000Y-65775000I250000J0D01*
G01*
X135425000Y-65775000D01*
G75*
G02*
X135675000Y-66025000I0J-250000D01*
G01*
X135675000Y-66775000D01*
G75*
G02*
X135425000Y-67025000I-250000J0D01*
G01*
G37*
G36*
G01*
X135425000Y-64225000D02*
X134175000Y-64225000D01*
G75*
G02*
X133925000Y-63975000I0J250000D01*
G01*
X133925000Y-63225000D01*
G75*
G02*
X134175000Y-62975000I250000J0D01*
G01*
X135425000Y-62975000D01*
G75*
G02*
X135675000Y-63225000I0J-250000D01*
G01*
X135675000Y-63975000D01*
G75*
G02*
X135425000Y-64225000I-250000J0D01*
G01*
G37*
%TD*%
%TO.C,R15*%
G36*
G01*
X123525000Y-98293750D02*
X123525000Y-99206250D01*
G75*
G02*
X123281250Y-99450000I-243750J0D01*
G01*
X122793750Y-99450000D01*
G75*
G02*
X122550000Y-99206250I0J243750D01*
G01*
X122550000Y-98293750D01*
G75*
G02*
X122793750Y-98050000I243750J0D01*
G01*
X123281250Y-98050000D01*
G75*
G02*
X123525000Y-98293750I0J-243750D01*
G01*
G37*
G36*
G01*
X121650000Y-98293750D02*
X121650000Y-99206250D01*
G75*
G02*
X121406250Y-99450000I-243750J0D01*
G01*
X120918750Y-99450000D01*
G75*
G02*
X120675000Y-99206250I0J243750D01*
G01*
X120675000Y-98293750D01*
G75*
G02*
X120918750Y-98050000I243750J0D01*
G01*
X121406250Y-98050000D01*
G75*
G02*
X121650000Y-98293750I0J-243750D01*
G01*
G37*
%TD*%
D15*
%TO.C,J3*%
X119920000Y-51300000D03*
X122460000Y-51300000D03*
X125000000Y-51300000D03*
X127540000Y-51300000D03*
X130080000Y-51300000D03*
%TD*%
%TO.C,C21*%
G36*
G01*
X143456250Y-70225000D02*
X142543750Y-70225000D01*
G75*
G02*
X142300000Y-69981250I0J243750D01*
G01*
X142300000Y-69493750D01*
G75*
G02*
X142543750Y-69250000I243750J0D01*
G01*
X143456250Y-69250000D01*
G75*
G02*
X143700000Y-69493750I0J-243750D01*
G01*
X143700000Y-69981250D01*
G75*
G02*
X143456250Y-70225000I-243750J0D01*
G01*
G37*
G36*
G01*
X143456250Y-68350000D02*
X142543750Y-68350000D01*
G75*
G02*
X142300000Y-68106250I0J243750D01*
G01*
X142300000Y-67618750D01*
G75*
G02*
X142543750Y-67375000I243750J0D01*
G01*
X143456250Y-67375000D01*
G75*
G02*
X143700000Y-67618750I0J-243750D01*
G01*
X143700000Y-68106250D01*
G75*
G02*
X143456250Y-68350000I-243750J0D01*
G01*
G37*
%TD*%
D16*
%TO.C,J6*%
X116700000Y-96030000D03*
D17*
X116800000Y-97500000D03*
D18*
X115100000Y-98100000D03*
D19*
X107700000Y-98200000D03*
D20*
X102000000Y-97900000D03*
D16*
X116700000Y-94930000D03*
X116700000Y-93830000D03*
X116700000Y-92730000D03*
X116700000Y-91630000D03*
X116700000Y-90530000D03*
X116700000Y-89430000D03*
X116700000Y-88330000D03*
D20*
X102000000Y-84500000D03*
D21*
X116800000Y-84800000D03*
%TD*%
M02*
