M48
; DRILL file {KiCad (5.1.6-0-10_14)} date Monday, May 24, 2021 at 07:11:53 PM
; FORMAT={-:-/ absolute / metric / decimal}
; #@! TF.CreationDate,2021-05-24T19:11:53+02:00
; #@! TF.GenerationSoftware,Kicad,Pcbnew,(5.1.6-0-10_14)
; #@! TF.FileFunction,Plated,1,2,PTH
FMAT,2
METRIC
T1C0.305
T2C0.500
T3C0.610
T4C0.700
T5C0.900
T6C1.000
T7C1.100
T8C1.200
T9C1.850
T10C2.000
T11C3.200
%
G90
G05
T1
X107.9Y-90.7
X109.35Y-85.05
X110.7Y-88.1
X112.1Y-86.6
X112.1Y-89.8
X112.2Y-94.1
X112.5Y-57.5
X114.4Y-92.5
X115.8Y-57.6
X118.1Y-75.7
X118.2Y-78.0
X118.3Y-89.4
X118.5Y-92.4
X118.6Y-76.5
X118.9Y-77.3
X120.3Y-90.5
X120.65Y-84.15
X121.0Y-68.8
X121.6Y-84.1
X122.4Y-72.4
X123.025Y-74.775
X124.25Y-72.7
X124.75Y-77.85
X124.8Y-81.2
X125.7Y-86.5
X125.7Y-87.5
X125.75Y-81.2
X125.9Y-54.5
X126.0Y-84.5
X126.0Y-85.5
X126.3Y-75.0
X126.4Y-100.0
X126.5Y-99.0
X126.7Y-81.2
X127.1Y-87.1
X127.6Y-81.2
X128.0Y-72.75
X128.4Y-68.3
X129.1Y-80.3
X129.5Y-89.5
X130.2Y-104.1
X130.4Y-89.0
X130.4Y-102.8
X131.453Y-76.0
X131.6Y-75.2
X131.75Y-80.75
X133.4Y-88.1
X134.0Y-70.9
X134.4Y-74.4
X135.4Y-74.4
X136.8Y-94.0
X138.4Y-84.1
X138.9Y-105.0
X140.5Y-56.4
T2
X117.856Y-71.628
X117.856Y-73.528
T3
X127.6Y-91.1
X128.2Y-100.9
X131.8Y-56.3
X132.686Y-86.614
X137.6Y-74.0
X140.5Y-63.2
X140.75Y-77.25
T4
X145.062Y-77.61
X145.062Y-79.21
X146.812Y-76.81
X146.812Y-78.41
X146.812Y-80.01
T5
X108.458Y-72.898
X108.458Y-74.168
X108.458Y-75.438
X108.458Y-76.708
T6
X132.5Y-113.0
X132.5Y-115.54
X132.5Y-118.08
X119.38Y-58.674
X119.38Y-61.214
X119.38Y-63.754
X119.38Y-66.294
X130.4Y-58.6
X130.4Y-61.14
X130.4Y-63.68
X130.4Y-66.22
X104.668Y-64.516
X112.268Y-64.516
X117.5Y-113.0
X117.5Y-115.54
X117.5Y-118.08
X122.5Y-113.0
X122.5Y-115.54
X122.5Y-118.08
X127.5Y-113.0
X127.5Y-115.54
X127.5Y-118.08
T7
X140.2Y-107.9
X140.2Y-118.06
T8
X146.05Y-105.212
X146.05Y-108.712
T9
X146.05Y-91.1
X146.05Y-95.8
X146.05Y-100.5
T10
X145.937Y-74.76
X145.937Y-82.06
T11
X104.0Y-116.0
X104.0Y-54.0
X146.0Y-116.0
X146.0Y-54.0
T0
M30
