%TF.GenerationSoftware,KiCad,Pcbnew,(5.1.6-0-10_14)*%
%TF.CreationDate,2021-05-24T19:11:46+02:00*%
%TF.ProjectId,ControlUnit,436f6e74-726f-46c5-956e-69742e6b6963,rev?*%
%TF.SameCoordinates,Original*%
%TF.FileFunction,Legend,Bot*%
%TF.FilePolarity,Positive*%
%FSLAX46Y46*%
G04 Gerber Fmt 4.6, Leading zero omitted, Abs format (unit mm)*
G04 Created by KiCad (PCBNEW (5.1.6-0-10_14)) date 2021-05-24 19:11:46*
%MOMM*%
%LPD*%
G01*
G04 APERTURE LIST*
%ADD10C,0.010000*%
%ADD11C,0.100000*%
%ADD12C,0.120000*%
%ADD13C,0.127000*%
%ADD14C,0.200000*%
%ADD15C,0.150000*%
G04 APERTURE END LIST*
D10*
%TO.C,REF\u002A\u002A*%
G36*
X110944186Y-112668931D02*
G01*
X110860365Y-113113555D01*
X110551080Y-113241053D01*
X110241794Y-113368551D01*
X109870754Y-113116246D01*
X109766843Y-113045996D01*
X109672913Y-112983272D01*
X109593348Y-112930938D01*
X109532530Y-112891857D01*
X109494843Y-112868893D01*
X109484579Y-112863942D01*
X109466090Y-112876676D01*
X109426580Y-112911882D01*
X109370478Y-112965062D01*
X109302213Y-113031718D01*
X109226214Y-113107354D01*
X109146908Y-113187472D01*
X109068725Y-113267574D01*
X108996093Y-113343164D01*
X108933441Y-113409745D01*
X108885197Y-113462818D01*
X108855790Y-113497887D01*
X108848759Y-113509623D01*
X108858877Y-113531260D01*
X108887241Y-113578662D01*
X108930871Y-113647193D01*
X108986782Y-113732215D01*
X109051994Y-113829093D01*
X109089781Y-113884350D01*
X109158657Y-113985248D01*
X109219860Y-114076299D01*
X109270422Y-114152970D01*
X109307372Y-114210728D01*
X109327742Y-114245043D01*
X109330803Y-114252254D01*
X109323864Y-114272748D01*
X109304949Y-114320513D01*
X109276913Y-114388832D01*
X109242609Y-114470989D01*
X109204891Y-114560270D01*
X109166613Y-114649958D01*
X109130630Y-114733338D01*
X109099794Y-114803694D01*
X109076961Y-114854310D01*
X109064983Y-114878471D01*
X109064276Y-114879422D01*
X109045469Y-114884036D01*
X108995382Y-114894328D01*
X108919207Y-114909287D01*
X108822135Y-114927901D01*
X108709357Y-114949159D01*
X108643558Y-114961418D01*
X108523050Y-114984362D01*
X108414203Y-115006195D01*
X108322524Y-115025722D01*
X108253519Y-115041748D01*
X108212696Y-115053079D01*
X108204489Y-115056674D01*
X108196452Y-115081006D01*
X108189967Y-115135959D01*
X108185030Y-115215108D01*
X108181636Y-115312026D01*
X108179782Y-115420287D01*
X108179462Y-115533465D01*
X108180673Y-115645135D01*
X108183410Y-115748868D01*
X108187669Y-115838241D01*
X108193445Y-115906826D01*
X108200733Y-115948197D01*
X108205105Y-115956810D01*
X108231236Y-115967133D01*
X108286607Y-115981892D01*
X108363893Y-115999352D01*
X108455770Y-116017780D01*
X108487842Y-116023741D01*
X108642476Y-116052066D01*
X108764625Y-116074876D01*
X108858327Y-116093080D01*
X108927616Y-116107583D01*
X108976529Y-116119292D01*
X109009103Y-116129115D01*
X109029372Y-116137956D01*
X109041374Y-116146724D01*
X109043053Y-116148457D01*
X109059816Y-116176371D01*
X109085386Y-116230695D01*
X109117212Y-116304777D01*
X109152740Y-116391965D01*
X109189417Y-116485608D01*
X109224689Y-116579052D01*
X109256004Y-116665647D01*
X109280807Y-116738740D01*
X109296546Y-116791678D01*
X109300668Y-116817811D01*
X109300324Y-116818726D01*
X109286359Y-116840086D01*
X109254678Y-116887084D01*
X109208609Y-116954827D01*
X109151482Y-117038423D01*
X109086627Y-117132982D01*
X109068157Y-117159854D01*
X109002301Y-117257275D01*
X108944350Y-117346163D01*
X108897462Y-117421412D01*
X108864793Y-117477920D01*
X108849500Y-117510581D01*
X108848759Y-117514593D01*
X108861608Y-117535684D01*
X108897112Y-117577464D01*
X108950707Y-117635445D01*
X109017829Y-117705135D01*
X109093913Y-117782045D01*
X109174396Y-117861683D01*
X109254713Y-117939561D01*
X109330301Y-118011186D01*
X109396595Y-118072070D01*
X109449031Y-118117721D01*
X109483045Y-118143650D01*
X109492455Y-118147883D01*
X109514357Y-118137912D01*
X109559200Y-118111020D01*
X109619679Y-118071736D01*
X109666211Y-118040117D01*
X109750525Y-117982098D01*
X109850374Y-117913784D01*
X109950527Y-117845579D01*
X110004373Y-117809075D01*
X110186629Y-117685800D01*
X110339619Y-117768520D01*
X110409318Y-117804759D01*
X110468586Y-117832926D01*
X110508689Y-117848991D01*
X110518897Y-117851226D01*
X110531171Y-117834722D01*
X110555387Y-117788082D01*
X110589737Y-117715609D01*
X110632412Y-117621606D01*
X110681606Y-117510374D01*
X110735510Y-117386215D01*
X110792316Y-117253432D01*
X110850218Y-117116327D01*
X110907407Y-116979202D01*
X110962076Y-116846358D01*
X111012416Y-116722098D01*
X111056620Y-116610725D01*
X111092881Y-116516539D01*
X111119391Y-116443844D01*
X111134342Y-116396941D01*
X111136746Y-116380833D01*
X111117689Y-116360286D01*
X111075964Y-116326933D01*
X111020294Y-116287702D01*
X111015622Y-116284599D01*
X110871736Y-116169423D01*
X110755717Y-116035053D01*
X110668570Y-115885784D01*
X110611301Y-115725913D01*
X110584914Y-115559737D01*
X110590415Y-115391552D01*
X110628810Y-115225655D01*
X110701105Y-115066342D01*
X110722374Y-115031487D01*
X110833004Y-114890737D01*
X110963698Y-114777714D01*
X111109936Y-114693003D01*
X111267192Y-114637194D01*
X111430943Y-114610874D01*
X111596667Y-114614630D01*
X111759838Y-114649050D01*
X111915935Y-114714723D01*
X112060433Y-114812235D01*
X112105131Y-114851813D01*
X112218888Y-114975703D01*
X112301782Y-115106124D01*
X112358644Y-115252315D01*
X112390313Y-115397088D01*
X112398131Y-115559860D01*
X112372062Y-115723440D01*
X112314755Y-115882298D01*
X112228856Y-116030906D01*
X112117014Y-116163735D01*
X111981877Y-116275256D01*
X111964117Y-116287011D01*
X111907850Y-116325508D01*
X111865077Y-116358863D01*
X111844628Y-116380160D01*
X111844331Y-116380833D01*
X111848721Y-116403871D01*
X111866124Y-116456157D01*
X111894732Y-116533390D01*
X111932735Y-116631268D01*
X111978326Y-116745491D01*
X112029697Y-116871758D01*
X112085038Y-117005767D01*
X112142542Y-117143218D01*
X112200399Y-117279808D01*
X112256802Y-117411237D01*
X112309942Y-117533205D01*
X112358010Y-117641409D01*
X112399199Y-117731549D01*
X112431699Y-117799323D01*
X112453703Y-117840430D01*
X112462564Y-117851226D01*
X112489640Y-117842819D01*
X112540303Y-117820272D01*
X112605817Y-117787613D01*
X112641841Y-117768520D01*
X112794832Y-117685800D01*
X112977088Y-117809075D01*
X113070125Y-117872228D01*
X113171985Y-117941727D01*
X113267438Y-118007165D01*
X113315250Y-118040117D01*
X113382495Y-118085273D01*
X113439436Y-118121057D01*
X113478646Y-118142938D01*
X113491381Y-118147563D01*
X113509917Y-118135085D01*
X113550941Y-118100252D01*
X113610475Y-118046678D01*
X113684542Y-117977983D01*
X113769165Y-117897781D01*
X113822685Y-117846286D01*
X113916319Y-117754286D01*
X113997241Y-117671999D01*
X114062177Y-117602945D01*
X114107858Y-117550644D01*
X114131011Y-117518616D01*
X114133232Y-117512116D01*
X114122924Y-117487394D01*
X114094439Y-117437405D01*
X114050937Y-117367212D01*
X113995577Y-117281875D01*
X113931520Y-117186456D01*
X113913303Y-117159854D01*
X113846927Y-117063167D01*
X113787378Y-116976117D01*
X113737984Y-116903595D01*
X113702075Y-116850493D01*
X113682981Y-116821703D01*
X113681136Y-116818726D01*
X113683895Y-116795782D01*
X113698538Y-116745336D01*
X113722513Y-116674041D01*
X113753266Y-116588547D01*
X113788244Y-116495507D01*
X113824893Y-116401574D01*
X113860661Y-116313399D01*
X113892994Y-116237634D01*
X113919338Y-116180931D01*
X113937142Y-116149943D01*
X113938407Y-116148457D01*
X113949294Y-116139601D01*
X113967682Y-116130843D01*
X113997606Y-116121277D01*
X114043103Y-116109996D01*
X114108209Y-116096093D01*
X114196961Y-116078663D01*
X114313393Y-116056798D01*
X114461542Y-116029591D01*
X114493618Y-116023741D01*
X114588686Y-116005374D01*
X114671565Y-115987405D01*
X114734930Y-115971569D01*
X114771458Y-115959600D01*
X114776356Y-115956810D01*
X114784427Y-115932072D01*
X114790987Y-115876790D01*
X114796033Y-115797389D01*
X114799559Y-115700296D01*
X114801561Y-115591938D01*
X114802036Y-115478740D01*
X114800977Y-115367128D01*
X114798382Y-115263529D01*
X114794246Y-115174368D01*
X114788563Y-115106072D01*
X114781331Y-115065066D01*
X114776971Y-115056674D01*
X114752698Y-115048208D01*
X114697426Y-115034435D01*
X114616662Y-115016550D01*
X114515912Y-114995748D01*
X114400683Y-114973223D01*
X114337902Y-114961418D01*
X114218787Y-114939151D01*
X114112565Y-114918979D01*
X114024427Y-114901915D01*
X113959566Y-114888969D01*
X113923174Y-114881155D01*
X113917184Y-114879422D01*
X113907061Y-114859890D01*
X113885662Y-114812843D01*
X113855839Y-114745003D01*
X113820445Y-114663091D01*
X113782332Y-114573828D01*
X113744353Y-114483935D01*
X113709360Y-114400135D01*
X113680206Y-114329147D01*
X113659743Y-114277694D01*
X113650823Y-114252497D01*
X113650657Y-114251396D01*
X113660769Y-114231519D01*
X113689117Y-114185777D01*
X113732723Y-114118717D01*
X113788606Y-114034884D01*
X113853787Y-113938826D01*
X113891679Y-113883650D01*
X113960725Y-113782481D01*
X114022050Y-113690630D01*
X114072663Y-113612744D01*
X114109571Y-113553469D01*
X114129782Y-113517451D01*
X114132701Y-113509377D01*
X114120153Y-113490584D01*
X114085463Y-113450457D01*
X114033063Y-113393493D01*
X113967384Y-113324185D01*
X113892856Y-113247031D01*
X113813913Y-113166525D01*
X113734983Y-113087163D01*
X113660500Y-113013440D01*
X113594894Y-112949852D01*
X113542596Y-112900894D01*
X113508039Y-112871061D01*
X113496478Y-112863942D01*
X113477654Y-112873953D01*
X113432631Y-112902078D01*
X113365787Y-112945454D01*
X113281499Y-113001218D01*
X113184144Y-113066506D01*
X113110707Y-113116246D01*
X112739667Y-113368551D01*
X112121095Y-113113555D01*
X112037275Y-112668931D01*
X111953454Y-112224307D01*
X111028006Y-112224307D01*
X110944186Y-112668931D01*
G37*
X110944186Y-112668931D02*
X110860365Y-113113555D01*
X110551080Y-113241053D01*
X110241794Y-113368551D01*
X109870754Y-113116246D01*
X109766843Y-113045996D01*
X109672913Y-112983272D01*
X109593348Y-112930938D01*
X109532530Y-112891857D01*
X109494843Y-112868893D01*
X109484579Y-112863942D01*
X109466090Y-112876676D01*
X109426580Y-112911882D01*
X109370478Y-112965062D01*
X109302213Y-113031718D01*
X109226214Y-113107354D01*
X109146908Y-113187472D01*
X109068725Y-113267574D01*
X108996093Y-113343164D01*
X108933441Y-113409745D01*
X108885197Y-113462818D01*
X108855790Y-113497887D01*
X108848759Y-113509623D01*
X108858877Y-113531260D01*
X108887241Y-113578662D01*
X108930871Y-113647193D01*
X108986782Y-113732215D01*
X109051994Y-113829093D01*
X109089781Y-113884350D01*
X109158657Y-113985248D01*
X109219860Y-114076299D01*
X109270422Y-114152970D01*
X109307372Y-114210728D01*
X109327742Y-114245043D01*
X109330803Y-114252254D01*
X109323864Y-114272748D01*
X109304949Y-114320513D01*
X109276913Y-114388832D01*
X109242609Y-114470989D01*
X109204891Y-114560270D01*
X109166613Y-114649958D01*
X109130630Y-114733338D01*
X109099794Y-114803694D01*
X109076961Y-114854310D01*
X109064983Y-114878471D01*
X109064276Y-114879422D01*
X109045469Y-114884036D01*
X108995382Y-114894328D01*
X108919207Y-114909287D01*
X108822135Y-114927901D01*
X108709357Y-114949159D01*
X108643558Y-114961418D01*
X108523050Y-114984362D01*
X108414203Y-115006195D01*
X108322524Y-115025722D01*
X108253519Y-115041748D01*
X108212696Y-115053079D01*
X108204489Y-115056674D01*
X108196452Y-115081006D01*
X108189967Y-115135959D01*
X108185030Y-115215108D01*
X108181636Y-115312026D01*
X108179782Y-115420287D01*
X108179462Y-115533465D01*
X108180673Y-115645135D01*
X108183410Y-115748868D01*
X108187669Y-115838241D01*
X108193445Y-115906826D01*
X108200733Y-115948197D01*
X108205105Y-115956810D01*
X108231236Y-115967133D01*
X108286607Y-115981892D01*
X108363893Y-115999352D01*
X108455770Y-116017780D01*
X108487842Y-116023741D01*
X108642476Y-116052066D01*
X108764625Y-116074876D01*
X108858327Y-116093080D01*
X108927616Y-116107583D01*
X108976529Y-116119292D01*
X109009103Y-116129115D01*
X109029372Y-116137956D01*
X109041374Y-116146724D01*
X109043053Y-116148457D01*
X109059816Y-116176371D01*
X109085386Y-116230695D01*
X109117212Y-116304777D01*
X109152740Y-116391965D01*
X109189417Y-116485608D01*
X109224689Y-116579052D01*
X109256004Y-116665647D01*
X109280807Y-116738740D01*
X109296546Y-116791678D01*
X109300668Y-116817811D01*
X109300324Y-116818726D01*
X109286359Y-116840086D01*
X109254678Y-116887084D01*
X109208609Y-116954827D01*
X109151482Y-117038423D01*
X109086627Y-117132982D01*
X109068157Y-117159854D01*
X109002301Y-117257275D01*
X108944350Y-117346163D01*
X108897462Y-117421412D01*
X108864793Y-117477920D01*
X108849500Y-117510581D01*
X108848759Y-117514593D01*
X108861608Y-117535684D01*
X108897112Y-117577464D01*
X108950707Y-117635445D01*
X109017829Y-117705135D01*
X109093913Y-117782045D01*
X109174396Y-117861683D01*
X109254713Y-117939561D01*
X109330301Y-118011186D01*
X109396595Y-118072070D01*
X109449031Y-118117721D01*
X109483045Y-118143650D01*
X109492455Y-118147883D01*
X109514357Y-118137912D01*
X109559200Y-118111020D01*
X109619679Y-118071736D01*
X109666211Y-118040117D01*
X109750525Y-117982098D01*
X109850374Y-117913784D01*
X109950527Y-117845579D01*
X110004373Y-117809075D01*
X110186629Y-117685800D01*
X110339619Y-117768520D01*
X110409318Y-117804759D01*
X110468586Y-117832926D01*
X110508689Y-117848991D01*
X110518897Y-117851226D01*
X110531171Y-117834722D01*
X110555387Y-117788082D01*
X110589737Y-117715609D01*
X110632412Y-117621606D01*
X110681606Y-117510374D01*
X110735510Y-117386215D01*
X110792316Y-117253432D01*
X110850218Y-117116327D01*
X110907407Y-116979202D01*
X110962076Y-116846358D01*
X111012416Y-116722098D01*
X111056620Y-116610725D01*
X111092881Y-116516539D01*
X111119391Y-116443844D01*
X111134342Y-116396941D01*
X111136746Y-116380833D01*
X111117689Y-116360286D01*
X111075964Y-116326933D01*
X111020294Y-116287702D01*
X111015622Y-116284599D01*
X110871736Y-116169423D01*
X110755717Y-116035053D01*
X110668570Y-115885784D01*
X110611301Y-115725913D01*
X110584914Y-115559737D01*
X110590415Y-115391552D01*
X110628810Y-115225655D01*
X110701105Y-115066342D01*
X110722374Y-115031487D01*
X110833004Y-114890737D01*
X110963698Y-114777714D01*
X111109936Y-114693003D01*
X111267192Y-114637194D01*
X111430943Y-114610874D01*
X111596667Y-114614630D01*
X111759838Y-114649050D01*
X111915935Y-114714723D01*
X112060433Y-114812235D01*
X112105131Y-114851813D01*
X112218888Y-114975703D01*
X112301782Y-115106124D01*
X112358644Y-115252315D01*
X112390313Y-115397088D01*
X112398131Y-115559860D01*
X112372062Y-115723440D01*
X112314755Y-115882298D01*
X112228856Y-116030906D01*
X112117014Y-116163735D01*
X111981877Y-116275256D01*
X111964117Y-116287011D01*
X111907850Y-116325508D01*
X111865077Y-116358863D01*
X111844628Y-116380160D01*
X111844331Y-116380833D01*
X111848721Y-116403871D01*
X111866124Y-116456157D01*
X111894732Y-116533390D01*
X111932735Y-116631268D01*
X111978326Y-116745491D01*
X112029697Y-116871758D01*
X112085038Y-117005767D01*
X112142542Y-117143218D01*
X112200399Y-117279808D01*
X112256802Y-117411237D01*
X112309942Y-117533205D01*
X112358010Y-117641409D01*
X112399199Y-117731549D01*
X112431699Y-117799323D01*
X112453703Y-117840430D01*
X112462564Y-117851226D01*
X112489640Y-117842819D01*
X112540303Y-117820272D01*
X112605817Y-117787613D01*
X112641841Y-117768520D01*
X112794832Y-117685800D01*
X112977088Y-117809075D01*
X113070125Y-117872228D01*
X113171985Y-117941727D01*
X113267438Y-118007165D01*
X113315250Y-118040117D01*
X113382495Y-118085273D01*
X113439436Y-118121057D01*
X113478646Y-118142938D01*
X113491381Y-118147563D01*
X113509917Y-118135085D01*
X113550941Y-118100252D01*
X113610475Y-118046678D01*
X113684542Y-117977983D01*
X113769165Y-117897781D01*
X113822685Y-117846286D01*
X113916319Y-117754286D01*
X113997241Y-117671999D01*
X114062177Y-117602945D01*
X114107858Y-117550644D01*
X114131011Y-117518616D01*
X114133232Y-117512116D01*
X114122924Y-117487394D01*
X114094439Y-117437405D01*
X114050937Y-117367212D01*
X113995577Y-117281875D01*
X113931520Y-117186456D01*
X113913303Y-117159854D01*
X113846927Y-117063167D01*
X113787378Y-116976117D01*
X113737984Y-116903595D01*
X113702075Y-116850493D01*
X113682981Y-116821703D01*
X113681136Y-116818726D01*
X113683895Y-116795782D01*
X113698538Y-116745336D01*
X113722513Y-116674041D01*
X113753266Y-116588547D01*
X113788244Y-116495507D01*
X113824893Y-116401574D01*
X113860661Y-116313399D01*
X113892994Y-116237634D01*
X113919338Y-116180931D01*
X113937142Y-116149943D01*
X113938407Y-116148457D01*
X113949294Y-116139601D01*
X113967682Y-116130843D01*
X113997606Y-116121277D01*
X114043103Y-116109996D01*
X114108209Y-116096093D01*
X114196961Y-116078663D01*
X114313393Y-116056798D01*
X114461542Y-116029591D01*
X114493618Y-116023741D01*
X114588686Y-116005374D01*
X114671565Y-115987405D01*
X114734930Y-115971569D01*
X114771458Y-115959600D01*
X114776356Y-115956810D01*
X114784427Y-115932072D01*
X114790987Y-115876790D01*
X114796033Y-115797389D01*
X114799559Y-115700296D01*
X114801561Y-115591938D01*
X114802036Y-115478740D01*
X114800977Y-115367128D01*
X114798382Y-115263529D01*
X114794246Y-115174368D01*
X114788563Y-115106072D01*
X114781331Y-115065066D01*
X114776971Y-115056674D01*
X114752698Y-115048208D01*
X114697426Y-115034435D01*
X114616662Y-115016550D01*
X114515912Y-114995748D01*
X114400683Y-114973223D01*
X114337902Y-114961418D01*
X114218787Y-114939151D01*
X114112565Y-114918979D01*
X114024427Y-114901915D01*
X113959566Y-114888969D01*
X113923174Y-114881155D01*
X113917184Y-114879422D01*
X113907061Y-114859890D01*
X113885662Y-114812843D01*
X113855839Y-114745003D01*
X113820445Y-114663091D01*
X113782332Y-114573828D01*
X113744353Y-114483935D01*
X113709360Y-114400135D01*
X113680206Y-114329147D01*
X113659743Y-114277694D01*
X113650823Y-114252497D01*
X113650657Y-114251396D01*
X113660769Y-114231519D01*
X113689117Y-114185777D01*
X113732723Y-114118717D01*
X113788606Y-114034884D01*
X113853787Y-113938826D01*
X113891679Y-113883650D01*
X113960725Y-113782481D01*
X114022050Y-113690630D01*
X114072663Y-113612744D01*
X114109571Y-113553469D01*
X114129782Y-113517451D01*
X114132701Y-113509377D01*
X114120153Y-113490584D01*
X114085463Y-113450457D01*
X114033063Y-113393493D01*
X113967384Y-113324185D01*
X113892856Y-113247031D01*
X113813913Y-113166525D01*
X113734983Y-113087163D01*
X113660500Y-113013440D01*
X113594894Y-112949852D01*
X113542596Y-112900894D01*
X113508039Y-112871061D01*
X113496478Y-112863942D01*
X113477654Y-112873953D01*
X113432631Y-112902078D01*
X113365787Y-112945454D01*
X113281499Y-113001218D01*
X113184144Y-113066506D01*
X113110707Y-113116246D01*
X112739667Y-113368551D01*
X112121095Y-113113555D01*
X112037275Y-112668931D01*
X111953454Y-112224307D01*
X111028006Y-112224307D01*
X110944186Y-112668931D01*
%TO.C,G\u002A\u002A\u002A*%
G36*
X135943399Y-75665634D02*
G01*
X135940381Y-75669824D01*
X135933926Y-75679869D01*
X135924275Y-75695371D01*
X135911669Y-75715929D01*
X135896348Y-75741142D01*
X135878554Y-75770612D01*
X135858526Y-75803937D01*
X135836506Y-75840718D01*
X135812734Y-75880555D01*
X135787451Y-75923046D01*
X135760897Y-75967794D01*
X135733314Y-76014396D01*
X135718864Y-76038857D01*
X135661491Y-76136031D01*
X135607687Y-76227143D01*
X135557335Y-76312384D01*
X135510321Y-76391944D01*
X135466532Y-76466015D01*
X135425851Y-76534789D01*
X135388164Y-76598455D01*
X135353357Y-76657205D01*
X135321314Y-76711231D01*
X135291921Y-76760723D01*
X135265064Y-76805873D01*
X135240627Y-76846871D01*
X135218496Y-76883909D01*
X135198556Y-76917177D01*
X135180693Y-76946867D01*
X135164791Y-76973170D01*
X135150736Y-76996277D01*
X135138414Y-77016379D01*
X135127708Y-77033667D01*
X135118506Y-77048332D01*
X135110691Y-77060565D01*
X135104150Y-77070558D01*
X135098768Y-77078501D01*
X135094429Y-77084586D01*
X135091020Y-77089003D01*
X135088425Y-77091944D01*
X135086529Y-77093600D01*
X135085289Y-77094155D01*
X135077037Y-77093393D01*
X135072589Y-77090526D01*
X135072172Y-77089213D01*
X135071804Y-77086413D01*
X135071486Y-77081870D01*
X135071220Y-77075329D01*
X135071008Y-77066535D01*
X135070851Y-77055233D01*
X135070751Y-77041167D01*
X135070711Y-77024082D01*
X135070732Y-77003722D01*
X135070815Y-76979832D01*
X135070963Y-76952157D01*
X135071177Y-76920441D01*
X135071460Y-76884430D01*
X135071813Y-76843867D01*
X135072237Y-76798498D01*
X135072736Y-76748066D01*
X135073309Y-76692317D01*
X135073961Y-76630996D01*
X135074691Y-76563846D01*
X135075502Y-76490613D01*
X135076396Y-76411042D01*
X135077375Y-76324876D01*
X135078440Y-76231861D01*
X135079114Y-76173213D01*
X135084779Y-75681640D01*
X135075173Y-75673377D01*
X135072395Y-75671106D01*
X135069384Y-75669295D01*
X135065343Y-75667891D01*
X135059473Y-75666843D01*
X135050977Y-75666099D01*
X135039057Y-75665606D01*
X135022914Y-75665313D01*
X135001752Y-75665169D01*
X134974771Y-75665120D01*
X134948330Y-75665114D01*
X134916022Y-75665131D01*
X134890172Y-75665213D01*
X134869981Y-75665407D01*
X134854649Y-75665761D01*
X134843377Y-75666323D01*
X134835366Y-75667139D01*
X134829817Y-75668257D01*
X134825929Y-75669725D01*
X134822905Y-75671590D01*
X134821532Y-75672635D01*
X134811971Y-75680155D01*
X134811971Y-77674078D01*
X134820370Y-77681968D01*
X134822780Y-77684074D01*
X134825564Y-77685768D01*
X134829482Y-77687094D01*
X134835298Y-77688097D01*
X134843773Y-77688822D01*
X134855670Y-77689315D01*
X134871750Y-77689619D01*
X134892775Y-77689781D01*
X134919508Y-77689846D01*
X134952711Y-77689857D01*
X134953933Y-77689857D01*
X134989832Y-77689790D01*
X135019040Y-77689575D01*
X135042121Y-77689193D01*
X135059638Y-77688624D01*
X135072158Y-77687848D01*
X135080244Y-77686847D01*
X135084461Y-77685601D01*
X135084888Y-77685322D01*
X135086066Y-77684268D01*
X135087528Y-77682645D01*
X135089415Y-77680212D01*
X135091864Y-77676731D01*
X135095016Y-77671961D01*
X135099009Y-77665663D01*
X135103984Y-77657597D01*
X135110079Y-77647525D01*
X135117434Y-77635205D01*
X135126188Y-77620400D01*
X135136481Y-77602869D01*
X135148452Y-77582374D01*
X135162240Y-77558673D01*
X135177985Y-77531528D01*
X135195826Y-77500700D01*
X135215903Y-77465948D01*
X135238355Y-77427034D01*
X135263321Y-77383717D01*
X135290940Y-77335759D01*
X135321353Y-77282919D01*
X135354697Y-77224958D01*
X135391114Y-77161637D01*
X135430742Y-77092716D01*
X135473720Y-77017956D01*
X135515082Y-76946000D01*
X135562976Y-76862704D01*
X135607371Y-76785545D01*
X135648364Y-76714359D01*
X135686053Y-76648980D01*
X135720533Y-76589242D01*
X135751901Y-76534979D01*
X135780254Y-76486026D01*
X135805688Y-76442216D01*
X135828301Y-76403384D01*
X135848189Y-76369365D01*
X135865449Y-76339991D01*
X135880176Y-76315099D01*
X135892469Y-76294521D01*
X135902423Y-76278092D01*
X135910136Y-76265646D01*
X135915703Y-76257018D01*
X135919223Y-76252042D01*
X135920660Y-76250565D01*
X135927380Y-76250698D01*
X135932736Y-76252695D01*
X135940097Y-76256634D01*
X135935651Y-77670478D01*
X135944304Y-77676539D01*
X135947328Y-77678196D01*
X135951675Y-77679525D01*
X135958107Y-77680560D01*
X135967384Y-77681339D01*
X135980268Y-77681894D01*
X135997521Y-77682263D01*
X136019904Y-77682480D01*
X136048178Y-77682580D01*
X136075316Y-77682600D01*
X136108309Y-77682592D01*
X136134800Y-77682536D01*
X136155544Y-77682386D01*
X136171295Y-77682092D01*
X136182809Y-77681608D01*
X136190839Y-77680886D01*
X136196142Y-77679879D01*
X136199471Y-77678538D01*
X136201582Y-77676817D01*
X136203230Y-77674668D01*
X136203323Y-77674536D01*
X136203897Y-77673215D01*
X136204432Y-77670787D01*
X136204928Y-77667000D01*
X136205387Y-77661605D01*
X136205811Y-77654352D01*
X136206201Y-77644991D01*
X136206557Y-77633273D01*
X136206882Y-77618948D01*
X136207178Y-77601765D01*
X136207444Y-77581475D01*
X136207684Y-77557829D01*
X136207897Y-77530576D01*
X136208087Y-77499466D01*
X136208253Y-77464250D01*
X136208398Y-77424678D01*
X136208522Y-77380500D01*
X136208628Y-77331466D01*
X136208717Y-77277326D01*
X136208790Y-77217831D01*
X136208848Y-77152730D01*
X136208893Y-77081775D01*
X136208926Y-77004714D01*
X136208949Y-76921299D01*
X136208964Y-76831279D01*
X136208970Y-76734405D01*
X136208971Y-76671638D01*
X136208971Y-76571125D01*
X136208967Y-76477615D01*
X136208958Y-76390852D01*
X136208944Y-76310580D01*
X136208921Y-76236545D01*
X136208888Y-76168492D01*
X136208843Y-76106165D01*
X136208786Y-76049309D01*
X136208712Y-75997670D01*
X136208622Y-75950992D01*
X136208513Y-75909020D01*
X136208384Y-75871498D01*
X136208232Y-75838173D01*
X136208057Y-75808788D01*
X136207855Y-75783089D01*
X136207626Y-75760820D01*
X136207368Y-75741726D01*
X136207078Y-75725553D01*
X136206756Y-75712044D01*
X136206399Y-75700946D01*
X136206006Y-75692002D01*
X136205575Y-75684958D01*
X136205104Y-75679559D01*
X136204591Y-75675549D01*
X136204034Y-75672674D01*
X136203433Y-75670678D01*
X136202784Y-75669306D01*
X136202087Y-75668303D01*
X136202037Y-75668240D01*
X136195102Y-75659676D01*
X136073875Y-75658380D01*
X135952647Y-75657083D01*
X135943399Y-75665634D01*
G37*
X135943399Y-75665634D02*
X135940381Y-75669824D01*
X135933926Y-75679869D01*
X135924275Y-75695371D01*
X135911669Y-75715929D01*
X135896348Y-75741142D01*
X135878554Y-75770612D01*
X135858526Y-75803937D01*
X135836506Y-75840718D01*
X135812734Y-75880555D01*
X135787451Y-75923046D01*
X135760897Y-75967794D01*
X135733314Y-76014396D01*
X135718864Y-76038857D01*
X135661491Y-76136031D01*
X135607687Y-76227143D01*
X135557335Y-76312384D01*
X135510321Y-76391944D01*
X135466532Y-76466015D01*
X135425851Y-76534789D01*
X135388164Y-76598455D01*
X135353357Y-76657205D01*
X135321314Y-76711231D01*
X135291921Y-76760723D01*
X135265064Y-76805873D01*
X135240627Y-76846871D01*
X135218496Y-76883909D01*
X135198556Y-76917177D01*
X135180693Y-76946867D01*
X135164791Y-76973170D01*
X135150736Y-76996277D01*
X135138414Y-77016379D01*
X135127708Y-77033667D01*
X135118506Y-77048332D01*
X135110691Y-77060565D01*
X135104150Y-77070558D01*
X135098768Y-77078501D01*
X135094429Y-77084586D01*
X135091020Y-77089003D01*
X135088425Y-77091944D01*
X135086529Y-77093600D01*
X135085289Y-77094155D01*
X135077037Y-77093393D01*
X135072589Y-77090526D01*
X135072172Y-77089213D01*
X135071804Y-77086413D01*
X135071486Y-77081870D01*
X135071220Y-77075329D01*
X135071008Y-77066535D01*
X135070851Y-77055233D01*
X135070751Y-77041167D01*
X135070711Y-77024082D01*
X135070732Y-77003722D01*
X135070815Y-76979832D01*
X135070963Y-76952157D01*
X135071177Y-76920441D01*
X135071460Y-76884430D01*
X135071813Y-76843867D01*
X135072237Y-76798498D01*
X135072736Y-76748066D01*
X135073309Y-76692317D01*
X135073961Y-76630996D01*
X135074691Y-76563846D01*
X135075502Y-76490613D01*
X135076396Y-76411042D01*
X135077375Y-76324876D01*
X135078440Y-76231861D01*
X135079114Y-76173213D01*
X135084779Y-75681640D01*
X135075173Y-75673377D01*
X135072395Y-75671106D01*
X135069384Y-75669295D01*
X135065343Y-75667891D01*
X135059473Y-75666843D01*
X135050977Y-75666099D01*
X135039057Y-75665606D01*
X135022914Y-75665313D01*
X135001752Y-75665169D01*
X134974771Y-75665120D01*
X134948330Y-75665114D01*
X134916022Y-75665131D01*
X134890172Y-75665213D01*
X134869981Y-75665407D01*
X134854649Y-75665761D01*
X134843377Y-75666323D01*
X134835366Y-75667139D01*
X134829817Y-75668257D01*
X134825929Y-75669725D01*
X134822905Y-75671590D01*
X134821532Y-75672635D01*
X134811971Y-75680155D01*
X134811971Y-77674078D01*
X134820370Y-77681968D01*
X134822780Y-77684074D01*
X134825564Y-77685768D01*
X134829482Y-77687094D01*
X134835298Y-77688097D01*
X134843773Y-77688822D01*
X134855670Y-77689315D01*
X134871750Y-77689619D01*
X134892775Y-77689781D01*
X134919508Y-77689846D01*
X134952711Y-77689857D01*
X134953933Y-77689857D01*
X134989832Y-77689790D01*
X135019040Y-77689575D01*
X135042121Y-77689193D01*
X135059638Y-77688624D01*
X135072158Y-77687848D01*
X135080244Y-77686847D01*
X135084461Y-77685601D01*
X135084888Y-77685322D01*
X135086066Y-77684268D01*
X135087528Y-77682645D01*
X135089415Y-77680212D01*
X135091864Y-77676731D01*
X135095016Y-77671961D01*
X135099009Y-77665663D01*
X135103984Y-77657597D01*
X135110079Y-77647525D01*
X135117434Y-77635205D01*
X135126188Y-77620400D01*
X135136481Y-77602869D01*
X135148452Y-77582374D01*
X135162240Y-77558673D01*
X135177985Y-77531528D01*
X135195826Y-77500700D01*
X135215903Y-77465948D01*
X135238355Y-77427034D01*
X135263321Y-77383717D01*
X135290940Y-77335759D01*
X135321353Y-77282919D01*
X135354697Y-77224958D01*
X135391114Y-77161637D01*
X135430742Y-77092716D01*
X135473720Y-77017956D01*
X135515082Y-76946000D01*
X135562976Y-76862704D01*
X135607371Y-76785545D01*
X135648364Y-76714359D01*
X135686053Y-76648980D01*
X135720533Y-76589242D01*
X135751901Y-76534979D01*
X135780254Y-76486026D01*
X135805688Y-76442216D01*
X135828301Y-76403384D01*
X135848189Y-76369365D01*
X135865449Y-76339991D01*
X135880176Y-76315099D01*
X135892469Y-76294521D01*
X135902423Y-76278092D01*
X135910136Y-76265646D01*
X135915703Y-76257018D01*
X135919223Y-76252042D01*
X135920660Y-76250565D01*
X135927380Y-76250698D01*
X135932736Y-76252695D01*
X135940097Y-76256634D01*
X135935651Y-77670478D01*
X135944304Y-77676539D01*
X135947328Y-77678196D01*
X135951675Y-77679525D01*
X135958107Y-77680560D01*
X135967384Y-77681339D01*
X135980268Y-77681894D01*
X135997521Y-77682263D01*
X136019904Y-77682480D01*
X136048178Y-77682580D01*
X136075316Y-77682600D01*
X136108309Y-77682592D01*
X136134800Y-77682536D01*
X136155544Y-77682386D01*
X136171295Y-77682092D01*
X136182809Y-77681608D01*
X136190839Y-77680886D01*
X136196142Y-77679879D01*
X136199471Y-77678538D01*
X136201582Y-77676817D01*
X136203230Y-77674668D01*
X136203323Y-77674536D01*
X136203897Y-77673215D01*
X136204432Y-77670787D01*
X136204928Y-77667000D01*
X136205387Y-77661605D01*
X136205811Y-77654352D01*
X136206201Y-77644991D01*
X136206557Y-77633273D01*
X136206882Y-77618948D01*
X136207178Y-77601765D01*
X136207444Y-77581475D01*
X136207684Y-77557829D01*
X136207897Y-77530576D01*
X136208087Y-77499466D01*
X136208253Y-77464250D01*
X136208398Y-77424678D01*
X136208522Y-77380500D01*
X136208628Y-77331466D01*
X136208717Y-77277326D01*
X136208790Y-77217831D01*
X136208848Y-77152730D01*
X136208893Y-77081775D01*
X136208926Y-77004714D01*
X136208949Y-76921299D01*
X136208964Y-76831279D01*
X136208970Y-76734405D01*
X136208971Y-76671638D01*
X136208971Y-76571125D01*
X136208967Y-76477615D01*
X136208958Y-76390852D01*
X136208944Y-76310580D01*
X136208921Y-76236545D01*
X136208888Y-76168492D01*
X136208843Y-76106165D01*
X136208786Y-76049309D01*
X136208712Y-75997670D01*
X136208622Y-75950992D01*
X136208513Y-75909020D01*
X136208384Y-75871498D01*
X136208232Y-75838173D01*
X136208057Y-75808788D01*
X136207855Y-75783089D01*
X136207626Y-75760820D01*
X136207368Y-75741726D01*
X136207078Y-75725553D01*
X136206756Y-75712044D01*
X136206399Y-75700946D01*
X136206006Y-75692002D01*
X136205575Y-75684958D01*
X136205104Y-75679559D01*
X136204591Y-75675549D01*
X136204034Y-75672674D01*
X136203433Y-75670678D01*
X136202784Y-75669306D01*
X136202087Y-75668303D01*
X136202037Y-75668240D01*
X136195102Y-75659676D01*
X136073875Y-75658380D01*
X135952647Y-75657083D01*
X135943399Y-75665634D01*
G36*
X138113549Y-75653224D02*
G01*
X138083330Y-75654514D01*
X138058117Y-75656488D01*
X138052286Y-75657154D01*
X137967141Y-75671252D01*
X137883973Y-75692030D01*
X137803266Y-75719293D01*
X137725503Y-75752849D01*
X137651169Y-75792504D01*
X137580747Y-75838066D01*
X137558637Y-75854222D01*
X137540382Y-75868354D01*
X137521266Y-75883809D01*
X137503503Y-75898759D01*
X137489311Y-75911376D01*
X137488787Y-75911863D01*
X137475730Y-75924426D01*
X137467351Y-75933594D01*
X137462732Y-75940589D01*
X137460952Y-75946632D01*
X137460828Y-75948954D01*
X137461377Y-75952404D01*
X137463338Y-75956715D01*
X137467189Y-75962417D01*
X137473405Y-75970042D01*
X137482461Y-75980120D01*
X137494835Y-75993181D01*
X137511001Y-76009756D01*
X137531436Y-76030377D01*
X137554863Y-76053824D01*
X137580031Y-76078876D01*
X137600645Y-76099194D01*
X137617217Y-76115239D01*
X137630260Y-76127471D01*
X137640286Y-76136351D01*
X137647807Y-76142342D01*
X137653335Y-76145903D01*
X137657384Y-76147496D01*
X137659185Y-76147700D01*
X137666330Y-76145947D01*
X137676489Y-76140384D01*
X137690434Y-76130534D01*
X137703943Y-76119963D01*
X137764856Y-76075285D01*
X137828048Y-76037273D01*
X137893216Y-76005996D01*
X137960054Y-75981517D01*
X138028259Y-75963903D01*
X138097527Y-75953220D01*
X138167553Y-75949533D01*
X138238034Y-75952909D01*
X138308666Y-75963413D01*
X138364836Y-75976924D01*
X138432019Y-75999233D01*
X138494943Y-76027194D01*
X138554172Y-76061134D01*
X138610269Y-76101380D01*
X138663800Y-76148259D01*
X138668608Y-76152909D01*
X138718892Y-76206548D01*
X138762554Y-76263023D01*
X138799752Y-76322584D01*
X138830647Y-76385482D01*
X138852354Y-76442614D01*
X138871815Y-76512355D01*
X138884171Y-76582673D01*
X138889500Y-76653128D01*
X138887881Y-76723279D01*
X138879396Y-76792686D01*
X138864122Y-76860908D01*
X138842140Y-76927505D01*
X138813529Y-76992038D01*
X138778368Y-77054064D01*
X138736737Y-77113144D01*
X138729730Y-77121986D01*
X138712748Y-77141729D01*
X138691785Y-77164020D01*
X138668553Y-77187197D01*
X138644763Y-77209600D01*
X138622128Y-77229567D01*
X138603100Y-77244881D01*
X138545092Y-77284221D01*
X138483653Y-77317753D01*
X138419551Y-77345194D01*
X138353554Y-77366260D01*
X138286428Y-77380668D01*
X138218942Y-77388133D01*
X138214990Y-77388349D01*
X138158275Y-77389697D01*
X138105253Y-77387449D01*
X138054141Y-77381317D01*
X138003152Y-77371015D01*
X137950503Y-77356255D01*
X137894443Y-77336762D01*
X137838737Y-77313981D01*
X137789913Y-77289993D01*
X137747648Y-77264465D01*
X137711620Y-77237064D01*
X137681507Y-77207456D01*
X137656985Y-77175309D01*
X137637733Y-77140289D01*
X137623427Y-77102063D01*
X137613746Y-77060299D01*
X137611326Y-77044294D01*
X137609055Y-77024071D01*
X137608551Y-77009818D01*
X137609950Y-77000433D01*
X137613384Y-76994816D01*
X137617663Y-76992304D01*
X137621919Y-76993128D01*
X137632330Y-76996155D01*
X137648212Y-77001158D01*
X137668881Y-77007912D01*
X137693654Y-77016190D01*
X137721847Y-77025766D01*
X137752777Y-77036413D01*
X137785760Y-77047905D01*
X137787400Y-77048480D01*
X137826835Y-77062298D01*
X137860001Y-77073841D01*
X137887477Y-77083239D01*
X137909844Y-77090617D01*
X137927681Y-77096103D01*
X137941566Y-77099824D01*
X137952081Y-77101907D01*
X137959804Y-77102479D01*
X137965316Y-77101667D01*
X137969194Y-77099599D01*
X137972021Y-77096400D01*
X137974374Y-77092200D01*
X137975565Y-77089740D01*
X137978596Y-77080185D01*
X137976813Y-77071391D01*
X137976203Y-77069993D01*
X137973749Y-77065678D01*
X137967815Y-77055752D01*
X137958684Y-77040675D01*
X137946639Y-77020905D01*
X137931963Y-76996902D01*
X137914939Y-76969125D01*
X137895853Y-76938032D01*
X137874985Y-76904082D01*
X137852621Y-76867734D01*
X137829043Y-76829448D01*
X137804535Y-76789682D01*
X137779380Y-76748895D01*
X137753861Y-76707546D01*
X137728263Y-76666094D01*
X137702868Y-76624998D01*
X137677959Y-76584717D01*
X137653821Y-76545710D01*
X137630736Y-76508436D01*
X137608989Y-76473353D01*
X137588861Y-76440922D01*
X137570637Y-76411599D01*
X137554601Y-76385846D01*
X137541035Y-76364120D01*
X137530222Y-76346880D01*
X137522447Y-76334586D01*
X137517993Y-76327696D01*
X137517003Y-76326334D01*
X137515153Y-76329563D01*
X137509972Y-76338730D01*
X137501680Y-76353441D01*
X137490497Y-76373306D01*
X137476645Y-76397932D01*
X137460342Y-76426927D01*
X137441809Y-76459900D01*
X137421267Y-76496459D01*
X137398936Y-76536212D01*
X137375035Y-76578767D01*
X137349786Y-76623732D01*
X137323409Y-76670715D01*
X137307063Y-76699834D01*
X137271175Y-76763846D01*
X137238844Y-76821673D01*
X137210012Y-76873422D01*
X137184621Y-76919201D01*
X137162613Y-76959115D01*
X137143929Y-76993272D01*
X137128510Y-77021780D01*
X137116299Y-77044744D01*
X137107236Y-77062273D01*
X137101263Y-77074473D01*
X137098323Y-77081451D01*
X137097971Y-77082993D01*
X137100907Y-77095112D01*
X137109127Y-77102718D01*
X137121752Y-77105127D01*
X137126011Y-77104770D01*
X137132301Y-77103123D01*
X137144587Y-77099191D01*
X137162079Y-77093254D01*
X137183984Y-77085590D01*
X137209510Y-77076478D01*
X137237864Y-77066196D01*
X137268255Y-77055022D01*
X137282782Y-77049630D01*
X137313663Y-77038170D01*
X137342705Y-77027465D01*
X137369145Y-77017792D01*
X137392218Y-77009428D01*
X137411158Y-77002647D01*
X137425203Y-76997728D01*
X137433587Y-76994947D01*
X137435385Y-76994450D01*
X137443093Y-76993715D01*
X137448255Y-76995692D01*
X137451038Y-77001234D01*
X137451611Y-77011191D01*
X137450140Y-77026416D01*
X137446794Y-77047762D01*
X137446360Y-77050276D01*
X137438275Y-77093195D01*
X137429771Y-77130322D01*
X137420408Y-77163121D01*
X137409745Y-77193057D01*
X137397343Y-77221595D01*
X137391027Y-77234472D01*
X137367641Y-77275892D01*
X137342530Y-77310724D01*
X137314953Y-77339569D01*
X137284170Y-77363028D01*
X137249441Y-77381702D01*
X137210026Y-77396192D01*
X137183243Y-77403262D01*
X137174387Y-77404549D01*
X137159582Y-77405842D01*
X137140134Y-77407064D01*
X137117349Y-77408138D01*
X137092535Y-77408989D01*
X137079828Y-77409305D01*
X137050767Y-77409843D01*
X137027816Y-77410024D01*
X137009835Y-77409805D01*
X136995686Y-77409146D01*
X136984229Y-77408006D01*
X136974323Y-77406344D01*
X136969778Y-77405347D01*
X136925562Y-77391356D01*
X136883183Y-77370857D01*
X136843340Y-77344512D01*
X136806731Y-77312978D01*
X136774054Y-77276918D01*
X136746008Y-77236991D01*
X136723292Y-77193856D01*
X136710266Y-77160086D01*
X136705902Y-77145374D01*
X136701045Y-77126843D01*
X136696547Y-77107804D01*
X136695298Y-77102029D01*
X136694432Y-77097776D01*
X136693637Y-77093407D01*
X136692912Y-77088604D01*
X136692252Y-77083052D01*
X136691654Y-77076433D01*
X136691116Y-77068431D01*
X136690634Y-77058729D01*
X136690206Y-77047010D01*
X136689827Y-77032959D01*
X136689495Y-77016258D01*
X136689206Y-76996590D01*
X136688958Y-76973639D01*
X136688748Y-76947089D01*
X136688571Y-76916622D01*
X136688426Y-76881923D01*
X136688308Y-76842673D01*
X136688216Y-76798558D01*
X136688145Y-76749260D01*
X136688092Y-76694462D01*
X136688055Y-76633848D01*
X136688030Y-76567101D01*
X136688014Y-76493904D01*
X136688004Y-76413942D01*
X136688000Y-76366898D01*
X136687991Y-76283059D01*
X136687977Y-76206174D01*
X136687955Y-76135939D01*
X136687923Y-76072051D01*
X136687876Y-76014206D01*
X136687814Y-75962100D01*
X136687731Y-75915430D01*
X136687626Y-75873893D01*
X136687496Y-75837184D01*
X136687338Y-75805001D01*
X136687149Y-75777041D01*
X136686926Y-75752998D01*
X136686667Y-75732570D01*
X136686368Y-75715454D01*
X136686026Y-75701346D01*
X136685639Y-75689941D01*
X136685204Y-75680938D01*
X136684717Y-75674032D01*
X136684177Y-75668920D01*
X136683580Y-75665298D01*
X136682923Y-75662862D01*
X136682203Y-75661310D01*
X136681419Y-75660338D01*
X136681307Y-75660234D01*
X136678866Y-75658602D01*
X136675033Y-75657291D01*
X136669064Y-75656267D01*
X136660215Y-75655496D01*
X136647741Y-75654944D01*
X136630898Y-75654575D01*
X136608941Y-75654356D01*
X136581126Y-75654252D01*
X136551241Y-75654229D01*
X136518057Y-75654241D01*
X136491370Y-75654307D01*
X136470422Y-75654473D01*
X136454453Y-75654781D01*
X136442703Y-75655277D01*
X136434412Y-75656006D01*
X136428822Y-75657011D01*
X136425172Y-75658337D01*
X136422704Y-75660030D01*
X136420898Y-75661866D01*
X136419873Y-75663175D01*
X136418954Y-75664972D01*
X136418132Y-75667640D01*
X136417403Y-75671565D01*
X136416760Y-75677129D01*
X136416195Y-75684715D01*
X136415702Y-75694709D01*
X136415274Y-75707493D01*
X136414906Y-75723452D01*
X136414589Y-75742969D01*
X136414319Y-75766428D01*
X136414087Y-75794213D01*
X136413887Y-75826707D01*
X136413714Y-75864295D01*
X136413559Y-75907359D01*
X136413417Y-75956285D01*
X136413281Y-76011455D01*
X136413144Y-76073253D01*
X136413053Y-76116344D01*
X136412956Y-76179721D01*
X136412921Y-76245741D01*
X136412946Y-76313500D01*
X136413027Y-76382092D01*
X136413162Y-76450613D01*
X136413348Y-76518158D01*
X136413582Y-76583820D01*
X136413861Y-76646697D01*
X136414183Y-76705881D01*
X136414544Y-76760469D01*
X136414942Y-76809554D01*
X136415347Y-76849843D01*
X136415950Y-76903803D01*
X136416494Y-76951080D01*
X136417024Y-76992249D01*
X136417581Y-77027883D01*
X136418211Y-77058556D01*
X136418957Y-77084843D01*
X136419863Y-77107317D01*
X136420972Y-77126552D01*
X136422328Y-77143122D01*
X136423976Y-77157601D01*
X136425958Y-77170563D01*
X136428319Y-77182581D01*
X136431102Y-77194231D01*
X136434350Y-77206085D01*
X136438109Y-77218718D01*
X136442421Y-77232704D01*
X136445213Y-77241729D01*
X136467517Y-77301926D01*
X136496335Y-77359812D01*
X136531144Y-77414844D01*
X136571420Y-77466481D01*
X136616640Y-77514177D01*
X136666280Y-77557392D01*
X136719815Y-77595581D01*
X136776723Y-77628202D01*
X136836480Y-77654711D01*
X136847600Y-77658829D01*
X136902173Y-77675353D01*
X136960353Y-77687352D01*
X137020211Y-77694621D01*
X137079822Y-77696956D01*
X137137256Y-77694152D01*
X137157843Y-77691734D01*
X137226686Y-77678748D01*
X137292359Y-77659234D01*
X137354874Y-77633185D01*
X137414245Y-77600597D01*
X137470484Y-77561462D01*
X137523004Y-77516344D01*
X137535385Y-77504790D01*
X137545869Y-77495336D01*
X137553344Y-77488965D01*
X137556685Y-77486657D01*
X137560496Y-77488607D01*
X137568788Y-77493839D01*
X137580124Y-77501430D01*
X137587038Y-77506207D01*
X137653538Y-77548521D01*
X137724827Y-77586166D01*
X137799753Y-77618640D01*
X137877167Y-77645444D01*
X137954314Y-77665725D01*
X138036396Y-77680235D01*
X138119714Y-77687773D01*
X138203649Y-77688379D01*
X138287586Y-77682097D01*
X138370907Y-77668971D01*
X138452996Y-77649044D01*
X138523531Y-77625987D01*
X138566664Y-77608434D01*
X138612815Y-77586664D01*
X138660119Y-77561730D01*
X138706710Y-77534687D01*
X138750721Y-77506588D01*
X138790285Y-77478488D01*
X138805214Y-77466870D01*
X138867596Y-77412289D01*
X138925493Y-77352531D01*
X138978539Y-77288188D01*
X139026367Y-77219855D01*
X139068610Y-77148123D01*
X139104903Y-77073586D01*
X139134877Y-76996838D01*
X139158168Y-76918470D01*
X139166459Y-76882410D01*
X139179160Y-76806209D01*
X139186207Y-76727395D01*
X139187571Y-76647726D01*
X139183219Y-76568959D01*
X139173317Y-76493981D01*
X139155354Y-76411445D01*
X139130666Y-76331195D01*
X139099529Y-76253598D01*
X139062218Y-76179025D01*
X139019008Y-76107844D01*
X138970174Y-76040425D01*
X138915991Y-75977136D01*
X138856735Y-75918347D01*
X138792680Y-75864427D01*
X138724102Y-75815746D01*
X138651276Y-75772671D01*
X138625825Y-75759483D01*
X138547951Y-75724232D01*
X138469003Y-75695970D01*
X138388127Y-75674431D01*
X138304468Y-75659349D01*
X138302657Y-75659098D01*
X138278903Y-75656565D01*
X138249725Y-75654636D01*
X138216863Y-75653324D01*
X138182054Y-75652642D01*
X138147037Y-75652604D01*
X138113549Y-75653224D01*
G37*
X138113549Y-75653224D02*
X138083330Y-75654514D01*
X138058117Y-75656488D01*
X138052286Y-75657154D01*
X137967141Y-75671252D01*
X137883973Y-75692030D01*
X137803266Y-75719293D01*
X137725503Y-75752849D01*
X137651169Y-75792504D01*
X137580747Y-75838066D01*
X137558637Y-75854222D01*
X137540382Y-75868354D01*
X137521266Y-75883809D01*
X137503503Y-75898759D01*
X137489311Y-75911376D01*
X137488787Y-75911863D01*
X137475730Y-75924426D01*
X137467351Y-75933594D01*
X137462732Y-75940589D01*
X137460952Y-75946632D01*
X137460828Y-75948954D01*
X137461377Y-75952404D01*
X137463338Y-75956715D01*
X137467189Y-75962417D01*
X137473405Y-75970042D01*
X137482461Y-75980120D01*
X137494835Y-75993181D01*
X137511001Y-76009756D01*
X137531436Y-76030377D01*
X137554863Y-76053824D01*
X137580031Y-76078876D01*
X137600645Y-76099194D01*
X137617217Y-76115239D01*
X137630260Y-76127471D01*
X137640286Y-76136351D01*
X137647807Y-76142342D01*
X137653335Y-76145903D01*
X137657384Y-76147496D01*
X137659185Y-76147700D01*
X137666330Y-76145947D01*
X137676489Y-76140384D01*
X137690434Y-76130534D01*
X137703943Y-76119963D01*
X137764856Y-76075285D01*
X137828048Y-76037273D01*
X137893216Y-76005996D01*
X137960054Y-75981517D01*
X138028259Y-75963903D01*
X138097527Y-75953220D01*
X138167553Y-75949533D01*
X138238034Y-75952909D01*
X138308666Y-75963413D01*
X138364836Y-75976924D01*
X138432019Y-75999233D01*
X138494943Y-76027194D01*
X138554172Y-76061134D01*
X138610269Y-76101380D01*
X138663800Y-76148259D01*
X138668608Y-76152909D01*
X138718892Y-76206548D01*
X138762554Y-76263023D01*
X138799752Y-76322584D01*
X138830647Y-76385482D01*
X138852354Y-76442614D01*
X138871815Y-76512355D01*
X138884171Y-76582673D01*
X138889500Y-76653128D01*
X138887881Y-76723279D01*
X138879396Y-76792686D01*
X138864122Y-76860908D01*
X138842140Y-76927505D01*
X138813529Y-76992038D01*
X138778368Y-77054064D01*
X138736737Y-77113144D01*
X138729730Y-77121986D01*
X138712748Y-77141729D01*
X138691785Y-77164020D01*
X138668553Y-77187197D01*
X138644763Y-77209600D01*
X138622128Y-77229567D01*
X138603100Y-77244881D01*
X138545092Y-77284221D01*
X138483653Y-77317753D01*
X138419551Y-77345194D01*
X138353554Y-77366260D01*
X138286428Y-77380668D01*
X138218942Y-77388133D01*
X138214990Y-77388349D01*
X138158275Y-77389697D01*
X138105253Y-77387449D01*
X138054141Y-77381317D01*
X138003152Y-77371015D01*
X137950503Y-77356255D01*
X137894443Y-77336762D01*
X137838737Y-77313981D01*
X137789913Y-77289993D01*
X137747648Y-77264465D01*
X137711620Y-77237064D01*
X137681507Y-77207456D01*
X137656985Y-77175309D01*
X137637733Y-77140289D01*
X137623427Y-77102063D01*
X137613746Y-77060299D01*
X137611326Y-77044294D01*
X137609055Y-77024071D01*
X137608551Y-77009818D01*
X137609950Y-77000433D01*
X137613384Y-76994816D01*
X137617663Y-76992304D01*
X137621919Y-76993128D01*
X137632330Y-76996155D01*
X137648212Y-77001158D01*
X137668881Y-77007912D01*
X137693654Y-77016190D01*
X137721847Y-77025766D01*
X137752777Y-77036413D01*
X137785760Y-77047905D01*
X137787400Y-77048480D01*
X137826835Y-77062298D01*
X137860001Y-77073841D01*
X137887477Y-77083239D01*
X137909844Y-77090617D01*
X137927681Y-77096103D01*
X137941566Y-77099824D01*
X137952081Y-77101907D01*
X137959804Y-77102479D01*
X137965316Y-77101667D01*
X137969194Y-77099599D01*
X137972021Y-77096400D01*
X137974374Y-77092200D01*
X137975565Y-77089740D01*
X137978596Y-77080185D01*
X137976813Y-77071391D01*
X137976203Y-77069993D01*
X137973749Y-77065678D01*
X137967815Y-77055752D01*
X137958684Y-77040675D01*
X137946639Y-77020905D01*
X137931963Y-76996902D01*
X137914939Y-76969125D01*
X137895853Y-76938032D01*
X137874985Y-76904082D01*
X137852621Y-76867734D01*
X137829043Y-76829448D01*
X137804535Y-76789682D01*
X137779380Y-76748895D01*
X137753861Y-76707546D01*
X137728263Y-76666094D01*
X137702868Y-76624998D01*
X137677959Y-76584717D01*
X137653821Y-76545710D01*
X137630736Y-76508436D01*
X137608989Y-76473353D01*
X137588861Y-76440922D01*
X137570637Y-76411599D01*
X137554601Y-76385846D01*
X137541035Y-76364120D01*
X137530222Y-76346880D01*
X137522447Y-76334586D01*
X137517993Y-76327696D01*
X137517003Y-76326334D01*
X137515153Y-76329563D01*
X137509972Y-76338730D01*
X137501680Y-76353441D01*
X137490497Y-76373306D01*
X137476645Y-76397932D01*
X137460342Y-76426927D01*
X137441809Y-76459900D01*
X137421267Y-76496459D01*
X137398936Y-76536212D01*
X137375035Y-76578767D01*
X137349786Y-76623732D01*
X137323409Y-76670715D01*
X137307063Y-76699834D01*
X137271175Y-76763846D01*
X137238844Y-76821673D01*
X137210012Y-76873422D01*
X137184621Y-76919201D01*
X137162613Y-76959115D01*
X137143929Y-76993272D01*
X137128510Y-77021780D01*
X137116299Y-77044744D01*
X137107236Y-77062273D01*
X137101263Y-77074473D01*
X137098323Y-77081451D01*
X137097971Y-77082993D01*
X137100907Y-77095112D01*
X137109127Y-77102718D01*
X137121752Y-77105127D01*
X137126011Y-77104770D01*
X137132301Y-77103123D01*
X137144587Y-77099191D01*
X137162079Y-77093254D01*
X137183984Y-77085590D01*
X137209510Y-77076478D01*
X137237864Y-77066196D01*
X137268255Y-77055022D01*
X137282782Y-77049630D01*
X137313663Y-77038170D01*
X137342705Y-77027465D01*
X137369145Y-77017792D01*
X137392218Y-77009428D01*
X137411158Y-77002647D01*
X137425203Y-76997728D01*
X137433587Y-76994947D01*
X137435385Y-76994450D01*
X137443093Y-76993715D01*
X137448255Y-76995692D01*
X137451038Y-77001234D01*
X137451611Y-77011191D01*
X137450140Y-77026416D01*
X137446794Y-77047762D01*
X137446360Y-77050276D01*
X137438275Y-77093195D01*
X137429771Y-77130322D01*
X137420408Y-77163121D01*
X137409745Y-77193057D01*
X137397343Y-77221595D01*
X137391027Y-77234472D01*
X137367641Y-77275892D01*
X137342530Y-77310724D01*
X137314953Y-77339569D01*
X137284170Y-77363028D01*
X137249441Y-77381702D01*
X137210026Y-77396192D01*
X137183243Y-77403262D01*
X137174387Y-77404549D01*
X137159582Y-77405842D01*
X137140134Y-77407064D01*
X137117349Y-77408138D01*
X137092535Y-77408989D01*
X137079828Y-77409305D01*
X137050767Y-77409843D01*
X137027816Y-77410024D01*
X137009835Y-77409805D01*
X136995686Y-77409146D01*
X136984229Y-77408006D01*
X136974323Y-77406344D01*
X136969778Y-77405347D01*
X136925562Y-77391356D01*
X136883183Y-77370857D01*
X136843340Y-77344512D01*
X136806731Y-77312978D01*
X136774054Y-77276918D01*
X136746008Y-77236991D01*
X136723292Y-77193856D01*
X136710266Y-77160086D01*
X136705902Y-77145374D01*
X136701045Y-77126843D01*
X136696547Y-77107804D01*
X136695298Y-77102029D01*
X136694432Y-77097776D01*
X136693637Y-77093407D01*
X136692912Y-77088604D01*
X136692252Y-77083052D01*
X136691654Y-77076433D01*
X136691116Y-77068431D01*
X136690634Y-77058729D01*
X136690206Y-77047010D01*
X136689827Y-77032959D01*
X136689495Y-77016258D01*
X136689206Y-76996590D01*
X136688958Y-76973639D01*
X136688748Y-76947089D01*
X136688571Y-76916622D01*
X136688426Y-76881923D01*
X136688308Y-76842673D01*
X136688216Y-76798558D01*
X136688145Y-76749260D01*
X136688092Y-76694462D01*
X136688055Y-76633848D01*
X136688030Y-76567101D01*
X136688014Y-76493904D01*
X136688004Y-76413942D01*
X136688000Y-76366898D01*
X136687991Y-76283059D01*
X136687977Y-76206174D01*
X136687955Y-76135939D01*
X136687923Y-76072051D01*
X136687876Y-76014206D01*
X136687814Y-75962100D01*
X136687731Y-75915430D01*
X136687626Y-75873893D01*
X136687496Y-75837184D01*
X136687338Y-75805001D01*
X136687149Y-75777041D01*
X136686926Y-75752998D01*
X136686667Y-75732570D01*
X136686368Y-75715454D01*
X136686026Y-75701346D01*
X136685639Y-75689941D01*
X136685204Y-75680938D01*
X136684717Y-75674032D01*
X136684177Y-75668920D01*
X136683580Y-75665298D01*
X136682923Y-75662862D01*
X136682203Y-75661310D01*
X136681419Y-75660338D01*
X136681307Y-75660234D01*
X136678866Y-75658602D01*
X136675033Y-75657291D01*
X136669064Y-75656267D01*
X136660215Y-75655496D01*
X136647741Y-75654944D01*
X136630898Y-75654575D01*
X136608941Y-75654356D01*
X136581126Y-75654252D01*
X136551241Y-75654229D01*
X136518057Y-75654241D01*
X136491370Y-75654307D01*
X136470422Y-75654473D01*
X136454453Y-75654781D01*
X136442703Y-75655277D01*
X136434412Y-75656006D01*
X136428822Y-75657011D01*
X136425172Y-75658337D01*
X136422704Y-75660030D01*
X136420898Y-75661866D01*
X136419873Y-75663175D01*
X136418954Y-75664972D01*
X136418132Y-75667640D01*
X136417403Y-75671565D01*
X136416760Y-75677129D01*
X136416195Y-75684715D01*
X136415702Y-75694709D01*
X136415274Y-75707493D01*
X136414906Y-75723452D01*
X136414589Y-75742969D01*
X136414319Y-75766428D01*
X136414087Y-75794213D01*
X136413887Y-75826707D01*
X136413714Y-75864295D01*
X136413559Y-75907359D01*
X136413417Y-75956285D01*
X136413281Y-76011455D01*
X136413144Y-76073253D01*
X136413053Y-76116344D01*
X136412956Y-76179721D01*
X136412921Y-76245741D01*
X136412946Y-76313500D01*
X136413027Y-76382092D01*
X136413162Y-76450613D01*
X136413348Y-76518158D01*
X136413582Y-76583820D01*
X136413861Y-76646697D01*
X136414183Y-76705881D01*
X136414544Y-76760469D01*
X136414942Y-76809554D01*
X136415347Y-76849843D01*
X136415950Y-76903803D01*
X136416494Y-76951080D01*
X136417024Y-76992249D01*
X136417581Y-77027883D01*
X136418211Y-77058556D01*
X136418957Y-77084843D01*
X136419863Y-77107317D01*
X136420972Y-77126552D01*
X136422328Y-77143122D01*
X136423976Y-77157601D01*
X136425958Y-77170563D01*
X136428319Y-77182581D01*
X136431102Y-77194231D01*
X136434350Y-77206085D01*
X136438109Y-77218718D01*
X136442421Y-77232704D01*
X136445213Y-77241729D01*
X136467517Y-77301926D01*
X136496335Y-77359812D01*
X136531144Y-77414844D01*
X136571420Y-77466481D01*
X136616640Y-77514177D01*
X136666280Y-77557392D01*
X136719815Y-77595581D01*
X136776723Y-77628202D01*
X136836480Y-77654711D01*
X136847600Y-77658829D01*
X136902173Y-77675353D01*
X136960353Y-77687352D01*
X137020211Y-77694621D01*
X137079822Y-77696956D01*
X137137256Y-77694152D01*
X137157843Y-77691734D01*
X137226686Y-77678748D01*
X137292359Y-77659234D01*
X137354874Y-77633185D01*
X137414245Y-77600597D01*
X137470484Y-77561462D01*
X137523004Y-77516344D01*
X137535385Y-77504790D01*
X137545869Y-77495336D01*
X137553344Y-77488965D01*
X137556685Y-77486657D01*
X137560496Y-77488607D01*
X137568788Y-77493839D01*
X137580124Y-77501430D01*
X137587038Y-77506207D01*
X137653538Y-77548521D01*
X137724827Y-77586166D01*
X137799753Y-77618640D01*
X137877167Y-77645444D01*
X137954314Y-77665725D01*
X138036396Y-77680235D01*
X138119714Y-77687773D01*
X138203649Y-77688379D01*
X138287586Y-77682097D01*
X138370907Y-77668971D01*
X138452996Y-77649044D01*
X138523531Y-77625987D01*
X138566664Y-77608434D01*
X138612815Y-77586664D01*
X138660119Y-77561730D01*
X138706710Y-77534687D01*
X138750721Y-77506588D01*
X138790285Y-77478488D01*
X138805214Y-77466870D01*
X138867596Y-77412289D01*
X138925493Y-77352531D01*
X138978539Y-77288188D01*
X139026367Y-77219855D01*
X139068610Y-77148123D01*
X139104903Y-77073586D01*
X139134877Y-76996838D01*
X139158168Y-76918470D01*
X139166459Y-76882410D01*
X139179160Y-76806209D01*
X139186207Y-76727395D01*
X139187571Y-76647726D01*
X139183219Y-76568959D01*
X139173317Y-76493981D01*
X139155354Y-76411445D01*
X139130666Y-76331195D01*
X139099529Y-76253598D01*
X139062218Y-76179025D01*
X139019008Y-76107844D01*
X138970174Y-76040425D01*
X138915991Y-75977136D01*
X138856735Y-75918347D01*
X138792680Y-75864427D01*
X138724102Y-75815746D01*
X138651276Y-75772671D01*
X138625825Y-75759483D01*
X138547951Y-75724232D01*
X138469003Y-75695970D01*
X138388127Y-75674431D01*
X138304468Y-75659349D01*
X138302657Y-75659098D01*
X138278903Y-75656565D01*
X138249725Y-75654636D01*
X138216863Y-75653324D01*
X138182054Y-75652642D01*
X138147037Y-75652604D01*
X138113549Y-75653224D01*
G36*
X134692698Y-77853535D02*
G01*
X134665367Y-77867560D01*
X134643841Y-77878736D01*
X134627444Y-77887480D01*
X134615497Y-77894205D01*
X134607325Y-77899329D01*
X134602250Y-77903265D01*
X134599596Y-77906429D01*
X134598686Y-77909238D01*
X134598722Y-77911200D01*
X134599700Y-77920272D01*
X136337786Y-77920332D01*
X136452180Y-77920332D01*
X136565766Y-77920324D01*
X136678274Y-77920308D01*
X136789437Y-77920285D01*
X136898985Y-77920255D01*
X137006650Y-77920218D01*
X137112162Y-77920174D01*
X137215254Y-77920124D01*
X137315657Y-77920067D01*
X137413102Y-77920005D01*
X137507320Y-77919937D01*
X137598043Y-77919863D01*
X137685002Y-77919784D01*
X137767927Y-77919700D01*
X137846552Y-77919611D01*
X137920607Y-77919518D01*
X137989822Y-77919421D01*
X138053931Y-77919319D01*
X138112663Y-77919214D01*
X138165750Y-77919106D01*
X138212924Y-77918994D01*
X138253916Y-77918879D01*
X138288457Y-77918761D01*
X138316278Y-77918640D01*
X138337111Y-77918518D01*
X138337128Y-77918518D01*
X138598386Y-77916643D01*
X138678364Y-77879910D01*
X138709000Y-77865834D01*
X138733647Y-77854436D01*
X138752904Y-77845355D01*
X138767370Y-77838226D01*
X138777645Y-77832685D01*
X138784328Y-77828369D01*
X138788017Y-77824914D01*
X138789313Y-77821956D01*
X138788813Y-77819131D01*
X138787118Y-77816076D01*
X138786109Y-77814503D01*
X138784064Y-77814182D01*
X138778262Y-77813870D01*
X138768577Y-77813568D01*
X138754883Y-77813275D01*
X138737054Y-77812990D01*
X138714963Y-77812713D01*
X138688483Y-77812444D01*
X138657489Y-77812182D01*
X138621854Y-77811927D01*
X138581452Y-77811678D01*
X138536156Y-77811435D01*
X138485840Y-77811198D01*
X138430379Y-77810965D01*
X138369644Y-77810737D01*
X138303511Y-77810514D01*
X138231853Y-77810294D01*
X138154543Y-77810077D01*
X138071456Y-77809863D01*
X137982465Y-77809652D01*
X137887443Y-77809443D01*
X137786264Y-77809235D01*
X137678802Y-77809028D01*
X137564931Y-77808822D01*
X137444524Y-77808617D01*
X137317456Y-77808411D01*
X137183598Y-77808205D01*
X137042827Y-77807997D01*
X136895014Y-77807788D01*
X136785547Y-77807639D01*
X134787652Y-77804942D01*
X134692698Y-77853535D01*
G37*
X134692698Y-77853535D02*
X134665367Y-77867560D01*
X134643841Y-77878736D01*
X134627444Y-77887480D01*
X134615497Y-77894205D01*
X134607325Y-77899329D01*
X134602250Y-77903265D01*
X134599596Y-77906429D01*
X134598686Y-77909238D01*
X134598722Y-77911200D01*
X134599700Y-77920272D01*
X136337786Y-77920332D01*
X136452180Y-77920332D01*
X136565766Y-77920324D01*
X136678274Y-77920308D01*
X136789437Y-77920285D01*
X136898985Y-77920255D01*
X137006650Y-77920218D01*
X137112162Y-77920174D01*
X137215254Y-77920124D01*
X137315657Y-77920067D01*
X137413102Y-77920005D01*
X137507320Y-77919937D01*
X137598043Y-77919863D01*
X137685002Y-77919784D01*
X137767927Y-77919700D01*
X137846552Y-77919611D01*
X137920607Y-77919518D01*
X137989822Y-77919421D01*
X138053931Y-77919319D01*
X138112663Y-77919214D01*
X138165750Y-77919106D01*
X138212924Y-77918994D01*
X138253916Y-77918879D01*
X138288457Y-77918761D01*
X138316278Y-77918640D01*
X138337111Y-77918518D01*
X138337128Y-77918518D01*
X138598386Y-77916643D01*
X138678364Y-77879910D01*
X138709000Y-77865834D01*
X138733647Y-77854436D01*
X138752904Y-77845355D01*
X138767370Y-77838226D01*
X138777645Y-77832685D01*
X138784328Y-77828369D01*
X138788017Y-77824914D01*
X138789313Y-77821956D01*
X138788813Y-77819131D01*
X138787118Y-77816076D01*
X138786109Y-77814503D01*
X138784064Y-77814182D01*
X138778262Y-77813870D01*
X138768577Y-77813568D01*
X138754883Y-77813275D01*
X138737054Y-77812990D01*
X138714963Y-77812713D01*
X138688483Y-77812444D01*
X138657489Y-77812182D01*
X138621854Y-77811927D01*
X138581452Y-77811678D01*
X138536156Y-77811435D01*
X138485840Y-77811198D01*
X138430379Y-77810965D01*
X138369644Y-77810737D01*
X138303511Y-77810514D01*
X138231853Y-77810294D01*
X138154543Y-77810077D01*
X138071456Y-77809863D01*
X137982465Y-77809652D01*
X137887443Y-77809443D01*
X137786264Y-77809235D01*
X137678802Y-77809028D01*
X137564931Y-77808822D01*
X137444524Y-77808617D01*
X137317456Y-77808411D01*
X137183598Y-77808205D01*
X137042827Y-77807997D01*
X136895014Y-77807788D01*
X136785547Y-77807639D01*
X134787652Y-77804942D01*
X134692698Y-77853535D01*
G36*
X135198362Y-78087025D02*
G01*
X135188876Y-78094487D01*
X135176787Y-78106805D01*
X135163019Y-78122729D01*
X135148495Y-78141005D01*
X135134137Y-78160381D01*
X135120870Y-78179606D01*
X135109617Y-78197426D01*
X135101300Y-78212591D01*
X135096844Y-78223847D01*
X135096577Y-78225062D01*
X135095544Y-78242869D01*
X135098555Y-78260178D01*
X135104883Y-78275531D01*
X135113803Y-78287470D01*
X135124589Y-78294535D01*
X135131788Y-78295829D01*
X135142067Y-78294644D01*
X135149313Y-78292262D01*
X135153642Y-78288172D01*
X135161213Y-78279228D01*
X135171140Y-78266546D01*
X135182538Y-78251242D01*
X135189186Y-78242009D01*
X135222394Y-78195323D01*
X135266310Y-78192961D01*
X135285821Y-78192130D01*
X135310033Y-78191426D01*
X135336392Y-78190908D01*
X135362341Y-78190631D01*
X135373041Y-78190600D01*
X135435857Y-78190600D01*
X135449768Y-78209650D01*
X135459770Y-78223440D01*
X135470409Y-78238243D01*
X135476189Y-78246358D01*
X135488700Y-78264016D01*
X135488098Y-78328724D01*
X135487497Y-78393432D01*
X135463298Y-78428141D01*
X135439098Y-78462850D01*
X135331538Y-78461889D01*
X135223977Y-78460929D01*
X135207567Y-78438666D01*
X135196925Y-78424194D01*
X135184627Y-78407420D01*
X135173289Y-78391910D01*
X135173014Y-78391533D01*
X135163298Y-78379308D01*
X135153680Y-78369028D01*
X135145898Y-78362506D01*
X135144397Y-78361653D01*
X135131875Y-78359112D01*
X135120000Y-78362901D01*
X135109583Y-78372099D01*
X135101436Y-78385780D01*
X135096370Y-78403021D01*
X135095080Y-78417827D01*
X135095522Y-78427574D01*
X135097479Y-78436162D01*
X135101752Y-78445628D01*
X135109144Y-78458011D01*
X135113650Y-78464999D01*
X135124214Y-78480741D01*
X135137127Y-78499321D01*
X135150336Y-78517810D01*
X135156807Y-78526639D01*
X135165900Y-78538930D01*
X135173718Y-78548955D01*
X135181096Y-78556944D01*
X135188866Y-78563126D01*
X135197865Y-78567730D01*
X135208927Y-78570986D01*
X135222886Y-78573124D01*
X135240577Y-78574373D01*
X135262834Y-78574963D01*
X135290492Y-78575122D01*
X135324385Y-78575082D01*
X135332910Y-78575068D01*
X135365722Y-78575001D01*
X135392094Y-78574866D01*
X135412843Y-78574619D01*
X135428786Y-78574214D01*
X135440740Y-78573606D01*
X135449522Y-78572752D01*
X135455948Y-78571604D01*
X135460836Y-78570120D01*
X135465003Y-78568253D01*
X135465995Y-78567738D01*
X135476176Y-78560170D01*
X135488739Y-78547501D01*
X135502705Y-78531065D01*
X135517096Y-78512195D01*
X135530933Y-78492221D01*
X135543238Y-78472478D01*
X135553031Y-78454297D01*
X135558306Y-78442034D01*
X135560940Y-78434399D01*
X135562960Y-78427127D01*
X135564445Y-78419134D01*
X135565478Y-78409333D01*
X135566141Y-78396638D01*
X135566513Y-78379962D01*
X135566677Y-78358221D01*
X135566714Y-78330327D01*
X135566714Y-78329786D01*
X135566617Y-78299706D01*
X135566290Y-78275888D01*
X135565680Y-78257338D01*
X135564735Y-78243062D01*
X135563401Y-78232069D01*
X135561627Y-78223364D01*
X135560916Y-78220756D01*
X135555916Y-78208368D01*
X135547295Y-78191922D01*
X135536037Y-78172970D01*
X135523126Y-78153062D01*
X135509546Y-78133749D01*
X135496282Y-78116583D01*
X135490476Y-78109743D01*
X135483622Y-78101990D01*
X135477579Y-78095714D01*
X135471518Y-78090750D01*
X135464608Y-78086935D01*
X135456021Y-78084105D01*
X135444926Y-78082097D01*
X135430495Y-78080747D01*
X135411898Y-78079890D01*
X135388305Y-78079365D01*
X135358887Y-78079006D01*
X135333442Y-78078757D01*
X135214469Y-78077585D01*
X135198362Y-78087025D01*
G37*
X135198362Y-78087025D02*
X135188876Y-78094487D01*
X135176787Y-78106805D01*
X135163019Y-78122729D01*
X135148495Y-78141005D01*
X135134137Y-78160381D01*
X135120870Y-78179606D01*
X135109617Y-78197426D01*
X135101300Y-78212591D01*
X135096844Y-78223847D01*
X135096577Y-78225062D01*
X135095544Y-78242869D01*
X135098555Y-78260178D01*
X135104883Y-78275531D01*
X135113803Y-78287470D01*
X135124589Y-78294535D01*
X135131788Y-78295829D01*
X135142067Y-78294644D01*
X135149313Y-78292262D01*
X135153642Y-78288172D01*
X135161213Y-78279228D01*
X135171140Y-78266546D01*
X135182538Y-78251242D01*
X135189186Y-78242009D01*
X135222394Y-78195323D01*
X135266310Y-78192961D01*
X135285821Y-78192130D01*
X135310033Y-78191426D01*
X135336392Y-78190908D01*
X135362341Y-78190631D01*
X135373041Y-78190600D01*
X135435857Y-78190600D01*
X135449768Y-78209650D01*
X135459770Y-78223440D01*
X135470409Y-78238243D01*
X135476189Y-78246358D01*
X135488700Y-78264016D01*
X135488098Y-78328724D01*
X135487497Y-78393432D01*
X135463298Y-78428141D01*
X135439098Y-78462850D01*
X135331538Y-78461889D01*
X135223977Y-78460929D01*
X135207567Y-78438666D01*
X135196925Y-78424194D01*
X135184627Y-78407420D01*
X135173289Y-78391910D01*
X135173014Y-78391533D01*
X135163298Y-78379308D01*
X135153680Y-78369028D01*
X135145898Y-78362506D01*
X135144397Y-78361653D01*
X135131875Y-78359112D01*
X135120000Y-78362901D01*
X135109583Y-78372099D01*
X135101436Y-78385780D01*
X135096370Y-78403021D01*
X135095080Y-78417827D01*
X135095522Y-78427574D01*
X135097479Y-78436162D01*
X135101752Y-78445628D01*
X135109144Y-78458011D01*
X135113650Y-78464999D01*
X135124214Y-78480741D01*
X135137127Y-78499321D01*
X135150336Y-78517810D01*
X135156807Y-78526639D01*
X135165900Y-78538930D01*
X135173718Y-78548955D01*
X135181096Y-78556944D01*
X135188866Y-78563126D01*
X135197865Y-78567730D01*
X135208927Y-78570986D01*
X135222886Y-78573124D01*
X135240577Y-78574373D01*
X135262834Y-78574963D01*
X135290492Y-78575122D01*
X135324385Y-78575082D01*
X135332910Y-78575068D01*
X135365722Y-78575001D01*
X135392094Y-78574866D01*
X135412843Y-78574619D01*
X135428786Y-78574214D01*
X135440740Y-78573606D01*
X135449522Y-78572752D01*
X135455948Y-78571604D01*
X135460836Y-78570120D01*
X135465003Y-78568253D01*
X135465995Y-78567738D01*
X135476176Y-78560170D01*
X135488739Y-78547501D01*
X135502705Y-78531065D01*
X135517096Y-78512195D01*
X135530933Y-78492221D01*
X135543238Y-78472478D01*
X135553031Y-78454297D01*
X135558306Y-78442034D01*
X135560940Y-78434399D01*
X135562960Y-78427127D01*
X135564445Y-78419134D01*
X135565478Y-78409333D01*
X135566141Y-78396638D01*
X135566513Y-78379962D01*
X135566677Y-78358221D01*
X135566714Y-78330327D01*
X135566714Y-78329786D01*
X135566617Y-78299706D01*
X135566290Y-78275888D01*
X135565680Y-78257338D01*
X135564735Y-78243062D01*
X135563401Y-78232069D01*
X135561627Y-78223364D01*
X135560916Y-78220756D01*
X135555916Y-78208368D01*
X135547295Y-78191922D01*
X135536037Y-78172970D01*
X135523126Y-78153062D01*
X135509546Y-78133749D01*
X135496282Y-78116583D01*
X135490476Y-78109743D01*
X135483622Y-78101990D01*
X135477579Y-78095714D01*
X135471518Y-78090750D01*
X135464608Y-78086935D01*
X135456021Y-78084105D01*
X135444926Y-78082097D01*
X135430495Y-78080747D01*
X135411898Y-78079890D01*
X135388305Y-78079365D01*
X135358887Y-78079006D01*
X135333442Y-78078757D01*
X135214469Y-78077585D01*
X135198362Y-78087025D01*
G36*
X137000539Y-78078463D02*
G01*
X136972660Y-78078624D01*
X136959847Y-78078743D01*
X136927703Y-78079109D01*
X136901986Y-78079500D01*
X136881862Y-78079969D01*
X136866500Y-78080570D01*
X136855070Y-78081355D01*
X136846738Y-78082377D01*
X136840674Y-78083689D01*
X136836046Y-78085344D01*
X136833086Y-78086805D01*
X136823380Y-78093700D01*
X136810964Y-78104916D01*
X136796845Y-78119271D01*
X136782029Y-78135582D01*
X136767523Y-78152669D01*
X136754335Y-78169348D01*
X136743472Y-78184437D01*
X136735941Y-78196754D01*
X136732845Y-78204483D01*
X136731674Y-78222925D01*
X136734460Y-78241249D01*
X136740575Y-78257512D01*
X136749393Y-78269773D01*
X136755388Y-78274226D01*
X136765995Y-78278484D01*
X136775540Y-78278504D01*
X136785338Y-78273754D01*
X136796708Y-78263697D01*
X136805857Y-78253728D01*
X136818280Y-78239693D01*
X136831423Y-78225071D01*
X136842801Y-78212624D01*
X136844646Y-78210639D01*
X136861648Y-78192414D01*
X136968544Y-78191264D01*
X137075441Y-78190114D01*
X137099370Y-78218478D01*
X137109361Y-78230515D01*
X137117314Y-78240462D01*
X137122232Y-78247053D01*
X137123335Y-78248988D01*
X137120440Y-78251749D01*
X137112933Y-78256621D01*
X137105645Y-78260781D01*
X137087918Y-78270429D01*
X136968666Y-78270468D01*
X136934091Y-78270506D01*
X136905836Y-78270678D01*
X136882963Y-78271103D01*
X136864535Y-78271904D01*
X136849614Y-78273200D01*
X136837264Y-78275114D01*
X136826546Y-78277767D01*
X136816523Y-78281278D01*
X136806257Y-78285771D01*
X136794812Y-78291365D01*
X136790621Y-78293471D01*
X136767943Y-78307412D01*
X136751213Y-78323832D01*
X136739908Y-78343648D01*
X136733507Y-78367777D01*
X136731486Y-78397136D01*
X136731486Y-78397179D01*
X136733601Y-78428232D01*
X136739725Y-78455874D01*
X136749527Y-78478782D01*
X136753520Y-78485089D01*
X136765567Y-78501268D01*
X136779385Y-78518190D01*
X136793755Y-78534516D01*
X136807455Y-78548908D01*
X136819265Y-78560026D01*
X136827572Y-78566307D01*
X136842795Y-78575229D01*
X136965847Y-78574934D01*
X137004162Y-78574738D01*
X137035527Y-78574346D01*
X137060246Y-78573745D01*
X137078624Y-78572926D01*
X137090965Y-78571878D01*
X137097575Y-78570591D01*
X137098046Y-78570398D01*
X137108198Y-78564945D01*
X137114887Y-78560649D01*
X137120632Y-78555407D01*
X137129675Y-78545863D01*
X137141001Y-78533222D01*
X137153590Y-78518691D01*
X137166428Y-78503475D01*
X137178495Y-78488781D01*
X137188777Y-78475814D01*
X137196254Y-78465780D01*
X137199911Y-78459886D01*
X137199951Y-78459785D01*
X137202545Y-78447357D01*
X137203010Y-78431461D01*
X137201450Y-78415531D01*
X137198258Y-78403662D01*
X137190015Y-78390596D01*
X137178862Y-78381381D01*
X137166513Y-78376940D01*
X137154684Y-78378199D01*
X137152704Y-78379123D01*
X137147952Y-78383065D01*
X137139519Y-78391425D01*
X137128450Y-78403115D01*
X137115792Y-78417046D01*
X137110737Y-78422754D01*
X137075575Y-78462743D01*
X136967724Y-78462743D01*
X136934429Y-78462661D01*
X136907795Y-78462398D01*
X136887229Y-78461930D01*
X136872137Y-78461235D01*
X136861923Y-78460288D01*
X136855995Y-78459065D01*
X136854270Y-78458207D01*
X136849746Y-78453680D01*
X136842538Y-78445592D01*
X136833937Y-78435500D01*
X136825233Y-78424963D01*
X136817720Y-78415539D01*
X136812687Y-78408788D01*
X136811314Y-78406373D01*
X136814261Y-78404009D01*
X136821838Y-78399602D01*
X136828645Y-78396026D01*
X136833377Y-78393721D01*
X136838089Y-78391837D01*
X136843574Y-78390311D01*
X136850624Y-78389080D01*
X136860033Y-78388080D01*
X136872592Y-78387248D01*
X136889095Y-78386520D01*
X136910334Y-78385833D01*
X136937102Y-78385123D01*
X136970191Y-78384327D01*
X136976802Y-78384172D01*
X137107628Y-78381100D01*
X137136013Y-78366586D01*
X137157588Y-78354385D01*
X137173445Y-78342400D01*
X137184967Y-78329365D01*
X137193541Y-78314014D01*
X137193542Y-78314012D01*
X137199452Y-78294528D01*
X137202431Y-78270772D01*
X137202550Y-78245079D01*
X137199882Y-78219783D01*
X137194497Y-78197221D01*
X137189589Y-78185157D01*
X137185242Y-78178109D01*
X137177455Y-78166923D01*
X137167324Y-78153127D01*
X137155945Y-78138249D01*
X137155739Y-78137986D01*
X137136119Y-78114585D01*
X137118582Y-78097463D01*
X137102556Y-78086143D01*
X137087466Y-78080153D01*
X137085274Y-78079690D01*
X137078899Y-78079199D01*
X137066253Y-78078823D01*
X137048320Y-78078571D01*
X137026087Y-78078448D01*
X137000539Y-78078463D01*
G37*
X137000539Y-78078463D02*
X136972660Y-78078624D01*
X136959847Y-78078743D01*
X136927703Y-78079109D01*
X136901986Y-78079500D01*
X136881862Y-78079969D01*
X136866500Y-78080570D01*
X136855070Y-78081355D01*
X136846738Y-78082377D01*
X136840674Y-78083689D01*
X136836046Y-78085344D01*
X136833086Y-78086805D01*
X136823380Y-78093700D01*
X136810964Y-78104916D01*
X136796845Y-78119271D01*
X136782029Y-78135582D01*
X136767523Y-78152669D01*
X136754335Y-78169348D01*
X136743472Y-78184437D01*
X136735941Y-78196754D01*
X136732845Y-78204483D01*
X136731674Y-78222925D01*
X136734460Y-78241249D01*
X136740575Y-78257512D01*
X136749393Y-78269773D01*
X136755388Y-78274226D01*
X136765995Y-78278484D01*
X136775540Y-78278504D01*
X136785338Y-78273754D01*
X136796708Y-78263697D01*
X136805857Y-78253728D01*
X136818280Y-78239693D01*
X136831423Y-78225071D01*
X136842801Y-78212624D01*
X136844646Y-78210639D01*
X136861648Y-78192414D01*
X136968544Y-78191264D01*
X137075441Y-78190114D01*
X137099370Y-78218478D01*
X137109361Y-78230515D01*
X137117314Y-78240462D01*
X137122232Y-78247053D01*
X137123335Y-78248988D01*
X137120440Y-78251749D01*
X137112933Y-78256621D01*
X137105645Y-78260781D01*
X137087918Y-78270429D01*
X136968666Y-78270468D01*
X136934091Y-78270506D01*
X136905836Y-78270678D01*
X136882963Y-78271103D01*
X136864535Y-78271904D01*
X136849614Y-78273200D01*
X136837264Y-78275114D01*
X136826546Y-78277767D01*
X136816523Y-78281278D01*
X136806257Y-78285771D01*
X136794812Y-78291365D01*
X136790621Y-78293471D01*
X136767943Y-78307412D01*
X136751213Y-78323832D01*
X136739908Y-78343648D01*
X136733507Y-78367777D01*
X136731486Y-78397136D01*
X136731486Y-78397179D01*
X136733601Y-78428232D01*
X136739725Y-78455874D01*
X136749527Y-78478782D01*
X136753520Y-78485089D01*
X136765567Y-78501268D01*
X136779385Y-78518190D01*
X136793755Y-78534516D01*
X136807455Y-78548908D01*
X136819265Y-78560026D01*
X136827572Y-78566307D01*
X136842795Y-78575229D01*
X136965847Y-78574934D01*
X137004162Y-78574738D01*
X137035527Y-78574346D01*
X137060246Y-78573745D01*
X137078624Y-78572926D01*
X137090965Y-78571878D01*
X137097575Y-78570591D01*
X137098046Y-78570398D01*
X137108198Y-78564945D01*
X137114887Y-78560649D01*
X137120632Y-78555407D01*
X137129675Y-78545863D01*
X137141001Y-78533222D01*
X137153590Y-78518691D01*
X137166428Y-78503475D01*
X137178495Y-78488781D01*
X137188777Y-78475814D01*
X137196254Y-78465780D01*
X137199911Y-78459886D01*
X137199951Y-78459785D01*
X137202545Y-78447357D01*
X137203010Y-78431461D01*
X137201450Y-78415531D01*
X137198258Y-78403662D01*
X137190015Y-78390596D01*
X137178862Y-78381381D01*
X137166513Y-78376940D01*
X137154684Y-78378199D01*
X137152704Y-78379123D01*
X137147952Y-78383065D01*
X137139519Y-78391425D01*
X137128450Y-78403115D01*
X137115792Y-78417046D01*
X137110737Y-78422754D01*
X137075575Y-78462743D01*
X136967724Y-78462743D01*
X136934429Y-78462661D01*
X136907795Y-78462398D01*
X136887229Y-78461930D01*
X136872137Y-78461235D01*
X136861923Y-78460288D01*
X136855995Y-78459065D01*
X136854270Y-78458207D01*
X136849746Y-78453680D01*
X136842538Y-78445592D01*
X136833937Y-78435500D01*
X136825233Y-78424963D01*
X136817720Y-78415539D01*
X136812687Y-78408788D01*
X136811314Y-78406373D01*
X136814261Y-78404009D01*
X136821838Y-78399602D01*
X136828645Y-78396026D01*
X136833377Y-78393721D01*
X136838089Y-78391837D01*
X136843574Y-78390311D01*
X136850624Y-78389080D01*
X136860033Y-78388080D01*
X136872592Y-78387248D01*
X136889095Y-78386520D01*
X136910334Y-78385833D01*
X136937102Y-78385123D01*
X136970191Y-78384327D01*
X136976802Y-78384172D01*
X137107628Y-78381100D01*
X137136013Y-78366586D01*
X137157588Y-78354385D01*
X137173445Y-78342400D01*
X137184967Y-78329365D01*
X137193541Y-78314014D01*
X137193542Y-78314012D01*
X137199452Y-78294528D01*
X137202431Y-78270772D01*
X137202550Y-78245079D01*
X137199882Y-78219783D01*
X137194497Y-78197221D01*
X137189589Y-78185157D01*
X137185242Y-78178109D01*
X137177455Y-78166923D01*
X137167324Y-78153127D01*
X137155945Y-78138249D01*
X137155739Y-78137986D01*
X137136119Y-78114585D01*
X137118582Y-78097463D01*
X137102556Y-78086143D01*
X137087466Y-78080153D01*
X137085274Y-78079690D01*
X137078899Y-78079199D01*
X137066253Y-78078823D01*
X137048320Y-78078571D01*
X137026087Y-78078448D01*
X137000539Y-78078463D01*
G36*
X137377862Y-78087509D02*
G01*
X137367424Y-78094847D01*
X137354922Y-78105825D01*
X137342720Y-78118331D01*
X137340315Y-78121073D01*
X137323311Y-78141045D01*
X137309729Y-78157801D01*
X137299170Y-78172531D01*
X137291235Y-78186426D01*
X137285526Y-78200675D01*
X137281642Y-78216470D01*
X137279187Y-78235000D01*
X137277760Y-78257456D01*
X137276963Y-78285029D01*
X137276512Y-78311506D01*
X137276092Y-78347988D01*
X137276241Y-78378240D01*
X137277213Y-78403284D01*
X137279262Y-78424139D01*
X137282642Y-78441828D01*
X137287607Y-78457370D01*
X137294411Y-78471786D01*
X137303309Y-78486098D01*
X137314555Y-78501326D01*
X137327892Y-78517872D01*
X137339408Y-78531932D01*
X137349090Y-78543395D01*
X137357814Y-78552533D01*
X137366458Y-78559614D01*
X137375902Y-78564910D01*
X137387023Y-78568690D01*
X137400698Y-78571225D01*
X137417807Y-78572785D01*
X137439226Y-78573639D01*
X137465835Y-78574059D01*
X137498510Y-78574315D01*
X137511628Y-78574416D01*
X137544608Y-78574672D01*
X137571150Y-78574812D01*
X137592074Y-78574797D01*
X137608199Y-78574586D01*
X137620345Y-78574138D01*
X137629331Y-78573415D01*
X137635976Y-78572374D01*
X137641100Y-78570978D01*
X137645521Y-78569184D01*
X137648577Y-78567701D01*
X137658514Y-78560977D01*
X137671500Y-78549589D01*
X137686260Y-78534698D01*
X137693477Y-78526786D01*
X137707981Y-78510354D01*
X137718548Y-78497887D01*
X137726122Y-78487976D01*
X137731643Y-78479214D01*
X137736054Y-78470190D01*
X137740295Y-78459498D01*
X137742534Y-78453393D01*
X137745116Y-78445978D01*
X137747120Y-78438998D01*
X137748618Y-78431431D01*
X137749683Y-78422255D01*
X137750387Y-78410447D01*
X137750802Y-78394985D01*
X137751001Y-78374846D01*
X137751056Y-78349008D01*
X137751051Y-78332856D01*
X137750880Y-78295790D01*
X137750228Y-78264985D01*
X137749132Y-78245271D01*
X137671286Y-78245271D01*
X137671242Y-78325885D01*
X137671199Y-78406500D01*
X137647272Y-78434622D01*
X137623345Y-78462743D01*
X137406576Y-78462743D01*
X137395939Y-78450950D01*
X137387647Y-78441491D01*
X137377457Y-78429508D01*
X137370451Y-78421081D01*
X137355600Y-78403005D01*
X137355600Y-78251358D01*
X137406764Y-78190600D01*
X137513422Y-78190600D01*
X137544363Y-78190544D01*
X137568977Y-78190533D01*
X137588192Y-78190799D01*
X137602936Y-78191576D01*
X137614136Y-78193097D01*
X137622720Y-78195595D01*
X137629617Y-78199303D01*
X137635753Y-78204454D01*
X137642058Y-78211283D01*
X137649457Y-78220021D01*
X137654655Y-78226100D01*
X137671286Y-78245271D01*
X137749132Y-78245271D01*
X137748807Y-78239447D01*
X137746332Y-78218184D01*
X137742514Y-78200201D01*
X137737068Y-78184504D01*
X137729705Y-78170101D01*
X137720139Y-78155999D01*
X137708082Y-78141202D01*
X137693248Y-78124718D01*
X137689865Y-78121070D01*
X137679629Y-78110072D01*
X137670839Y-78101131D01*
X137662621Y-78094033D01*
X137654104Y-78088567D01*
X137644416Y-78084519D01*
X137632685Y-78081677D01*
X137618039Y-78079829D01*
X137599605Y-78078761D01*
X137576512Y-78078261D01*
X137547887Y-78078116D01*
X137513695Y-78078114D01*
X137394682Y-78078114D01*
X137377862Y-78087509D01*
G37*
X137377862Y-78087509D02*
X137367424Y-78094847D01*
X137354922Y-78105825D01*
X137342720Y-78118331D01*
X137340315Y-78121073D01*
X137323311Y-78141045D01*
X137309729Y-78157801D01*
X137299170Y-78172531D01*
X137291235Y-78186426D01*
X137285526Y-78200675D01*
X137281642Y-78216470D01*
X137279187Y-78235000D01*
X137277760Y-78257456D01*
X137276963Y-78285029D01*
X137276512Y-78311506D01*
X137276092Y-78347988D01*
X137276241Y-78378240D01*
X137277213Y-78403284D01*
X137279262Y-78424139D01*
X137282642Y-78441828D01*
X137287607Y-78457370D01*
X137294411Y-78471786D01*
X137303309Y-78486098D01*
X137314555Y-78501326D01*
X137327892Y-78517872D01*
X137339408Y-78531932D01*
X137349090Y-78543395D01*
X137357814Y-78552533D01*
X137366458Y-78559614D01*
X137375902Y-78564910D01*
X137387023Y-78568690D01*
X137400698Y-78571225D01*
X137417807Y-78572785D01*
X137439226Y-78573639D01*
X137465835Y-78574059D01*
X137498510Y-78574315D01*
X137511628Y-78574416D01*
X137544608Y-78574672D01*
X137571150Y-78574812D01*
X137592074Y-78574797D01*
X137608199Y-78574586D01*
X137620345Y-78574138D01*
X137629331Y-78573415D01*
X137635976Y-78572374D01*
X137641100Y-78570978D01*
X137645521Y-78569184D01*
X137648577Y-78567701D01*
X137658514Y-78560977D01*
X137671500Y-78549589D01*
X137686260Y-78534698D01*
X137693477Y-78526786D01*
X137707981Y-78510354D01*
X137718548Y-78497887D01*
X137726122Y-78487976D01*
X137731643Y-78479214D01*
X137736054Y-78470190D01*
X137740295Y-78459498D01*
X137742534Y-78453393D01*
X137745116Y-78445978D01*
X137747120Y-78438998D01*
X137748618Y-78431431D01*
X137749683Y-78422255D01*
X137750387Y-78410447D01*
X137750802Y-78394985D01*
X137751001Y-78374846D01*
X137751056Y-78349008D01*
X137751051Y-78332856D01*
X137750880Y-78295790D01*
X137750228Y-78264985D01*
X137749132Y-78245271D01*
X137671286Y-78245271D01*
X137671242Y-78325885D01*
X137671199Y-78406500D01*
X137647272Y-78434622D01*
X137623345Y-78462743D01*
X137406576Y-78462743D01*
X137395939Y-78450950D01*
X137387647Y-78441491D01*
X137377457Y-78429508D01*
X137370451Y-78421081D01*
X137355600Y-78403005D01*
X137355600Y-78251358D01*
X137406764Y-78190600D01*
X137513422Y-78190600D01*
X137544363Y-78190544D01*
X137568977Y-78190533D01*
X137588192Y-78190799D01*
X137602936Y-78191576D01*
X137614136Y-78193097D01*
X137622720Y-78195595D01*
X137629617Y-78199303D01*
X137635753Y-78204454D01*
X137642058Y-78211283D01*
X137649457Y-78220021D01*
X137654655Y-78226100D01*
X137671286Y-78245271D01*
X137749132Y-78245271D01*
X137748807Y-78239447D01*
X137746332Y-78218184D01*
X137742514Y-78200201D01*
X137737068Y-78184504D01*
X137729705Y-78170101D01*
X137720139Y-78155999D01*
X137708082Y-78141202D01*
X137693248Y-78124718D01*
X137689865Y-78121070D01*
X137679629Y-78110072D01*
X137670839Y-78101131D01*
X137662621Y-78094033D01*
X137654104Y-78088567D01*
X137644416Y-78084519D01*
X137632685Y-78081677D01*
X137618039Y-78079829D01*
X137599605Y-78078761D01*
X137576512Y-78078261D01*
X137547887Y-78078116D01*
X137513695Y-78078114D01*
X137394682Y-78078114D01*
X137377862Y-78087509D01*
G36*
X138243229Y-78083195D02*
G01*
X138238666Y-78084626D01*
X138232710Y-78085806D01*
X138224678Y-78086759D01*
X138213888Y-78087508D01*
X138199656Y-78088075D01*
X138181300Y-78088484D01*
X138158137Y-78088757D01*
X138129484Y-78088918D01*
X138094657Y-78088990D01*
X138071070Y-78089000D01*
X138031644Y-78088980D01*
X137998753Y-78089005D01*
X137971675Y-78089205D01*
X137949688Y-78089709D01*
X137932070Y-78090645D01*
X137918100Y-78092144D01*
X137907055Y-78094333D01*
X137898214Y-78097342D01*
X137890855Y-78101301D01*
X137884256Y-78106337D01*
X137877695Y-78112581D01*
X137870450Y-78120161D01*
X137865061Y-78125836D01*
X137846030Y-78148241D01*
X137833244Y-78169870D01*
X137826078Y-78192285D01*
X137823906Y-78217050D01*
X137824285Y-78227805D01*
X137827728Y-78247897D01*
X137834785Y-78263430D01*
X137844783Y-78273783D01*
X137857049Y-78278335D01*
X137870910Y-78276465D01*
X137875071Y-78274664D01*
X137882793Y-78269453D01*
X137888976Y-78261473D01*
X137895056Y-78248762D01*
X137896359Y-78245546D01*
X137903660Y-78230413D01*
X137912182Y-78217541D01*
X137917281Y-78211982D01*
X137929029Y-78201486D01*
X138215057Y-78201486D01*
X138216250Y-78369307D01*
X138216560Y-78409320D01*
X138216890Y-78442725D01*
X138217264Y-78470173D01*
X138217709Y-78492313D01*
X138218251Y-78509794D01*
X138218914Y-78523267D01*
X138219724Y-78533382D01*
X138220707Y-78540787D01*
X138221889Y-78546133D01*
X138223295Y-78550070D01*
X138223380Y-78550262D01*
X138232620Y-78564300D01*
X138244361Y-78572772D01*
X138257301Y-78575322D01*
X138270132Y-78571591D01*
X138278162Y-78565250D01*
X138285747Y-78555609D01*
X138291289Y-78545696D01*
X138291541Y-78545057D01*
X138292509Y-78538687D01*
X138293338Y-78525086D01*
X138294029Y-78504280D01*
X138294579Y-78476294D01*
X138294989Y-78441152D01*
X138295259Y-78398880D01*
X138295388Y-78349504D01*
X138295400Y-78327204D01*
X138295400Y-78119566D01*
X138287236Y-78103376D01*
X138277720Y-78088911D01*
X138266844Y-78081330D01*
X138253846Y-78080284D01*
X138243229Y-78083195D01*
G37*
X138243229Y-78083195D02*
X138238666Y-78084626D01*
X138232710Y-78085806D01*
X138224678Y-78086759D01*
X138213888Y-78087508D01*
X138199656Y-78088075D01*
X138181300Y-78088484D01*
X138158137Y-78088757D01*
X138129484Y-78088918D01*
X138094657Y-78088990D01*
X138071070Y-78089000D01*
X138031644Y-78088980D01*
X137998753Y-78089005D01*
X137971675Y-78089205D01*
X137949688Y-78089709D01*
X137932070Y-78090645D01*
X137918100Y-78092144D01*
X137907055Y-78094333D01*
X137898214Y-78097342D01*
X137890855Y-78101301D01*
X137884256Y-78106337D01*
X137877695Y-78112581D01*
X137870450Y-78120161D01*
X137865061Y-78125836D01*
X137846030Y-78148241D01*
X137833244Y-78169870D01*
X137826078Y-78192285D01*
X137823906Y-78217050D01*
X137824285Y-78227805D01*
X137827728Y-78247897D01*
X137834785Y-78263430D01*
X137844783Y-78273783D01*
X137857049Y-78278335D01*
X137870910Y-78276465D01*
X137875071Y-78274664D01*
X137882793Y-78269453D01*
X137888976Y-78261473D01*
X137895056Y-78248762D01*
X137896359Y-78245546D01*
X137903660Y-78230413D01*
X137912182Y-78217541D01*
X137917281Y-78211982D01*
X137929029Y-78201486D01*
X138215057Y-78201486D01*
X138216250Y-78369307D01*
X138216560Y-78409320D01*
X138216890Y-78442725D01*
X138217264Y-78470173D01*
X138217709Y-78492313D01*
X138218251Y-78509794D01*
X138218914Y-78523267D01*
X138219724Y-78533382D01*
X138220707Y-78540787D01*
X138221889Y-78546133D01*
X138223295Y-78550070D01*
X138223380Y-78550262D01*
X138232620Y-78564300D01*
X138244361Y-78572772D01*
X138257301Y-78575322D01*
X138270132Y-78571591D01*
X138278162Y-78565250D01*
X138285747Y-78555609D01*
X138291289Y-78545696D01*
X138291541Y-78545057D01*
X138292509Y-78538687D01*
X138293338Y-78525086D01*
X138294029Y-78504280D01*
X138294579Y-78476294D01*
X138294989Y-78441152D01*
X138295259Y-78398880D01*
X138295388Y-78349504D01*
X138295400Y-78327204D01*
X138295400Y-78119566D01*
X138287236Y-78103376D01*
X138277720Y-78088911D01*
X138266844Y-78081330D01*
X138253846Y-78080284D01*
X138243229Y-78083195D01*
G36*
X139172788Y-77806701D02*
G01*
X139144535Y-77807049D01*
X139122588Y-77807408D01*
X139105996Y-77807869D01*
X139093807Y-77808524D01*
X139085071Y-77809464D01*
X139078837Y-77810782D01*
X139074153Y-77812567D01*
X139070068Y-77814913D01*
X139067173Y-77816857D01*
X139057314Y-77825069D01*
X139046502Y-77836221D01*
X139040678Y-77843261D01*
X139038434Y-77846224D01*
X139036370Y-77849194D01*
X139034402Y-77852566D01*
X139032448Y-77856738D01*
X139030426Y-77862103D01*
X139028253Y-77869059D01*
X139025847Y-77878000D01*
X139023125Y-77889324D01*
X139020005Y-77903424D01*
X139016405Y-77920698D01*
X139012241Y-77941541D01*
X139007431Y-77966348D01*
X139001894Y-77995516D01*
X138995546Y-78029440D01*
X138988305Y-78068516D01*
X138980089Y-78113140D01*
X138970815Y-78163708D01*
X138960400Y-78220615D01*
X138948763Y-78284257D01*
X138948526Y-78285553D01*
X138939769Y-78333544D01*
X138932299Y-78374960D01*
X138926084Y-78410363D01*
X138921094Y-78440314D01*
X138917300Y-78465377D01*
X138914670Y-78486111D01*
X138913176Y-78503079D01*
X138912785Y-78516844D01*
X138913469Y-78527966D01*
X138915196Y-78537007D01*
X138917937Y-78544530D01*
X138921661Y-78551096D01*
X138926338Y-78557267D01*
X138931938Y-78563605D01*
X138933450Y-78565250D01*
X138941366Y-78572279D01*
X138949312Y-78574546D01*
X138960181Y-78572688D01*
X138963171Y-78571814D01*
X138979136Y-78564570D01*
X138989887Y-78553550D01*
X138993741Y-78546371D01*
X138995884Y-78539429D01*
X138999013Y-78526414D01*
X139002900Y-78508408D01*
X139007322Y-78486495D01*
X139012052Y-78461757D01*
X139016821Y-78435529D01*
X139034178Y-78337557D01*
X139325570Y-78335661D01*
X139327977Y-78349309D01*
X139331194Y-78366829D01*
X139335240Y-78387771D01*
X139339881Y-78411026D01*
X139344881Y-78435489D01*
X139350007Y-78460050D01*
X139355024Y-78483603D01*
X139359697Y-78505041D01*
X139363791Y-78523256D01*
X139367072Y-78537140D01*
X139369304Y-78545587D01*
X139369972Y-78547461D01*
X139379143Y-78561334D01*
X139389858Y-78569019D01*
X139403674Y-78571584D01*
X139405123Y-78571600D01*
X139415448Y-78570901D01*
X139423203Y-78567861D01*
X139431302Y-78561065D01*
X139435333Y-78556933D01*
X139438835Y-78553263D01*
X139441957Y-78549738D01*
X139444645Y-78545998D01*
X139446847Y-78541681D01*
X139448509Y-78536426D01*
X139449579Y-78529873D01*
X139450004Y-78521660D01*
X139449731Y-78511426D01*
X139448707Y-78498811D01*
X139446879Y-78483453D01*
X139444195Y-78464991D01*
X139440601Y-78443064D01*
X139436044Y-78417312D01*
X139430472Y-78387372D01*
X139423831Y-78352885D01*
X139416069Y-78313489D01*
X139407134Y-78268824D01*
X139396971Y-78218527D01*
X139392916Y-78198578D01*
X139296886Y-78198578D01*
X139296521Y-78200418D01*
X139294928Y-78201876D01*
X139291354Y-78202997D01*
X139285049Y-78203823D01*
X139275262Y-78204398D01*
X139261243Y-78204767D01*
X139242240Y-78204971D01*
X139217503Y-78205056D01*
X139186280Y-78205065D01*
X139185307Y-78205065D01*
X139157241Y-78204988D01*
X139131268Y-78204793D01*
X139108346Y-78204499D01*
X139089431Y-78204120D01*
X139075480Y-78203675D01*
X139067453Y-78203179D01*
X139066126Y-78202974D01*
X139063945Y-78202230D01*
X139062379Y-78200794D01*
X139061503Y-78197878D01*
X139061391Y-78192696D01*
X139062119Y-78184458D01*
X139063762Y-78172377D01*
X139066393Y-78155666D01*
X139070088Y-78133535D01*
X139074923Y-78105198D01*
X139076036Y-78098702D01*
X139080908Y-78070494D01*
X139085738Y-78042971D01*
X139090292Y-78017427D01*
X139094337Y-77995158D01*
X139097640Y-77977457D01*
X139099967Y-77965629D01*
X139106386Y-77934786D01*
X139173956Y-77933800D01*
X139241527Y-77932815D01*
X139249543Y-77964643D01*
X139252421Y-77976770D01*
X139256211Y-77993776D01*
X139260698Y-78014598D01*
X139265666Y-78038169D01*
X139270899Y-78063423D01*
X139276182Y-78089295D01*
X139281299Y-78114719D01*
X139286033Y-78138630D01*
X139290171Y-78159962D01*
X139293495Y-78177649D01*
X139295791Y-78190626D01*
X139296842Y-78197826D01*
X139296886Y-78198578D01*
X139392916Y-78198578D01*
X139385528Y-78162238D01*
X139372752Y-78099597D01*
X139358591Y-78030241D01*
X139357056Y-78022726D01*
X139350375Y-77990291D01*
X139343993Y-77959854D01*
X139338083Y-77932198D01*
X139332816Y-77908104D01*
X139328365Y-77888357D01*
X139324904Y-77873739D01*
X139322603Y-77865033D01*
X139321905Y-77863069D01*
X139312521Y-77848698D01*
X139299535Y-77833433D01*
X139285534Y-77820172D01*
X139279573Y-77815618D01*
X139265141Y-77805617D01*
X139172788Y-77806701D01*
G37*
X139172788Y-77806701D02*
X139144535Y-77807049D01*
X139122588Y-77807408D01*
X139105996Y-77807869D01*
X139093807Y-77808524D01*
X139085071Y-77809464D01*
X139078837Y-77810782D01*
X139074153Y-77812567D01*
X139070068Y-77814913D01*
X139067173Y-77816857D01*
X139057314Y-77825069D01*
X139046502Y-77836221D01*
X139040678Y-77843261D01*
X139038434Y-77846224D01*
X139036370Y-77849194D01*
X139034402Y-77852566D01*
X139032448Y-77856738D01*
X139030426Y-77862103D01*
X139028253Y-77869059D01*
X139025847Y-77878000D01*
X139023125Y-77889324D01*
X139020005Y-77903424D01*
X139016405Y-77920698D01*
X139012241Y-77941541D01*
X139007431Y-77966348D01*
X139001894Y-77995516D01*
X138995546Y-78029440D01*
X138988305Y-78068516D01*
X138980089Y-78113140D01*
X138970815Y-78163708D01*
X138960400Y-78220615D01*
X138948763Y-78284257D01*
X138948526Y-78285553D01*
X138939769Y-78333544D01*
X138932299Y-78374960D01*
X138926084Y-78410363D01*
X138921094Y-78440314D01*
X138917300Y-78465377D01*
X138914670Y-78486111D01*
X138913176Y-78503079D01*
X138912785Y-78516844D01*
X138913469Y-78527966D01*
X138915196Y-78537007D01*
X138917937Y-78544530D01*
X138921661Y-78551096D01*
X138926338Y-78557267D01*
X138931938Y-78563605D01*
X138933450Y-78565250D01*
X138941366Y-78572279D01*
X138949312Y-78574546D01*
X138960181Y-78572688D01*
X138963171Y-78571814D01*
X138979136Y-78564570D01*
X138989887Y-78553550D01*
X138993741Y-78546371D01*
X138995884Y-78539429D01*
X138999013Y-78526414D01*
X139002900Y-78508408D01*
X139007322Y-78486495D01*
X139012052Y-78461757D01*
X139016821Y-78435529D01*
X139034178Y-78337557D01*
X139325570Y-78335661D01*
X139327977Y-78349309D01*
X139331194Y-78366829D01*
X139335240Y-78387771D01*
X139339881Y-78411026D01*
X139344881Y-78435489D01*
X139350007Y-78460050D01*
X139355024Y-78483603D01*
X139359697Y-78505041D01*
X139363791Y-78523256D01*
X139367072Y-78537140D01*
X139369304Y-78545587D01*
X139369972Y-78547461D01*
X139379143Y-78561334D01*
X139389858Y-78569019D01*
X139403674Y-78571584D01*
X139405123Y-78571600D01*
X139415448Y-78570901D01*
X139423203Y-78567861D01*
X139431302Y-78561065D01*
X139435333Y-78556933D01*
X139438835Y-78553263D01*
X139441957Y-78549738D01*
X139444645Y-78545998D01*
X139446847Y-78541681D01*
X139448509Y-78536426D01*
X139449579Y-78529873D01*
X139450004Y-78521660D01*
X139449731Y-78511426D01*
X139448707Y-78498811D01*
X139446879Y-78483453D01*
X139444195Y-78464991D01*
X139440601Y-78443064D01*
X139436044Y-78417312D01*
X139430472Y-78387372D01*
X139423831Y-78352885D01*
X139416069Y-78313489D01*
X139407134Y-78268824D01*
X139396971Y-78218527D01*
X139392916Y-78198578D01*
X139296886Y-78198578D01*
X139296521Y-78200418D01*
X139294928Y-78201876D01*
X139291354Y-78202997D01*
X139285049Y-78203823D01*
X139275262Y-78204398D01*
X139261243Y-78204767D01*
X139242240Y-78204971D01*
X139217503Y-78205056D01*
X139186280Y-78205065D01*
X139185307Y-78205065D01*
X139157241Y-78204988D01*
X139131268Y-78204793D01*
X139108346Y-78204499D01*
X139089431Y-78204120D01*
X139075480Y-78203675D01*
X139067453Y-78203179D01*
X139066126Y-78202974D01*
X139063945Y-78202230D01*
X139062379Y-78200794D01*
X139061503Y-78197878D01*
X139061391Y-78192696D01*
X139062119Y-78184458D01*
X139063762Y-78172377D01*
X139066393Y-78155666D01*
X139070088Y-78133535D01*
X139074923Y-78105198D01*
X139076036Y-78098702D01*
X139080908Y-78070494D01*
X139085738Y-78042971D01*
X139090292Y-78017427D01*
X139094337Y-77995158D01*
X139097640Y-77977457D01*
X139099967Y-77965629D01*
X139106386Y-77934786D01*
X139173956Y-77933800D01*
X139241527Y-77932815D01*
X139249543Y-77964643D01*
X139252421Y-77976770D01*
X139256211Y-77993776D01*
X139260698Y-78014598D01*
X139265666Y-78038169D01*
X139270899Y-78063423D01*
X139276182Y-78089295D01*
X139281299Y-78114719D01*
X139286033Y-78138630D01*
X139290171Y-78159962D01*
X139293495Y-78177649D01*
X139295791Y-78190626D01*
X139296842Y-78197826D01*
X139296886Y-78198578D01*
X139392916Y-78198578D01*
X139385528Y-78162238D01*
X139372752Y-78099597D01*
X139358591Y-78030241D01*
X139357056Y-78022726D01*
X139350375Y-77990291D01*
X139343993Y-77959854D01*
X139338083Y-77932198D01*
X139332816Y-77908104D01*
X139328365Y-77888357D01*
X139324904Y-77873739D01*
X139322603Y-77865033D01*
X139321905Y-77863069D01*
X139312521Y-77848698D01*
X139299535Y-77833433D01*
X139285534Y-77820172D01*
X139279573Y-77815618D01*
X139265141Y-77805617D01*
X139172788Y-77806701D01*
G36*
X134762438Y-78081775D02*
G01*
X134736392Y-78082069D01*
X134712602Y-78082585D01*
X134692240Y-78083323D01*
X134676482Y-78084282D01*
X134666502Y-78085464D01*
X134665014Y-78085804D01*
X134652855Y-78090262D01*
X134641919Y-78095969D01*
X134640609Y-78096853D01*
X134631941Y-78104479D01*
X134620443Y-78116614D01*
X134607337Y-78131745D01*
X134593843Y-78148358D01*
X134581181Y-78164941D01*
X134570571Y-78179979D01*
X134563233Y-78191960D01*
X134562087Y-78194229D01*
X134558615Y-78201982D01*
X134556073Y-78209294D01*
X134554284Y-78217529D01*
X134553070Y-78228051D01*
X134552253Y-78242227D01*
X134551656Y-78261419D01*
X134551306Y-78276996D01*
X134550858Y-78303967D01*
X134550890Y-78324764D01*
X134551552Y-78340461D01*
X134552993Y-78352134D01*
X134555362Y-78360856D01*
X134558810Y-78367704D01*
X134563485Y-78373752D01*
X134564986Y-78375397D01*
X134575397Y-78386543D01*
X134942600Y-78386543D01*
X134942600Y-78398689D01*
X134941595Y-78405778D01*
X134938023Y-78413673D01*
X134931048Y-78423783D01*
X134919831Y-78437519D01*
X134918907Y-78438603D01*
X134895214Y-78466372D01*
X134680685Y-78466372D01*
X134653120Y-78440972D01*
X134637556Y-78427464D01*
X134625310Y-78419118D01*
X134615138Y-78415450D01*
X134605801Y-78415976D01*
X134597659Y-78419321D01*
X134589744Y-78426812D01*
X134582663Y-78439137D01*
X134577488Y-78453877D01*
X134575292Y-78468613D01*
X134575277Y-78469791D01*
X134576538Y-78484646D01*
X134580861Y-78498254D01*
X134589058Y-78512153D01*
X134601940Y-78527879D01*
X134611009Y-78537549D01*
X134621222Y-78548116D01*
X134629956Y-78556710D01*
X134638080Y-78563534D01*
X134646463Y-78568791D01*
X134655976Y-78572686D01*
X134667486Y-78575422D01*
X134681863Y-78577202D01*
X134699977Y-78578230D01*
X134722697Y-78578709D01*
X134750891Y-78578843D01*
X134785430Y-78578835D01*
X134787334Y-78578835D01*
X134821098Y-78578784D01*
X134848368Y-78578625D01*
X134869905Y-78578324D01*
X134886471Y-78577848D01*
X134898827Y-78577166D01*
X134907736Y-78576243D01*
X134913960Y-78575048D01*
X134918260Y-78573548D01*
X134919014Y-78573178D01*
X134931416Y-78564711D01*
X134946230Y-78551430D01*
X134962197Y-78534785D01*
X134978063Y-78516225D01*
X134992568Y-78497199D01*
X135004458Y-78479156D01*
X135010795Y-78467369D01*
X135020614Y-78446414D01*
X135021754Y-78335407D01*
X135022052Y-78303818D01*
X135022197Y-78278571D01*
X135022152Y-78261100D01*
X134942600Y-78261100D01*
X134942600Y-78274057D01*
X134626914Y-78274057D01*
X134626914Y-78265715D01*
X134629273Y-78259004D01*
X134635828Y-78248235D01*
X134645792Y-78234628D01*
X134651407Y-78227628D01*
X134675900Y-78197882D01*
X134786739Y-78197870D01*
X134897578Y-78197857D01*
X134920089Y-78223000D01*
X134931188Y-78235871D01*
X134938014Y-78245275D01*
X134941501Y-78252796D01*
X134942586Y-78260020D01*
X134942600Y-78261100D01*
X135022152Y-78261100D01*
X135022145Y-78258754D01*
X135021853Y-78243452D01*
X135021277Y-78231752D01*
X135020374Y-78222740D01*
X135019100Y-78215502D01*
X135017411Y-78209125D01*
X135015453Y-78203230D01*
X135009641Y-78188652D01*
X135002529Y-78175232D01*
X134993145Y-78161611D01*
X134980517Y-78146425D01*
X134963673Y-78128316D01*
X134957114Y-78121558D01*
X134943025Y-78107492D01*
X134932357Y-78097862D01*
X134923745Y-78091651D01*
X134915823Y-78087841D01*
X134909243Y-78085880D01*
X134900296Y-78084635D01*
X134885384Y-78083610D01*
X134865680Y-78082803D01*
X134842359Y-78082216D01*
X134816595Y-78081848D01*
X134789563Y-78081701D01*
X134762438Y-78081775D01*
G37*
X134762438Y-78081775D02*
X134736392Y-78082069D01*
X134712602Y-78082585D01*
X134692240Y-78083323D01*
X134676482Y-78084282D01*
X134666502Y-78085464D01*
X134665014Y-78085804D01*
X134652855Y-78090262D01*
X134641919Y-78095969D01*
X134640609Y-78096853D01*
X134631941Y-78104479D01*
X134620443Y-78116614D01*
X134607337Y-78131745D01*
X134593843Y-78148358D01*
X134581181Y-78164941D01*
X134570571Y-78179979D01*
X134563233Y-78191960D01*
X134562087Y-78194229D01*
X134558615Y-78201982D01*
X134556073Y-78209294D01*
X134554284Y-78217529D01*
X134553070Y-78228051D01*
X134552253Y-78242227D01*
X134551656Y-78261419D01*
X134551306Y-78276996D01*
X134550858Y-78303967D01*
X134550890Y-78324764D01*
X134551552Y-78340461D01*
X134552993Y-78352134D01*
X134555362Y-78360856D01*
X134558810Y-78367704D01*
X134563485Y-78373752D01*
X134564986Y-78375397D01*
X134575397Y-78386543D01*
X134942600Y-78386543D01*
X134942600Y-78398689D01*
X134941595Y-78405778D01*
X134938023Y-78413673D01*
X134931048Y-78423783D01*
X134919831Y-78437519D01*
X134918907Y-78438603D01*
X134895214Y-78466372D01*
X134680685Y-78466372D01*
X134653120Y-78440972D01*
X134637556Y-78427464D01*
X134625310Y-78419118D01*
X134615138Y-78415450D01*
X134605801Y-78415976D01*
X134597659Y-78419321D01*
X134589744Y-78426812D01*
X134582663Y-78439137D01*
X134577488Y-78453877D01*
X134575292Y-78468613D01*
X134575277Y-78469791D01*
X134576538Y-78484646D01*
X134580861Y-78498254D01*
X134589058Y-78512153D01*
X134601940Y-78527879D01*
X134611009Y-78537549D01*
X134621222Y-78548116D01*
X134629956Y-78556710D01*
X134638080Y-78563534D01*
X134646463Y-78568791D01*
X134655976Y-78572686D01*
X134667486Y-78575422D01*
X134681863Y-78577202D01*
X134699977Y-78578230D01*
X134722697Y-78578709D01*
X134750891Y-78578843D01*
X134785430Y-78578835D01*
X134787334Y-78578835D01*
X134821098Y-78578784D01*
X134848368Y-78578625D01*
X134869905Y-78578324D01*
X134886471Y-78577848D01*
X134898827Y-78577166D01*
X134907736Y-78576243D01*
X134913960Y-78575048D01*
X134918260Y-78573548D01*
X134919014Y-78573178D01*
X134931416Y-78564711D01*
X134946230Y-78551430D01*
X134962197Y-78534785D01*
X134978063Y-78516225D01*
X134992568Y-78497199D01*
X135004458Y-78479156D01*
X135010795Y-78467369D01*
X135020614Y-78446414D01*
X135021754Y-78335407D01*
X135022052Y-78303818D01*
X135022197Y-78278571D01*
X135022152Y-78261100D01*
X134942600Y-78261100D01*
X134942600Y-78274057D01*
X134626914Y-78274057D01*
X134626914Y-78265715D01*
X134629273Y-78259004D01*
X134635828Y-78248235D01*
X134645792Y-78234628D01*
X134651407Y-78227628D01*
X134675900Y-78197882D01*
X134786739Y-78197870D01*
X134897578Y-78197857D01*
X134920089Y-78223000D01*
X134931188Y-78235871D01*
X134938014Y-78245275D01*
X134941501Y-78252796D01*
X134942586Y-78260020D01*
X134942600Y-78261100D01*
X135022152Y-78261100D01*
X135022145Y-78258754D01*
X135021853Y-78243452D01*
X135021277Y-78231752D01*
X135020374Y-78222740D01*
X135019100Y-78215502D01*
X135017411Y-78209125D01*
X135015453Y-78203230D01*
X135009641Y-78188652D01*
X135002529Y-78175232D01*
X134993145Y-78161611D01*
X134980517Y-78146425D01*
X134963673Y-78128316D01*
X134957114Y-78121558D01*
X134943025Y-78107492D01*
X134932357Y-78097862D01*
X134923745Y-78091651D01*
X134915823Y-78087841D01*
X134909243Y-78085880D01*
X134900296Y-78084635D01*
X134885384Y-78083610D01*
X134865680Y-78082803D01*
X134842359Y-78082216D01*
X134816595Y-78081848D01*
X134789563Y-78081701D01*
X134762438Y-78081775D01*
G36*
X135796870Y-78078584D02*
G01*
X135778318Y-78079344D01*
X135763754Y-78080721D01*
X135752362Y-78082842D01*
X135743325Y-78085836D01*
X135735825Y-78089830D01*
X135729045Y-78094951D01*
X135722170Y-78101327D01*
X135718824Y-78104643D01*
X135701532Y-78123076D01*
X135684662Y-78143137D01*
X135669527Y-78163114D01*
X135657438Y-78181294D01*
X135650919Y-78193232D01*
X135641100Y-78214186D01*
X135639979Y-78396522D01*
X135638859Y-78578857D01*
X135715486Y-78578857D01*
X135715486Y-78553395D01*
X135754172Y-78575229D01*
X135875198Y-78575229D01*
X135910476Y-78575250D01*
X135939362Y-78575149D01*
X135962720Y-78574681D01*
X135981414Y-78573601D01*
X135996308Y-78571663D01*
X136008266Y-78568622D01*
X136018152Y-78564233D01*
X136026830Y-78558249D01*
X136035163Y-78550427D01*
X136044017Y-78540520D01*
X136054255Y-78528283D01*
X136058522Y-78523169D01*
X136071248Y-78507338D01*
X136083160Y-78491380D01*
X136092931Y-78477141D01*
X136099235Y-78466470D01*
X136099284Y-78466372D01*
X136102752Y-78459097D01*
X136105322Y-78452431D01*
X136107151Y-78445112D01*
X136108398Y-78435878D01*
X136109219Y-78423466D01*
X136109772Y-78406615D01*
X136110015Y-78394187D01*
X136034084Y-78394187D01*
X136033378Y-78400240D01*
X136029538Y-78408154D01*
X136021888Y-78419042D01*
X136010498Y-78433131D01*
X135985814Y-78462616D01*
X135876351Y-78462679D01*
X135766887Y-78462743D01*
X135743041Y-78436436D01*
X135731686Y-78423526D01*
X135724561Y-78414166D01*
X135720736Y-78406800D01*
X135719283Y-78399872D01*
X135719154Y-78396483D01*
X135719114Y-78382837D01*
X136032986Y-78384729D01*
X136034084Y-78394187D01*
X136110015Y-78394187D01*
X136110214Y-78384063D01*
X136110318Y-78377859D01*
X136110633Y-78351002D01*
X136110446Y-78330320D01*
X136109556Y-78314740D01*
X136107766Y-78303187D01*
X136104877Y-78294586D01*
X136100689Y-78287864D01*
X136095005Y-78281944D01*
X136092108Y-78279427D01*
X136081415Y-78270429D01*
X135719114Y-78270429D01*
X135719114Y-78260176D01*
X135720960Y-78252591D01*
X135726883Y-78242378D01*
X135737458Y-78228612D01*
X135742500Y-78222626D01*
X135765885Y-78195327D01*
X135793847Y-78192964D01*
X135805939Y-78192257D01*
X135823736Y-78191635D01*
X135845686Y-78191131D01*
X135870238Y-78190778D01*
X135895838Y-78190610D01*
X135903227Y-78190600D01*
X135984644Y-78190600D01*
X136010629Y-78214504D01*
X136025841Y-78228070D01*
X136037302Y-78236944D01*
X136046265Y-78241689D01*
X136053981Y-78242870D01*
X136061702Y-78241051D01*
X136065667Y-78239331D01*
X136077399Y-78230039D01*
X136086086Y-78215820D01*
X136091113Y-78198590D01*
X136091863Y-78180260D01*
X136089115Y-78166530D01*
X136084453Y-78157843D01*
X136075628Y-78145838D01*
X136063962Y-78131948D01*
X136050776Y-78117608D01*
X136037392Y-78104251D01*
X136025131Y-78093310D01*
X136015317Y-78086221D01*
X136014843Y-78085954D01*
X136010973Y-78084272D01*
X136005570Y-78082903D01*
X135997854Y-78081805D01*
X135987049Y-78080934D01*
X135972377Y-78080248D01*
X135953059Y-78079703D01*
X135928319Y-78079256D01*
X135897378Y-78078864D01*
X135884628Y-78078728D01*
X135849208Y-78078404D01*
X135820228Y-78078313D01*
X135796870Y-78078584D01*
G37*
X135796870Y-78078584D02*
X135778318Y-78079344D01*
X135763754Y-78080721D01*
X135752362Y-78082842D01*
X135743325Y-78085836D01*
X135735825Y-78089830D01*
X135729045Y-78094951D01*
X135722170Y-78101327D01*
X135718824Y-78104643D01*
X135701532Y-78123076D01*
X135684662Y-78143137D01*
X135669527Y-78163114D01*
X135657438Y-78181294D01*
X135650919Y-78193232D01*
X135641100Y-78214186D01*
X135639979Y-78396522D01*
X135638859Y-78578857D01*
X135715486Y-78578857D01*
X135715486Y-78553395D01*
X135754172Y-78575229D01*
X135875198Y-78575229D01*
X135910476Y-78575250D01*
X135939362Y-78575149D01*
X135962720Y-78574681D01*
X135981414Y-78573601D01*
X135996308Y-78571663D01*
X136008266Y-78568622D01*
X136018152Y-78564233D01*
X136026830Y-78558249D01*
X136035163Y-78550427D01*
X136044017Y-78540520D01*
X136054255Y-78528283D01*
X136058522Y-78523169D01*
X136071248Y-78507338D01*
X136083160Y-78491380D01*
X136092931Y-78477141D01*
X136099235Y-78466470D01*
X136099284Y-78466372D01*
X136102752Y-78459097D01*
X136105322Y-78452431D01*
X136107151Y-78445112D01*
X136108398Y-78435878D01*
X136109219Y-78423466D01*
X136109772Y-78406615D01*
X136110015Y-78394187D01*
X136034084Y-78394187D01*
X136033378Y-78400240D01*
X136029538Y-78408154D01*
X136021888Y-78419042D01*
X136010498Y-78433131D01*
X135985814Y-78462616D01*
X135876351Y-78462679D01*
X135766887Y-78462743D01*
X135743041Y-78436436D01*
X135731686Y-78423526D01*
X135724561Y-78414166D01*
X135720736Y-78406800D01*
X135719283Y-78399872D01*
X135719154Y-78396483D01*
X135719114Y-78382837D01*
X136032986Y-78384729D01*
X136034084Y-78394187D01*
X136110015Y-78394187D01*
X136110214Y-78384063D01*
X136110318Y-78377859D01*
X136110633Y-78351002D01*
X136110446Y-78330320D01*
X136109556Y-78314740D01*
X136107766Y-78303187D01*
X136104877Y-78294586D01*
X136100689Y-78287864D01*
X136095005Y-78281944D01*
X136092108Y-78279427D01*
X136081415Y-78270429D01*
X135719114Y-78270429D01*
X135719114Y-78260176D01*
X135720960Y-78252591D01*
X135726883Y-78242378D01*
X135737458Y-78228612D01*
X135742500Y-78222626D01*
X135765885Y-78195327D01*
X135793847Y-78192964D01*
X135805939Y-78192257D01*
X135823736Y-78191635D01*
X135845686Y-78191131D01*
X135870238Y-78190778D01*
X135895838Y-78190610D01*
X135903227Y-78190600D01*
X135984644Y-78190600D01*
X136010629Y-78214504D01*
X136025841Y-78228070D01*
X136037302Y-78236944D01*
X136046265Y-78241689D01*
X136053981Y-78242870D01*
X136061702Y-78241051D01*
X136065667Y-78239331D01*
X136077399Y-78230039D01*
X136086086Y-78215820D01*
X136091113Y-78198590D01*
X136091863Y-78180260D01*
X136089115Y-78166530D01*
X136084453Y-78157843D01*
X136075628Y-78145838D01*
X136063962Y-78131948D01*
X136050776Y-78117608D01*
X136037392Y-78104251D01*
X136025131Y-78093310D01*
X136015317Y-78086221D01*
X136014843Y-78085954D01*
X136010973Y-78084272D01*
X136005570Y-78082903D01*
X135997854Y-78081805D01*
X135987049Y-78080934D01*
X135972377Y-78080248D01*
X135953059Y-78079703D01*
X135928319Y-78079256D01*
X135897378Y-78078864D01*
X135884628Y-78078728D01*
X135849208Y-78078404D01*
X135820228Y-78078313D01*
X135796870Y-78078584D01*
G36*
X138610418Y-78082296D02*
G01*
X138595346Y-78082424D01*
X138561513Y-78082729D01*
X138534048Y-78083084D01*
X138512063Y-78083741D01*
X138494671Y-78084949D01*
X138480984Y-78086960D01*
X138470117Y-78090023D01*
X138461180Y-78094388D01*
X138453288Y-78100306D01*
X138445553Y-78108028D01*
X138437088Y-78117803D01*
X138427006Y-78129883D01*
X138426963Y-78129934D01*
X138408489Y-78152283D01*
X138394328Y-78170800D01*
X138383908Y-78187017D01*
X138376660Y-78202471D01*
X138372013Y-78218696D01*
X138369396Y-78237228D01*
X138368239Y-78259601D01*
X138367972Y-78287350D01*
X138367971Y-78288659D01*
X138368166Y-78313693D01*
X138368911Y-78332711D01*
X138370448Y-78346946D01*
X138373020Y-78357635D01*
X138376868Y-78366009D01*
X138382235Y-78373305D01*
X138385210Y-78376564D01*
X138394729Y-78386543D01*
X138759070Y-78386543D01*
X138761382Y-78395752D01*
X138762406Y-78400806D01*
X138762128Y-78405323D01*
X138759840Y-78410556D01*
X138754833Y-78417755D01*
X138746402Y-78428173D01*
X138736271Y-78440190D01*
X138714500Y-78465886D01*
X138497832Y-78466372D01*
X138470634Y-78440972D01*
X138457186Y-78428830D01*
X138447342Y-78421136D01*
X138439767Y-78417019D01*
X138433128Y-78415606D01*
X138431788Y-78415572D01*
X138418500Y-78418951D01*
X138407257Y-78428310D01*
X138398864Y-78442475D01*
X138394127Y-78460276D01*
X138393371Y-78471462D01*
X138394024Y-78483779D01*
X138396536Y-78494343D01*
X138401737Y-78504667D01*
X138410455Y-78516264D01*
X138423522Y-78530649D01*
X138428863Y-78536196D01*
X138439458Y-78547172D01*
X138448377Y-78556089D01*
X138456498Y-78563159D01*
X138464698Y-78568594D01*
X138473857Y-78572606D01*
X138484851Y-78575409D01*
X138498559Y-78577214D01*
X138515859Y-78578234D01*
X138537629Y-78578680D01*
X138564746Y-78578766D01*
X138598089Y-78578704D01*
X138604591Y-78578693D01*
X138637426Y-78578635D01*
X138663827Y-78578524D01*
X138684618Y-78578312D01*
X138700620Y-78577946D01*
X138712657Y-78577378D01*
X138721553Y-78576557D01*
X138728131Y-78575433D01*
X138733212Y-78573955D01*
X138737622Y-78572073D01*
X138740995Y-78570360D01*
X138751432Y-78563052D01*
X138764626Y-78551082D01*
X138779301Y-78535824D01*
X138794182Y-78518649D01*
X138807995Y-78500931D01*
X138815673Y-78489957D01*
X138822179Y-78479825D01*
X138827392Y-78470496D01*
X138831455Y-78461023D01*
X138834511Y-78450458D01*
X138836703Y-78437854D01*
X138838172Y-78422262D01*
X138839062Y-78402736D01*
X138839514Y-78378326D01*
X138839672Y-78348086D01*
X138839686Y-78330312D01*
X138839620Y-78294377D01*
X138839217Y-78264709D01*
X138839113Y-78262261D01*
X138762942Y-78262261D01*
X138761283Y-78268318D01*
X138760131Y-78269718D01*
X138757428Y-78270874D01*
X138752540Y-78271808D01*
X138744835Y-78272542D01*
X138733679Y-78273101D01*
X138718440Y-78273506D01*
X138698485Y-78273781D01*
X138673180Y-78273950D01*
X138641892Y-78274034D01*
X138603989Y-78274057D01*
X138447800Y-78274057D01*
X138447800Y-78264067D01*
X138450194Y-78255503D01*
X138457553Y-78243092D01*
X138470138Y-78226393D01*
X138470478Y-78225970D01*
X138493157Y-78197864D01*
X138604291Y-78197861D01*
X138715425Y-78197857D01*
X138739455Y-78224707D01*
X138751348Y-78238405D01*
X138758777Y-78248330D01*
X138762416Y-78255832D01*
X138762942Y-78262261D01*
X138839113Y-78262261D01*
X138838172Y-78240321D01*
X138836179Y-78220224D01*
X138832931Y-78203429D01*
X138828122Y-78188946D01*
X138821446Y-78175788D01*
X138812597Y-78162966D01*
X138801269Y-78149490D01*
X138787155Y-78134371D01*
X138775193Y-78122014D01*
X138760500Y-78107308D01*
X138749256Y-78097165D01*
X138740213Y-78090621D01*
X138732120Y-78086710D01*
X138727789Y-78085373D01*
X138718403Y-78084024D01*
X138702034Y-78083043D01*
X138678621Y-78082429D01*
X138648102Y-78082181D01*
X138610418Y-78082296D01*
G37*
X138610418Y-78082296D02*
X138595346Y-78082424D01*
X138561513Y-78082729D01*
X138534048Y-78083084D01*
X138512063Y-78083741D01*
X138494671Y-78084949D01*
X138480984Y-78086960D01*
X138470117Y-78090023D01*
X138461180Y-78094388D01*
X138453288Y-78100306D01*
X138445553Y-78108028D01*
X138437088Y-78117803D01*
X138427006Y-78129883D01*
X138426963Y-78129934D01*
X138408489Y-78152283D01*
X138394328Y-78170800D01*
X138383908Y-78187017D01*
X138376660Y-78202471D01*
X138372013Y-78218696D01*
X138369396Y-78237228D01*
X138368239Y-78259601D01*
X138367972Y-78287350D01*
X138367971Y-78288659D01*
X138368166Y-78313693D01*
X138368911Y-78332711D01*
X138370448Y-78346946D01*
X138373020Y-78357635D01*
X138376868Y-78366009D01*
X138382235Y-78373305D01*
X138385210Y-78376564D01*
X138394729Y-78386543D01*
X138759070Y-78386543D01*
X138761382Y-78395752D01*
X138762406Y-78400806D01*
X138762128Y-78405323D01*
X138759840Y-78410556D01*
X138754833Y-78417755D01*
X138746402Y-78428173D01*
X138736271Y-78440190D01*
X138714500Y-78465886D01*
X138497832Y-78466372D01*
X138470634Y-78440972D01*
X138457186Y-78428830D01*
X138447342Y-78421136D01*
X138439767Y-78417019D01*
X138433128Y-78415606D01*
X138431788Y-78415572D01*
X138418500Y-78418951D01*
X138407257Y-78428310D01*
X138398864Y-78442475D01*
X138394127Y-78460276D01*
X138393371Y-78471462D01*
X138394024Y-78483779D01*
X138396536Y-78494343D01*
X138401737Y-78504667D01*
X138410455Y-78516264D01*
X138423522Y-78530649D01*
X138428863Y-78536196D01*
X138439458Y-78547172D01*
X138448377Y-78556089D01*
X138456498Y-78563159D01*
X138464698Y-78568594D01*
X138473857Y-78572606D01*
X138484851Y-78575409D01*
X138498559Y-78577214D01*
X138515859Y-78578234D01*
X138537629Y-78578680D01*
X138564746Y-78578766D01*
X138598089Y-78578704D01*
X138604591Y-78578693D01*
X138637426Y-78578635D01*
X138663827Y-78578524D01*
X138684618Y-78578312D01*
X138700620Y-78577946D01*
X138712657Y-78577378D01*
X138721553Y-78576557D01*
X138728131Y-78575433D01*
X138733212Y-78573955D01*
X138737622Y-78572073D01*
X138740995Y-78570360D01*
X138751432Y-78563052D01*
X138764626Y-78551082D01*
X138779301Y-78535824D01*
X138794182Y-78518649D01*
X138807995Y-78500931D01*
X138815673Y-78489957D01*
X138822179Y-78479825D01*
X138827392Y-78470496D01*
X138831455Y-78461023D01*
X138834511Y-78450458D01*
X138836703Y-78437854D01*
X138838172Y-78422262D01*
X138839062Y-78402736D01*
X138839514Y-78378326D01*
X138839672Y-78348086D01*
X138839686Y-78330312D01*
X138839620Y-78294377D01*
X138839217Y-78264709D01*
X138839113Y-78262261D01*
X138762942Y-78262261D01*
X138761283Y-78268318D01*
X138760131Y-78269718D01*
X138757428Y-78270874D01*
X138752540Y-78271808D01*
X138744835Y-78272542D01*
X138733679Y-78273101D01*
X138718440Y-78273506D01*
X138698485Y-78273781D01*
X138673180Y-78273950D01*
X138641892Y-78274034D01*
X138603989Y-78274057D01*
X138447800Y-78274057D01*
X138447800Y-78264067D01*
X138450194Y-78255503D01*
X138457553Y-78243092D01*
X138470138Y-78226393D01*
X138470478Y-78225970D01*
X138493157Y-78197864D01*
X138604291Y-78197861D01*
X138715425Y-78197857D01*
X138739455Y-78224707D01*
X138751348Y-78238405D01*
X138758777Y-78248330D01*
X138762416Y-78255832D01*
X138762942Y-78262261D01*
X138839113Y-78262261D01*
X138838172Y-78240321D01*
X138836179Y-78220224D01*
X138832931Y-78203429D01*
X138828122Y-78188946D01*
X138821446Y-78175788D01*
X138812597Y-78162966D01*
X138801269Y-78149490D01*
X138787155Y-78134371D01*
X138775193Y-78122014D01*
X138760500Y-78107308D01*
X138749256Y-78097165D01*
X138740213Y-78090621D01*
X138732120Y-78086710D01*
X138727789Y-78085373D01*
X138718403Y-78084024D01*
X138702034Y-78083043D01*
X138678621Y-78082429D01*
X138648102Y-78082181D01*
X138610418Y-78082296D01*
G36*
X136337267Y-78086015D02*
G01*
X136318397Y-78086806D01*
X136303365Y-78088416D01*
X136291314Y-78091072D01*
X136281391Y-78095003D01*
X136272740Y-78100439D01*
X136264506Y-78107608D01*
X136255835Y-78116738D01*
X136245872Y-78128059D01*
X136238732Y-78136208D01*
X136224551Y-78152556D01*
X136213031Y-78166914D01*
X136203897Y-78180290D01*
X136196872Y-78193692D01*
X136191681Y-78208128D01*
X136188048Y-78224607D01*
X136185696Y-78244136D01*
X136184351Y-78267724D01*
X136183735Y-78296379D01*
X136183574Y-78331108D01*
X136183571Y-78337752D01*
X136183653Y-78369913D01*
X136183989Y-78395852D01*
X136184711Y-78416604D01*
X136185954Y-78433203D01*
X136187853Y-78446684D01*
X136190539Y-78458082D01*
X136194149Y-78468429D01*
X136198814Y-78478762D01*
X136202835Y-78486645D01*
X136208725Y-78495378D01*
X136218535Y-78507356D01*
X136230962Y-78521232D01*
X136244703Y-78535661D01*
X136258457Y-78549296D01*
X136270919Y-78560791D01*
X136280788Y-78568799D01*
X136284710Y-78571266D01*
X136290745Y-78573733D01*
X136298475Y-78575616D01*
X136309045Y-78577031D01*
X136323603Y-78578097D01*
X136343293Y-78578933D01*
X136365000Y-78579552D01*
X136392275Y-78580004D01*
X136422633Y-78580134D01*
X136453103Y-78579952D01*
X136480710Y-78579468D01*
X136492000Y-78579133D01*
X136514514Y-78578271D01*
X136531018Y-78577376D01*
X136542760Y-78576268D01*
X136550986Y-78574769D01*
X136556943Y-78572699D01*
X136561876Y-78569879D01*
X136563317Y-78568879D01*
X136571175Y-78563636D01*
X136576338Y-78560851D01*
X136576924Y-78560714D01*
X136577594Y-78564158D01*
X136578182Y-78573752D01*
X136578652Y-78588388D01*
X136578971Y-78606960D01*
X136579104Y-78628360D01*
X136579106Y-78630564D01*
X136579307Y-78653338D01*
X136579853Y-78674489D01*
X136580680Y-78692604D01*
X136581724Y-78706271D01*
X136582903Y-78714016D01*
X136589969Y-78729925D01*
X136600393Y-78741304D01*
X136612943Y-78747384D01*
X136626387Y-78747396D01*
X136632672Y-78745083D01*
X136639868Y-78739377D01*
X136647401Y-78730374D01*
X136649000Y-78727952D01*
X136657100Y-78714929D01*
X136657100Y-78414043D01*
X136579086Y-78414043D01*
X136555206Y-78440207D01*
X136531326Y-78466372D01*
X136311251Y-78466372D01*
X136287325Y-78440530D01*
X136263400Y-78414688D01*
X136263400Y-78253537D01*
X136287728Y-78225697D01*
X136312057Y-78197857D01*
X136531145Y-78197857D01*
X136555072Y-78225979D01*
X136578999Y-78254100D01*
X136579042Y-78334072D01*
X136579086Y-78414043D01*
X136657100Y-78414043D01*
X136657100Y-78217814D01*
X136645495Y-78194229D01*
X136636756Y-78179338D01*
X136624119Y-78161445D01*
X136609090Y-78142390D01*
X136593179Y-78124013D01*
X136577891Y-78108154D01*
X136566961Y-78098385D01*
X136553022Y-78087186D01*
X136425447Y-78086265D01*
X136389937Y-78085973D01*
X136360829Y-78085814D01*
X136337267Y-78086015D01*
G37*
X136337267Y-78086015D02*
X136318397Y-78086806D01*
X136303365Y-78088416D01*
X136291314Y-78091072D01*
X136281391Y-78095003D01*
X136272740Y-78100439D01*
X136264506Y-78107608D01*
X136255835Y-78116738D01*
X136245872Y-78128059D01*
X136238732Y-78136208D01*
X136224551Y-78152556D01*
X136213031Y-78166914D01*
X136203897Y-78180290D01*
X136196872Y-78193692D01*
X136191681Y-78208128D01*
X136188048Y-78224607D01*
X136185696Y-78244136D01*
X136184351Y-78267724D01*
X136183735Y-78296379D01*
X136183574Y-78331108D01*
X136183571Y-78337752D01*
X136183653Y-78369913D01*
X136183989Y-78395852D01*
X136184711Y-78416604D01*
X136185954Y-78433203D01*
X136187853Y-78446684D01*
X136190539Y-78458082D01*
X136194149Y-78468429D01*
X136198814Y-78478762D01*
X136202835Y-78486645D01*
X136208725Y-78495378D01*
X136218535Y-78507356D01*
X136230962Y-78521232D01*
X136244703Y-78535661D01*
X136258457Y-78549296D01*
X136270919Y-78560791D01*
X136280788Y-78568799D01*
X136284710Y-78571266D01*
X136290745Y-78573733D01*
X136298475Y-78575616D01*
X136309045Y-78577031D01*
X136323603Y-78578097D01*
X136343293Y-78578933D01*
X136365000Y-78579552D01*
X136392275Y-78580004D01*
X136422633Y-78580134D01*
X136453103Y-78579952D01*
X136480710Y-78579468D01*
X136492000Y-78579133D01*
X136514514Y-78578271D01*
X136531018Y-78577376D01*
X136542760Y-78576268D01*
X136550986Y-78574769D01*
X136556943Y-78572699D01*
X136561876Y-78569879D01*
X136563317Y-78568879D01*
X136571175Y-78563636D01*
X136576338Y-78560851D01*
X136576924Y-78560714D01*
X136577594Y-78564158D01*
X136578182Y-78573752D01*
X136578652Y-78588388D01*
X136578971Y-78606960D01*
X136579104Y-78628360D01*
X136579106Y-78630564D01*
X136579307Y-78653338D01*
X136579853Y-78674489D01*
X136580680Y-78692604D01*
X136581724Y-78706271D01*
X136582903Y-78714016D01*
X136589969Y-78729925D01*
X136600393Y-78741304D01*
X136612943Y-78747384D01*
X136626387Y-78747396D01*
X136632672Y-78745083D01*
X136639868Y-78739377D01*
X136647401Y-78730374D01*
X136649000Y-78727952D01*
X136657100Y-78714929D01*
X136657100Y-78414043D01*
X136579086Y-78414043D01*
X136555206Y-78440207D01*
X136531326Y-78466372D01*
X136311251Y-78466372D01*
X136287325Y-78440530D01*
X136263400Y-78414688D01*
X136263400Y-78253537D01*
X136287728Y-78225697D01*
X136312057Y-78197857D01*
X136531145Y-78197857D01*
X136555072Y-78225979D01*
X136578999Y-78254100D01*
X136579042Y-78334072D01*
X136579086Y-78414043D01*
X136657100Y-78414043D01*
X136657100Y-78217814D01*
X136645495Y-78194229D01*
X136636756Y-78179338D01*
X136624119Y-78161445D01*
X136609090Y-78142390D01*
X136593179Y-78124013D01*
X136577891Y-78108154D01*
X136566961Y-78098385D01*
X136553022Y-78087186D01*
X136425447Y-78086265D01*
X136389937Y-78085973D01*
X136360829Y-78085814D01*
X136337267Y-78086015D01*
D11*
%TO.C,U4*%
X124604000Y-83748000D02*
X114604000Y-83748000D01*
X124604000Y-100148000D02*
X124104000Y-100148000D01*
X124604000Y-99748000D02*
X124604000Y-100148000D01*
X105004000Y-100148000D02*
X104504000Y-100148000D01*
X104504000Y-99748000D02*
X104504000Y-100148000D01*
X105004000Y-83748000D02*
X104504000Y-83748000D01*
X104504000Y-83748000D02*
X104504000Y-84148000D01*
X124604000Y-83748000D02*
X124604000Y-84148000D01*
D12*
%TO.C,J13*%
X130295000Y-81740000D02*
X128725000Y-81740000D01*
X130295000Y-82560000D02*
X130295000Y-81740000D01*
%TO.C,R2*%
X128678922Y-74810000D02*
X129196078Y-74810000D01*
X128678922Y-73390000D02*
X129196078Y-73390000D01*
%TO.C,C2*%
X120758578Y-69690000D02*
X120241422Y-69690000D01*
X120758578Y-71110000D02*
X120241422Y-71110000D01*
%TO.C,C3*%
X120241422Y-74040000D02*
X120758578Y-74040000D01*
X120241422Y-75460000D02*
X120758578Y-75460000D01*
%TO.C,C5*%
X135458578Y-99610000D02*
X134941422Y-99610000D01*
X135458578Y-98190000D02*
X134941422Y-98190000D01*
%TO.C,C6*%
X135558578Y-89190000D02*
X135041422Y-89190000D01*
X135558578Y-90610000D02*
X135041422Y-90610000D01*
%TO.C,C11*%
X123458578Y-101810000D02*
X122941422Y-101810000D01*
X123458578Y-100390000D02*
X122941422Y-100390000D01*
%TO.C,C12*%
X116358578Y-101710000D02*
X115841422Y-101710000D01*
X116358578Y-100290000D02*
X115841422Y-100290000D01*
%TO.C,C13*%
X134910000Y-56158578D02*
X134910000Y-55641422D01*
X133490000Y-56158578D02*
X133490000Y-55641422D01*
%TO.C,C14*%
X121190000Y-59441422D02*
X121190000Y-59958578D01*
X122610000Y-59441422D02*
X122610000Y-59958578D01*
%TO.C,C16*%
X126990000Y-59441422D02*
X126990000Y-59958578D01*
X128410000Y-59441422D02*
X128410000Y-59958578D01*
%TO.C,J4*%
X102885000Y-95600000D02*
X102885000Y-96240000D01*
X102885000Y-98400000D02*
X102885000Y-97760000D01*
X102885000Y-96240000D02*
X103515000Y-96240000D01*
X100165000Y-95650000D02*
X100165000Y-98350000D01*
%TO.C,J5*%
X148335000Y-61350000D02*
X148335000Y-58650000D01*
X145615000Y-60760000D02*
X144985000Y-60760000D01*
X145615000Y-58600000D02*
X145615000Y-59240000D01*
X145615000Y-61400000D02*
X145615000Y-60760000D01*
%TO.C,R1*%
X128641422Y-75290000D02*
X129158578Y-75290000D01*
X128641422Y-76710000D02*
X129158578Y-76710000D01*
%TO.C,R4*%
X111875078Y-76252000D02*
X111357922Y-76252000D01*
X111875078Y-77672000D02*
X111357922Y-77672000D01*
%TO.C,R5*%
X111875078Y-75386000D02*
X111357922Y-75386000D01*
X111875078Y-73966000D02*
X111357922Y-73966000D01*
%TO.C,R6*%
X111875078Y-71680000D02*
X111357922Y-71680000D01*
X111875078Y-73100000D02*
X111357922Y-73100000D01*
%TO.C,U2*%
X133668000Y-97790000D02*
X139678000Y-97790000D01*
X135918000Y-90970000D02*
X139678000Y-90970000D01*
X139678000Y-97790000D02*
X139678000Y-96530000D01*
X139678000Y-90970000D02*
X139678000Y-92230000D01*
%TO.C,U5*%
X133790000Y-68410000D02*
X143710000Y-68410000D01*
X133790000Y-58090000D02*
X143710000Y-58090000D01*
X143710000Y-58240000D02*
X143710000Y-58090000D01*
X133790000Y-58240000D02*
X133790000Y-58090000D01*
X143710000Y-68410000D02*
X143710000Y-68260000D01*
X133790000Y-68410000D02*
X133790000Y-68260000D01*
X133100000Y-68260000D02*
X133790000Y-68260000D01*
%TO.C,Y1*%
X119656000Y-71348000D02*
X126556000Y-71348000D01*
X126556000Y-71348000D02*
X126556000Y-73808000D01*
X126556000Y-73808000D02*
X119656000Y-73808000D01*
X119656000Y-73808000D02*
X119656000Y-71348000D01*
X119656000Y-72228000D02*
X118756000Y-71628000D01*
X118756000Y-71628000D02*
X118556000Y-71628000D01*
X119656000Y-72928000D02*
X118756000Y-73528000D01*
X118756000Y-73528000D02*
X118556000Y-73528000D01*
D13*
%TO.C,D7*%
X143100000Y-88410000D02*
X148500000Y-88410000D01*
X148500000Y-84790000D02*
X143100000Y-84790000D01*
D14*
X142095000Y-86600000D02*
G75*
G03*
X142095000Y-86600000I-100000J0D01*
G01*
D13*
X143100000Y-88410000D02*
X143100000Y-87980000D01*
X148500000Y-88410000D02*
X148500000Y-87980000D01*
X148500000Y-85220000D02*
X148500000Y-84790000D01*
X143100000Y-85220000D02*
X143100000Y-84790000D01*
%TO.C,D8*%
X135600000Y-85220000D02*
X135600000Y-84790000D01*
X141000000Y-85220000D02*
X141000000Y-84790000D01*
X141000000Y-88410000D02*
X141000000Y-87980000D01*
X135600000Y-88410000D02*
X135600000Y-87980000D01*
D14*
X134595000Y-86600000D02*
G75*
G03*
X134595000Y-86600000I-100000J0D01*
G01*
D13*
X141000000Y-84790000D02*
X135600000Y-84790000D01*
X135600000Y-88410000D02*
X141000000Y-88410000D01*
D12*
%TO.C,C15*%
X113241250Y-110543750D02*
X112453750Y-110543750D01*
X112847500Y-110937500D02*
X112847500Y-110150000D01*
X108654437Y-109910000D02*
X107590000Y-108845563D01*
X113345563Y-109910000D02*
X114410000Y-108845563D01*
X113345563Y-109910000D02*
X112060000Y-109910000D01*
X108654437Y-109910000D02*
X109940000Y-109910000D01*
X107590000Y-108845563D02*
X107590000Y-103090000D01*
X114410000Y-108845563D02*
X114410000Y-103090000D01*
X114410000Y-103090000D02*
X112060000Y-103090000D01*
X107590000Y-103090000D02*
X109940000Y-103090000D01*
%TO.C,C17*%
X115590000Y-103090000D02*
X117940000Y-103090000D01*
X122410000Y-103090000D02*
X120060000Y-103090000D01*
X122410000Y-108845563D02*
X122410000Y-103090000D01*
X115590000Y-108845563D02*
X115590000Y-103090000D01*
X116654437Y-109910000D02*
X117940000Y-109910000D01*
X121345563Y-109910000D02*
X120060000Y-109910000D01*
X121345563Y-109910000D02*
X122410000Y-108845563D01*
X116654437Y-109910000D02*
X115590000Y-108845563D01*
X120847500Y-110937500D02*
X120847500Y-110150000D01*
X121241250Y-110543750D02*
X120453750Y-110543750D01*
%TO.C,C18*%
X129241250Y-110543750D02*
X128453750Y-110543750D01*
X128847500Y-110937500D02*
X128847500Y-110150000D01*
X124654437Y-109910000D02*
X123590000Y-108845563D01*
X129345563Y-109910000D02*
X130410000Y-108845563D01*
X129345563Y-109910000D02*
X128060000Y-109910000D01*
X124654437Y-109910000D02*
X125940000Y-109910000D01*
X123590000Y-108845563D02*
X123590000Y-103090000D01*
X130410000Y-108845563D02*
X130410000Y-103090000D01*
X130410000Y-103090000D02*
X128060000Y-103090000D01*
X123590000Y-103090000D02*
X125940000Y-103090000D01*
%TO.C,C20*%
X131590000Y-103090000D02*
X133940000Y-103090000D01*
X138410000Y-103090000D02*
X136060000Y-103090000D01*
X138410000Y-108845563D02*
X138410000Y-103090000D01*
X131590000Y-108845563D02*
X131590000Y-103090000D01*
X132654437Y-109910000D02*
X133940000Y-109910000D01*
X137345563Y-109910000D02*
X136060000Y-109910000D01*
X137345563Y-109910000D02*
X138410000Y-108845563D01*
X132654437Y-109910000D02*
X131590000Y-108845563D01*
X136847500Y-110937500D02*
X136847500Y-110150000D01*
X137241250Y-110543750D02*
X136453750Y-110543750D01*
%TO.C,J11*%
X116700000Y-57500000D02*
X116700000Y-82500000D01*
X131700000Y-82500000D02*
X116700000Y-82500000D01*
X131700000Y-57500000D02*
X116700000Y-57500000D01*
X131700000Y-57500000D02*
X131700000Y-82500000D01*
D13*
%TO.C,D9*%
X135700000Y-80320000D02*
X135700000Y-79890000D01*
X141100000Y-80320000D02*
X141100000Y-79890000D01*
X141100000Y-83510000D02*
X141100000Y-83080000D01*
X135700000Y-83510000D02*
X135700000Y-83080000D01*
D14*
X134695000Y-81700000D02*
G75*
G03*
X134695000Y-81700000I-100000J0D01*
G01*
D13*
X141100000Y-79890000D02*
X135700000Y-79890000D01*
X135700000Y-83510000D02*
X141100000Y-83510000D01*
%TO.C,U4*%
D15*
X121261904Y-84452380D02*
X121261904Y-85261904D01*
X121214285Y-85357142D01*
X121166666Y-85404761D01*
X121071428Y-85452380D01*
X120880952Y-85452380D01*
X120785714Y-85404761D01*
X120738095Y-85357142D01*
X120690476Y-85261904D01*
X120690476Y-84452380D01*
X119785714Y-84785714D02*
X119785714Y-85452380D01*
X120023809Y-84404761D02*
X120261904Y-85119047D01*
X119642857Y-85119047D01*
%TO.C,U2*%
X137861904Y-93852380D02*
X137861904Y-94661904D01*
X137814285Y-94757142D01*
X137766666Y-94804761D01*
X137671428Y-94852380D01*
X137480952Y-94852380D01*
X137385714Y-94804761D01*
X137338095Y-94757142D01*
X137290476Y-94661904D01*
X137290476Y-93852380D01*
X136861904Y-93947619D02*
X136814285Y-93900000D01*
X136719047Y-93852380D01*
X136480952Y-93852380D01*
X136385714Y-93900000D01*
X136338095Y-93947619D01*
X136290476Y-94042857D01*
X136290476Y-94138095D01*
X136338095Y-94280952D01*
X136909523Y-94852380D01*
X136290476Y-94852380D01*
%TO.C,U5*%
X139581904Y-62710380D02*
X139581904Y-63519904D01*
X139534285Y-63615142D01*
X139486666Y-63662761D01*
X139391428Y-63710380D01*
X139200952Y-63710380D01*
X139105714Y-63662761D01*
X139058095Y-63615142D01*
X139010476Y-63519904D01*
X139010476Y-62710380D01*
X138058095Y-62710380D02*
X138534285Y-62710380D01*
X138581904Y-63186571D01*
X138534285Y-63138952D01*
X138439047Y-63091333D01*
X138200952Y-63091333D01*
X138105714Y-63138952D01*
X138058095Y-63186571D01*
X138010476Y-63281809D01*
X138010476Y-63519904D01*
X138058095Y-63615142D01*
X138105714Y-63662761D01*
X138200952Y-63710380D01*
X138439047Y-63710380D01*
X138534285Y-63662761D01*
X138581904Y-63615142D01*
%TO.C,D7*%
X146616095Y-87052380D02*
X146616095Y-86052380D01*
X146378000Y-86052380D01*
X146235142Y-86100000D01*
X146139904Y-86195238D01*
X146092285Y-86290476D01*
X146044666Y-86480952D01*
X146044666Y-86623809D01*
X146092285Y-86814285D01*
X146139904Y-86909523D01*
X146235142Y-87004761D01*
X146378000Y-87052380D01*
X146616095Y-87052380D01*
X145711333Y-86052380D02*
X145044666Y-86052380D01*
X145473238Y-87052380D01*
%TO.C,D8*%
X139116095Y-87052380D02*
X139116095Y-86052380D01*
X138878000Y-86052380D01*
X138735142Y-86100000D01*
X138639904Y-86195238D01*
X138592285Y-86290476D01*
X138544666Y-86480952D01*
X138544666Y-86623809D01*
X138592285Y-86814285D01*
X138639904Y-86909523D01*
X138735142Y-87004761D01*
X138878000Y-87052380D01*
X139116095Y-87052380D01*
X137973238Y-86480952D02*
X138068476Y-86433333D01*
X138116095Y-86385714D01*
X138163714Y-86290476D01*
X138163714Y-86242857D01*
X138116095Y-86147619D01*
X138068476Y-86100000D01*
X137973238Y-86052380D01*
X137782761Y-86052380D01*
X137687523Y-86100000D01*
X137639904Y-86147619D01*
X137592285Y-86242857D01*
X137592285Y-86290476D01*
X137639904Y-86385714D01*
X137687523Y-86433333D01*
X137782761Y-86480952D01*
X137973238Y-86480952D01*
X138068476Y-86528571D01*
X138116095Y-86576190D01*
X138163714Y-86671428D01*
X138163714Y-86861904D01*
X138116095Y-86957142D01*
X138068476Y-87004761D01*
X137973238Y-87052380D01*
X137782761Y-87052380D01*
X137687523Y-87004761D01*
X137639904Y-86957142D01*
X137592285Y-86861904D01*
X137592285Y-86671428D01*
X137639904Y-86576190D01*
X137687523Y-86528571D01*
X137782761Y-86480952D01*
%TO.C,D9*%
X139238095Y-82352380D02*
X139238095Y-81352380D01*
X139000000Y-81352380D01*
X138857142Y-81400000D01*
X138761904Y-81495238D01*
X138714285Y-81590476D01*
X138666666Y-81780952D01*
X138666666Y-81923809D01*
X138714285Y-82114285D01*
X138761904Y-82209523D01*
X138857142Y-82304761D01*
X139000000Y-82352380D01*
X139238095Y-82352380D01*
X138190476Y-82352380D02*
X138000000Y-82352380D01*
X137904761Y-82304761D01*
X137857142Y-82257142D01*
X137761904Y-82114285D01*
X137714285Y-81923809D01*
X137714285Y-81542857D01*
X137761904Y-81447619D01*
X137809523Y-81400000D01*
X137904761Y-81352380D01*
X138095238Y-81352380D01*
X138190476Y-81400000D01*
X138238095Y-81447619D01*
X138285714Y-81542857D01*
X138285714Y-81780952D01*
X138238095Y-81876190D01*
X138190476Y-81923809D01*
X138095238Y-81971428D01*
X137904761Y-81971428D01*
X137809523Y-81923809D01*
X137761904Y-81876190D01*
X137714285Y-81780952D01*
%TD*%
M02*
