%TF.GenerationSoftware,KiCad,Pcbnew,(5.1.6-0-10_14)*%
%TF.CreationDate,2021-05-13T11:26:55+02:00*%
%TF.ProjectId,ControlUnit,436f6e74-726f-46c5-956e-69742e6b6963,rev?*%
%TF.SameCoordinates,Original*%
%TF.FileFunction,Legend,Bot*%
%TF.FilePolarity,Positive*%
%FSLAX46Y46*%
G04 Gerber Fmt 4.6, Leading zero omitted, Abs format (unit mm)*
G04 Created by KiCad (PCBNEW (5.1.6-0-10_14)) date 2021-05-13 11:26:55*
%MOMM*%
%LPD*%
G01*
G04 APERTURE LIST*
%ADD10C,0.010000*%
%ADD11C,0.100000*%
%ADD12C,0.120000*%
%ADD13C,0.127000*%
%ADD14C,0.200000*%
%ADD15C,0.150000*%
G04 APERTURE END LIST*
D10*
%TO.C,G\u002A\u002A\u002A*%
G36*
X136637267Y-77386015D02*
G01*
X136618397Y-77386806D01*
X136603365Y-77388416D01*
X136591314Y-77391072D01*
X136581391Y-77395003D01*
X136572740Y-77400439D01*
X136564506Y-77407608D01*
X136555835Y-77416738D01*
X136545872Y-77428059D01*
X136538732Y-77436208D01*
X136524551Y-77452556D01*
X136513031Y-77466914D01*
X136503897Y-77480290D01*
X136496872Y-77493692D01*
X136491681Y-77508128D01*
X136488048Y-77524607D01*
X136485696Y-77544136D01*
X136484351Y-77567724D01*
X136483735Y-77596379D01*
X136483574Y-77631108D01*
X136483571Y-77637752D01*
X136483653Y-77669913D01*
X136483989Y-77695852D01*
X136484711Y-77716604D01*
X136485954Y-77733203D01*
X136487853Y-77746684D01*
X136490539Y-77758082D01*
X136494149Y-77768429D01*
X136498814Y-77778762D01*
X136502835Y-77786645D01*
X136508725Y-77795378D01*
X136518535Y-77807356D01*
X136530962Y-77821232D01*
X136544703Y-77835661D01*
X136558457Y-77849296D01*
X136570919Y-77860791D01*
X136580788Y-77868799D01*
X136584710Y-77871266D01*
X136590745Y-77873733D01*
X136598475Y-77875616D01*
X136609045Y-77877031D01*
X136623603Y-77878097D01*
X136643293Y-77878933D01*
X136665000Y-77879552D01*
X136692275Y-77880004D01*
X136722633Y-77880134D01*
X136753103Y-77879952D01*
X136780710Y-77879468D01*
X136792000Y-77879133D01*
X136814514Y-77878271D01*
X136831018Y-77877376D01*
X136842760Y-77876268D01*
X136850986Y-77874769D01*
X136856943Y-77872699D01*
X136861876Y-77869879D01*
X136863317Y-77868879D01*
X136871175Y-77863636D01*
X136876338Y-77860851D01*
X136876924Y-77860714D01*
X136877594Y-77864158D01*
X136878182Y-77873752D01*
X136878652Y-77888388D01*
X136878971Y-77906960D01*
X136879104Y-77928360D01*
X136879106Y-77930564D01*
X136879307Y-77953338D01*
X136879853Y-77974489D01*
X136880680Y-77992604D01*
X136881724Y-78006271D01*
X136882903Y-78014016D01*
X136889969Y-78029925D01*
X136900393Y-78041304D01*
X136912943Y-78047384D01*
X136926387Y-78047396D01*
X136932672Y-78045083D01*
X136939868Y-78039377D01*
X136947401Y-78030374D01*
X136949000Y-78027952D01*
X136957100Y-78014929D01*
X136957100Y-77714043D01*
X136879086Y-77714043D01*
X136855206Y-77740207D01*
X136831326Y-77766372D01*
X136611251Y-77766372D01*
X136587325Y-77740530D01*
X136563400Y-77714688D01*
X136563400Y-77553537D01*
X136587728Y-77525697D01*
X136612057Y-77497857D01*
X136831145Y-77497857D01*
X136855072Y-77525979D01*
X136878999Y-77554100D01*
X136879042Y-77634072D01*
X136879086Y-77714043D01*
X136957100Y-77714043D01*
X136957100Y-77517814D01*
X136945495Y-77494229D01*
X136936756Y-77479338D01*
X136924119Y-77461445D01*
X136909090Y-77442390D01*
X136893179Y-77424013D01*
X136877891Y-77408154D01*
X136866961Y-77398385D01*
X136853022Y-77387186D01*
X136725447Y-77386265D01*
X136689937Y-77385973D01*
X136660829Y-77385814D01*
X136637267Y-77386015D01*
G37*
X136637267Y-77386015D02*
X136618397Y-77386806D01*
X136603365Y-77388416D01*
X136591314Y-77391072D01*
X136581391Y-77395003D01*
X136572740Y-77400439D01*
X136564506Y-77407608D01*
X136555835Y-77416738D01*
X136545872Y-77428059D01*
X136538732Y-77436208D01*
X136524551Y-77452556D01*
X136513031Y-77466914D01*
X136503897Y-77480290D01*
X136496872Y-77493692D01*
X136491681Y-77508128D01*
X136488048Y-77524607D01*
X136485696Y-77544136D01*
X136484351Y-77567724D01*
X136483735Y-77596379D01*
X136483574Y-77631108D01*
X136483571Y-77637752D01*
X136483653Y-77669913D01*
X136483989Y-77695852D01*
X136484711Y-77716604D01*
X136485954Y-77733203D01*
X136487853Y-77746684D01*
X136490539Y-77758082D01*
X136494149Y-77768429D01*
X136498814Y-77778762D01*
X136502835Y-77786645D01*
X136508725Y-77795378D01*
X136518535Y-77807356D01*
X136530962Y-77821232D01*
X136544703Y-77835661D01*
X136558457Y-77849296D01*
X136570919Y-77860791D01*
X136580788Y-77868799D01*
X136584710Y-77871266D01*
X136590745Y-77873733D01*
X136598475Y-77875616D01*
X136609045Y-77877031D01*
X136623603Y-77878097D01*
X136643293Y-77878933D01*
X136665000Y-77879552D01*
X136692275Y-77880004D01*
X136722633Y-77880134D01*
X136753103Y-77879952D01*
X136780710Y-77879468D01*
X136792000Y-77879133D01*
X136814514Y-77878271D01*
X136831018Y-77877376D01*
X136842760Y-77876268D01*
X136850986Y-77874769D01*
X136856943Y-77872699D01*
X136861876Y-77869879D01*
X136863317Y-77868879D01*
X136871175Y-77863636D01*
X136876338Y-77860851D01*
X136876924Y-77860714D01*
X136877594Y-77864158D01*
X136878182Y-77873752D01*
X136878652Y-77888388D01*
X136878971Y-77906960D01*
X136879104Y-77928360D01*
X136879106Y-77930564D01*
X136879307Y-77953338D01*
X136879853Y-77974489D01*
X136880680Y-77992604D01*
X136881724Y-78006271D01*
X136882903Y-78014016D01*
X136889969Y-78029925D01*
X136900393Y-78041304D01*
X136912943Y-78047384D01*
X136926387Y-78047396D01*
X136932672Y-78045083D01*
X136939868Y-78039377D01*
X136947401Y-78030374D01*
X136949000Y-78027952D01*
X136957100Y-78014929D01*
X136957100Y-77714043D01*
X136879086Y-77714043D01*
X136855206Y-77740207D01*
X136831326Y-77766372D01*
X136611251Y-77766372D01*
X136587325Y-77740530D01*
X136563400Y-77714688D01*
X136563400Y-77553537D01*
X136587728Y-77525697D01*
X136612057Y-77497857D01*
X136831145Y-77497857D01*
X136855072Y-77525979D01*
X136878999Y-77554100D01*
X136879042Y-77634072D01*
X136879086Y-77714043D01*
X136957100Y-77714043D01*
X136957100Y-77517814D01*
X136945495Y-77494229D01*
X136936756Y-77479338D01*
X136924119Y-77461445D01*
X136909090Y-77442390D01*
X136893179Y-77424013D01*
X136877891Y-77408154D01*
X136866961Y-77398385D01*
X136853022Y-77387186D01*
X136725447Y-77386265D01*
X136689937Y-77385973D01*
X136660829Y-77385814D01*
X136637267Y-77386015D01*
G36*
X138910418Y-77382296D02*
G01*
X138895346Y-77382424D01*
X138861513Y-77382729D01*
X138834048Y-77383084D01*
X138812063Y-77383741D01*
X138794671Y-77384949D01*
X138780984Y-77386960D01*
X138770117Y-77390023D01*
X138761180Y-77394388D01*
X138753288Y-77400306D01*
X138745553Y-77408028D01*
X138737088Y-77417803D01*
X138727006Y-77429883D01*
X138726963Y-77429934D01*
X138708489Y-77452283D01*
X138694328Y-77470800D01*
X138683908Y-77487017D01*
X138676660Y-77502471D01*
X138672013Y-77518696D01*
X138669396Y-77537228D01*
X138668239Y-77559601D01*
X138667972Y-77587350D01*
X138667971Y-77588659D01*
X138668166Y-77613693D01*
X138668911Y-77632711D01*
X138670448Y-77646946D01*
X138673020Y-77657635D01*
X138676868Y-77666009D01*
X138682235Y-77673305D01*
X138685210Y-77676564D01*
X138694729Y-77686543D01*
X139059070Y-77686543D01*
X139061382Y-77695752D01*
X139062406Y-77700806D01*
X139062128Y-77705323D01*
X139059840Y-77710556D01*
X139054833Y-77717755D01*
X139046402Y-77728173D01*
X139036271Y-77740190D01*
X139014500Y-77765886D01*
X138797832Y-77766372D01*
X138770634Y-77740972D01*
X138757186Y-77728830D01*
X138747342Y-77721136D01*
X138739767Y-77717019D01*
X138733128Y-77715606D01*
X138731788Y-77715572D01*
X138718500Y-77718951D01*
X138707257Y-77728310D01*
X138698864Y-77742475D01*
X138694127Y-77760276D01*
X138693371Y-77771462D01*
X138694024Y-77783779D01*
X138696536Y-77794343D01*
X138701737Y-77804667D01*
X138710455Y-77816264D01*
X138723522Y-77830649D01*
X138728863Y-77836196D01*
X138739458Y-77847172D01*
X138748377Y-77856089D01*
X138756498Y-77863159D01*
X138764698Y-77868594D01*
X138773857Y-77872606D01*
X138784851Y-77875409D01*
X138798559Y-77877214D01*
X138815859Y-77878234D01*
X138837629Y-77878680D01*
X138864746Y-77878766D01*
X138898089Y-77878704D01*
X138904591Y-77878693D01*
X138937426Y-77878635D01*
X138963827Y-77878524D01*
X138984618Y-77878312D01*
X139000620Y-77877946D01*
X139012657Y-77877378D01*
X139021553Y-77876557D01*
X139028131Y-77875433D01*
X139033212Y-77873955D01*
X139037622Y-77872073D01*
X139040995Y-77870360D01*
X139051432Y-77863052D01*
X139064626Y-77851082D01*
X139079301Y-77835824D01*
X139094182Y-77818649D01*
X139107995Y-77800931D01*
X139115673Y-77789957D01*
X139122179Y-77779825D01*
X139127392Y-77770496D01*
X139131455Y-77761023D01*
X139134511Y-77750458D01*
X139136703Y-77737854D01*
X139138172Y-77722262D01*
X139139062Y-77702736D01*
X139139514Y-77678326D01*
X139139672Y-77648086D01*
X139139686Y-77630312D01*
X139139620Y-77594377D01*
X139139217Y-77564709D01*
X139139113Y-77562261D01*
X139062942Y-77562261D01*
X139061283Y-77568318D01*
X139060131Y-77569718D01*
X139057428Y-77570874D01*
X139052540Y-77571808D01*
X139044835Y-77572542D01*
X139033679Y-77573101D01*
X139018440Y-77573506D01*
X138998485Y-77573781D01*
X138973180Y-77573950D01*
X138941892Y-77574034D01*
X138903989Y-77574057D01*
X138747800Y-77574057D01*
X138747800Y-77564067D01*
X138750194Y-77555503D01*
X138757553Y-77543092D01*
X138770138Y-77526393D01*
X138770478Y-77525970D01*
X138793157Y-77497864D01*
X138904291Y-77497861D01*
X139015425Y-77497857D01*
X139039455Y-77524707D01*
X139051348Y-77538405D01*
X139058777Y-77548330D01*
X139062416Y-77555832D01*
X139062942Y-77562261D01*
X139139113Y-77562261D01*
X139138172Y-77540321D01*
X139136179Y-77520224D01*
X139132931Y-77503429D01*
X139128122Y-77488946D01*
X139121446Y-77475788D01*
X139112597Y-77462966D01*
X139101269Y-77449490D01*
X139087155Y-77434371D01*
X139075193Y-77422014D01*
X139060500Y-77407308D01*
X139049256Y-77397165D01*
X139040213Y-77390621D01*
X139032120Y-77386710D01*
X139027789Y-77385373D01*
X139018403Y-77384024D01*
X139002034Y-77383043D01*
X138978621Y-77382429D01*
X138948102Y-77382181D01*
X138910418Y-77382296D01*
G37*
X138910418Y-77382296D02*
X138895346Y-77382424D01*
X138861513Y-77382729D01*
X138834048Y-77383084D01*
X138812063Y-77383741D01*
X138794671Y-77384949D01*
X138780984Y-77386960D01*
X138770117Y-77390023D01*
X138761180Y-77394388D01*
X138753288Y-77400306D01*
X138745553Y-77408028D01*
X138737088Y-77417803D01*
X138727006Y-77429883D01*
X138726963Y-77429934D01*
X138708489Y-77452283D01*
X138694328Y-77470800D01*
X138683908Y-77487017D01*
X138676660Y-77502471D01*
X138672013Y-77518696D01*
X138669396Y-77537228D01*
X138668239Y-77559601D01*
X138667972Y-77587350D01*
X138667971Y-77588659D01*
X138668166Y-77613693D01*
X138668911Y-77632711D01*
X138670448Y-77646946D01*
X138673020Y-77657635D01*
X138676868Y-77666009D01*
X138682235Y-77673305D01*
X138685210Y-77676564D01*
X138694729Y-77686543D01*
X139059070Y-77686543D01*
X139061382Y-77695752D01*
X139062406Y-77700806D01*
X139062128Y-77705323D01*
X139059840Y-77710556D01*
X139054833Y-77717755D01*
X139046402Y-77728173D01*
X139036271Y-77740190D01*
X139014500Y-77765886D01*
X138797832Y-77766372D01*
X138770634Y-77740972D01*
X138757186Y-77728830D01*
X138747342Y-77721136D01*
X138739767Y-77717019D01*
X138733128Y-77715606D01*
X138731788Y-77715572D01*
X138718500Y-77718951D01*
X138707257Y-77728310D01*
X138698864Y-77742475D01*
X138694127Y-77760276D01*
X138693371Y-77771462D01*
X138694024Y-77783779D01*
X138696536Y-77794343D01*
X138701737Y-77804667D01*
X138710455Y-77816264D01*
X138723522Y-77830649D01*
X138728863Y-77836196D01*
X138739458Y-77847172D01*
X138748377Y-77856089D01*
X138756498Y-77863159D01*
X138764698Y-77868594D01*
X138773857Y-77872606D01*
X138784851Y-77875409D01*
X138798559Y-77877214D01*
X138815859Y-77878234D01*
X138837629Y-77878680D01*
X138864746Y-77878766D01*
X138898089Y-77878704D01*
X138904591Y-77878693D01*
X138937426Y-77878635D01*
X138963827Y-77878524D01*
X138984618Y-77878312D01*
X139000620Y-77877946D01*
X139012657Y-77877378D01*
X139021553Y-77876557D01*
X139028131Y-77875433D01*
X139033212Y-77873955D01*
X139037622Y-77872073D01*
X139040995Y-77870360D01*
X139051432Y-77863052D01*
X139064626Y-77851082D01*
X139079301Y-77835824D01*
X139094182Y-77818649D01*
X139107995Y-77800931D01*
X139115673Y-77789957D01*
X139122179Y-77779825D01*
X139127392Y-77770496D01*
X139131455Y-77761023D01*
X139134511Y-77750458D01*
X139136703Y-77737854D01*
X139138172Y-77722262D01*
X139139062Y-77702736D01*
X139139514Y-77678326D01*
X139139672Y-77648086D01*
X139139686Y-77630312D01*
X139139620Y-77594377D01*
X139139217Y-77564709D01*
X139139113Y-77562261D01*
X139062942Y-77562261D01*
X139061283Y-77568318D01*
X139060131Y-77569718D01*
X139057428Y-77570874D01*
X139052540Y-77571808D01*
X139044835Y-77572542D01*
X139033679Y-77573101D01*
X139018440Y-77573506D01*
X138998485Y-77573781D01*
X138973180Y-77573950D01*
X138941892Y-77574034D01*
X138903989Y-77574057D01*
X138747800Y-77574057D01*
X138747800Y-77564067D01*
X138750194Y-77555503D01*
X138757553Y-77543092D01*
X138770138Y-77526393D01*
X138770478Y-77525970D01*
X138793157Y-77497864D01*
X138904291Y-77497861D01*
X139015425Y-77497857D01*
X139039455Y-77524707D01*
X139051348Y-77538405D01*
X139058777Y-77548330D01*
X139062416Y-77555832D01*
X139062942Y-77562261D01*
X139139113Y-77562261D01*
X139138172Y-77540321D01*
X139136179Y-77520224D01*
X139132931Y-77503429D01*
X139128122Y-77488946D01*
X139121446Y-77475788D01*
X139112597Y-77462966D01*
X139101269Y-77449490D01*
X139087155Y-77434371D01*
X139075193Y-77422014D01*
X139060500Y-77407308D01*
X139049256Y-77397165D01*
X139040213Y-77390621D01*
X139032120Y-77386710D01*
X139027789Y-77385373D01*
X139018403Y-77384024D01*
X139002034Y-77383043D01*
X138978621Y-77382429D01*
X138948102Y-77382181D01*
X138910418Y-77382296D01*
G36*
X136096870Y-77378584D02*
G01*
X136078318Y-77379344D01*
X136063754Y-77380721D01*
X136052362Y-77382842D01*
X136043325Y-77385836D01*
X136035825Y-77389830D01*
X136029045Y-77394951D01*
X136022170Y-77401327D01*
X136018824Y-77404643D01*
X136001532Y-77423076D01*
X135984662Y-77443137D01*
X135969527Y-77463114D01*
X135957438Y-77481294D01*
X135950919Y-77493232D01*
X135941100Y-77514186D01*
X135939979Y-77696522D01*
X135938859Y-77878857D01*
X136015486Y-77878857D01*
X136015486Y-77853395D01*
X136054172Y-77875229D01*
X136175198Y-77875229D01*
X136210476Y-77875250D01*
X136239362Y-77875149D01*
X136262720Y-77874681D01*
X136281414Y-77873601D01*
X136296308Y-77871663D01*
X136308266Y-77868622D01*
X136318152Y-77864233D01*
X136326830Y-77858249D01*
X136335163Y-77850427D01*
X136344017Y-77840520D01*
X136354255Y-77828283D01*
X136358522Y-77823169D01*
X136371248Y-77807338D01*
X136383160Y-77791380D01*
X136392931Y-77777141D01*
X136399235Y-77766470D01*
X136399284Y-77766372D01*
X136402752Y-77759097D01*
X136405322Y-77752431D01*
X136407151Y-77745112D01*
X136408398Y-77735878D01*
X136409219Y-77723466D01*
X136409772Y-77706615D01*
X136410015Y-77694187D01*
X136334084Y-77694187D01*
X136333378Y-77700240D01*
X136329538Y-77708154D01*
X136321888Y-77719042D01*
X136310498Y-77733131D01*
X136285814Y-77762616D01*
X136176351Y-77762679D01*
X136066887Y-77762743D01*
X136043041Y-77736436D01*
X136031686Y-77723526D01*
X136024561Y-77714166D01*
X136020736Y-77706800D01*
X136019283Y-77699872D01*
X136019154Y-77696483D01*
X136019114Y-77682837D01*
X136332986Y-77684729D01*
X136334084Y-77694187D01*
X136410015Y-77694187D01*
X136410214Y-77684063D01*
X136410318Y-77677859D01*
X136410633Y-77651002D01*
X136410446Y-77630320D01*
X136409556Y-77614740D01*
X136407766Y-77603187D01*
X136404877Y-77594586D01*
X136400689Y-77587864D01*
X136395005Y-77581944D01*
X136392108Y-77579427D01*
X136381415Y-77570429D01*
X136019114Y-77570429D01*
X136019114Y-77560176D01*
X136020960Y-77552591D01*
X136026883Y-77542378D01*
X136037458Y-77528612D01*
X136042500Y-77522626D01*
X136065885Y-77495327D01*
X136093847Y-77492964D01*
X136105939Y-77492257D01*
X136123736Y-77491635D01*
X136145686Y-77491131D01*
X136170238Y-77490778D01*
X136195838Y-77490610D01*
X136203227Y-77490600D01*
X136284644Y-77490600D01*
X136310629Y-77514504D01*
X136325841Y-77528070D01*
X136337302Y-77536944D01*
X136346265Y-77541689D01*
X136353981Y-77542870D01*
X136361702Y-77541051D01*
X136365667Y-77539331D01*
X136377399Y-77530039D01*
X136386086Y-77515820D01*
X136391113Y-77498590D01*
X136391863Y-77480260D01*
X136389115Y-77466530D01*
X136384453Y-77457843D01*
X136375628Y-77445838D01*
X136363962Y-77431948D01*
X136350776Y-77417608D01*
X136337392Y-77404251D01*
X136325131Y-77393310D01*
X136315317Y-77386221D01*
X136314843Y-77385954D01*
X136310973Y-77384272D01*
X136305570Y-77382903D01*
X136297854Y-77381805D01*
X136287049Y-77380934D01*
X136272377Y-77380248D01*
X136253059Y-77379703D01*
X136228319Y-77379256D01*
X136197378Y-77378864D01*
X136184628Y-77378728D01*
X136149208Y-77378404D01*
X136120228Y-77378313D01*
X136096870Y-77378584D01*
G37*
X136096870Y-77378584D02*
X136078318Y-77379344D01*
X136063754Y-77380721D01*
X136052362Y-77382842D01*
X136043325Y-77385836D01*
X136035825Y-77389830D01*
X136029045Y-77394951D01*
X136022170Y-77401327D01*
X136018824Y-77404643D01*
X136001532Y-77423076D01*
X135984662Y-77443137D01*
X135969527Y-77463114D01*
X135957438Y-77481294D01*
X135950919Y-77493232D01*
X135941100Y-77514186D01*
X135939979Y-77696522D01*
X135938859Y-77878857D01*
X136015486Y-77878857D01*
X136015486Y-77853395D01*
X136054172Y-77875229D01*
X136175198Y-77875229D01*
X136210476Y-77875250D01*
X136239362Y-77875149D01*
X136262720Y-77874681D01*
X136281414Y-77873601D01*
X136296308Y-77871663D01*
X136308266Y-77868622D01*
X136318152Y-77864233D01*
X136326830Y-77858249D01*
X136335163Y-77850427D01*
X136344017Y-77840520D01*
X136354255Y-77828283D01*
X136358522Y-77823169D01*
X136371248Y-77807338D01*
X136383160Y-77791380D01*
X136392931Y-77777141D01*
X136399235Y-77766470D01*
X136399284Y-77766372D01*
X136402752Y-77759097D01*
X136405322Y-77752431D01*
X136407151Y-77745112D01*
X136408398Y-77735878D01*
X136409219Y-77723466D01*
X136409772Y-77706615D01*
X136410015Y-77694187D01*
X136334084Y-77694187D01*
X136333378Y-77700240D01*
X136329538Y-77708154D01*
X136321888Y-77719042D01*
X136310498Y-77733131D01*
X136285814Y-77762616D01*
X136176351Y-77762679D01*
X136066887Y-77762743D01*
X136043041Y-77736436D01*
X136031686Y-77723526D01*
X136024561Y-77714166D01*
X136020736Y-77706800D01*
X136019283Y-77699872D01*
X136019154Y-77696483D01*
X136019114Y-77682837D01*
X136332986Y-77684729D01*
X136334084Y-77694187D01*
X136410015Y-77694187D01*
X136410214Y-77684063D01*
X136410318Y-77677859D01*
X136410633Y-77651002D01*
X136410446Y-77630320D01*
X136409556Y-77614740D01*
X136407766Y-77603187D01*
X136404877Y-77594586D01*
X136400689Y-77587864D01*
X136395005Y-77581944D01*
X136392108Y-77579427D01*
X136381415Y-77570429D01*
X136019114Y-77570429D01*
X136019114Y-77560176D01*
X136020960Y-77552591D01*
X136026883Y-77542378D01*
X136037458Y-77528612D01*
X136042500Y-77522626D01*
X136065885Y-77495327D01*
X136093847Y-77492964D01*
X136105939Y-77492257D01*
X136123736Y-77491635D01*
X136145686Y-77491131D01*
X136170238Y-77490778D01*
X136195838Y-77490610D01*
X136203227Y-77490600D01*
X136284644Y-77490600D01*
X136310629Y-77514504D01*
X136325841Y-77528070D01*
X136337302Y-77536944D01*
X136346265Y-77541689D01*
X136353981Y-77542870D01*
X136361702Y-77541051D01*
X136365667Y-77539331D01*
X136377399Y-77530039D01*
X136386086Y-77515820D01*
X136391113Y-77498590D01*
X136391863Y-77480260D01*
X136389115Y-77466530D01*
X136384453Y-77457843D01*
X136375628Y-77445838D01*
X136363962Y-77431948D01*
X136350776Y-77417608D01*
X136337392Y-77404251D01*
X136325131Y-77393310D01*
X136315317Y-77386221D01*
X136314843Y-77385954D01*
X136310973Y-77384272D01*
X136305570Y-77382903D01*
X136297854Y-77381805D01*
X136287049Y-77380934D01*
X136272377Y-77380248D01*
X136253059Y-77379703D01*
X136228319Y-77379256D01*
X136197378Y-77378864D01*
X136184628Y-77378728D01*
X136149208Y-77378404D01*
X136120228Y-77378313D01*
X136096870Y-77378584D01*
G36*
X135062438Y-77381775D02*
G01*
X135036392Y-77382069D01*
X135012602Y-77382585D01*
X134992240Y-77383323D01*
X134976482Y-77384282D01*
X134966502Y-77385464D01*
X134965014Y-77385804D01*
X134952855Y-77390262D01*
X134941919Y-77395969D01*
X134940609Y-77396853D01*
X134931941Y-77404479D01*
X134920443Y-77416614D01*
X134907337Y-77431745D01*
X134893843Y-77448358D01*
X134881181Y-77464941D01*
X134870571Y-77479979D01*
X134863233Y-77491960D01*
X134862087Y-77494229D01*
X134858615Y-77501982D01*
X134856073Y-77509294D01*
X134854284Y-77517529D01*
X134853070Y-77528051D01*
X134852253Y-77542227D01*
X134851656Y-77561419D01*
X134851306Y-77576996D01*
X134850858Y-77603967D01*
X134850890Y-77624764D01*
X134851552Y-77640461D01*
X134852993Y-77652134D01*
X134855362Y-77660856D01*
X134858810Y-77667704D01*
X134863485Y-77673752D01*
X134864986Y-77675397D01*
X134875397Y-77686543D01*
X135242600Y-77686543D01*
X135242600Y-77698689D01*
X135241595Y-77705778D01*
X135238023Y-77713673D01*
X135231048Y-77723783D01*
X135219831Y-77737519D01*
X135218907Y-77738603D01*
X135195214Y-77766372D01*
X134980685Y-77766372D01*
X134953120Y-77740972D01*
X134937556Y-77727464D01*
X134925310Y-77719118D01*
X134915138Y-77715450D01*
X134905801Y-77715976D01*
X134897659Y-77719321D01*
X134889744Y-77726812D01*
X134882663Y-77739137D01*
X134877488Y-77753877D01*
X134875292Y-77768613D01*
X134875277Y-77769791D01*
X134876538Y-77784646D01*
X134880861Y-77798254D01*
X134889058Y-77812153D01*
X134901940Y-77827879D01*
X134911009Y-77837549D01*
X134921222Y-77848116D01*
X134929956Y-77856710D01*
X134938080Y-77863534D01*
X134946463Y-77868791D01*
X134955976Y-77872686D01*
X134967486Y-77875422D01*
X134981863Y-77877202D01*
X134999977Y-77878230D01*
X135022697Y-77878709D01*
X135050891Y-77878843D01*
X135085430Y-77878835D01*
X135087334Y-77878835D01*
X135121098Y-77878784D01*
X135148368Y-77878625D01*
X135169905Y-77878324D01*
X135186471Y-77877848D01*
X135198827Y-77877166D01*
X135207736Y-77876243D01*
X135213960Y-77875048D01*
X135218260Y-77873548D01*
X135219014Y-77873178D01*
X135231416Y-77864711D01*
X135246230Y-77851430D01*
X135262197Y-77834785D01*
X135278063Y-77816225D01*
X135292568Y-77797199D01*
X135304458Y-77779156D01*
X135310795Y-77767369D01*
X135320614Y-77746414D01*
X135321754Y-77635407D01*
X135322052Y-77603818D01*
X135322197Y-77578571D01*
X135322152Y-77561100D01*
X135242600Y-77561100D01*
X135242600Y-77574057D01*
X134926914Y-77574057D01*
X134926914Y-77565715D01*
X134929273Y-77559004D01*
X134935828Y-77548235D01*
X134945792Y-77534628D01*
X134951407Y-77527628D01*
X134975900Y-77497882D01*
X135086739Y-77497870D01*
X135197578Y-77497857D01*
X135220089Y-77523000D01*
X135231188Y-77535871D01*
X135238014Y-77545275D01*
X135241501Y-77552796D01*
X135242586Y-77560020D01*
X135242600Y-77561100D01*
X135322152Y-77561100D01*
X135322145Y-77558754D01*
X135321853Y-77543452D01*
X135321277Y-77531752D01*
X135320374Y-77522740D01*
X135319100Y-77515502D01*
X135317411Y-77509125D01*
X135315453Y-77503230D01*
X135309641Y-77488652D01*
X135302529Y-77475232D01*
X135293145Y-77461611D01*
X135280517Y-77446425D01*
X135263673Y-77428316D01*
X135257114Y-77421558D01*
X135243025Y-77407492D01*
X135232357Y-77397862D01*
X135223745Y-77391651D01*
X135215823Y-77387841D01*
X135209243Y-77385880D01*
X135200296Y-77384635D01*
X135185384Y-77383610D01*
X135165680Y-77382803D01*
X135142359Y-77382216D01*
X135116595Y-77381848D01*
X135089563Y-77381701D01*
X135062438Y-77381775D01*
G37*
X135062438Y-77381775D02*
X135036392Y-77382069D01*
X135012602Y-77382585D01*
X134992240Y-77383323D01*
X134976482Y-77384282D01*
X134966502Y-77385464D01*
X134965014Y-77385804D01*
X134952855Y-77390262D01*
X134941919Y-77395969D01*
X134940609Y-77396853D01*
X134931941Y-77404479D01*
X134920443Y-77416614D01*
X134907337Y-77431745D01*
X134893843Y-77448358D01*
X134881181Y-77464941D01*
X134870571Y-77479979D01*
X134863233Y-77491960D01*
X134862087Y-77494229D01*
X134858615Y-77501982D01*
X134856073Y-77509294D01*
X134854284Y-77517529D01*
X134853070Y-77528051D01*
X134852253Y-77542227D01*
X134851656Y-77561419D01*
X134851306Y-77576996D01*
X134850858Y-77603967D01*
X134850890Y-77624764D01*
X134851552Y-77640461D01*
X134852993Y-77652134D01*
X134855362Y-77660856D01*
X134858810Y-77667704D01*
X134863485Y-77673752D01*
X134864986Y-77675397D01*
X134875397Y-77686543D01*
X135242600Y-77686543D01*
X135242600Y-77698689D01*
X135241595Y-77705778D01*
X135238023Y-77713673D01*
X135231048Y-77723783D01*
X135219831Y-77737519D01*
X135218907Y-77738603D01*
X135195214Y-77766372D01*
X134980685Y-77766372D01*
X134953120Y-77740972D01*
X134937556Y-77727464D01*
X134925310Y-77719118D01*
X134915138Y-77715450D01*
X134905801Y-77715976D01*
X134897659Y-77719321D01*
X134889744Y-77726812D01*
X134882663Y-77739137D01*
X134877488Y-77753877D01*
X134875292Y-77768613D01*
X134875277Y-77769791D01*
X134876538Y-77784646D01*
X134880861Y-77798254D01*
X134889058Y-77812153D01*
X134901940Y-77827879D01*
X134911009Y-77837549D01*
X134921222Y-77848116D01*
X134929956Y-77856710D01*
X134938080Y-77863534D01*
X134946463Y-77868791D01*
X134955976Y-77872686D01*
X134967486Y-77875422D01*
X134981863Y-77877202D01*
X134999977Y-77878230D01*
X135022697Y-77878709D01*
X135050891Y-77878843D01*
X135085430Y-77878835D01*
X135087334Y-77878835D01*
X135121098Y-77878784D01*
X135148368Y-77878625D01*
X135169905Y-77878324D01*
X135186471Y-77877848D01*
X135198827Y-77877166D01*
X135207736Y-77876243D01*
X135213960Y-77875048D01*
X135218260Y-77873548D01*
X135219014Y-77873178D01*
X135231416Y-77864711D01*
X135246230Y-77851430D01*
X135262197Y-77834785D01*
X135278063Y-77816225D01*
X135292568Y-77797199D01*
X135304458Y-77779156D01*
X135310795Y-77767369D01*
X135320614Y-77746414D01*
X135321754Y-77635407D01*
X135322052Y-77603818D01*
X135322197Y-77578571D01*
X135322152Y-77561100D01*
X135242600Y-77561100D01*
X135242600Y-77574057D01*
X134926914Y-77574057D01*
X134926914Y-77565715D01*
X134929273Y-77559004D01*
X134935828Y-77548235D01*
X134945792Y-77534628D01*
X134951407Y-77527628D01*
X134975900Y-77497882D01*
X135086739Y-77497870D01*
X135197578Y-77497857D01*
X135220089Y-77523000D01*
X135231188Y-77535871D01*
X135238014Y-77545275D01*
X135241501Y-77552796D01*
X135242586Y-77560020D01*
X135242600Y-77561100D01*
X135322152Y-77561100D01*
X135322145Y-77558754D01*
X135321853Y-77543452D01*
X135321277Y-77531752D01*
X135320374Y-77522740D01*
X135319100Y-77515502D01*
X135317411Y-77509125D01*
X135315453Y-77503230D01*
X135309641Y-77488652D01*
X135302529Y-77475232D01*
X135293145Y-77461611D01*
X135280517Y-77446425D01*
X135263673Y-77428316D01*
X135257114Y-77421558D01*
X135243025Y-77407492D01*
X135232357Y-77397862D01*
X135223745Y-77391651D01*
X135215823Y-77387841D01*
X135209243Y-77385880D01*
X135200296Y-77384635D01*
X135185384Y-77383610D01*
X135165680Y-77382803D01*
X135142359Y-77382216D01*
X135116595Y-77381848D01*
X135089563Y-77381701D01*
X135062438Y-77381775D01*
G36*
X139472788Y-77106701D02*
G01*
X139444535Y-77107049D01*
X139422588Y-77107408D01*
X139405996Y-77107869D01*
X139393807Y-77108524D01*
X139385071Y-77109464D01*
X139378837Y-77110782D01*
X139374153Y-77112567D01*
X139370068Y-77114913D01*
X139367173Y-77116857D01*
X139357314Y-77125069D01*
X139346502Y-77136221D01*
X139340678Y-77143261D01*
X139338434Y-77146224D01*
X139336370Y-77149194D01*
X139334402Y-77152566D01*
X139332448Y-77156738D01*
X139330426Y-77162103D01*
X139328253Y-77169059D01*
X139325847Y-77178000D01*
X139323125Y-77189324D01*
X139320005Y-77203424D01*
X139316405Y-77220698D01*
X139312241Y-77241541D01*
X139307431Y-77266348D01*
X139301894Y-77295516D01*
X139295546Y-77329440D01*
X139288305Y-77368516D01*
X139280089Y-77413140D01*
X139270815Y-77463708D01*
X139260400Y-77520615D01*
X139248763Y-77584257D01*
X139248526Y-77585553D01*
X139239769Y-77633544D01*
X139232299Y-77674960D01*
X139226084Y-77710363D01*
X139221094Y-77740314D01*
X139217300Y-77765377D01*
X139214670Y-77786111D01*
X139213176Y-77803079D01*
X139212785Y-77816844D01*
X139213469Y-77827966D01*
X139215196Y-77837007D01*
X139217937Y-77844530D01*
X139221661Y-77851096D01*
X139226338Y-77857267D01*
X139231938Y-77863605D01*
X139233450Y-77865250D01*
X139241366Y-77872279D01*
X139249312Y-77874546D01*
X139260181Y-77872688D01*
X139263171Y-77871814D01*
X139279136Y-77864570D01*
X139289887Y-77853550D01*
X139293741Y-77846371D01*
X139295884Y-77839429D01*
X139299013Y-77826414D01*
X139302900Y-77808408D01*
X139307322Y-77786495D01*
X139312052Y-77761757D01*
X139316821Y-77735529D01*
X139334178Y-77637557D01*
X139625570Y-77635661D01*
X139627977Y-77649309D01*
X139631194Y-77666829D01*
X139635240Y-77687771D01*
X139639881Y-77711026D01*
X139644881Y-77735489D01*
X139650007Y-77760050D01*
X139655024Y-77783603D01*
X139659697Y-77805041D01*
X139663791Y-77823256D01*
X139667072Y-77837140D01*
X139669304Y-77845587D01*
X139669972Y-77847461D01*
X139679143Y-77861334D01*
X139689858Y-77869019D01*
X139703674Y-77871584D01*
X139705123Y-77871600D01*
X139715448Y-77870901D01*
X139723203Y-77867861D01*
X139731302Y-77861065D01*
X139735333Y-77856933D01*
X139738835Y-77853263D01*
X139741957Y-77849738D01*
X139744645Y-77845998D01*
X139746847Y-77841681D01*
X139748509Y-77836426D01*
X139749579Y-77829873D01*
X139750004Y-77821660D01*
X139749731Y-77811426D01*
X139748707Y-77798811D01*
X139746879Y-77783453D01*
X139744195Y-77764991D01*
X139740601Y-77743064D01*
X139736044Y-77717312D01*
X139730472Y-77687372D01*
X139723831Y-77652885D01*
X139716069Y-77613489D01*
X139707134Y-77568824D01*
X139696971Y-77518527D01*
X139692916Y-77498578D01*
X139596886Y-77498578D01*
X139596521Y-77500418D01*
X139594928Y-77501876D01*
X139591354Y-77502997D01*
X139585049Y-77503823D01*
X139575262Y-77504398D01*
X139561243Y-77504767D01*
X139542240Y-77504971D01*
X139517503Y-77505056D01*
X139486280Y-77505065D01*
X139485307Y-77505065D01*
X139457241Y-77504988D01*
X139431268Y-77504793D01*
X139408346Y-77504499D01*
X139389431Y-77504120D01*
X139375480Y-77503675D01*
X139367453Y-77503179D01*
X139366126Y-77502974D01*
X139363945Y-77502230D01*
X139362379Y-77500794D01*
X139361503Y-77497878D01*
X139361391Y-77492696D01*
X139362119Y-77484458D01*
X139363762Y-77472377D01*
X139366393Y-77455666D01*
X139370088Y-77433535D01*
X139374923Y-77405198D01*
X139376036Y-77398702D01*
X139380908Y-77370494D01*
X139385738Y-77342971D01*
X139390292Y-77317427D01*
X139394337Y-77295158D01*
X139397640Y-77277457D01*
X139399967Y-77265629D01*
X139406386Y-77234786D01*
X139473956Y-77233800D01*
X139541527Y-77232815D01*
X139549543Y-77264643D01*
X139552421Y-77276770D01*
X139556211Y-77293776D01*
X139560698Y-77314598D01*
X139565666Y-77338169D01*
X139570899Y-77363423D01*
X139576182Y-77389295D01*
X139581299Y-77414719D01*
X139586033Y-77438630D01*
X139590171Y-77459962D01*
X139593495Y-77477649D01*
X139595791Y-77490626D01*
X139596842Y-77497826D01*
X139596886Y-77498578D01*
X139692916Y-77498578D01*
X139685528Y-77462238D01*
X139672752Y-77399597D01*
X139658591Y-77330241D01*
X139657056Y-77322726D01*
X139650375Y-77290291D01*
X139643993Y-77259854D01*
X139638083Y-77232198D01*
X139632816Y-77208104D01*
X139628365Y-77188357D01*
X139624904Y-77173739D01*
X139622603Y-77165033D01*
X139621905Y-77163069D01*
X139612521Y-77148698D01*
X139599535Y-77133433D01*
X139585534Y-77120172D01*
X139579573Y-77115618D01*
X139565141Y-77105617D01*
X139472788Y-77106701D01*
G37*
X139472788Y-77106701D02*
X139444535Y-77107049D01*
X139422588Y-77107408D01*
X139405996Y-77107869D01*
X139393807Y-77108524D01*
X139385071Y-77109464D01*
X139378837Y-77110782D01*
X139374153Y-77112567D01*
X139370068Y-77114913D01*
X139367173Y-77116857D01*
X139357314Y-77125069D01*
X139346502Y-77136221D01*
X139340678Y-77143261D01*
X139338434Y-77146224D01*
X139336370Y-77149194D01*
X139334402Y-77152566D01*
X139332448Y-77156738D01*
X139330426Y-77162103D01*
X139328253Y-77169059D01*
X139325847Y-77178000D01*
X139323125Y-77189324D01*
X139320005Y-77203424D01*
X139316405Y-77220698D01*
X139312241Y-77241541D01*
X139307431Y-77266348D01*
X139301894Y-77295516D01*
X139295546Y-77329440D01*
X139288305Y-77368516D01*
X139280089Y-77413140D01*
X139270815Y-77463708D01*
X139260400Y-77520615D01*
X139248763Y-77584257D01*
X139248526Y-77585553D01*
X139239769Y-77633544D01*
X139232299Y-77674960D01*
X139226084Y-77710363D01*
X139221094Y-77740314D01*
X139217300Y-77765377D01*
X139214670Y-77786111D01*
X139213176Y-77803079D01*
X139212785Y-77816844D01*
X139213469Y-77827966D01*
X139215196Y-77837007D01*
X139217937Y-77844530D01*
X139221661Y-77851096D01*
X139226338Y-77857267D01*
X139231938Y-77863605D01*
X139233450Y-77865250D01*
X139241366Y-77872279D01*
X139249312Y-77874546D01*
X139260181Y-77872688D01*
X139263171Y-77871814D01*
X139279136Y-77864570D01*
X139289887Y-77853550D01*
X139293741Y-77846371D01*
X139295884Y-77839429D01*
X139299013Y-77826414D01*
X139302900Y-77808408D01*
X139307322Y-77786495D01*
X139312052Y-77761757D01*
X139316821Y-77735529D01*
X139334178Y-77637557D01*
X139625570Y-77635661D01*
X139627977Y-77649309D01*
X139631194Y-77666829D01*
X139635240Y-77687771D01*
X139639881Y-77711026D01*
X139644881Y-77735489D01*
X139650007Y-77760050D01*
X139655024Y-77783603D01*
X139659697Y-77805041D01*
X139663791Y-77823256D01*
X139667072Y-77837140D01*
X139669304Y-77845587D01*
X139669972Y-77847461D01*
X139679143Y-77861334D01*
X139689858Y-77869019D01*
X139703674Y-77871584D01*
X139705123Y-77871600D01*
X139715448Y-77870901D01*
X139723203Y-77867861D01*
X139731302Y-77861065D01*
X139735333Y-77856933D01*
X139738835Y-77853263D01*
X139741957Y-77849738D01*
X139744645Y-77845998D01*
X139746847Y-77841681D01*
X139748509Y-77836426D01*
X139749579Y-77829873D01*
X139750004Y-77821660D01*
X139749731Y-77811426D01*
X139748707Y-77798811D01*
X139746879Y-77783453D01*
X139744195Y-77764991D01*
X139740601Y-77743064D01*
X139736044Y-77717312D01*
X139730472Y-77687372D01*
X139723831Y-77652885D01*
X139716069Y-77613489D01*
X139707134Y-77568824D01*
X139696971Y-77518527D01*
X139692916Y-77498578D01*
X139596886Y-77498578D01*
X139596521Y-77500418D01*
X139594928Y-77501876D01*
X139591354Y-77502997D01*
X139585049Y-77503823D01*
X139575262Y-77504398D01*
X139561243Y-77504767D01*
X139542240Y-77504971D01*
X139517503Y-77505056D01*
X139486280Y-77505065D01*
X139485307Y-77505065D01*
X139457241Y-77504988D01*
X139431268Y-77504793D01*
X139408346Y-77504499D01*
X139389431Y-77504120D01*
X139375480Y-77503675D01*
X139367453Y-77503179D01*
X139366126Y-77502974D01*
X139363945Y-77502230D01*
X139362379Y-77500794D01*
X139361503Y-77497878D01*
X139361391Y-77492696D01*
X139362119Y-77484458D01*
X139363762Y-77472377D01*
X139366393Y-77455666D01*
X139370088Y-77433535D01*
X139374923Y-77405198D01*
X139376036Y-77398702D01*
X139380908Y-77370494D01*
X139385738Y-77342971D01*
X139390292Y-77317427D01*
X139394337Y-77295158D01*
X139397640Y-77277457D01*
X139399967Y-77265629D01*
X139406386Y-77234786D01*
X139473956Y-77233800D01*
X139541527Y-77232815D01*
X139549543Y-77264643D01*
X139552421Y-77276770D01*
X139556211Y-77293776D01*
X139560698Y-77314598D01*
X139565666Y-77338169D01*
X139570899Y-77363423D01*
X139576182Y-77389295D01*
X139581299Y-77414719D01*
X139586033Y-77438630D01*
X139590171Y-77459962D01*
X139593495Y-77477649D01*
X139595791Y-77490626D01*
X139596842Y-77497826D01*
X139596886Y-77498578D01*
X139692916Y-77498578D01*
X139685528Y-77462238D01*
X139672752Y-77399597D01*
X139658591Y-77330241D01*
X139657056Y-77322726D01*
X139650375Y-77290291D01*
X139643993Y-77259854D01*
X139638083Y-77232198D01*
X139632816Y-77208104D01*
X139628365Y-77188357D01*
X139624904Y-77173739D01*
X139622603Y-77165033D01*
X139621905Y-77163069D01*
X139612521Y-77148698D01*
X139599535Y-77133433D01*
X139585534Y-77120172D01*
X139579573Y-77115618D01*
X139565141Y-77105617D01*
X139472788Y-77106701D01*
G36*
X138543229Y-77383195D02*
G01*
X138538666Y-77384626D01*
X138532710Y-77385806D01*
X138524678Y-77386759D01*
X138513888Y-77387508D01*
X138499656Y-77388075D01*
X138481300Y-77388484D01*
X138458137Y-77388757D01*
X138429484Y-77388918D01*
X138394657Y-77388990D01*
X138371070Y-77389000D01*
X138331644Y-77388980D01*
X138298753Y-77389005D01*
X138271675Y-77389205D01*
X138249688Y-77389709D01*
X138232070Y-77390645D01*
X138218100Y-77392144D01*
X138207055Y-77394333D01*
X138198214Y-77397342D01*
X138190855Y-77401301D01*
X138184256Y-77406337D01*
X138177695Y-77412581D01*
X138170450Y-77420161D01*
X138165061Y-77425836D01*
X138146030Y-77448241D01*
X138133244Y-77469870D01*
X138126078Y-77492285D01*
X138123906Y-77517050D01*
X138124285Y-77527805D01*
X138127728Y-77547897D01*
X138134785Y-77563430D01*
X138144783Y-77573783D01*
X138157049Y-77578335D01*
X138170910Y-77576465D01*
X138175071Y-77574664D01*
X138182793Y-77569453D01*
X138188976Y-77561473D01*
X138195056Y-77548762D01*
X138196359Y-77545546D01*
X138203660Y-77530413D01*
X138212182Y-77517541D01*
X138217281Y-77511982D01*
X138229029Y-77501486D01*
X138515057Y-77501486D01*
X138516250Y-77669307D01*
X138516560Y-77709320D01*
X138516890Y-77742725D01*
X138517264Y-77770173D01*
X138517709Y-77792313D01*
X138518251Y-77809794D01*
X138518914Y-77823267D01*
X138519724Y-77833382D01*
X138520707Y-77840787D01*
X138521889Y-77846133D01*
X138523295Y-77850070D01*
X138523380Y-77850262D01*
X138532620Y-77864300D01*
X138544361Y-77872772D01*
X138557301Y-77875322D01*
X138570132Y-77871591D01*
X138578162Y-77865250D01*
X138585747Y-77855609D01*
X138591289Y-77845696D01*
X138591541Y-77845057D01*
X138592509Y-77838687D01*
X138593338Y-77825086D01*
X138594029Y-77804280D01*
X138594579Y-77776294D01*
X138594989Y-77741152D01*
X138595259Y-77698880D01*
X138595388Y-77649504D01*
X138595400Y-77627204D01*
X138595400Y-77419566D01*
X138587236Y-77403376D01*
X138577720Y-77388911D01*
X138566844Y-77381330D01*
X138553846Y-77380284D01*
X138543229Y-77383195D01*
G37*
X138543229Y-77383195D02*
X138538666Y-77384626D01*
X138532710Y-77385806D01*
X138524678Y-77386759D01*
X138513888Y-77387508D01*
X138499656Y-77388075D01*
X138481300Y-77388484D01*
X138458137Y-77388757D01*
X138429484Y-77388918D01*
X138394657Y-77388990D01*
X138371070Y-77389000D01*
X138331644Y-77388980D01*
X138298753Y-77389005D01*
X138271675Y-77389205D01*
X138249688Y-77389709D01*
X138232070Y-77390645D01*
X138218100Y-77392144D01*
X138207055Y-77394333D01*
X138198214Y-77397342D01*
X138190855Y-77401301D01*
X138184256Y-77406337D01*
X138177695Y-77412581D01*
X138170450Y-77420161D01*
X138165061Y-77425836D01*
X138146030Y-77448241D01*
X138133244Y-77469870D01*
X138126078Y-77492285D01*
X138123906Y-77517050D01*
X138124285Y-77527805D01*
X138127728Y-77547897D01*
X138134785Y-77563430D01*
X138144783Y-77573783D01*
X138157049Y-77578335D01*
X138170910Y-77576465D01*
X138175071Y-77574664D01*
X138182793Y-77569453D01*
X138188976Y-77561473D01*
X138195056Y-77548762D01*
X138196359Y-77545546D01*
X138203660Y-77530413D01*
X138212182Y-77517541D01*
X138217281Y-77511982D01*
X138229029Y-77501486D01*
X138515057Y-77501486D01*
X138516250Y-77669307D01*
X138516560Y-77709320D01*
X138516890Y-77742725D01*
X138517264Y-77770173D01*
X138517709Y-77792313D01*
X138518251Y-77809794D01*
X138518914Y-77823267D01*
X138519724Y-77833382D01*
X138520707Y-77840787D01*
X138521889Y-77846133D01*
X138523295Y-77850070D01*
X138523380Y-77850262D01*
X138532620Y-77864300D01*
X138544361Y-77872772D01*
X138557301Y-77875322D01*
X138570132Y-77871591D01*
X138578162Y-77865250D01*
X138585747Y-77855609D01*
X138591289Y-77845696D01*
X138591541Y-77845057D01*
X138592509Y-77838687D01*
X138593338Y-77825086D01*
X138594029Y-77804280D01*
X138594579Y-77776294D01*
X138594989Y-77741152D01*
X138595259Y-77698880D01*
X138595388Y-77649504D01*
X138595400Y-77627204D01*
X138595400Y-77419566D01*
X138587236Y-77403376D01*
X138577720Y-77388911D01*
X138566844Y-77381330D01*
X138553846Y-77380284D01*
X138543229Y-77383195D01*
G36*
X137677862Y-77387509D02*
G01*
X137667424Y-77394847D01*
X137654922Y-77405825D01*
X137642720Y-77418331D01*
X137640315Y-77421073D01*
X137623311Y-77441045D01*
X137609729Y-77457801D01*
X137599170Y-77472531D01*
X137591235Y-77486426D01*
X137585526Y-77500675D01*
X137581642Y-77516470D01*
X137579187Y-77535000D01*
X137577760Y-77557456D01*
X137576963Y-77585029D01*
X137576512Y-77611506D01*
X137576092Y-77647988D01*
X137576241Y-77678240D01*
X137577213Y-77703284D01*
X137579262Y-77724139D01*
X137582642Y-77741828D01*
X137587607Y-77757370D01*
X137594411Y-77771786D01*
X137603309Y-77786098D01*
X137614555Y-77801326D01*
X137627892Y-77817872D01*
X137639408Y-77831932D01*
X137649090Y-77843395D01*
X137657814Y-77852533D01*
X137666458Y-77859614D01*
X137675902Y-77864910D01*
X137687023Y-77868690D01*
X137700698Y-77871225D01*
X137717807Y-77872785D01*
X137739226Y-77873639D01*
X137765835Y-77874059D01*
X137798510Y-77874315D01*
X137811628Y-77874416D01*
X137844608Y-77874672D01*
X137871150Y-77874812D01*
X137892074Y-77874797D01*
X137908199Y-77874586D01*
X137920345Y-77874138D01*
X137929331Y-77873415D01*
X137935976Y-77872374D01*
X137941100Y-77870978D01*
X137945521Y-77869184D01*
X137948577Y-77867701D01*
X137958514Y-77860977D01*
X137971500Y-77849589D01*
X137986260Y-77834698D01*
X137993477Y-77826786D01*
X138007981Y-77810354D01*
X138018548Y-77797887D01*
X138026122Y-77787976D01*
X138031643Y-77779214D01*
X138036054Y-77770190D01*
X138040295Y-77759498D01*
X138042534Y-77753393D01*
X138045116Y-77745978D01*
X138047120Y-77738998D01*
X138048618Y-77731431D01*
X138049683Y-77722255D01*
X138050387Y-77710447D01*
X138050802Y-77694985D01*
X138051001Y-77674846D01*
X138051056Y-77649008D01*
X138051051Y-77632856D01*
X138050880Y-77595790D01*
X138050228Y-77564985D01*
X138049132Y-77545271D01*
X137971286Y-77545271D01*
X137971242Y-77625885D01*
X137971199Y-77706500D01*
X137947272Y-77734622D01*
X137923345Y-77762743D01*
X137706576Y-77762743D01*
X137695939Y-77750950D01*
X137687647Y-77741491D01*
X137677457Y-77729508D01*
X137670451Y-77721081D01*
X137655600Y-77703005D01*
X137655600Y-77551358D01*
X137706764Y-77490600D01*
X137813422Y-77490600D01*
X137844363Y-77490544D01*
X137868977Y-77490533D01*
X137888192Y-77490799D01*
X137902936Y-77491576D01*
X137914136Y-77493097D01*
X137922720Y-77495595D01*
X137929617Y-77499303D01*
X137935753Y-77504454D01*
X137942058Y-77511283D01*
X137949457Y-77520021D01*
X137954655Y-77526100D01*
X137971286Y-77545271D01*
X138049132Y-77545271D01*
X138048807Y-77539447D01*
X138046332Y-77518184D01*
X138042514Y-77500201D01*
X138037068Y-77484504D01*
X138029705Y-77470101D01*
X138020139Y-77455999D01*
X138008082Y-77441202D01*
X137993248Y-77424718D01*
X137989865Y-77421070D01*
X137979629Y-77410072D01*
X137970839Y-77401131D01*
X137962621Y-77394033D01*
X137954104Y-77388567D01*
X137944416Y-77384519D01*
X137932685Y-77381677D01*
X137918039Y-77379829D01*
X137899605Y-77378761D01*
X137876512Y-77378261D01*
X137847887Y-77378116D01*
X137813695Y-77378114D01*
X137694682Y-77378114D01*
X137677862Y-77387509D01*
G37*
X137677862Y-77387509D02*
X137667424Y-77394847D01*
X137654922Y-77405825D01*
X137642720Y-77418331D01*
X137640315Y-77421073D01*
X137623311Y-77441045D01*
X137609729Y-77457801D01*
X137599170Y-77472531D01*
X137591235Y-77486426D01*
X137585526Y-77500675D01*
X137581642Y-77516470D01*
X137579187Y-77535000D01*
X137577760Y-77557456D01*
X137576963Y-77585029D01*
X137576512Y-77611506D01*
X137576092Y-77647988D01*
X137576241Y-77678240D01*
X137577213Y-77703284D01*
X137579262Y-77724139D01*
X137582642Y-77741828D01*
X137587607Y-77757370D01*
X137594411Y-77771786D01*
X137603309Y-77786098D01*
X137614555Y-77801326D01*
X137627892Y-77817872D01*
X137639408Y-77831932D01*
X137649090Y-77843395D01*
X137657814Y-77852533D01*
X137666458Y-77859614D01*
X137675902Y-77864910D01*
X137687023Y-77868690D01*
X137700698Y-77871225D01*
X137717807Y-77872785D01*
X137739226Y-77873639D01*
X137765835Y-77874059D01*
X137798510Y-77874315D01*
X137811628Y-77874416D01*
X137844608Y-77874672D01*
X137871150Y-77874812D01*
X137892074Y-77874797D01*
X137908199Y-77874586D01*
X137920345Y-77874138D01*
X137929331Y-77873415D01*
X137935976Y-77872374D01*
X137941100Y-77870978D01*
X137945521Y-77869184D01*
X137948577Y-77867701D01*
X137958514Y-77860977D01*
X137971500Y-77849589D01*
X137986260Y-77834698D01*
X137993477Y-77826786D01*
X138007981Y-77810354D01*
X138018548Y-77797887D01*
X138026122Y-77787976D01*
X138031643Y-77779214D01*
X138036054Y-77770190D01*
X138040295Y-77759498D01*
X138042534Y-77753393D01*
X138045116Y-77745978D01*
X138047120Y-77738998D01*
X138048618Y-77731431D01*
X138049683Y-77722255D01*
X138050387Y-77710447D01*
X138050802Y-77694985D01*
X138051001Y-77674846D01*
X138051056Y-77649008D01*
X138051051Y-77632856D01*
X138050880Y-77595790D01*
X138050228Y-77564985D01*
X138049132Y-77545271D01*
X137971286Y-77545271D01*
X137971242Y-77625885D01*
X137971199Y-77706500D01*
X137947272Y-77734622D01*
X137923345Y-77762743D01*
X137706576Y-77762743D01*
X137695939Y-77750950D01*
X137687647Y-77741491D01*
X137677457Y-77729508D01*
X137670451Y-77721081D01*
X137655600Y-77703005D01*
X137655600Y-77551358D01*
X137706764Y-77490600D01*
X137813422Y-77490600D01*
X137844363Y-77490544D01*
X137868977Y-77490533D01*
X137888192Y-77490799D01*
X137902936Y-77491576D01*
X137914136Y-77493097D01*
X137922720Y-77495595D01*
X137929617Y-77499303D01*
X137935753Y-77504454D01*
X137942058Y-77511283D01*
X137949457Y-77520021D01*
X137954655Y-77526100D01*
X137971286Y-77545271D01*
X138049132Y-77545271D01*
X138048807Y-77539447D01*
X138046332Y-77518184D01*
X138042514Y-77500201D01*
X138037068Y-77484504D01*
X138029705Y-77470101D01*
X138020139Y-77455999D01*
X138008082Y-77441202D01*
X137993248Y-77424718D01*
X137989865Y-77421070D01*
X137979629Y-77410072D01*
X137970839Y-77401131D01*
X137962621Y-77394033D01*
X137954104Y-77388567D01*
X137944416Y-77384519D01*
X137932685Y-77381677D01*
X137918039Y-77379829D01*
X137899605Y-77378761D01*
X137876512Y-77378261D01*
X137847887Y-77378116D01*
X137813695Y-77378114D01*
X137694682Y-77378114D01*
X137677862Y-77387509D01*
G36*
X137300539Y-77378463D02*
G01*
X137272660Y-77378624D01*
X137259847Y-77378743D01*
X137227703Y-77379109D01*
X137201986Y-77379500D01*
X137181862Y-77379969D01*
X137166500Y-77380570D01*
X137155070Y-77381355D01*
X137146738Y-77382377D01*
X137140674Y-77383689D01*
X137136046Y-77385344D01*
X137133086Y-77386805D01*
X137123380Y-77393700D01*
X137110964Y-77404916D01*
X137096845Y-77419271D01*
X137082029Y-77435582D01*
X137067523Y-77452669D01*
X137054335Y-77469348D01*
X137043472Y-77484437D01*
X137035941Y-77496754D01*
X137032845Y-77504483D01*
X137031674Y-77522925D01*
X137034460Y-77541249D01*
X137040575Y-77557512D01*
X137049393Y-77569773D01*
X137055388Y-77574226D01*
X137065995Y-77578484D01*
X137075540Y-77578504D01*
X137085338Y-77573754D01*
X137096708Y-77563697D01*
X137105857Y-77553728D01*
X137118280Y-77539693D01*
X137131423Y-77525071D01*
X137142801Y-77512624D01*
X137144646Y-77510639D01*
X137161648Y-77492414D01*
X137268544Y-77491264D01*
X137375441Y-77490114D01*
X137399370Y-77518478D01*
X137409361Y-77530515D01*
X137417314Y-77540462D01*
X137422232Y-77547053D01*
X137423335Y-77548988D01*
X137420440Y-77551749D01*
X137412933Y-77556621D01*
X137405645Y-77560781D01*
X137387918Y-77570429D01*
X137268666Y-77570468D01*
X137234091Y-77570506D01*
X137205836Y-77570678D01*
X137182963Y-77571103D01*
X137164535Y-77571904D01*
X137149614Y-77573200D01*
X137137264Y-77575114D01*
X137126546Y-77577767D01*
X137116523Y-77581278D01*
X137106257Y-77585771D01*
X137094812Y-77591365D01*
X137090621Y-77593471D01*
X137067943Y-77607412D01*
X137051213Y-77623832D01*
X137039908Y-77643648D01*
X137033507Y-77667777D01*
X137031486Y-77697136D01*
X137031486Y-77697179D01*
X137033601Y-77728232D01*
X137039725Y-77755874D01*
X137049527Y-77778782D01*
X137053520Y-77785089D01*
X137065567Y-77801268D01*
X137079385Y-77818190D01*
X137093755Y-77834516D01*
X137107455Y-77848908D01*
X137119265Y-77860026D01*
X137127572Y-77866307D01*
X137142795Y-77875229D01*
X137265847Y-77874934D01*
X137304162Y-77874738D01*
X137335527Y-77874346D01*
X137360246Y-77873745D01*
X137378624Y-77872926D01*
X137390965Y-77871878D01*
X137397575Y-77870591D01*
X137398046Y-77870398D01*
X137408198Y-77864945D01*
X137414887Y-77860649D01*
X137420632Y-77855407D01*
X137429675Y-77845863D01*
X137441001Y-77833222D01*
X137453590Y-77818691D01*
X137466428Y-77803475D01*
X137478495Y-77788781D01*
X137488777Y-77775814D01*
X137496254Y-77765780D01*
X137499911Y-77759886D01*
X137499951Y-77759785D01*
X137502545Y-77747357D01*
X137503010Y-77731461D01*
X137501450Y-77715531D01*
X137498258Y-77703662D01*
X137490015Y-77690596D01*
X137478862Y-77681381D01*
X137466513Y-77676940D01*
X137454684Y-77678199D01*
X137452704Y-77679123D01*
X137447952Y-77683065D01*
X137439519Y-77691425D01*
X137428450Y-77703115D01*
X137415792Y-77717046D01*
X137410737Y-77722754D01*
X137375575Y-77762743D01*
X137267724Y-77762743D01*
X137234429Y-77762661D01*
X137207795Y-77762398D01*
X137187229Y-77761930D01*
X137172137Y-77761235D01*
X137161923Y-77760288D01*
X137155995Y-77759065D01*
X137154270Y-77758207D01*
X137149746Y-77753680D01*
X137142538Y-77745592D01*
X137133937Y-77735500D01*
X137125233Y-77724963D01*
X137117720Y-77715539D01*
X137112687Y-77708788D01*
X137111314Y-77706373D01*
X137114261Y-77704009D01*
X137121838Y-77699602D01*
X137128645Y-77696026D01*
X137133377Y-77693721D01*
X137138089Y-77691837D01*
X137143574Y-77690311D01*
X137150624Y-77689080D01*
X137160033Y-77688080D01*
X137172592Y-77687248D01*
X137189095Y-77686520D01*
X137210334Y-77685833D01*
X137237102Y-77685123D01*
X137270191Y-77684327D01*
X137276802Y-77684172D01*
X137407628Y-77681100D01*
X137436013Y-77666586D01*
X137457588Y-77654385D01*
X137473445Y-77642400D01*
X137484967Y-77629365D01*
X137493541Y-77614014D01*
X137493542Y-77614012D01*
X137499452Y-77594528D01*
X137502431Y-77570772D01*
X137502550Y-77545079D01*
X137499882Y-77519783D01*
X137494497Y-77497221D01*
X137489589Y-77485157D01*
X137485242Y-77478109D01*
X137477455Y-77466923D01*
X137467324Y-77453127D01*
X137455945Y-77438249D01*
X137455739Y-77437986D01*
X137436119Y-77414585D01*
X137418582Y-77397463D01*
X137402556Y-77386143D01*
X137387466Y-77380153D01*
X137385274Y-77379690D01*
X137378899Y-77379199D01*
X137366253Y-77378823D01*
X137348320Y-77378571D01*
X137326087Y-77378448D01*
X137300539Y-77378463D01*
G37*
X137300539Y-77378463D02*
X137272660Y-77378624D01*
X137259847Y-77378743D01*
X137227703Y-77379109D01*
X137201986Y-77379500D01*
X137181862Y-77379969D01*
X137166500Y-77380570D01*
X137155070Y-77381355D01*
X137146738Y-77382377D01*
X137140674Y-77383689D01*
X137136046Y-77385344D01*
X137133086Y-77386805D01*
X137123380Y-77393700D01*
X137110964Y-77404916D01*
X137096845Y-77419271D01*
X137082029Y-77435582D01*
X137067523Y-77452669D01*
X137054335Y-77469348D01*
X137043472Y-77484437D01*
X137035941Y-77496754D01*
X137032845Y-77504483D01*
X137031674Y-77522925D01*
X137034460Y-77541249D01*
X137040575Y-77557512D01*
X137049393Y-77569773D01*
X137055388Y-77574226D01*
X137065995Y-77578484D01*
X137075540Y-77578504D01*
X137085338Y-77573754D01*
X137096708Y-77563697D01*
X137105857Y-77553728D01*
X137118280Y-77539693D01*
X137131423Y-77525071D01*
X137142801Y-77512624D01*
X137144646Y-77510639D01*
X137161648Y-77492414D01*
X137268544Y-77491264D01*
X137375441Y-77490114D01*
X137399370Y-77518478D01*
X137409361Y-77530515D01*
X137417314Y-77540462D01*
X137422232Y-77547053D01*
X137423335Y-77548988D01*
X137420440Y-77551749D01*
X137412933Y-77556621D01*
X137405645Y-77560781D01*
X137387918Y-77570429D01*
X137268666Y-77570468D01*
X137234091Y-77570506D01*
X137205836Y-77570678D01*
X137182963Y-77571103D01*
X137164535Y-77571904D01*
X137149614Y-77573200D01*
X137137264Y-77575114D01*
X137126546Y-77577767D01*
X137116523Y-77581278D01*
X137106257Y-77585771D01*
X137094812Y-77591365D01*
X137090621Y-77593471D01*
X137067943Y-77607412D01*
X137051213Y-77623832D01*
X137039908Y-77643648D01*
X137033507Y-77667777D01*
X137031486Y-77697136D01*
X137031486Y-77697179D01*
X137033601Y-77728232D01*
X137039725Y-77755874D01*
X137049527Y-77778782D01*
X137053520Y-77785089D01*
X137065567Y-77801268D01*
X137079385Y-77818190D01*
X137093755Y-77834516D01*
X137107455Y-77848908D01*
X137119265Y-77860026D01*
X137127572Y-77866307D01*
X137142795Y-77875229D01*
X137265847Y-77874934D01*
X137304162Y-77874738D01*
X137335527Y-77874346D01*
X137360246Y-77873745D01*
X137378624Y-77872926D01*
X137390965Y-77871878D01*
X137397575Y-77870591D01*
X137398046Y-77870398D01*
X137408198Y-77864945D01*
X137414887Y-77860649D01*
X137420632Y-77855407D01*
X137429675Y-77845863D01*
X137441001Y-77833222D01*
X137453590Y-77818691D01*
X137466428Y-77803475D01*
X137478495Y-77788781D01*
X137488777Y-77775814D01*
X137496254Y-77765780D01*
X137499911Y-77759886D01*
X137499951Y-77759785D01*
X137502545Y-77747357D01*
X137503010Y-77731461D01*
X137501450Y-77715531D01*
X137498258Y-77703662D01*
X137490015Y-77690596D01*
X137478862Y-77681381D01*
X137466513Y-77676940D01*
X137454684Y-77678199D01*
X137452704Y-77679123D01*
X137447952Y-77683065D01*
X137439519Y-77691425D01*
X137428450Y-77703115D01*
X137415792Y-77717046D01*
X137410737Y-77722754D01*
X137375575Y-77762743D01*
X137267724Y-77762743D01*
X137234429Y-77762661D01*
X137207795Y-77762398D01*
X137187229Y-77761930D01*
X137172137Y-77761235D01*
X137161923Y-77760288D01*
X137155995Y-77759065D01*
X137154270Y-77758207D01*
X137149746Y-77753680D01*
X137142538Y-77745592D01*
X137133937Y-77735500D01*
X137125233Y-77724963D01*
X137117720Y-77715539D01*
X137112687Y-77708788D01*
X137111314Y-77706373D01*
X137114261Y-77704009D01*
X137121838Y-77699602D01*
X137128645Y-77696026D01*
X137133377Y-77693721D01*
X137138089Y-77691837D01*
X137143574Y-77690311D01*
X137150624Y-77689080D01*
X137160033Y-77688080D01*
X137172592Y-77687248D01*
X137189095Y-77686520D01*
X137210334Y-77685833D01*
X137237102Y-77685123D01*
X137270191Y-77684327D01*
X137276802Y-77684172D01*
X137407628Y-77681100D01*
X137436013Y-77666586D01*
X137457588Y-77654385D01*
X137473445Y-77642400D01*
X137484967Y-77629365D01*
X137493541Y-77614014D01*
X137493542Y-77614012D01*
X137499452Y-77594528D01*
X137502431Y-77570772D01*
X137502550Y-77545079D01*
X137499882Y-77519783D01*
X137494497Y-77497221D01*
X137489589Y-77485157D01*
X137485242Y-77478109D01*
X137477455Y-77466923D01*
X137467324Y-77453127D01*
X137455945Y-77438249D01*
X137455739Y-77437986D01*
X137436119Y-77414585D01*
X137418582Y-77397463D01*
X137402556Y-77386143D01*
X137387466Y-77380153D01*
X137385274Y-77379690D01*
X137378899Y-77379199D01*
X137366253Y-77378823D01*
X137348320Y-77378571D01*
X137326087Y-77378448D01*
X137300539Y-77378463D01*
G36*
X135498362Y-77387025D02*
G01*
X135488876Y-77394487D01*
X135476787Y-77406805D01*
X135463019Y-77422729D01*
X135448495Y-77441005D01*
X135434137Y-77460381D01*
X135420870Y-77479606D01*
X135409617Y-77497426D01*
X135401300Y-77512591D01*
X135396844Y-77523847D01*
X135396577Y-77525062D01*
X135395544Y-77542869D01*
X135398555Y-77560178D01*
X135404883Y-77575531D01*
X135413803Y-77587470D01*
X135424589Y-77594535D01*
X135431788Y-77595829D01*
X135442067Y-77594644D01*
X135449313Y-77592262D01*
X135453642Y-77588172D01*
X135461213Y-77579228D01*
X135471140Y-77566546D01*
X135482538Y-77551242D01*
X135489186Y-77542009D01*
X135522394Y-77495323D01*
X135566310Y-77492961D01*
X135585821Y-77492130D01*
X135610033Y-77491426D01*
X135636392Y-77490908D01*
X135662341Y-77490631D01*
X135673041Y-77490600D01*
X135735857Y-77490600D01*
X135749768Y-77509650D01*
X135759770Y-77523440D01*
X135770409Y-77538243D01*
X135776189Y-77546358D01*
X135788700Y-77564016D01*
X135788098Y-77628724D01*
X135787497Y-77693432D01*
X135763298Y-77728141D01*
X135739098Y-77762850D01*
X135631538Y-77761889D01*
X135523977Y-77760929D01*
X135507567Y-77738666D01*
X135496925Y-77724194D01*
X135484627Y-77707420D01*
X135473289Y-77691910D01*
X135473014Y-77691533D01*
X135463298Y-77679308D01*
X135453680Y-77669028D01*
X135445898Y-77662506D01*
X135444397Y-77661653D01*
X135431875Y-77659112D01*
X135420000Y-77662901D01*
X135409583Y-77672099D01*
X135401436Y-77685780D01*
X135396370Y-77703021D01*
X135395080Y-77717827D01*
X135395522Y-77727574D01*
X135397479Y-77736162D01*
X135401752Y-77745628D01*
X135409144Y-77758011D01*
X135413650Y-77764999D01*
X135424214Y-77780741D01*
X135437127Y-77799321D01*
X135450336Y-77817810D01*
X135456807Y-77826639D01*
X135465900Y-77838930D01*
X135473718Y-77848955D01*
X135481096Y-77856944D01*
X135488866Y-77863126D01*
X135497865Y-77867730D01*
X135508927Y-77870986D01*
X135522886Y-77873124D01*
X135540577Y-77874373D01*
X135562834Y-77874963D01*
X135590492Y-77875122D01*
X135624385Y-77875082D01*
X135632910Y-77875068D01*
X135665722Y-77875001D01*
X135692094Y-77874866D01*
X135712843Y-77874619D01*
X135728786Y-77874214D01*
X135740740Y-77873606D01*
X135749522Y-77872752D01*
X135755948Y-77871604D01*
X135760836Y-77870120D01*
X135765003Y-77868253D01*
X135765995Y-77867738D01*
X135776176Y-77860170D01*
X135788739Y-77847501D01*
X135802705Y-77831065D01*
X135817096Y-77812195D01*
X135830933Y-77792221D01*
X135843238Y-77772478D01*
X135853031Y-77754297D01*
X135858306Y-77742034D01*
X135860940Y-77734399D01*
X135862960Y-77727127D01*
X135864445Y-77719134D01*
X135865478Y-77709333D01*
X135866141Y-77696638D01*
X135866513Y-77679962D01*
X135866677Y-77658221D01*
X135866714Y-77630327D01*
X135866714Y-77629786D01*
X135866617Y-77599706D01*
X135866290Y-77575888D01*
X135865680Y-77557338D01*
X135864735Y-77543062D01*
X135863401Y-77532069D01*
X135861627Y-77523364D01*
X135860916Y-77520756D01*
X135855916Y-77508368D01*
X135847295Y-77491922D01*
X135836037Y-77472970D01*
X135823126Y-77453062D01*
X135809546Y-77433749D01*
X135796282Y-77416583D01*
X135790476Y-77409743D01*
X135783622Y-77401990D01*
X135777579Y-77395714D01*
X135771518Y-77390750D01*
X135764608Y-77386935D01*
X135756021Y-77384105D01*
X135744926Y-77382097D01*
X135730495Y-77380747D01*
X135711898Y-77379890D01*
X135688305Y-77379365D01*
X135658887Y-77379006D01*
X135633442Y-77378757D01*
X135514469Y-77377585D01*
X135498362Y-77387025D01*
G37*
X135498362Y-77387025D02*
X135488876Y-77394487D01*
X135476787Y-77406805D01*
X135463019Y-77422729D01*
X135448495Y-77441005D01*
X135434137Y-77460381D01*
X135420870Y-77479606D01*
X135409617Y-77497426D01*
X135401300Y-77512591D01*
X135396844Y-77523847D01*
X135396577Y-77525062D01*
X135395544Y-77542869D01*
X135398555Y-77560178D01*
X135404883Y-77575531D01*
X135413803Y-77587470D01*
X135424589Y-77594535D01*
X135431788Y-77595829D01*
X135442067Y-77594644D01*
X135449313Y-77592262D01*
X135453642Y-77588172D01*
X135461213Y-77579228D01*
X135471140Y-77566546D01*
X135482538Y-77551242D01*
X135489186Y-77542009D01*
X135522394Y-77495323D01*
X135566310Y-77492961D01*
X135585821Y-77492130D01*
X135610033Y-77491426D01*
X135636392Y-77490908D01*
X135662341Y-77490631D01*
X135673041Y-77490600D01*
X135735857Y-77490600D01*
X135749768Y-77509650D01*
X135759770Y-77523440D01*
X135770409Y-77538243D01*
X135776189Y-77546358D01*
X135788700Y-77564016D01*
X135788098Y-77628724D01*
X135787497Y-77693432D01*
X135763298Y-77728141D01*
X135739098Y-77762850D01*
X135631538Y-77761889D01*
X135523977Y-77760929D01*
X135507567Y-77738666D01*
X135496925Y-77724194D01*
X135484627Y-77707420D01*
X135473289Y-77691910D01*
X135473014Y-77691533D01*
X135463298Y-77679308D01*
X135453680Y-77669028D01*
X135445898Y-77662506D01*
X135444397Y-77661653D01*
X135431875Y-77659112D01*
X135420000Y-77662901D01*
X135409583Y-77672099D01*
X135401436Y-77685780D01*
X135396370Y-77703021D01*
X135395080Y-77717827D01*
X135395522Y-77727574D01*
X135397479Y-77736162D01*
X135401752Y-77745628D01*
X135409144Y-77758011D01*
X135413650Y-77764999D01*
X135424214Y-77780741D01*
X135437127Y-77799321D01*
X135450336Y-77817810D01*
X135456807Y-77826639D01*
X135465900Y-77838930D01*
X135473718Y-77848955D01*
X135481096Y-77856944D01*
X135488866Y-77863126D01*
X135497865Y-77867730D01*
X135508927Y-77870986D01*
X135522886Y-77873124D01*
X135540577Y-77874373D01*
X135562834Y-77874963D01*
X135590492Y-77875122D01*
X135624385Y-77875082D01*
X135632910Y-77875068D01*
X135665722Y-77875001D01*
X135692094Y-77874866D01*
X135712843Y-77874619D01*
X135728786Y-77874214D01*
X135740740Y-77873606D01*
X135749522Y-77872752D01*
X135755948Y-77871604D01*
X135760836Y-77870120D01*
X135765003Y-77868253D01*
X135765995Y-77867738D01*
X135776176Y-77860170D01*
X135788739Y-77847501D01*
X135802705Y-77831065D01*
X135817096Y-77812195D01*
X135830933Y-77792221D01*
X135843238Y-77772478D01*
X135853031Y-77754297D01*
X135858306Y-77742034D01*
X135860940Y-77734399D01*
X135862960Y-77727127D01*
X135864445Y-77719134D01*
X135865478Y-77709333D01*
X135866141Y-77696638D01*
X135866513Y-77679962D01*
X135866677Y-77658221D01*
X135866714Y-77630327D01*
X135866714Y-77629786D01*
X135866617Y-77599706D01*
X135866290Y-77575888D01*
X135865680Y-77557338D01*
X135864735Y-77543062D01*
X135863401Y-77532069D01*
X135861627Y-77523364D01*
X135860916Y-77520756D01*
X135855916Y-77508368D01*
X135847295Y-77491922D01*
X135836037Y-77472970D01*
X135823126Y-77453062D01*
X135809546Y-77433749D01*
X135796282Y-77416583D01*
X135790476Y-77409743D01*
X135783622Y-77401990D01*
X135777579Y-77395714D01*
X135771518Y-77390750D01*
X135764608Y-77386935D01*
X135756021Y-77384105D01*
X135744926Y-77382097D01*
X135730495Y-77380747D01*
X135711898Y-77379890D01*
X135688305Y-77379365D01*
X135658887Y-77379006D01*
X135633442Y-77378757D01*
X135514469Y-77377585D01*
X135498362Y-77387025D01*
G36*
X134992698Y-77153535D02*
G01*
X134965367Y-77167560D01*
X134943841Y-77178736D01*
X134927444Y-77187480D01*
X134915497Y-77194205D01*
X134907325Y-77199329D01*
X134902250Y-77203265D01*
X134899596Y-77206429D01*
X134898686Y-77209238D01*
X134898722Y-77211200D01*
X134899700Y-77220272D01*
X136637786Y-77220332D01*
X136752180Y-77220332D01*
X136865766Y-77220324D01*
X136978274Y-77220308D01*
X137089437Y-77220285D01*
X137198985Y-77220255D01*
X137306650Y-77220218D01*
X137412162Y-77220174D01*
X137515254Y-77220124D01*
X137615657Y-77220067D01*
X137713102Y-77220005D01*
X137807320Y-77219937D01*
X137898043Y-77219863D01*
X137985002Y-77219784D01*
X138067927Y-77219700D01*
X138146552Y-77219611D01*
X138220607Y-77219518D01*
X138289822Y-77219421D01*
X138353931Y-77219319D01*
X138412663Y-77219214D01*
X138465750Y-77219106D01*
X138512924Y-77218994D01*
X138553916Y-77218879D01*
X138588457Y-77218761D01*
X138616278Y-77218640D01*
X138637111Y-77218518D01*
X138637128Y-77218518D01*
X138898386Y-77216643D01*
X138978364Y-77179910D01*
X139009000Y-77165834D01*
X139033647Y-77154436D01*
X139052904Y-77145355D01*
X139067370Y-77138226D01*
X139077645Y-77132685D01*
X139084328Y-77128369D01*
X139088017Y-77124914D01*
X139089313Y-77121956D01*
X139088813Y-77119131D01*
X139087118Y-77116076D01*
X139086109Y-77114503D01*
X139084064Y-77114182D01*
X139078262Y-77113870D01*
X139068577Y-77113568D01*
X139054883Y-77113275D01*
X139037054Y-77112990D01*
X139014963Y-77112713D01*
X138988483Y-77112444D01*
X138957489Y-77112182D01*
X138921854Y-77111927D01*
X138881452Y-77111678D01*
X138836156Y-77111435D01*
X138785840Y-77111198D01*
X138730379Y-77110965D01*
X138669644Y-77110737D01*
X138603511Y-77110514D01*
X138531853Y-77110294D01*
X138454543Y-77110077D01*
X138371456Y-77109863D01*
X138282465Y-77109652D01*
X138187443Y-77109443D01*
X138086264Y-77109235D01*
X137978802Y-77109028D01*
X137864931Y-77108822D01*
X137744524Y-77108617D01*
X137617456Y-77108411D01*
X137483598Y-77108205D01*
X137342827Y-77107997D01*
X137195014Y-77107788D01*
X137085547Y-77107639D01*
X135087652Y-77104942D01*
X134992698Y-77153535D01*
G37*
X134992698Y-77153535D02*
X134965367Y-77167560D01*
X134943841Y-77178736D01*
X134927444Y-77187480D01*
X134915497Y-77194205D01*
X134907325Y-77199329D01*
X134902250Y-77203265D01*
X134899596Y-77206429D01*
X134898686Y-77209238D01*
X134898722Y-77211200D01*
X134899700Y-77220272D01*
X136637786Y-77220332D01*
X136752180Y-77220332D01*
X136865766Y-77220324D01*
X136978274Y-77220308D01*
X137089437Y-77220285D01*
X137198985Y-77220255D01*
X137306650Y-77220218D01*
X137412162Y-77220174D01*
X137515254Y-77220124D01*
X137615657Y-77220067D01*
X137713102Y-77220005D01*
X137807320Y-77219937D01*
X137898043Y-77219863D01*
X137985002Y-77219784D01*
X138067927Y-77219700D01*
X138146552Y-77219611D01*
X138220607Y-77219518D01*
X138289822Y-77219421D01*
X138353931Y-77219319D01*
X138412663Y-77219214D01*
X138465750Y-77219106D01*
X138512924Y-77218994D01*
X138553916Y-77218879D01*
X138588457Y-77218761D01*
X138616278Y-77218640D01*
X138637111Y-77218518D01*
X138637128Y-77218518D01*
X138898386Y-77216643D01*
X138978364Y-77179910D01*
X139009000Y-77165834D01*
X139033647Y-77154436D01*
X139052904Y-77145355D01*
X139067370Y-77138226D01*
X139077645Y-77132685D01*
X139084328Y-77128369D01*
X139088017Y-77124914D01*
X139089313Y-77121956D01*
X139088813Y-77119131D01*
X139087118Y-77116076D01*
X139086109Y-77114503D01*
X139084064Y-77114182D01*
X139078262Y-77113870D01*
X139068577Y-77113568D01*
X139054883Y-77113275D01*
X139037054Y-77112990D01*
X139014963Y-77112713D01*
X138988483Y-77112444D01*
X138957489Y-77112182D01*
X138921854Y-77111927D01*
X138881452Y-77111678D01*
X138836156Y-77111435D01*
X138785840Y-77111198D01*
X138730379Y-77110965D01*
X138669644Y-77110737D01*
X138603511Y-77110514D01*
X138531853Y-77110294D01*
X138454543Y-77110077D01*
X138371456Y-77109863D01*
X138282465Y-77109652D01*
X138187443Y-77109443D01*
X138086264Y-77109235D01*
X137978802Y-77109028D01*
X137864931Y-77108822D01*
X137744524Y-77108617D01*
X137617456Y-77108411D01*
X137483598Y-77108205D01*
X137342827Y-77107997D01*
X137195014Y-77107788D01*
X137085547Y-77107639D01*
X135087652Y-77104942D01*
X134992698Y-77153535D01*
G36*
X138413549Y-74953224D02*
G01*
X138383330Y-74954514D01*
X138358117Y-74956488D01*
X138352286Y-74957154D01*
X138267141Y-74971252D01*
X138183973Y-74992030D01*
X138103266Y-75019293D01*
X138025503Y-75052849D01*
X137951169Y-75092504D01*
X137880747Y-75138066D01*
X137858637Y-75154222D01*
X137840382Y-75168354D01*
X137821266Y-75183809D01*
X137803503Y-75198759D01*
X137789311Y-75211376D01*
X137788787Y-75211863D01*
X137775730Y-75224426D01*
X137767351Y-75233594D01*
X137762732Y-75240589D01*
X137760952Y-75246632D01*
X137760828Y-75248954D01*
X137761377Y-75252404D01*
X137763338Y-75256715D01*
X137767189Y-75262417D01*
X137773405Y-75270042D01*
X137782461Y-75280120D01*
X137794835Y-75293181D01*
X137811001Y-75309756D01*
X137831436Y-75330377D01*
X137854863Y-75353824D01*
X137880031Y-75378876D01*
X137900645Y-75399194D01*
X137917217Y-75415239D01*
X137930260Y-75427471D01*
X137940286Y-75436351D01*
X137947807Y-75442342D01*
X137953335Y-75445903D01*
X137957384Y-75447496D01*
X137959185Y-75447700D01*
X137966330Y-75445947D01*
X137976489Y-75440384D01*
X137990434Y-75430534D01*
X138003943Y-75419963D01*
X138064856Y-75375285D01*
X138128048Y-75337273D01*
X138193216Y-75305996D01*
X138260054Y-75281517D01*
X138328259Y-75263903D01*
X138397527Y-75253220D01*
X138467553Y-75249533D01*
X138538034Y-75252909D01*
X138608666Y-75263413D01*
X138664836Y-75276924D01*
X138732019Y-75299233D01*
X138794943Y-75327194D01*
X138854172Y-75361134D01*
X138910269Y-75401380D01*
X138963800Y-75448259D01*
X138968608Y-75452909D01*
X139018892Y-75506548D01*
X139062554Y-75563023D01*
X139099752Y-75622584D01*
X139130647Y-75685482D01*
X139152354Y-75742614D01*
X139171815Y-75812355D01*
X139184171Y-75882673D01*
X139189500Y-75953128D01*
X139187881Y-76023279D01*
X139179396Y-76092686D01*
X139164122Y-76160908D01*
X139142140Y-76227505D01*
X139113529Y-76292038D01*
X139078368Y-76354064D01*
X139036737Y-76413144D01*
X139029730Y-76421986D01*
X139012748Y-76441729D01*
X138991785Y-76464020D01*
X138968553Y-76487197D01*
X138944763Y-76509600D01*
X138922128Y-76529567D01*
X138903100Y-76544881D01*
X138845092Y-76584221D01*
X138783653Y-76617753D01*
X138719551Y-76645194D01*
X138653554Y-76666260D01*
X138586428Y-76680668D01*
X138518942Y-76688133D01*
X138514990Y-76688349D01*
X138458275Y-76689697D01*
X138405253Y-76687449D01*
X138354141Y-76681317D01*
X138303152Y-76671015D01*
X138250503Y-76656255D01*
X138194443Y-76636762D01*
X138138737Y-76613981D01*
X138089913Y-76589993D01*
X138047648Y-76564465D01*
X138011620Y-76537064D01*
X137981507Y-76507456D01*
X137956985Y-76475309D01*
X137937733Y-76440289D01*
X137923427Y-76402063D01*
X137913746Y-76360299D01*
X137911326Y-76344294D01*
X137909055Y-76324071D01*
X137908551Y-76309818D01*
X137909950Y-76300433D01*
X137913384Y-76294816D01*
X137917663Y-76292304D01*
X137921919Y-76293128D01*
X137932330Y-76296155D01*
X137948212Y-76301158D01*
X137968881Y-76307912D01*
X137993654Y-76316190D01*
X138021847Y-76325766D01*
X138052777Y-76336413D01*
X138085760Y-76347905D01*
X138087400Y-76348480D01*
X138126835Y-76362298D01*
X138160001Y-76373841D01*
X138187477Y-76383239D01*
X138209844Y-76390617D01*
X138227681Y-76396103D01*
X138241566Y-76399824D01*
X138252081Y-76401907D01*
X138259804Y-76402479D01*
X138265316Y-76401667D01*
X138269194Y-76399599D01*
X138272021Y-76396400D01*
X138274374Y-76392200D01*
X138275565Y-76389740D01*
X138278596Y-76380185D01*
X138276813Y-76371391D01*
X138276203Y-76369993D01*
X138273749Y-76365678D01*
X138267815Y-76355752D01*
X138258684Y-76340675D01*
X138246639Y-76320905D01*
X138231963Y-76296902D01*
X138214939Y-76269125D01*
X138195853Y-76238032D01*
X138174985Y-76204082D01*
X138152621Y-76167734D01*
X138129043Y-76129448D01*
X138104535Y-76089682D01*
X138079380Y-76048895D01*
X138053861Y-76007546D01*
X138028263Y-75966094D01*
X138002868Y-75924998D01*
X137977959Y-75884717D01*
X137953821Y-75845710D01*
X137930736Y-75808436D01*
X137908989Y-75773353D01*
X137888861Y-75740922D01*
X137870637Y-75711599D01*
X137854601Y-75685846D01*
X137841035Y-75664120D01*
X137830222Y-75646880D01*
X137822447Y-75634586D01*
X137817993Y-75627696D01*
X137817003Y-75626334D01*
X137815153Y-75629563D01*
X137809972Y-75638730D01*
X137801680Y-75653441D01*
X137790497Y-75673306D01*
X137776645Y-75697932D01*
X137760342Y-75726927D01*
X137741809Y-75759900D01*
X137721267Y-75796459D01*
X137698936Y-75836212D01*
X137675035Y-75878767D01*
X137649786Y-75923732D01*
X137623409Y-75970715D01*
X137607063Y-75999834D01*
X137571175Y-76063846D01*
X137538844Y-76121673D01*
X137510012Y-76173422D01*
X137484621Y-76219201D01*
X137462613Y-76259115D01*
X137443929Y-76293272D01*
X137428510Y-76321780D01*
X137416299Y-76344744D01*
X137407236Y-76362273D01*
X137401263Y-76374473D01*
X137398323Y-76381451D01*
X137397971Y-76382993D01*
X137400907Y-76395112D01*
X137409127Y-76402718D01*
X137421752Y-76405127D01*
X137426011Y-76404770D01*
X137432301Y-76403123D01*
X137444587Y-76399191D01*
X137462079Y-76393254D01*
X137483984Y-76385590D01*
X137509510Y-76376478D01*
X137537864Y-76366196D01*
X137568255Y-76355022D01*
X137582782Y-76349630D01*
X137613663Y-76338170D01*
X137642705Y-76327465D01*
X137669145Y-76317792D01*
X137692218Y-76309428D01*
X137711158Y-76302647D01*
X137725203Y-76297728D01*
X137733587Y-76294947D01*
X137735385Y-76294450D01*
X137743093Y-76293715D01*
X137748255Y-76295692D01*
X137751038Y-76301234D01*
X137751611Y-76311191D01*
X137750140Y-76326416D01*
X137746794Y-76347762D01*
X137746360Y-76350276D01*
X137738275Y-76393195D01*
X137729771Y-76430322D01*
X137720408Y-76463121D01*
X137709745Y-76493057D01*
X137697343Y-76521595D01*
X137691027Y-76534472D01*
X137667641Y-76575892D01*
X137642530Y-76610724D01*
X137614953Y-76639569D01*
X137584170Y-76663028D01*
X137549441Y-76681702D01*
X137510026Y-76696192D01*
X137483243Y-76703262D01*
X137474387Y-76704549D01*
X137459582Y-76705842D01*
X137440134Y-76707064D01*
X137417349Y-76708138D01*
X137392535Y-76708989D01*
X137379828Y-76709305D01*
X137350767Y-76709843D01*
X137327816Y-76710024D01*
X137309835Y-76709805D01*
X137295686Y-76709146D01*
X137284229Y-76708006D01*
X137274323Y-76706344D01*
X137269778Y-76705347D01*
X137225562Y-76691356D01*
X137183183Y-76670857D01*
X137143340Y-76644512D01*
X137106731Y-76612978D01*
X137074054Y-76576918D01*
X137046008Y-76536991D01*
X137023292Y-76493856D01*
X137010266Y-76460086D01*
X137005902Y-76445374D01*
X137001045Y-76426843D01*
X136996547Y-76407804D01*
X136995298Y-76402029D01*
X136994432Y-76397776D01*
X136993637Y-76393407D01*
X136992912Y-76388604D01*
X136992252Y-76383052D01*
X136991654Y-76376433D01*
X136991116Y-76368431D01*
X136990634Y-76358729D01*
X136990206Y-76347010D01*
X136989827Y-76332959D01*
X136989495Y-76316258D01*
X136989206Y-76296590D01*
X136988958Y-76273639D01*
X136988748Y-76247089D01*
X136988571Y-76216622D01*
X136988426Y-76181923D01*
X136988308Y-76142673D01*
X136988216Y-76098558D01*
X136988145Y-76049260D01*
X136988092Y-75994462D01*
X136988055Y-75933848D01*
X136988030Y-75867101D01*
X136988014Y-75793904D01*
X136988004Y-75713942D01*
X136988000Y-75666898D01*
X136987991Y-75583059D01*
X136987977Y-75506174D01*
X136987955Y-75435939D01*
X136987923Y-75372051D01*
X136987876Y-75314206D01*
X136987814Y-75262100D01*
X136987731Y-75215430D01*
X136987626Y-75173893D01*
X136987496Y-75137184D01*
X136987338Y-75105001D01*
X136987149Y-75077041D01*
X136986926Y-75052998D01*
X136986667Y-75032570D01*
X136986368Y-75015454D01*
X136986026Y-75001346D01*
X136985639Y-74989941D01*
X136985204Y-74980938D01*
X136984717Y-74974032D01*
X136984177Y-74968920D01*
X136983580Y-74965298D01*
X136982923Y-74962862D01*
X136982203Y-74961310D01*
X136981419Y-74960338D01*
X136981307Y-74960234D01*
X136978866Y-74958602D01*
X136975033Y-74957291D01*
X136969064Y-74956267D01*
X136960215Y-74955496D01*
X136947741Y-74954944D01*
X136930898Y-74954575D01*
X136908941Y-74954356D01*
X136881126Y-74954252D01*
X136851241Y-74954229D01*
X136818057Y-74954241D01*
X136791370Y-74954307D01*
X136770422Y-74954473D01*
X136754453Y-74954781D01*
X136742703Y-74955277D01*
X136734412Y-74956006D01*
X136728822Y-74957011D01*
X136725172Y-74958337D01*
X136722704Y-74960030D01*
X136720898Y-74961866D01*
X136719873Y-74963175D01*
X136718954Y-74964972D01*
X136718132Y-74967640D01*
X136717403Y-74971565D01*
X136716760Y-74977129D01*
X136716195Y-74984715D01*
X136715702Y-74994709D01*
X136715274Y-75007493D01*
X136714906Y-75023452D01*
X136714589Y-75042969D01*
X136714319Y-75066428D01*
X136714087Y-75094213D01*
X136713887Y-75126707D01*
X136713714Y-75164295D01*
X136713559Y-75207359D01*
X136713417Y-75256285D01*
X136713281Y-75311455D01*
X136713144Y-75373253D01*
X136713053Y-75416344D01*
X136712956Y-75479721D01*
X136712921Y-75545741D01*
X136712946Y-75613500D01*
X136713027Y-75682092D01*
X136713162Y-75750613D01*
X136713348Y-75818158D01*
X136713582Y-75883820D01*
X136713861Y-75946697D01*
X136714183Y-76005881D01*
X136714544Y-76060469D01*
X136714942Y-76109554D01*
X136715347Y-76149843D01*
X136715950Y-76203803D01*
X136716494Y-76251080D01*
X136717024Y-76292249D01*
X136717581Y-76327883D01*
X136718211Y-76358556D01*
X136718957Y-76384843D01*
X136719863Y-76407317D01*
X136720972Y-76426552D01*
X136722328Y-76443122D01*
X136723976Y-76457601D01*
X136725958Y-76470563D01*
X136728319Y-76482581D01*
X136731102Y-76494231D01*
X136734350Y-76506085D01*
X136738109Y-76518718D01*
X136742421Y-76532704D01*
X136745213Y-76541729D01*
X136767517Y-76601926D01*
X136796335Y-76659812D01*
X136831144Y-76714844D01*
X136871420Y-76766481D01*
X136916640Y-76814177D01*
X136966280Y-76857392D01*
X137019815Y-76895581D01*
X137076723Y-76928202D01*
X137136480Y-76954711D01*
X137147600Y-76958829D01*
X137202173Y-76975353D01*
X137260353Y-76987352D01*
X137320211Y-76994621D01*
X137379822Y-76996956D01*
X137437256Y-76994152D01*
X137457843Y-76991734D01*
X137526686Y-76978748D01*
X137592359Y-76959234D01*
X137654874Y-76933185D01*
X137714245Y-76900597D01*
X137770484Y-76861462D01*
X137823004Y-76816344D01*
X137835385Y-76804790D01*
X137845869Y-76795336D01*
X137853344Y-76788965D01*
X137856685Y-76786657D01*
X137860496Y-76788607D01*
X137868788Y-76793839D01*
X137880124Y-76801430D01*
X137887038Y-76806207D01*
X137953538Y-76848521D01*
X138024827Y-76886166D01*
X138099753Y-76918640D01*
X138177167Y-76945444D01*
X138254314Y-76965725D01*
X138336396Y-76980235D01*
X138419714Y-76987773D01*
X138503649Y-76988379D01*
X138587586Y-76982097D01*
X138670907Y-76968971D01*
X138752996Y-76949044D01*
X138823531Y-76925987D01*
X138866664Y-76908434D01*
X138912815Y-76886664D01*
X138960119Y-76861730D01*
X139006710Y-76834687D01*
X139050721Y-76806588D01*
X139090285Y-76778488D01*
X139105214Y-76766870D01*
X139167596Y-76712289D01*
X139225493Y-76652531D01*
X139278539Y-76588188D01*
X139326367Y-76519855D01*
X139368610Y-76448123D01*
X139404903Y-76373586D01*
X139434877Y-76296838D01*
X139458168Y-76218470D01*
X139466459Y-76182410D01*
X139479160Y-76106209D01*
X139486207Y-76027395D01*
X139487571Y-75947726D01*
X139483219Y-75868959D01*
X139473317Y-75793981D01*
X139455354Y-75711445D01*
X139430666Y-75631195D01*
X139399529Y-75553598D01*
X139362218Y-75479025D01*
X139319008Y-75407844D01*
X139270174Y-75340425D01*
X139215991Y-75277136D01*
X139156735Y-75218347D01*
X139092680Y-75164427D01*
X139024102Y-75115746D01*
X138951276Y-75072671D01*
X138925825Y-75059483D01*
X138847951Y-75024232D01*
X138769003Y-74995970D01*
X138688127Y-74974431D01*
X138604468Y-74959349D01*
X138602657Y-74959098D01*
X138578903Y-74956565D01*
X138549725Y-74954636D01*
X138516863Y-74953324D01*
X138482054Y-74952642D01*
X138447037Y-74952604D01*
X138413549Y-74953224D01*
G37*
X138413549Y-74953224D02*
X138383330Y-74954514D01*
X138358117Y-74956488D01*
X138352286Y-74957154D01*
X138267141Y-74971252D01*
X138183973Y-74992030D01*
X138103266Y-75019293D01*
X138025503Y-75052849D01*
X137951169Y-75092504D01*
X137880747Y-75138066D01*
X137858637Y-75154222D01*
X137840382Y-75168354D01*
X137821266Y-75183809D01*
X137803503Y-75198759D01*
X137789311Y-75211376D01*
X137788787Y-75211863D01*
X137775730Y-75224426D01*
X137767351Y-75233594D01*
X137762732Y-75240589D01*
X137760952Y-75246632D01*
X137760828Y-75248954D01*
X137761377Y-75252404D01*
X137763338Y-75256715D01*
X137767189Y-75262417D01*
X137773405Y-75270042D01*
X137782461Y-75280120D01*
X137794835Y-75293181D01*
X137811001Y-75309756D01*
X137831436Y-75330377D01*
X137854863Y-75353824D01*
X137880031Y-75378876D01*
X137900645Y-75399194D01*
X137917217Y-75415239D01*
X137930260Y-75427471D01*
X137940286Y-75436351D01*
X137947807Y-75442342D01*
X137953335Y-75445903D01*
X137957384Y-75447496D01*
X137959185Y-75447700D01*
X137966330Y-75445947D01*
X137976489Y-75440384D01*
X137990434Y-75430534D01*
X138003943Y-75419963D01*
X138064856Y-75375285D01*
X138128048Y-75337273D01*
X138193216Y-75305996D01*
X138260054Y-75281517D01*
X138328259Y-75263903D01*
X138397527Y-75253220D01*
X138467553Y-75249533D01*
X138538034Y-75252909D01*
X138608666Y-75263413D01*
X138664836Y-75276924D01*
X138732019Y-75299233D01*
X138794943Y-75327194D01*
X138854172Y-75361134D01*
X138910269Y-75401380D01*
X138963800Y-75448259D01*
X138968608Y-75452909D01*
X139018892Y-75506548D01*
X139062554Y-75563023D01*
X139099752Y-75622584D01*
X139130647Y-75685482D01*
X139152354Y-75742614D01*
X139171815Y-75812355D01*
X139184171Y-75882673D01*
X139189500Y-75953128D01*
X139187881Y-76023279D01*
X139179396Y-76092686D01*
X139164122Y-76160908D01*
X139142140Y-76227505D01*
X139113529Y-76292038D01*
X139078368Y-76354064D01*
X139036737Y-76413144D01*
X139029730Y-76421986D01*
X139012748Y-76441729D01*
X138991785Y-76464020D01*
X138968553Y-76487197D01*
X138944763Y-76509600D01*
X138922128Y-76529567D01*
X138903100Y-76544881D01*
X138845092Y-76584221D01*
X138783653Y-76617753D01*
X138719551Y-76645194D01*
X138653554Y-76666260D01*
X138586428Y-76680668D01*
X138518942Y-76688133D01*
X138514990Y-76688349D01*
X138458275Y-76689697D01*
X138405253Y-76687449D01*
X138354141Y-76681317D01*
X138303152Y-76671015D01*
X138250503Y-76656255D01*
X138194443Y-76636762D01*
X138138737Y-76613981D01*
X138089913Y-76589993D01*
X138047648Y-76564465D01*
X138011620Y-76537064D01*
X137981507Y-76507456D01*
X137956985Y-76475309D01*
X137937733Y-76440289D01*
X137923427Y-76402063D01*
X137913746Y-76360299D01*
X137911326Y-76344294D01*
X137909055Y-76324071D01*
X137908551Y-76309818D01*
X137909950Y-76300433D01*
X137913384Y-76294816D01*
X137917663Y-76292304D01*
X137921919Y-76293128D01*
X137932330Y-76296155D01*
X137948212Y-76301158D01*
X137968881Y-76307912D01*
X137993654Y-76316190D01*
X138021847Y-76325766D01*
X138052777Y-76336413D01*
X138085760Y-76347905D01*
X138087400Y-76348480D01*
X138126835Y-76362298D01*
X138160001Y-76373841D01*
X138187477Y-76383239D01*
X138209844Y-76390617D01*
X138227681Y-76396103D01*
X138241566Y-76399824D01*
X138252081Y-76401907D01*
X138259804Y-76402479D01*
X138265316Y-76401667D01*
X138269194Y-76399599D01*
X138272021Y-76396400D01*
X138274374Y-76392200D01*
X138275565Y-76389740D01*
X138278596Y-76380185D01*
X138276813Y-76371391D01*
X138276203Y-76369993D01*
X138273749Y-76365678D01*
X138267815Y-76355752D01*
X138258684Y-76340675D01*
X138246639Y-76320905D01*
X138231963Y-76296902D01*
X138214939Y-76269125D01*
X138195853Y-76238032D01*
X138174985Y-76204082D01*
X138152621Y-76167734D01*
X138129043Y-76129448D01*
X138104535Y-76089682D01*
X138079380Y-76048895D01*
X138053861Y-76007546D01*
X138028263Y-75966094D01*
X138002868Y-75924998D01*
X137977959Y-75884717D01*
X137953821Y-75845710D01*
X137930736Y-75808436D01*
X137908989Y-75773353D01*
X137888861Y-75740922D01*
X137870637Y-75711599D01*
X137854601Y-75685846D01*
X137841035Y-75664120D01*
X137830222Y-75646880D01*
X137822447Y-75634586D01*
X137817993Y-75627696D01*
X137817003Y-75626334D01*
X137815153Y-75629563D01*
X137809972Y-75638730D01*
X137801680Y-75653441D01*
X137790497Y-75673306D01*
X137776645Y-75697932D01*
X137760342Y-75726927D01*
X137741809Y-75759900D01*
X137721267Y-75796459D01*
X137698936Y-75836212D01*
X137675035Y-75878767D01*
X137649786Y-75923732D01*
X137623409Y-75970715D01*
X137607063Y-75999834D01*
X137571175Y-76063846D01*
X137538844Y-76121673D01*
X137510012Y-76173422D01*
X137484621Y-76219201D01*
X137462613Y-76259115D01*
X137443929Y-76293272D01*
X137428510Y-76321780D01*
X137416299Y-76344744D01*
X137407236Y-76362273D01*
X137401263Y-76374473D01*
X137398323Y-76381451D01*
X137397971Y-76382993D01*
X137400907Y-76395112D01*
X137409127Y-76402718D01*
X137421752Y-76405127D01*
X137426011Y-76404770D01*
X137432301Y-76403123D01*
X137444587Y-76399191D01*
X137462079Y-76393254D01*
X137483984Y-76385590D01*
X137509510Y-76376478D01*
X137537864Y-76366196D01*
X137568255Y-76355022D01*
X137582782Y-76349630D01*
X137613663Y-76338170D01*
X137642705Y-76327465D01*
X137669145Y-76317792D01*
X137692218Y-76309428D01*
X137711158Y-76302647D01*
X137725203Y-76297728D01*
X137733587Y-76294947D01*
X137735385Y-76294450D01*
X137743093Y-76293715D01*
X137748255Y-76295692D01*
X137751038Y-76301234D01*
X137751611Y-76311191D01*
X137750140Y-76326416D01*
X137746794Y-76347762D01*
X137746360Y-76350276D01*
X137738275Y-76393195D01*
X137729771Y-76430322D01*
X137720408Y-76463121D01*
X137709745Y-76493057D01*
X137697343Y-76521595D01*
X137691027Y-76534472D01*
X137667641Y-76575892D01*
X137642530Y-76610724D01*
X137614953Y-76639569D01*
X137584170Y-76663028D01*
X137549441Y-76681702D01*
X137510026Y-76696192D01*
X137483243Y-76703262D01*
X137474387Y-76704549D01*
X137459582Y-76705842D01*
X137440134Y-76707064D01*
X137417349Y-76708138D01*
X137392535Y-76708989D01*
X137379828Y-76709305D01*
X137350767Y-76709843D01*
X137327816Y-76710024D01*
X137309835Y-76709805D01*
X137295686Y-76709146D01*
X137284229Y-76708006D01*
X137274323Y-76706344D01*
X137269778Y-76705347D01*
X137225562Y-76691356D01*
X137183183Y-76670857D01*
X137143340Y-76644512D01*
X137106731Y-76612978D01*
X137074054Y-76576918D01*
X137046008Y-76536991D01*
X137023292Y-76493856D01*
X137010266Y-76460086D01*
X137005902Y-76445374D01*
X137001045Y-76426843D01*
X136996547Y-76407804D01*
X136995298Y-76402029D01*
X136994432Y-76397776D01*
X136993637Y-76393407D01*
X136992912Y-76388604D01*
X136992252Y-76383052D01*
X136991654Y-76376433D01*
X136991116Y-76368431D01*
X136990634Y-76358729D01*
X136990206Y-76347010D01*
X136989827Y-76332959D01*
X136989495Y-76316258D01*
X136989206Y-76296590D01*
X136988958Y-76273639D01*
X136988748Y-76247089D01*
X136988571Y-76216622D01*
X136988426Y-76181923D01*
X136988308Y-76142673D01*
X136988216Y-76098558D01*
X136988145Y-76049260D01*
X136988092Y-75994462D01*
X136988055Y-75933848D01*
X136988030Y-75867101D01*
X136988014Y-75793904D01*
X136988004Y-75713942D01*
X136988000Y-75666898D01*
X136987991Y-75583059D01*
X136987977Y-75506174D01*
X136987955Y-75435939D01*
X136987923Y-75372051D01*
X136987876Y-75314206D01*
X136987814Y-75262100D01*
X136987731Y-75215430D01*
X136987626Y-75173893D01*
X136987496Y-75137184D01*
X136987338Y-75105001D01*
X136987149Y-75077041D01*
X136986926Y-75052998D01*
X136986667Y-75032570D01*
X136986368Y-75015454D01*
X136986026Y-75001346D01*
X136985639Y-74989941D01*
X136985204Y-74980938D01*
X136984717Y-74974032D01*
X136984177Y-74968920D01*
X136983580Y-74965298D01*
X136982923Y-74962862D01*
X136982203Y-74961310D01*
X136981419Y-74960338D01*
X136981307Y-74960234D01*
X136978866Y-74958602D01*
X136975033Y-74957291D01*
X136969064Y-74956267D01*
X136960215Y-74955496D01*
X136947741Y-74954944D01*
X136930898Y-74954575D01*
X136908941Y-74954356D01*
X136881126Y-74954252D01*
X136851241Y-74954229D01*
X136818057Y-74954241D01*
X136791370Y-74954307D01*
X136770422Y-74954473D01*
X136754453Y-74954781D01*
X136742703Y-74955277D01*
X136734412Y-74956006D01*
X136728822Y-74957011D01*
X136725172Y-74958337D01*
X136722704Y-74960030D01*
X136720898Y-74961866D01*
X136719873Y-74963175D01*
X136718954Y-74964972D01*
X136718132Y-74967640D01*
X136717403Y-74971565D01*
X136716760Y-74977129D01*
X136716195Y-74984715D01*
X136715702Y-74994709D01*
X136715274Y-75007493D01*
X136714906Y-75023452D01*
X136714589Y-75042969D01*
X136714319Y-75066428D01*
X136714087Y-75094213D01*
X136713887Y-75126707D01*
X136713714Y-75164295D01*
X136713559Y-75207359D01*
X136713417Y-75256285D01*
X136713281Y-75311455D01*
X136713144Y-75373253D01*
X136713053Y-75416344D01*
X136712956Y-75479721D01*
X136712921Y-75545741D01*
X136712946Y-75613500D01*
X136713027Y-75682092D01*
X136713162Y-75750613D01*
X136713348Y-75818158D01*
X136713582Y-75883820D01*
X136713861Y-75946697D01*
X136714183Y-76005881D01*
X136714544Y-76060469D01*
X136714942Y-76109554D01*
X136715347Y-76149843D01*
X136715950Y-76203803D01*
X136716494Y-76251080D01*
X136717024Y-76292249D01*
X136717581Y-76327883D01*
X136718211Y-76358556D01*
X136718957Y-76384843D01*
X136719863Y-76407317D01*
X136720972Y-76426552D01*
X136722328Y-76443122D01*
X136723976Y-76457601D01*
X136725958Y-76470563D01*
X136728319Y-76482581D01*
X136731102Y-76494231D01*
X136734350Y-76506085D01*
X136738109Y-76518718D01*
X136742421Y-76532704D01*
X136745213Y-76541729D01*
X136767517Y-76601926D01*
X136796335Y-76659812D01*
X136831144Y-76714844D01*
X136871420Y-76766481D01*
X136916640Y-76814177D01*
X136966280Y-76857392D01*
X137019815Y-76895581D01*
X137076723Y-76928202D01*
X137136480Y-76954711D01*
X137147600Y-76958829D01*
X137202173Y-76975353D01*
X137260353Y-76987352D01*
X137320211Y-76994621D01*
X137379822Y-76996956D01*
X137437256Y-76994152D01*
X137457843Y-76991734D01*
X137526686Y-76978748D01*
X137592359Y-76959234D01*
X137654874Y-76933185D01*
X137714245Y-76900597D01*
X137770484Y-76861462D01*
X137823004Y-76816344D01*
X137835385Y-76804790D01*
X137845869Y-76795336D01*
X137853344Y-76788965D01*
X137856685Y-76786657D01*
X137860496Y-76788607D01*
X137868788Y-76793839D01*
X137880124Y-76801430D01*
X137887038Y-76806207D01*
X137953538Y-76848521D01*
X138024827Y-76886166D01*
X138099753Y-76918640D01*
X138177167Y-76945444D01*
X138254314Y-76965725D01*
X138336396Y-76980235D01*
X138419714Y-76987773D01*
X138503649Y-76988379D01*
X138587586Y-76982097D01*
X138670907Y-76968971D01*
X138752996Y-76949044D01*
X138823531Y-76925987D01*
X138866664Y-76908434D01*
X138912815Y-76886664D01*
X138960119Y-76861730D01*
X139006710Y-76834687D01*
X139050721Y-76806588D01*
X139090285Y-76778488D01*
X139105214Y-76766870D01*
X139167596Y-76712289D01*
X139225493Y-76652531D01*
X139278539Y-76588188D01*
X139326367Y-76519855D01*
X139368610Y-76448123D01*
X139404903Y-76373586D01*
X139434877Y-76296838D01*
X139458168Y-76218470D01*
X139466459Y-76182410D01*
X139479160Y-76106209D01*
X139486207Y-76027395D01*
X139487571Y-75947726D01*
X139483219Y-75868959D01*
X139473317Y-75793981D01*
X139455354Y-75711445D01*
X139430666Y-75631195D01*
X139399529Y-75553598D01*
X139362218Y-75479025D01*
X139319008Y-75407844D01*
X139270174Y-75340425D01*
X139215991Y-75277136D01*
X139156735Y-75218347D01*
X139092680Y-75164427D01*
X139024102Y-75115746D01*
X138951276Y-75072671D01*
X138925825Y-75059483D01*
X138847951Y-75024232D01*
X138769003Y-74995970D01*
X138688127Y-74974431D01*
X138604468Y-74959349D01*
X138602657Y-74959098D01*
X138578903Y-74956565D01*
X138549725Y-74954636D01*
X138516863Y-74953324D01*
X138482054Y-74952642D01*
X138447037Y-74952604D01*
X138413549Y-74953224D01*
G36*
X136243399Y-74965634D02*
G01*
X136240381Y-74969824D01*
X136233926Y-74979869D01*
X136224275Y-74995371D01*
X136211669Y-75015929D01*
X136196348Y-75041142D01*
X136178554Y-75070612D01*
X136158526Y-75103937D01*
X136136506Y-75140718D01*
X136112734Y-75180555D01*
X136087451Y-75223046D01*
X136060897Y-75267794D01*
X136033314Y-75314396D01*
X136018864Y-75338857D01*
X135961491Y-75436031D01*
X135907687Y-75527143D01*
X135857335Y-75612384D01*
X135810321Y-75691944D01*
X135766532Y-75766015D01*
X135725851Y-75834789D01*
X135688164Y-75898455D01*
X135653357Y-75957205D01*
X135621314Y-76011231D01*
X135591921Y-76060723D01*
X135565064Y-76105873D01*
X135540627Y-76146871D01*
X135518496Y-76183909D01*
X135498556Y-76217177D01*
X135480693Y-76246867D01*
X135464791Y-76273170D01*
X135450736Y-76296277D01*
X135438414Y-76316379D01*
X135427708Y-76333667D01*
X135418506Y-76348332D01*
X135410691Y-76360565D01*
X135404150Y-76370558D01*
X135398768Y-76378501D01*
X135394429Y-76384586D01*
X135391020Y-76389003D01*
X135388425Y-76391944D01*
X135386529Y-76393600D01*
X135385289Y-76394155D01*
X135377037Y-76393393D01*
X135372589Y-76390526D01*
X135372172Y-76389213D01*
X135371804Y-76386413D01*
X135371486Y-76381870D01*
X135371220Y-76375329D01*
X135371008Y-76366535D01*
X135370851Y-76355233D01*
X135370751Y-76341167D01*
X135370711Y-76324082D01*
X135370732Y-76303722D01*
X135370815Y-76279832D01*
X135370963Y-76252157D01*
X135371177Y-76220441D01*
X135371460Y-76184430D01*
X135371813Y-76143867D01*
X135372237Y-76098498D01*
X135372736Y-76048066D01*
X135373309Y-75992317D01*
X135373961Y-75930996D01*
X135374691Y-75863846D01*
X135375502Y-75790613D01*
X135376396Y-75711042D01*
X135377375Y-75624876D01*
X135378440Y-75531861D01*
X135379114Y-75473213D01*
X135384779Y-74981640D01*
X135375173Y-74973377D01*
X135372395Y-74971106D01*
X135369384Y-74969295D01*
X135365343Y-74967891D01*
X135359473Y-74966843D01*
X135350977Y-74966099D01*
X135339057Y-74965606D01*
X135322914Y-74965313D01*
X135301752Y-74965169D01*
X135274771Y-74965120D01*
X135248330Y-74965114D01*
X135216022Y-74965131D01*
X135190172Y-74965213D01*
X135169981Y-74965407D01*
X135154649Y-74965761D01*
X135143377Y-74966323D01*
X135135366Y-74967139D01*
X135129817Y-74968257D01*
X135125929Y-74969725D01*
X135122905Y-74971590D01*
X135121532Y-74972635D01*
X135111971Y-74980155D01*
X135111971Y-76974078D01*
X135120370Y-76981968D01*
X135122780Y-76984074D01*
X135125564Y-76985768D01*
X135129482Y-76987094D01*
X135135298Y-76988097D01*
X135143773Y-76988822D01*
X135155670Y-76989315D01*
X135171750Y-76989619D01*
X135192775Y-76989781D01*
X135219508Y-76989846D01*
X135252711Y-76989857D01*
X135253933Y-76989857D01*
X135289832Y-76989790D01*
X135319040Y-76989575D01*
X135342121Y-76989193D01*
X135359638Y-76988624D01*
X135372158Y-76987848D01*
X135380244Y-76986847D01*
X135384461Y-76985601D01*
X135384888Y-76985322D01*
X135386066Y-76984268D01*
X135387528Y-76982645D01*
X135389415Y-76980212D01*
X135391864Y-76976731D01*
X135395016Y-76971961D01*
X135399009Y-76965663D01*
X135403984Y-76957597D01*
X135410079Y-76947525D01*
X135417434Y-76935205D01*
X135426188Y-76920400D01*
X135436481Y-76902869D01*
X135448452Y-76882374D01*
X135462240Y-76858673D01*
X135477985Y-76831528D01*
X135495826Y-76800700D01*
X135515903Y-76765948D01*
X135538355Y-76727034D01*
X135563321Y-76683717D01*
X135590940Y-76635759D01*
X135621353Y-76582919D01*
X135654697Y-76524958D01*
X135691114Y-76461637D01*
X135730742Y-76392716D01*
X135773720Y-76317956D01*
X135815082Y-76246000D01*
X135862976Y-76162704D01*
X135907371Y-76085545D01*
X135948364Y-76014359D01*
X135986053Y-75948980D01*
X136020533Y-75889242D01*
X136051901Y-75834979D01*
X136080254Y-75786026D01*
X136105688Y-75742216D01*
X136128301Y-75703384D01*
X136148189Y-75669365D01*
X136165449Y-75639991D01*
X136180176Y-75615099D01*
X136192469Y-75594521D01*
X136202423Y-75578092D01*
X136210136Y-75565646D01*
X136215703Y-75557018D01*
X136219223Y-75552042D01*
X136220660Y-75550565D01*
X136227380Y-75550698D01*
X136232736Y-75552695D01*
X136240097Y-75556634D01*
X136235651Y-76970478D01*
X136244304Y-76976539D01*
X136247328Y-76978196D01*
X136251675Y-76979525D01*
X136258107Y-76980560D01*
X136267384Y-76981339D01*
X136280268Y-76981894D01*
X136297521Y-76982263D01*
X136319904Y-76982480D01*
X136348178Y-76982580D01*
X136375316Y-76982600D01*
X136408309Y-76982592D01*
X136434800Y-76982536D01*
X136455544Y-76982386D01*
X136471295Y-76982092D01*
X136482809Y-76981608D01*
X136490839Y-76980886D01*
X136496142Y-76979879D01*
X136499471Y-76978538D01*
X136501582Y-76976817D01*
X136503230Y-76974668D01*
X136503323Y-76974536D01*
X136503897Y-76973215D01*
X136504432Y-76970787D01*
X136504928Y-76967000D01*
X136505387Y-76961605D01*
X136505811Y-76954352D01*
X136506201Y-76944991D01*
X136506557Y-76933273D01*
X136506882Y-76918948D01*
X136507178Y-76901765D01*
X136507444Y-76881475D01*
X136507684Y-76857829D01*
X136507897Y-76830576D01*
X136508087Y-76799466D01*
X136508253Y-76764250D01*
X136508398Y-76724678D01*
X136508522Y-76680500D01*
X136508628Y-76631466D01*
X136508717Y-76577326D01*
X136508790Y-76517831D01*
X136508848Y-76452730D01*
X136508893Y-76381775D01*
X136508926Y-76304714D01*
X136508949Y-76221299D01*
X136508964Y-76131279D01*
X136508970Y-76034405D01*
X136508971Y-75971638D01*
X136508971Y-75871125D01*
X136508967Y-75777615D01*
X136508958Y-75690852D01*
X136508944Y-75610580D01*
X136508921Y-75536545D01*
X136508888Y-75468492D01*
X136508843Y-75406165D01*
X136508786Y-75349309D01*
X136508712Y-75297670D01*
X136508622Y-75250992D01*
X136508513Y-75209020D01*
X136508384Y-75171498D01*
X136508232Y-75138173D01*
X136508057Y-75108788D01*
X136507855Y-75083089D01*
X136507626Y-75060820D01*
X136507368Y-75041726D01*
X136507078Y-75025553D01*
X136506756Y-75012044D01*
X136506399Y-75000946D01*
X136506006Y-74992002D01*
X136505575Y-74984958D01*
X136505104Y-74979559D01*
X136504591Y-74975549D01*
X136504034Y-74972674D01*
X136503433Y-74970678D01*
X136502784Y-74969306D01*
X136502087Y-74968303D01*
X136502037Y-74968240D01*
X136495102Y-74959676D01*
X136373875Y-74958380D01*
X136252647Y-74957083D01*
X136243399Y-74965634D01*
G37*
X136243399Y-74965634D02*
X136240381Y-74969824D01*
X136233926Y-74979869D01*
X136224275Y-74995371D01*
X136211669Y-75015929D01*
X136196348Y-75041142D01*
X136178554Y-75070612D01*
X136158526Y-75103937D01*
X136136506Y-75140718D01*
X136112734Y-75180555D01*
X136087451Y-75223046D01*
X136060897Y-75267794D01*
X136033314Y-75314396D01*
X136018864Y-75338857D01*
X135961491Y-75436031D01*
X135907687Y-75527143D01*
X135857335Y-75612384D01*
X135810321Y-75691944D01*
X135766532Y-75766015D01*
X135725851Y-75834789D01*
X135688164Y-75898455D01*
X135653357Y-75957205D01*
X135621314Y-76011231D01*
X135591921Y-76060723D01*
X135565064Y-76105873D01*
X135540627Y-76146871D01*
X135518496Y-76183909D01*
X135498556Y-76217177D01*
X135480693Y-76246867D01*
X135464791Y-76273170D01*
X135450736Y-76296277D01*
X135438414Y-76316379D01*
X135427708Y-76333667D01*
X135418506Y-76348332D01*
X135410691Y-76360565D01*
X135404150Y-76370558D01*
X135398768Y-76378501D01*
X135394429Y-76384586D01*
X135391020Y-76389003D01*
X135388425Y-76391944D01*
X135386529Y-76393600D01*
X135385289Y-76394155D01*
X135377037Y-76393393D01*
X135372589Y-76390526D01*
X135372172Y-76389213D01*
X135371804Y-76386413D01*
X135371486Y-76381870D01*
X135371220Y-76375329D01*
X135371008Y-76366535D01*
X135370851Y-76355233D01*
X135370751Y-76341167D01*
X135370711Y-76324082D01*
X135370732Y-76303722D01*
X135370815Y-76279832D01*
X135370963Y-76252157D01*
X135371177Y-76220441D01*
X135371460Y-76184430D01*
X135371813Y-76143867D01*
X135372237Y-76098498D01*
X135372736Y-76048066D01*
X135373309Y-75992317D01*
X135373961Y-75930996D01*
X135374691Y-75863846D01*
X135375502Y-75790613D01*
X135376396Y-75711042D01*
X135377375Y-75624876D01*
X135378440Y-75531861D01*
X135379114Y-75473213D01*
X135384779Y-74981640D01*
X135375173Y-74973377D01*
X135372395Y-74971106D01*
X135369384Y-74969295D01*
X135365343Y-74967891D01*
X135359473Y-74966843D01*
X135350977Y-74966099D01*
X135339057Y-74965606D01*
X135322914Y-74965313D01*
X135301752Y-74965169D01*
X135274771Y-74965120D01*
X135248330Y-74965114D01*
X135216022Y-74965131D01*
X135190172Y-74965213D01*
X135169981Y-74965407D01*
X135154649Y-74965761D01*
X135143377Y-74966323D01*
X135135366Y-74967139D01*
X135129817Y-74968257D01*
X135125929Y-74969725D01*
X135122905Y-74971590D01*
X135121532Y-74972635D01*
X135111971Y-74980155D01*
X135111971Y-76974078D01*
X135120370Y-76981968D01*
X135122780Y-76984074D01*
X135125564Y-76985768D01*
X135129482Y-76987094D01*
X135135298Y-76988097D01*
X135143773Y-76988822D01*
X135155670Y-76989315D01*
X135171750Y-76989619D01*
X135192775Y-76989781D01*
X135219508Y-76989846D01*
X135252711Y-76989857D01*
X135253933Y-76989857D01*
X135289832Y-76989790D01*
X135319040Y-76989575D01*
X135342121Y-76989193D01*
X135359638Y-76988624D01*
X135372158Y-76987848D01*
X135380244Y-76986847D01*
X135384461Y-76985601D01*
X135384888Y-76985322D01*
X135386066Y-76984268D01*
X135387528Y-76982645D01*
X135389415Y-76980212D01*
X135391864Y-76976731D01*
X135395016Y-76971961D01*
X135399009Y-76965663D01*
X135403984Y-76957597D01*
X135410079Y-76947525D01*
X135417434Y-76935205D01*
X135426188Y-76920400D01*
X135436481Y-76902869D01*
X135448452Y-76882374D01*
X135462240Y-76858673D01*
X135477985Y-76831528D01*
X135495826Y-76800700D01*
X135515903Y-76765948D01*
X135538355Y-76727034D01*
X135563321Y-76683717D01*
X135590940Y-76635759D01*
X135621353Y-76582919D01*
X135654697Y-76524958D01*
X135691114Y-76461637D01*
X135730742Y-76392716D01*
X135773720Y-76317956D01*
X135815082Y-76246000D01*
X135862976Y-76162704D01*
X135907371Y-76085545D01*
X135948364Y-76014359D01*
X135986053Y-75948980D01*
X136020533Y-75889242D01*
X136051901Y-75834979D01*
X136080254Y-75786026D01*
X136105688Y-75742216D01*
X136128301Y-75703384D01*
X136148189Y-75669365D01*
X136165449Y-75639991D01*
X136180176Y-75615099D01*
X136192469Y-75594521D01*
X136202423Y-75578092D01*
X136210136Y-75565646D01*
X136215703Y-75557018D01*
X136219223Y-75552042D01*
X136220660Y-75550565D01*
X136227380Y-75550698D01*
X136232736Y-75552695D01*
X136240097Y-75556634D01*
X136235651Y-76970478D01*
X136244304Y-76976539D01*
X136247328Y-76978196D01*
X136251675Y-76979525D01*
X136258107Y-76980560D01*
X136267384Y-76981339D01*
X136280268Y-76981894D01*
X136297521Y-76982263D01*
X136319904Y-76982480D01*
X136348178Y-76982580D01*
X136375316Y-76982600D01*
X136408309Y-76982592D01*
X136434800Y-76982536D01*
X136455544Y-76982386D01*
X136471295Y-76982092D01*
X136482809Y-76981608D01*
X136490839Y-76980886D01*
X136496142Y-76979879D01*
X136499471Y-76978538D01*
X136501582Y-76976817D01*
X136503230Y-76974668D01*
X136503323Y-76974536D01*
X136503897Y-76973215D01*
X136504432Y-76970787D01*
X136504928Y-76967000D01*
X136505387Y-76961605D01*
X136505811Y-76954352D01*
X136506201Y-76944991D01*
X136506557Y-76933273D01*
X136506882Y-76918948D01*
X136507178Y-76901765D01*
X136507444Y-76881475D01*
X136507684Y-76857829D01*
X136507897Y-76830576D01*
X136508087Y-76799466D01*
X136508253Y-76764250D01*
X136508398Y-76724678D01*
X136508522Y-76680500D01*
X136508628Y-76631466D01*
X136508717Y-76577326D01*
X136508790Y-76517831D01*
X136508848Y-76452730D01*
X136508893Y-76381775D01*
X136508926Y-76304714D01*
X136508949Y-76221299D01*
X136508964Y-76131279D01*
X136508970Y-76034405D01*
X136508971Y-75971638D01*
X136508971Y-75871125D01*
X136508967Y-75777615D01*
X136508958Y-75690852D01*
X136508944Y-75610580D01*
X136508921Y-75536545D01*
X136508888Y-75468492D01*
X136508843Y-75406165D01*
X136508786Y-75349309D01*
X136508712Y-75297670D01*
X136508622Y-75250992D01*
X136508513Y-75209020D01*
X136508384Y-75171498D01*
X136508232Y-75138173D01*
X136508057Y-75108788D01*
X136507855Y-75083089D01*
X136507626Y-75060820D01*
X136507368Y-75041726D01*
X136507078Y-75025553D01*
X136506756Y-75012044D01*
X136506399Y-75000946D01*
X136506006Y-74992002D01*
X136505575Y-74984958D01*
X136505104Y-74979559D01*
X136504591Y-74975549D01*
X136504034Y-74972674D01*
X136503433Y-74970678D01*
X136502784Y-74969306D01*
X136502087Y-74968303D01*
X136502037Y-74968240D01*
X136495102Y-74959676D01*
X136373875Y-74958380D01*
X136252647Y-74957083D01*
X136243399Y-74965634D01*
D11*
%TO.C,U4*%
X124604000Y-83748000D02*
X124604000Y-84148000D01*
X104504000Y-83748000D02*
X104504000Y-84148000D01*
X105004000Y-83748000D02*
X104504000Y-83748000D01*
X104504000Y-99748000D02*
X104504000Y-100148000D01*
X105004000Y-100148000D02*
X104504000Y-100148000D01*
X124604000Y-99748000D02*
X124604000Y-100148000D01*
X124604000Y-100148000D02*
X124104000Y-100148000D01*
X124604000Y-83748000D02*
X114604000Y-83748000D01*
D12*
%TO.C,J13*%
X130295000Y-82560000D02*
X130295000Y-81740000D01*
X130295000Y-81740000D02*
X128725000Y-81740000D01*
%TO.C,R2*%
X128678922Y-73390000D02*
X129196078Y-73390000D01*
X128678922Y-74810000D02*
X129196078Y-74810000D01*
%TO.C,C2*%
X120758578Y-71110000D02*
X120241422Y-71110000D01*
X120758578Y-69690000D02*
X120241422Y-69690000D01*
%TO.C,C3*%
X120241422Y-75460000D02*
X120758578Y-75460000D01*
X120241422Y-74040000D02*
X120758578Y-74040000D01*
%TO.C,C5*%
X135458578Y-98190000D02*
X134941422Y-98190000D01*
X135458578Y-99610000D02*
X134941422Y-99610000D01*
%TO.C,C6*%
X135558578Y-90610000D02*
X135041422Y-90610000D01*
X135558578Y-89190000D02*
X135041422Y-89190000D01*
%TO.C,C11*%
X123458578Y-100390000D02*
X122941422Y-100390000D01*
X123458578Y-101810000D02*
X122941422Y-101810000D01*
%TO.C,C12*%
X116358578Y-100290000D02*
X115841422Y-100290000D01*
X116358578Y-101710000D02*
X115841422Y-101710000D01*
%TO.C,C13*%
X133490000Y-56158578D02*
X133490000Y-55641422D01*
X134910000Y-56158578D02*
X134910000Y-55641422D01*
%TO.C,C14*%
X122610000Y-59441422D02*
X122610000Y-59958578D01*
X121190000Y-59441422D02*
X121190000Y-59958578D01*
%TO.C,C16*%
X128410000Y-59441422D02*
X128410000Y-59958578D01*
X126990000Y-59441422D02*
X126990000Y-59958578D01*
%TO.C,J4*%
X100165000Y-95650000D02*
X100165000Y-98350000D01*
X102885000Y-96240000D02*
X103515000Y-96240000D01*
X102885000Y-98400000D02*
X102885000Y-97760000D01*
X102885000Y-95600000D02*
X102885000Y-96240000D01*
%TO.C,J5*%
X145615000Y-61400000D02*
X145615000Y-60760000D01*
X145615000Y-58600000D02*
X145615000Y-59240000D01*
X145615000Y-60760000D02*
X144985000Y-60760000D01*
X148335000Y-61350000D02*
X148335000Y-58650000D01*
%TO.C,R1*%
X128641422Y-76710000D02*
X129158578Y-76710000D01*
X128641422Y-75290000D02*
X129158578Y-75290000D01*
%TO.C,R4*%
X111875078Y-77672000D02*
X111357922Y-77672000D01*
X111875078Y-76252000D02*
X111357922Y-76252000D01*
%TO.C,R5*%
X111875078Y-73966000D02*
X111357922Y-73966000D01*
X111875078Y-75386000D02*
X111357922Y-75386000D01*
%TO.C,R6*%
X111875078Y-73100000D02*
X111357922Y-73100000D01*
X111875078Y-71680000D02*
X111357922Y-71680000D01*
%TO.C,U2*%
X139678000Y-90970000D02*
X139678000Y-92230000D01*
X139678000Y-97790000D02*
X139678000Y-96530000D01*
X135918000Y-90970000D02*
X139678000Y-90970000D01*
X133668000Y-97790000D02*
X139678000Y-97790000D01*
%TO.C,U5*%
X133100000Y-68260000D02*
X133790000Y-68260000D01*
X133790000Y-68410000D02*
X133790000Y-68260000D01*
X143710000Y-68410000D02*
X143710000Y-68260000D01*
X133790000Y-58240000D02*
X133790000Y-58090000D01*
X143710000Y-58240000D02*
X143710000Y-58090000D01*
X133790000Y-58090000D02*
X143710000Y-58090000D01*
X133790000Y-68410000D02*
X143710000Y-68410000D01*
%TO.C,Y1*%
X118756000Y-73528000D02*
X118556000Y-73528000D01*
X119656000Y-72928000D02*
X118756000Y-73528000D01*
X118756000Y-71628000D02*
X118556000Y-71628000D01*
X119656000Y-72228000D02*
X118756000Y-71628000D01*
X119656000Y-73808000D02*
X119656000Y-71348000D01*
X126556000Y-73808000D02*
X119656000Y-73808000D01*
X126556000Y-71348000D02*
X126556000Y-73808000D01*
X119656000Y-71348000D02*
X126556000Y-71348000D01*
D13*
%TO.C,D7*%
X143100000Y-85220000D02*
X143100000Y-84790000D01*
X148500000Y-85220000D02*
X148500000Y-84790000D01*
X148500000Y-88410000D02*
X148500000Y-87980000D01*
X143100000Y-88410000D02*
X143100000Y-87980000D01*
D14*
X142095000Y-86600000D02*
G75*
G03*
X142095000Y-86600000I-100000J0D01*
G01*
D13*
X148500000Y-84790000D02*
X143100000Y-84790000D01*
X143100000Y-88410000D02*
X148500000Y-88410000D01*
%TO.C,D8*%
X135600000Y-88410000D02*
X141000000Y-88410000D01*
X141000000Y-84790000D02*
X135600000Y-84790000D01*
D14*
X134595000Y-86600000D02*
G75*
G03*
X134595000Y-86600000I-100000J0D01*
G01*
D13*
X135600000Y-88410000D02*
X135600000Y-87980000D01*
X141000000Y-88410000D02*
X141000000Y-87980000D01*
X141000000Y-85220000D02*
X141000000Y-84790000D01*
X135600000Y-85220000D02*
X135600000Y-84790000D01*
D12*
%TO.C,C15*%
X107590000Y-103090000D02*
X109940000Y-103090000D01*
X114410000Y-103090000D02*
X112060000Y-103090000D01*
X114410000Y-108845563D02*
X114410000Y-103090000D01*
X107590000Y-108845563D02*
X107590000Y-103090000D01*
X108654437Y-109910000D02*
X109940000Y-109910000D01*
X113345563Y-109910000D02*
X112060000Y-109910000D01*
X113345563Y-109910000D02*
X114410000Y-108845563D01*
X108654437Y-109910000D02*
X107590000Y-108845563D01*
X112847500Y-110937500D02*
X112847500Y-110150000D01*
X113241250Y-110543750D02*
X112453750Y-110543750D01*
%TO.C,C17*%
X121241250Y-110543750D02*
X120453750Y-110543750D01*
X120847500Y-110937500D02*
X120847500Y-110150000D01*
X116654437Y-109910000D02*
X115590000Y-108845563D01*
X121345563Y-109910000D02*
X122410000Y-108845563D01*
X121345563Y-109910000D02*
X120060000Y-109910000D01*
X116654437Y-109910000D02*
X117940000Y-109910000D01*
X115590000Y-108845563D02*
X115590000Y-103090000D01*
X122410000Y-108845563D02*
X122410000Y-103090000D01*
X122410000Y-103090000D02*
X120060000Y-103090000D01*
X115590000Y-103090000D02*
X117940000Y-103090000D01*
%TO.C,C18*%
X123590000Y-103090000D02*
X125940000Y-103090000D01*
X130410000Y-103090000D02*
X128060000Y-103090000D01*
X130410000Y-108845563D02*
X130410000Y-103090000D01*
X123590000Y-108845563D02*
X123590000Y-103090000D01*
X124654437Y-109910000D02*
X125940000Y-109910000D01*
X129345563Y-109910000D02*
X128060000Y-109910000D01*
X129345563Y-109910000D02*
X130410000Y-108845563D01*
X124654437Y-109910000D02*
X123590000Y-108845563D01*
X128847500Y-110937500D02*
X128847500Y-110150000D01*
X129241250Y-110543750D02*
X128453750Y-110543750D01*
%TO.C,C20*%
X137241250Y-110543750D02*
X136453750Y-110543750D01*
X136847500Y-110937500D02*
X136847500Y-110150000D01*
X132654437Y-109910000D02*
X131590000Y-108845563D01*
X137345563Y-109910000D02*
X138410000Y-108845563D01*
X137345563Y-109910000D02*
X136060000Y-109910000D01*
X132654437Y-109910000D02*
X133940000Y-109910000D01*
X131590000Y-108845563D02*
X131590000Y-103090000D01*
X138410000Y-108845563D02*
X138410000Y-103090000D01*
X138410000Y-103090000D02*
X136060000Y-103090000D01*
X131590000Y-103090000D02*
X133940000Y-103090000D01*
%TO.C,J11*%
X131700000Y-57500000D02*
X131700000Y-82500000D01*
X131700000Y-57500000D02*
X116700000Y-57500000D01*
X131700000Y-82500000D02*
X116700000Y-82500000D01*
X116700000Y-57500000D02*
X116700000Y-82500000D01*
D13*
%TO.C,D9*%
X135700000Y-83510000D02*
X141100000Y-83510000D01*
X141100000Y-79890000D02*
X135700000Y-79890000D01*
D14*
X134695000Y-81700000D02*
G75*
G03*
X134695000Y-81700000I-100000J0D01*
G01*
D13*
X135700000Y-83510000D02*
X135700000Y-83080000D01*
X141100000Y-83510000D02*
X141100000Y-83080000D01*
X141100000Y-80320000D02*
X141100000Y-79890000D01*
X135700000Y-80320000D02*
X135700000Y-79890000D01*
%TO.C,U4*%
D15*
X121261904Y-84452380D02*
X121261904Y-85261904D01*
X121214285Y-85357142D01*
X121166666Y-85404761D01*
X121071428Y-85452380D01*
X120880952Y-85452380D01*
X120785714Y-85404761D01*
X120738095Y-85357142D01*
X120690476Y-85261904D01*
X120690476Y-84452380D01*
X119785714Y-84785714D02*
X119785714Y-85452380D01*
X120023809Y-84404761D02*
X120261904Y-85119047D01*
X119642857Y-85119047D01*
%TO.C,R2*%
X126416666Y-75202380D02*
X126750000Y-74726190D01*
X126988095Y-75202380D02*
X126988095Y-74202380D01*
X126607142Y-74202380D01*
X126511904Y-74250000D01*
X126464285Y-74297619D01*
X126416666Y-74392857D01*
X126416666Y-74535714D01*
X126464285Y-74630952D01*
X126511904Y-74678571D01*
X126607142Y-74726190D01*
X126988095Y-74726190D01*
X126035714Y-74297619D02*
X125988095Y-74250000D01*
X125892857Y-74202380D01*
X125654761Y-74202380D01*
X125559523Y-74250000D01*
X125511904Y-74297619D01*
X125464285Y-74392857D01*
X125464285Y-74488095D01*
X125511904Y-74630952D01*
X126083333Y-75202380D01*
X125464285Y-75202380D01*
%TO.C,C2*%
X123166666Y-70757142D02*
X123214285Y-70804761D01*
X123357142Y-70852380D01*
X123452380Y-70852380D01*
X123595238Y-70804761D01*
X123690476Y-70709523D01*
X123738095Y-70614285D01*
X123785714Y-70423809D01*
X123785714Y-70280952D01*
X123738095Y-70090476D01*
X123690476Y-69995238D01*
X123595238Y-69900000D01*
X123452380Y-69852380D01*
X123357142Y-69852380D01*
X123214285Y-69900000D01*
X123166666Y-69947619D01*
X122785714Y-69947619D02*
X122738095Y-69900000D01*
X122642857Y-69852380D01*
X122404761Y-69852380D01*
X122309523Y-69900000D01*
X122261904Y-69947619D01*
X122214285Y-70042857D01*
X122214285Y-70138095D01*
X122261904Y-70280952D01*
X122833333Y-70852380D01*
X122214285Y-70852380D01*
%TO.C,C3*%
X123166666Y-75107142D02*
X123214285Y-75154761D01*
X123357142Y-75202380D01*
X123452380Y-75202380D01*
X123595238Y-75154761D01*
X123690476Y-75059523D01*
X123738095Y-74964285D01*
X123785714Y-74773809D01*
X123785714Y-74630952D01*
X123738095Y-74440476D01*
X123690476Y-74345238D01*
X123595238Y-74250000D01*
X123452380Y-74202380D01*
X123357142Y-74202380D01*
X123214285Y-74250000D01*
X123166666Y-74297619D01*
X122833333Y-74202380D02*
X122214285Y-74202380D01*
X122547619Y-74583333D01*
X122404761Y-74583333D01*
X122309523Y-74630952D01*
X122261904Y-74678571D01*
X122214285Y-74773809D01*
X122214285Y-75011904D01*
X122261904Y-75107142D01*
X122309523Y-75154761D01*
X122404761Y-75202380D01*
X122690476Y-75202380D01*
X122785714Y-75154761D01*
X122833333Y-75107142D01*
%TO.C,C5*%
X138000666Y-99205142D02*
X138048285Y-99252761D01*
X138191142Y-99300380D01*
X138286380Y-99300380D01*
X138429238Y-99252761D01*
X138524476Y-99157523D01*
X138572095Y-99062285D01*
X138619714Y-98871809D01*
X138619714Y-98728952D01*
X138572095Y-98538476D01*
X138524476Y-98443238D01*
X138429238Y-98348000D01*
X138286380Y-98300380D01*
X138191142Y-98300380D01*
X138048285Y-98348000D01*
X138000666Y-98395619D01*
X137095904Y-98300380D02*
X137572095Y-98300380D01*
X137619714Y-98776571D01*
X137572095Y-98728952D01*
X137476857Y-98681333D01*
X137238761Y-98681333D01*
X137143523Y-98728952D01*
X137095904Y-98776571D01*
X137048285Y-98871809D01*
X137048285Y-99109904D01*
X137095904Y-99205142D01*
X137143523Y-99252761D01*
X137238761Y-99300380D01*
X137476857Y-99300380D01*
X137572095Y-99252761D01*
X137619714Y-99205142D01*
%TO.C,C6*%
X138104666Y-90349142D02*
X138152285Y-90396761D01*
X138295142Y-90444380D01*
X138390380Y-90444380D01*
X138533238Y-90396761D01*
X138628476Y-90301523D01*
X138676095Y-90206285D01*
X138723714Y-90015809D01*
X138723714Y-89872952D01*
X138676095Y-89682476D01*
X138628476Y-89587238D01*
X138533238Y-89492000D01*
X138390380Y-89444380D01*
X138295142Y-89444380D01*
X138152285Y-89492000D01*
X138104666Y-89539619D01*
X137247523Y-89444380D02*
X137438000Y-89444380D01*
X137533238Y-89492000D01*
X137580857Y-89539619D01*
X137676095Y-89682476D01*
X137723714Y-89872952D01*
X137723714Y-90253904D01*
X137676095Y-90349142D01*
X137628476Y-90396761D01*
X137533238Y-90444380D01*
X137342761Y-90444380D01*
X137247523Y-90396761D01*
X137199904Y-90349142D01*
X137152285Y-90253904D01*
X137152285Y-90015809D01*
X137199904Y-89920571D01*
X137247523Y-89872952D01*
X137342761Y-89825333D01*
X137533238Y-89825333D01*
X137628476Y-89872952D01*
X137676095Y-89920571D01*
X137723714Y-90015809D01*
%TO.C,C11*%
X120742857Y-101357142D02*
X120790476Y-101404761D01*
X120933333Y-101452380D01*
X121028571Y-101452380D01*
X121171428Y-101404761D01*
X121266666Y-101309523D01*
X121314285Y-101214285D01*
X121361904Y-101023809D01*
X121361904Y-100880952D01*
X121314285Y-100690476D01*
X121266666Y-100595238D01*
X121171428Y-100500000D01*
X121028571Y-100452380D01*
X120933333Y-100452380D01*
X120790476Y-100500000D01*
X120742857Y-100547619D01*
X119790476Y-101452380D02*
X120361904Y-101452380D01*
X120076190Y-101452380D02*
X120076190Y-100452380D01*
X120171428Y-100595238D01*
X120266666Y-100690476D01*
X120361904Y-100738095D01*
X118838095Y-101452380D02*
X119409523Y-101452380D01*
X119123809Y-101452380D02*
X119123809Y-100452380D01*
X119219047Y-100595238D01*
X119314285Y-100690476D01*
X119409523Y-100738095D01*
%TO.C,C12*%
X113492857Y-101357142D02*
X113540476Y-101404761D01*
X113683333Y-101452380D01*
X113778571Y-101452380D01*
X113921428Y-101404761D01*
X114016666Y-101309523D01*
X114064285Y-101214285D01*
X114111904Y-101023809D01*
X114111904Y-100880952D01*
X114064285Y-100690476D01*
X114016666Y-100595238D01*
X113921428Y-100500000D01*
X113778571Y-100452380D01*
X113683333Y-100452380D01*
X113540476Y-100500000D01*
X113492857Y-100547619D01*
X112540476Y-101452380D02*
X113111904Y-101452380D01*
X112826190Y-101452380D02*
X112826190Y-100452380D01*
X112921428Y-100595238D01*
X113016666Y-100690476D01*
X113111904Y-100738095D01*
X112159523Y-100547619D02*
X112111904Y-100500000D01*
X112016666Y-100452380D01*
X111778571Y-100452380D01*
X111683333Y-100500000D01*
X111635714Y-100547619D01*
X111588095Y-100642857D01*
X111588095Y-100738095D01*
X111635714Y-100880952D01*
X112207142Y-101452380D01*
X111588095Y-101452380D01*
%TO.C,C13*%
X137242857Y-56357142D02*
X137290476Y-56404761D01*
X137433333Y-56452380D01*
X137528571Y-56452380D01*
X137671428Y-56404761D01*
X137766666Y-56309523D01*
X137814285Y-56214285D01*
X137861904Y-56023809D01*
X137861904Y-55880952D01*
X137814285Y-55690476D01*
X137766666Y-55595238D01*
X137671428Y-55500000D01*
X137528571Y-55452380D01*
X137433333Y-55452380D01*
X137290476Y-55500000D01*
X137242857Y-55547619D01*
X136290476Y-56452380D02*
X136861904Y-56452380D01*
X136576190Y-56452380D02*
X136576190Y-55452380D01*
X136671428Y-55595238D01*
X136766666Y-55690476D01*
X136861904Y-55738095D01*
X135957142Y-55452380D02*
X135338095Y-55452380D01*
X135671428Y-55833333D01*
X135528571Y-55833333D01*
X135433333Y-55880952D01*
X135385714Y-55928571D01*
X135338095Y-56023809D01*
X135338095Y-56261904D01*
X135385714Y-56357142D01*
X135433333Y-56404761D01*
X135528571Y-56452380D01*
X135814285Y-56452380D01*
X135909523Y-56404761D01*
X135957142Y-56357142D01*
%TO.C,C14*%
X122742857Y-62357142D02*
X122790476Y-62404761D01*
X122933333Y-62452380D01*
X123028571Y-62452380D01*
X123171428Y-62404761D01*
X123266666Y-62309523D01*
X123314285Y-62214285D01*
X123361904Y-62023809D01*
X123361904Y-61880952D01*
X123314285Y-61690476D01*
X123266666Y-61595238D01*
X123171428Y-61500000D01*
X123028571Y-61452380D01*
X122933333Y-61452380D01*
X122790476Y-61500000D01*
X122742857Y-61547619D01*
X121790476Y-62452380D02*
X122361904Y-62452380D01*
X122076190Y-62452380D02*
X122076190Y-61452380D01*
X122171428Y-61595238D01*
X122266666Y-61690476D01*
X122361904Y-61738095D01*
X120933333Y-61785714D02*
X120933333Y-62452380D01*
X121171428Y-61404761D02*
X121409523Y-62119047D01*
X120790476Y-62119047D01*
%TO.C,C16*%
X128142857Y-62357142D02*
X128190476Y-62404761D01*
X128333333Y-62452380D01*
X128428571Y-62452380D01*
X128571428Y-62404761D01*
X128666666Y-62309523D01*
X128714285Y-62214285D01*
X128761904Y-62023809D01*
X128761904Y-61880952D01*
X128714285Y-61690476D01*
X128666666Y-61595238D01*
X128571428Y-61500000D01*
X128428571Y-61452380D01*
X128333333Y-61452380D01*
X128190476Y-61500000D01*
X128142857Y-61547619D01*
X127190476Y-62452380D02*
X127761904Y-62452380D01*
X127476190Y-62452380D02*
X127476190Y-61452380D01*
X127571428Y-61595238D01*
X127666666Y-61690476D01*
X127761904Y-61738095D01*
X126333333Y-61452380D02*
X126523809Y-61452380D01*
X126619047Y-61500000D01*
X126666666Y-61547619D01*
X126761904Y-61690476D01*
X126809523Y-61880952D01*
X126809523Y-62261904D01*
X126761904Y-62357142D01*
X126714285Y-62404761D01*
X126619047Y-62452380D01*
X126428571Y-62452380D01*
X126333333Y-62404761D01*
X126285714Y-62357142D01*
X126238095Y-62261904D01*
X126238095Y-62023809D01*
X126285714Y-61928571D01*
X126333333Y-61880952D01*
X126428571Y-61833333D01*
X126619047Y-61833333D01*
X126714285Y-61880952D01*
X126761904Y-61928571D01*
X126809523Y-62023809D01*
%TO.C,J4*%
X101725333Y-96170380D02*
X101725333Y-96884666D01*
X101772952Y-97027523D01*
X101868190Y-97122761D01*
X102011047Y-97170380D01*
X102106285Y-97170380D01*
X100820571Y-96503714D02*
X100820571Y-97170380D01*
X101058666Y-96122761D02*
X101296761Y-96837047D01*
X100677714Y-96837047D01*
%TO.C,J5*%
X147533333Y-59452380D02*
X147533333Y-60166666D01*
X147580952Y-60309523D01*
X147676190Y-60404761D01*
X147819047Y-60452380D01*
X147914285Y-60452380D01*
X146580952Y-59452380D02*
X147057142Y-59452380D01*
X147104761Y-59928571D01*
X147057142Y-59880952D01*
X146961904Y-59833333D01*
X146723809Y-59833333D01*
X146628571Y-59880952D01*
X146580952Y-59928571D01*
X146533333Y-60023809D01*
X146533333Y-60261904D01*
X146580952Y-60357142D01*
X146628571Y-60404761D01*
X146723809Y-60452380D01*
X146961904Y-60452380D01*
X147057142Y-60404761D01*
X147104761Y-60357142D01*
%TO.C,R1*%
X126416666Y-76952380D02*
X126750000Y-76476190D01*
X126988095Y-76952380D02*
X126988095Y-75952380D01*
X126607142Y-75952380D01*
X126511904Y-76000000D01*
X126464285Y-76047619D01*
X126416666Y-76142857D01*
X126416666Y-76285714D01*
X126464285Y-76380952D01*
X126511904Y-76428571D01*
X126607142Y-76476190D01*
X126988095Y-76476190D01*
X125464285Y-76952380D02*
X126035714Y-76952380D01*
X125750000Y-76952380D02*
X125750000Y-75952380D01*
X125845238Y-76095238D01*
X125940476Y-76190476D01*
X126035714Y-76238095D01*
%TO.C,R4*%
X114166666Y-77452380D02*
X114500000Y-76976190D01*
X114738095Y-77452380D02*
X114738095Y-76452380D01*
X114357142Y-76452380D01*
X114261904Y-76500000D01*
X114214285Y-76547619D01*
X114166666Y-76642857D01*
X114166666Y-76785714D01*
X114214285Y-76880952D01*
X114261904Y-76928571D01*
X114357142Y-76976190D01*
X114738095Y-76976190D01*
X113309523Y-76785714D02*
X113309523Y-77452380D01*
X113547619Y-76404761D02*
X113785714Y-77119047D01*
X113166666Y-77119047D01*
%TO.C,R5*%
X114266666Y-75252380D02*
X114600000Y-74776190D01*
X114838095Y-75252380D02*
X114838095Y-74252380D01*
X114457142Y-74252380D01*
X114361904Y-74300000D01*
X114314285Y-74347619D01*
X114266666Y-74442857D01*
X114266666Y-74585714D01*
X114314285Y-74680952D01*
X114361904Y-74728571D01*
X114457142Y-74776190D01*
X114838095Y-74776190D01*
X113361904Y-74252380D02*
X113838095Y-74252380D01*
X113885714Y-74728571D01*
X113838095Y-74680952D01*
X113742857Y-74633333D01*
X113504761Y-74633333D01*
X113409523Y-74680952D01*
X113361904Y-74728571D01*
X113314285Y-74823809D01*
X113314285Y-75061904D01*
X113361904Y-75157142D01*
X113409523Y-75204761D01*
X113504761Y-75252380D01*
X113742857Y-75252380D01*
X113838095Y-75204761D01*
X113885714Y-75157142D01*
%TO.C,R6*%
X114266666Y-72852380D02*
X114600000Y-72376190D01*
X114838095Y-72852380D02*
X114838095Y-71852380D01*
X114457142Y-71852380D01*
X114361904Y-71900000D01*
X114314285Y-71947619D01*
X114266666Y-72042857D01*
X114266666Y-72185714D01*
X114314285Y-72280952D01*
X114361904Y-72328571D01*
X114457142Y-72376190D01*
X114838095Y-72376190D01*
X113409523Y-71852380D02*
X113600000Y-71852380D01*
X113695238Y-71900000D01*
X113742857Y-71947619D01*
X113838095Y-72090476D01*
X113885714Y-72280952D01*
X113885714Y-72661904D01*
X113838095Y-72757142D01*
X113790476Y-72804761D01*
X113695238Y-72852380D01*
X113504761Y-72852380D01*
X113409523Y-72804761D01*
X113361904Y-72757142D01*
X113314285Y-72661904D01*
X113314285Y-72423809D01*
X113361904Y-72328571D01*
X113409523Y-72280952D01*
X113504761Y-72233333D01*
X113695238Y-72233333D01*
X113790476Y-72280952D01*
X113838095Y-72328571D01*
X113885714Y-72423809D01*
%TO.C,U2*%
X137861904Y-93852380D02*
X137861904Y-94661904D01*
X137814285Y-94757142D01*
X137766666Y-94804761D01*
X137671428Y-94852380D01*
X137480952Y-94852380D01*
X137385714Y-94804761D01*
X137338095Y-94757142D01*
X137290476Y-94661904D01*
X137290476Y-93852380D01*
X136861904Y-93947619D02*
X136814285Y-93900000D01*
X136719047Y-93852380D01*
X136480952Y-93852380D01*
X136385714Y-93900000D01*
X136338095Y-93947619D01*
X136290476Y-94042857D01*
X136290476Y-94138095D01*
X136338095Y-94280952D01*
X136909523Y-94852380D01*
X136290476Y-94852380D01*
%TO.C,U5*%
X139581904Y-62710380D02*
X139581904Y-63519904D01*
X139534285Y-63615142D01*
X139486666Y-63662761D01*
X139391428Y-63710380D01*
X139200952Y-63710380D01*
X139105714Y-63662761D01*
X139058095Y-63615142D01*
X139010476Y-63519904D01*
X139010476Y-62710380D01*
X138058095Y-62710380D02*
X138534285Y-62710380D01*
X138581904Y-63186571D01*
X138534285Y-63138952D01*
X138439047Y-63091333D01*
X138200952Y-63091333D01*
X138105714Y-63138952D01*
X138058095Y-63186571D01*
X138010476Y-63281809D01*
X138010476Y-63519904D01*
X138058095Y-63615142D01*
X138105714Y-63662761D01*
X138200952Y-63710380D01*
X138439047Y-63710380D01*
X138534285Y-63662761D01*
X138581904Y-63615142D01*
%TO.C,Y1*%
X123476190Y-72476190D02*
X123476190Y-72952380D01*
X123809523Y-71952380D02*
X123476190Y-72476190D01*
X123142857Y-71952380D01*
X122285714Y-72952380D02*
X122857142Y-72952380D01*
X122571428Y-72952380D02*
X122571428Y-71952380D01*
X122666666Y-72095238D01*
X122761904Y-72190476D01*
X122857142Y-72238095D01*
%TO.C,D7*%
X146616095Y-87052380D02*
X146616095Y-86052380D01*
X146378000Y-86052380D01*
X146235142Y-86100000D01*
X146139904Y-86195238D01*
X146092285Y-86290476D01*
X146044666Y-86480952D01*
X146044666Y-86623809D01*
X146092285Y-86814285D01*
X146139904Y-86909523D01*
X146235142Y-87004761D01*
X146378000Y-87052380D01*
X146616095Y-87052380D01*
X145711333Y-86052380D02*
X145044666Y-86052380D01*
X145473238Y-87052380D01*
%TO.C,D8*%
X139116095Y-87052380D02*
X139116095Y-86052380D01*
X138878000Y-86052380D01*
X138735142Y-86100000D01*
X138639904Y-86195238D01*
X138592285Y-86290476D01*
X138544666Y-86480952D01*
X138544666Y-86623809D01*
X138592285Y-86814285D01*
X138639904Y-86909523D01*
X138735142Y-87004761D01*
X138878000Y-87052380D01*
X139116095Y-87052380D01*
X137973238Y-86480952D02*
X138068476Y-86433333D01*
X138116095Y-86385714D01*
X138163714Y-86290476D01*
X138163714Y-86242857D01*
X138116095Y-86147619D01*
X138068476Y-86100000D01*
X137973238Y-86052380D01*
X137782761Y-86052380D01*
X137687523Y-86100000D01*
X137639904Y-86147619D01*
X137592285Y-86242857D01*
X137592285Y-86290476D01*
X137639904Y-86385714D01*
X137687523Y-86433333D01*
X137782761Y-86480952D01*
X137973238Y-86480952D01*
X138068476Y-86528571D01*
X138116095Y-86576190D01*
X138163714Y-86671428D01*
X138163714Y-86861904D01*
X138116095Y-86957142D01*
X138068476Y-87004761D01*
X137973238Y-87052380D01*
X137782761Y-87052380D01*
X137687523Y-87004761D01*
X137639904Y-86957142D01*
X137592285Y-86861904D01*
X137592285Y-86671428D01*
X137639904Y-86576190D01*
X137687523Y-86528571D01*
X137782761Y-86480952D01*
%TO.C,C15*%
X111842857Y-106857142D02*
X111890476Y-106904761D01*
X112033333Y-106952380D01*
X112128571Y-106952380D01*
X112271428Y-106904761D01*
X112366666Y-106809523D01*
X112414285Y-106714285D01*
X112461904Y-106523809D01*
X112461904Y-106380952D01*
X112414285Y-106190476D01*
X112366666Y-106095238D01*
X112271428Y-106000000D01*
X112128571Y-105952380D01*
X112033333Y-105952380D01*
X111890476Y-106000000D01*
X111842857Y-106047619D01*
X110890476Y-106952380D02*
X111461904Y-106952380D01*
X111176190Y-106952380D02*
X111176190Y-105952380D01*
X111271428Y-106095238D01*
X111366666Y-106190476D01*
X111461904Y-106238095D01*
X109985714Y-105952380D02*
X110461904Y-105952380D01*
X110509523Y-106428571D01*
X110461904Y-106380952D01*
X110366666Y-106333333D01*
X110128571Y-106333333D01*
X110033333Y-106380952D01*
X109985714Y-106428571D01*
X109938095Y-106523809D01*
X109938095Y-106761904D01*
X109985714Y-106857142D01*
X110033333Y-106904761D01*
X110128571Y-106952380D01*
X110366666Y-106952380D01*
X110461904Y-106904761D01*
X110509523Y-106857142D01*
%TO.C,C17*%
X119842857Y-106857142D02*
X119890476Y-106904761D01*
X120033333Y-106952380D01*
X120128571Y-106952380D01*
X120271428Y-106904761D01*
X120366666Y-106809523D01*
X120414285Y-106714285D01*
X120461904Y-106523809D01*
X120461904Y-106380952D01*
X120414285Y-106190476D01*
X120366666Y-106095238D01*
X120271428Y-106000000D01*
X120128571Y-105952380D01*
X120033333Y-105952380D01*
X119890476Y-106000000D01*
X119842857Y-106047619D01*
X118890476Y-106952380D02*
X119461904Y-106952380D01*
X119176190Y-106952380D02*
X119176190Y-105952380D01*
X119271428Y-106095238D01*
X119366666Y-106190476D01*
X119461904Y-106238095D01*
X118557142Y-105952380D02*
X117890476Y-105952380D01*
X118319047Y-106952380D01*
%TO.C,C18*%
X127642857Y-106857142D02*
X127690476Y-106904761D01*
X127833333Y-106952380D01*
X127928571Y-106952380D01*
X128071428Y-106904761D01*
X128166666Y-106809523D01*
X128214285Y-106714285D01*
X128261904Y-106523809D01*
X128261904Y-106380952D01*
X128214285Y-106190476D01*
X128166666Y-106095238D01*
X128071428Y-106000000D01*
X127928571Y-105952380D01*
X127833333Y-105952380D01*
X127690476Y-106000000D01*
X127642857Y-106047619D01*
X126690476Y-106952380D02*
X127261904Y-106952380D01*
X126976190Y-106952380D02*
X126976190Y-105952380D01*
X127071428Y-106095238D01*
X127166666Y-106190476D01*
X127261904Y-106238095D01*
X126119047Y-106380952D02*
X126214285Y-106333333D01*
X126261904Y-106285714D01*
X126309523Y-106190476D01*
X126309523Y-106142857D01*
X126261904Y-106047619D01*
X126214285Y-106000000D01*
X126119047Y-105952380D01*
X125928571Y-105952380D01*
X125833333Y-106000000D01*
X125785714Y-106047619D01*
X125738095Y-106142857D01*
X125738095Y-106190476D01*
X125785714Y-106285714D01*
X125833333Y-106333333D01*
X125928571Y-106380952D01*
X126119047Y-106380952D01*
X126214285Y-106428571D01*
X126261904Y-106476190D01*
X126309523Y-106571428D01*
X126309523Y-106761904D01*
X126261904Y-106857142D01*
X126214285Y-106904761D01*
X126119047Y-106952380D01*
X125928571Y-106952380D01*
X125833333Y-106904761D01*
X125785714Y-106857142D01*
X125738095Y-106761904D01*
X125738095Y-106571428D01*
X125785714Y-106476190D01*
X125833333Y-106428571D01*
X125928571Y-106380952D01*
%TO.C,C20*%
X135642857Y-106857142D02*
X135690476Y-106904761D01*
X135833333Y-106952380D01*
X135928571Y-106952380D01*
X136071428Y-106904761D01*
X136166666Y-106809523D01*
X136214285Y-106714285D01*
X136261904Y-106523809D01*
X136261904Y-106380952D01*
X136214285Y-106190476D01*
X136166666Y-106095238D01*
X136071428Y-106000000D01*
X135928571Y-105952380D01*
X135833333Y-105952380D01*
X135690476Y-106000000D01*
X135642857Y-106047619D01*
X135261904Y-106047619D02*
X135214285Y-106000000D01*
X135119047Y-105952380D01*
X134880952Y-105952380D01*
X134785714Y-106000000D01*
X134738095Y-106047619D01*
X134690476Y-106142857D01*
X134690476Y-106238095D01*
X134738095Y-106380952D01*
X135309523Y-106952380D01*
X134690476Y-106952380D01*
X134071428Y-105952380D02*
X133976190Y-105952380D01*
X133880952Y-106000000D01*
X133833333Y-106047619D01*
X133785714Y-106142857D01*
X133738095Y-106333333D01*
X133738095Y-106571428D01*
X133785714Y-106761904D01*
X133833333Y-106857142D01*
X133880952Y-106904761D01*
X133976190Y-106952380D01*
X134071428Y-106952380D01*
X134166666Y-106904761D01*
X134214285Y-106857142D01*
X134261904Y-106761904D01*
X134309523Y-106571428D01*
X134309523Y-106333333D01*
X134261904Y-106142857D01*
X134214285Y-106047619D01*
X134166666Y-106000000D01*
X134071428Y-105952380D01*
%TO.C,D9*%
X139238095Y-82352380D02*
X139238095Y-81352380D01*
X139000000Y-81352380D01*
X138857142Y-81400000D01*
X138761904Y-81495238D01*
X138714285Y-81590476D01*
X138666666Y-81780952D01*
X138666666Y-81923809D01*
X138714285Y-82114285D01*
X138761904Y-82209523D01*
X138857142Y-82304761D01*
X139000000Y-82352380D01*
X139238095Y-82352380D01*
X138190476Y-82352380D02*
X138000000Y-82352380D01*
X137904761Y-82304761D01*
X137857142Y-82257142D01*
X137761904Y-82114285D01*
X137714285Y-81923809D01*
X137714285Y-81542857D01*
X137761904Y-81447619D01*
X137809523Y-81400000D01*
X137904761Y-81352380D01*
X138095238Y-81352380D01*
X138190476Y-81400000D01*
X138238095Y-81447619D01*
X138285714Y-81542857D01*
X138285714Y-81780952D01*
X138238095Y-81876190D01*
X138190476Y-81923809D01*
X138095238Y-81971428D01*
X137904761Y-81971428D01*
X137809523Y-81923809D01*
X137761904Y-81876190D01*
X137714285Y-81780952D01*
%TD*%
M02*
